<?xml version="1.0" encoding="UTF-8" standalone="no"?><svg xmlns="http://www.w3.org/2000/svg" xmlns:xlink="http://www.w3.org/1999/xlink" contentStyleType="text/css" height="858px" preserveAspectRatio="none" style="width:757px;height:858px;background:#FFFFFF;" version="1.1" viewBox="0 0 757 858" width="757px" zoomAndPan="magnify"><defs/><g><!--MD5=[880da616b74b77b7c5b8e4a17df3055f]
class startMastermind--><g id="elem_startMastermind"><rect fill="#F1F1F1" height="48" id="startMastermind" rx="2.5" ry="2.5" style="stroke:#181818;stroke-width:0.5;" width="152" x="423.5" y="7"/><ellipse cx="438.5" cy="23" fill="#ADD1B2" rx="11" ry="11" style="stroke:#181818;stroke-width:1.0;"/><path d="M440.8438,18.6719 C439.9063,18.2344 439.3125,18.0938 438.4375,18.0938 C435.8125,18.0938 433.8125,20.1719 433.8125,22.8906 L433.8125,24.0156 C433.8125,26.5938 435.9219,28.4844 438.8125,28.4844 C440.0313,28.4844 441.1875,28.1875 441.9375,27.6406 C442.5156,27.2344 442.8438,26.7813 442.8438,26.3906 C442.8438,25.9375 442.4531,25.5469 441.9844,25.5469 C441.7656,25.5469 441.5625,25.625 441.375,25.8125 C440.9219,26.2969 440.9219,26.2969 440.7344,26.3906 C440.3125,26.6563 439.625,26.7813 438.8594,26.7813 C436.8125,26.7813 435.5156,25.6875 435.5156,23.9844 L435.5156,22.8906 C435.5156,21.1094 436.7656,19.7969 438.5,19.7969 C439.0781,19.7969 439.6875,19.9531 440.1563,20.2031 C440.6406,20.4844 440.8125,20.7031 440.9063,21.1094 C440.9688,21.5156 441,21.6406 441.1406,21.7656 C441.2813,21.9063 441.5156,22.0156 441.7344,22.0156 C442,22.0156 442.2656,21.875 442.4375,21.6563 C442.5469,21.5 442.5781,21.3125 442.5781,20.8906 L442.5781,19.4688 C442.5781,19.0313 442.5625,18.9063 442.4688,18.75 C442.3125,18.4844 442.0313,18.3438 441.7344,18.3438 C441.4375,18.3438 441.2344,18.4375 441.0156,18.75 L440.8438,18.6719 Z " fill="#000000"/><text fill="#000000" font-family="sans-serif" font-size="14" lengthAdjust="spacing" textLength="120" x="452.5" y="27.8467">startMastermind</text><line style="stroke:#181818;stroke-width:0.5;" x1="424.5" x2="574.5" y1="39" y2="39"/><line style="stroke:#181818;stroke-width:0.5;" x1="424.5" x2="574.5" y1="47" y2="47"/></g><!--MD5=[7283a9eed84464550b6d5ebf39c68b05]
class Mastermind--><g id="elem_Mastermind"><rect fill="#F1F1F1" height="194.6719" id="Mastermind" rx="2.5" ry="2.5" style="stroke:#181818;stroke-width:0.5;" width="175" x="412" y="115"/><ellipse cx="453.1" cy="131" fill="#ADD1B2" rx="11" ry="11" style="stroke:#181818;stroke-width:1.0;"/><path d="M455.4438,126.6719 C454.5063,126.2344 453.9125,126.0938 453.0375,126.0938 C450.4125,126.0938 448.4125,128.1719 448.4125,130.8906 L448.4125,132.0156 C448.4125,134.5938 450.5219,136.4844 453.4125,136.4844 C454.6313,136.4844 455.7875,136.1875 456.5375,135.6406 C457.1156,135.2344 457.4438,134.7813 457.4438,134.3906 C457.4438,133.9375 457.0531,133.5469 456.5844,133.5469 C456.3656,133.5469 456.1625,133.625 455.975,133.8125 C455.5219,134.2969 455.5219,134.2969 455.3344,134.3906 C454.9125,134.6563 454.225,134.7813 453.4594,134.7813 C451.4125,134.7813 450.1156,133.6875 450.1156,131.9844 L450.1156,130.8906 C450.1156,129.1094 451.3656,127.7969 453.1,127.7969 C453.6781,127.7969 454.2875,127.9531 454.7563,128.2031 C455.2406,128.4844 455.4125,128.7031 455.5063,129.1094 C455.5688,129.5156 455.6,129.6406 455.7406,129.7656 C455.8813,129.9063 456.1156,130.0156 456.3344,130.0156 C456.6,130.0156 456.8656,129.875 457.0375,129.6563 C457.1469,129.5 457.1781,129.3125 457.1781,128.8906 L457.1781,127.4688 C457.1781,127.0313 457.1625,126.9063 457.0688,126.75 C456.9125,126.4844 456.6313,126.3438 456.3344,126.3438 C456.0375,126.3438 455.8344,126.4375 455.6156,126.75 L455.4438,126.6719 Z " fill="#000000"/><text fill="#000000" font-family="sans-serif" font-size="14" lengthAdjust="spacing" textLength="85" x="472.9" y="135.8467">Mastermind</text><line style="stroke:#181818;stroke-width:0.5;" x1="413" x2="586" y1="147" y2="147"/><rect fill="none" height="6" style="stroke:#C82930;stroke-width:1.0;" width="6" x="420" y="157.6484"/><text fill="#000000" font-family="sans-serif" font-size="14" lengthAdjust="spacing" textLength="93" x="432" y="163.9951">Object game</text><rect fill="none" height="6" style="stroke:#C82930;stroke-width:1.0;" width="6" x="420" y="173.9453"/><text fill="#000000" font-family="sans-serif" font-size="14" lengthAdjust="spacing" textLength="127" x="432" y="180.292">Object gameView</text><rect fill="none" height="6" style="stroke:#C82930;stroke-width:1.0;" width="6" x="420" y="190.2422"/><text fill="#000000" font-family="sans-serif" font-size="14" lengthAdjust="spacing" textLength="95" x="432" y="196.5889">Object board</text><line style="stroke:#181818;stroke-width:0.5;" x1="413" x2="586" y1="203.8906" y2="203.8906"/><text fill="#000000" font-family="sans-serif" font-size="14" lengthAdjust="spacing" textLength="40" x="418" y="220.8857">play()</text><text fill="#000000" font-family="sans-serif" font-size="14" lengthAdjust="spacing" textLength="88" x="418" y="237.1826">showBoard()</text><text fill="#000000" font-family="sans-serif" font-size="14" lengthAdjust="spacing" textLength="163" x="418" y="253.4795">proposeCombination()</text><text fill="#000000" font-family="sans-serif" font-size="14" lengthAdjust="spacing" textLength="126" x="418" y="269.7764">setCombination()</text><text fill="#000000" font-family="sans-serif" font-size="14" lengthAdjust="spacing" textLength="91" x="418" y="286.0732">showResult()</text><text fill="#000000" font-family="sans-serif" font-size="14" lengthAdjust="spacing" textLength="80" x="418" y="302.3701">playAgain()</text></g><!--MD5=[5d3822d29342fbd355d1b65ea3562ec9]
class GameView--><g id="elem_GameView"><rect fill="#F1F1F1" height="162.0781" id="GameView" rx="2.5" ry="2.5" style="stroke:#181818;stroke-width:0.5;" width="233" x="517" y="427"/><ellipse cx="591.25" cy="443" fill="#ADD1B2" rx="11" ry="11" style="stroke:#181818;stroke-width:1.0;"/><path d="M593.5938,438.6719 C592.6563,438.2344 592.0625,438.0938 591.1875,438.0938 C588.5625,438.0938 586.5625,440.1719 586.5625,442.8906 L586.5625,444.0156 C586.5625,446.5938 588.6719,448.4844 591.5625,448.4844 C592.7813,448.4844 593.9375,448.1875 594.6875,447.6406 C595.2656,447.2344 595.5938,446.7813 595.5938,446.3906 C595.5938,445.9375 595.2031,445.5469 594.7344,445.5469 C594.5156,445.5469 594.3125,445.625 594.125,445.8125 C593.6719,446.2969 593.6719,446.2969 593.4844,446.3906 C593.0625,446.6563 592.375,446.7813 591.6094,446.7813 C589.5625,446.7813 588.2656,445.6875 588.2656,443.9844 L588.2656,442.8906 C588.2656,441.1094 589.5156,439.7969 591.25,439.7969 C591.8281,439.7969 592.4375,439.9531 592.9063,440.2031 C593.3906,440.4844 593.5625,440.7031 593.6563,441.1094 C593.7188,441.5156 593.75,441.6406 593.8906,441.7656 C594.0313,441.9063 594.2656,442.0156 594.4844,442.0156 C594.75,442.0156 595.0156,441.875 595.1875,441.6563 C595.2969,441.5 595.3281,441.3125 595.3281,440.8906 L595.3281,439.4688 C595.3281,439.0313 595.3125,438.9063 595.2188,438.75 C595.0625,438.4844 594.7813,438.3438 594.4844,438.3438 C594.1875,438.3438 593.9844,438.4375 593.7656,438.75 L593.5938,438.6719 Z " fill="#000000"/><text fill="#000000" font-family="sans-serif" font-size="14" lengthAdjust="spacing" textLength="76" x="611.75" y="447.8467">GameView</text><line style="stroke:#181818;stroke-width:0.5;" x1="518" x2="749" y1="459" y2="459"/><rect fill="none" height="6" style="stroke:#C82930;stroke-width:1.0;" width="6" x="525" y="469.6484"/><text fill="#000000" font-family="sans-serif" font-size="14" lengthAdjust="spacing" textLength="93" x="537" y="475.9951">Object game</text><line style="stroke:#181818;stroke-width:0.5;" x1="518" x2="749" y1="483.2969" y2="483.2969"/><ellipse cx="528" cy="496.9453" fill="#84BE84" rx="3" ry="3" style="stroke:#038048;stroke-width:1.0;"/><text fill="#000000" font-family="sans-serif" font-size="14" lengthAdjust="spacing" textLength="79" x="537" y="500.292">showTitle()</text><ellipse cx="528" cy="513.2422" fill="#84BE84" rx="3" ry="3" style="stroke:#038048;stroke-width:1.0;"/><text fill="#000000" font-family="sans-serif" font-size="14" lengthAdjust="spacing" textLength="207" x="537" y="516.5889">showProposedCombination()</text><ellipse cx="528" cy="529.5391" fill="#84BE84" rx="3" ry="3" style="stroke:#038048;stroke-width:1.0;"/><text fill="#000000" font-family="sans-serif" font-size="14" lengthAdjust="spacing" textLength="127" x="537" y="532.8857">askCombination()</text><ellipse cx="528" cy="545.8359" fill="#84BE84" rx="3" ry="3" style="stroke:#038048;stroke-width:1.0;"/><text fill="#000000" font-family="sans-serif" font-size="14" lengthAdjust="spacing" textLength="182" x="537" y="549.1826">showCombinationErrors()</text><ellipse cx="528" cy="562.1328" fill="#84BE84" rx="3" ry="3" style="stroke:#038048;stroke-width:1.0;"/><text fill="#000000" font-family="sans-serif" font-size="14" lengthAdjust="spacing" textLength="91" x="537" y="565.4795">showResult()</text><ellipse cx="528" cy="578.4297" fill="#84BE84" rx="3" ry="3" style="stroke:#038048;stroke-width:1.0;"/><text fill="#000000" font-family="sans-serif" font-size="14" lengthAdjust="spacing" textLength="103" x="537" y="581.7764">askPlayAgain()</text></g><!--MD5=[b6dcce5e5ef3c84b0b048d11301373dd]
class Game--><g id="elem_Game"><rect fill="#F1F1F1" height="276.1563" id="Game" rx="2.5" ry="2.5" style="stroke:#181818;stroke-width:0.5;" width="232" x="249.5" y="370"/><ellipse cx="340.25" cy="386" fill="#ADD1B2" rx="11" ry="11" style="stroke:#181818;stroke-width:1.0;"/><path d="M342.5938,381.6719 C341.6563,381.2344 341.0625,381.0938 340.1875,381.0938 C337.5625,381.0938 335.5625,383.1719 335.5625,385.8906 L335.5625,387.0156 C335.5625,389.5938 337.6719,391.4844 340.5625,391.4844 C341.7813,391.4844 342.9375,391.1875 343.6875,390.6406 C344.2656,390.2344 344.5938,389.7813 344.5938,389.3906 C344.5938,388.9375 344.2031,388.5469 343.7344,388.5469 C343.5156,388.5469 343.3125,388.625 343.125,388.8125 C342.6719,389.2969 342.6719,389.2969 342.4844,389.3906 C342.0625,389.6563 341.375,389.7813 340.6094,389.7813 C338.5625,389.7813 337.2656,388.6875 337.2656,386.9844 L337.2656,385.8906 C337.2656,384.1094 338.5156,382.7969 340.25,382.7969 C340.8281,382.7969 341.4375,382.9531 341.9063,383.2031 C342.3906,383.4844 342.5625,383.7031 342.6563,384.1094 C342.7188,384.5156 342.75,384.6406 342.8906,384.7656 C343.0313,384.9063 343.2656,385.0156 343.4844,385.0156 C343.75,385.0156 344.0156,384.875 344.1875,384.6563 C344.2969,384.5 344.3281,384.3125 344.3281,383.8906 L344.3281,382.4688 C344.3281,382.0313 344.3125,381.9063 344.2188,381.75 C344.0625,381.4844 343.7813,381.3438 343.4844,381.3438 C343.1875,381.3438 342.9844,381.4375 342.7656,381.75 L342.5938,381.6719 Z " fill="#000000"/><text fill="#000000" font-family="sans-serif" font-size="14" lengthAdjust="spacing" textLength="42" x="360.75" y="390.8467">Game</text><line style="stroke:#181818;stroke-width:0.5;" x1="250.5" x2="480.5" y1="402" y2="402"/><rect fill="none" height="6" style="stroke:#C82930;stroke-width:1.0;" width="6" x="257.5" y="412.6484"/><text fill="#000000" font-family="sans-serif" font-size="14" lengthAdjust="spacing" textLength="206" x="269.5" y="418.9951">Array SECRET_COMBINATION</text><rect fill="none" height="6" style="stroke:#C82930;stroke-width:1.0;" width="6" x="257.5" y="428.9453"/><text fill="#000000" font-family="sans-serif" font-size="14" lengthAdjust="spacing" textLength="155" x="269.5" y="435.292">Integer MAX_COLORS</text><rect fill="none" height="6" style="stroke:#C82930;stroke-width:1.0;" width="6" x="257.5" y="445.2422"/><text fill="#000000" font-family="sans-serif" font-size="14" lengthAdjust="spacing" textLength="157" x="269.5" y="451.5889">String VALID_COLORS</text><ellipse cx="260.5" cy="464.5391" fill="none" rx="3" ry="3" style="stroke:#038048;stroke-width:1.0;"/><text fill="#000000" font-family="sans-serif" font-size="14" lengthAdjust="spacing" textLength="126" x="269.5" y="467.8857">String MESSAGES</text><ellipse cx="260.5" cy="480.8359" fill="none" rx="3" ry="3" style="stroke:#038048;stroke-width:1.0;"/><text fill="#000000" font-family="sans-serif" font-size="14" lengthAdjust="spacing" textLength="84" x="269.5" y="484.1826">Array board</text><line style="stroke:#181818;stroke-width:0.5;" x1="250.5" x2="480.5" y1="491.4844" y2="491.4844"/><ellipse cx="260.5" cy="505.1328" fill="#84BE84" rx="3" ry="3" style="stroke:#038048;stroke-width:1.0;"/><text fill="#000000" font-family="sans-serif" font-size="14" lengthAdjust="spacing" textLength="108" x="269.5" y="508.4795">getMaxColors()</text><ellipse cx="260.5" cy="521.4297" fill="#84BE84" rx="3" ry="3" style="stroke:#038048;stroke-width:1.0;"/><text fill="#000000" font-family="sans-serif" font-size="14" lengthAdjust="spacing" textLength="115" x="269.5" y="524.7764">getValidColors()</text><ellipse cx="260.5" cy="537.7266" fill="#84BE84" rx="3" ry="3" style="stroke:#038048;stroke-width:1.0;"/><text fill="#000000" font-family="sans-serif" font-size="14" lengthAdjust="spacing" textLength="176" x="269.5" y="541.0732">getSecretCombination()</text><ellipse cx="260.5" cy="554.0234" fill="#84BE84" rx="3" ry="3" style="stroke:#038048;stroke-width:1.0;"/><text fill="#000000" font-family="sans-serif" font-size="14" lengthAdjust="spacing" textLength="81" x="269.5" y="557.3701">getBlacks()</text><ellipse cx="260.5" cy="570.3203" fill="#84BE84" rx="3" ry="3" style="stroke:#038048;stroke-width:1.0;"/><text fill="#000000" font-family="sans-serif" font-size="14" lengthAdjust="spacing" textLength="85" x="269.5" y="573.667">getWhites()</text><ellipse cx="260.5" cy="586.6172" fill="#84BE84" rx="3" ry="3" style="stroke:#038048;stroke-width:1.0;"/><text fill="#000000" font-family="sans-serif" font-size="14" lengthAdjust="spacing" textLength="149" x="269.5" y="589.9639">isValidCombination()</text><ellipse cx="260.5" cy="602.9141" fill="#84BE84" rx="3" ry="3" style="stroke:#038048;stroke-width:1.0;"/><text fill="#000000" font-family="sans-serif" font-size="14" lengthAdjust="spacing" textLength="171" x="269.5" y="606.2607">getCombinationErrors()</text><ellipse cx="260.5" cy="619.2109" fill="#84BE84" rx="3" ry="3" style="stroke:#038048;stroke-width:1.0;"/><text fill="#000000" font-family="sans-serif" font-size="14" lengthAdjust="spacing" textLength="72" x="269.5" y="622.5576">isWinner()</text><ellipse cx="260.5" cy="635.5078" fill="#84BE84" rx="3" ry="3" style="stroke:#038048;stroke-width:1.0;"/><text fill="#000000" font-family="sans-serif" font-size="14" lengthAdjust="spacing" textLength="97" x="269.5" y="638.8545">isGameOver()</text></g><!--MD5=[25452c7211eda5987258184f003246f1]
class ValidateCombination--><g id="elem_ValidateCombination"><rect fill="#F1F1F1" height="145.7813" id="ValidateCombination" rx="2.5" ry="2.5" style="stroke:#181818;stroke-width:0.5;" width="184" x="273.5" y="706"/><ellipse cx="288.5" cy="722" fill="#ADD1B2" rx="11" ry="11" style="stroke:#181818;stroke-width:1.0;"/><path d="M290.8438,717.6719 C289.9063,717.2344 289.3125,717.0938 288.4375,717.0938 C285.8125,717.0938 283.8125,719.1719 283.8125,721.8906 L283.8125,723.0156 C283.8125,725.5938 285.9219,727.4844 288.8125,727.4844 C290.0313,727.4844 291.1875,727.1875 291.9375,726.6406 C292.5156,726.2344 292.8438,725.7813 292.8438,725.3906 C292.8438,724.9375 292.4531,724.5469 291.9844,724.5469 C291.7656,724.5469 291.5625,724.625 291.375,724.8125 C290.9219,725.2969 290.9219,725.2969 290.7344,725.3906 C290.3125,725.6563 289.625,725.7813 288.8594,725.7813 C286.8125,725.7813 285.5156,724.6875 285.5156,722.9844 L285.5156,721.8906 C285.5156,720.1094 286.7656,718.7969 288.5,718.7969 C289.0781,718.7969 289.6875,718.9531 290.1563,719.2031 C290.6406,719.4844 290.8125,719.7031 290.9063,720.1094 C290.9688,720.5156 291,720.6406 291.1406,720.7656 C291.2813,720.9063 291.5156,721.0156 291.7344,721.0156 C292,721.0156 292.2656,720.875 292.4375,720.6563 C292.5469,720.5 292.5781,720.3125 292.5781,719.8906 L292.5781,718.4688 C292.5781,718.0313 292.5625,717.9063 292.4688,717.75 C292.3125,717.4844 292.0313,717.3438 291.7344,717.3438 C291.4375,717.3438 291.2344,717.4375 291.0156,717.75 L290.8438,717.6719 Z " fill="#000000"/><text fill="#000000" font-family="sans-serif" font-size="14" lengthAdjust="spacing" textLength="152" x="302.5" y="726.8467">ValidateCombination</text><line style="stroke:#181818;stroke-width:0.5;" x1="274.5" x2="456.5" y1="738" y2="738"/><rect fill="none" height="6" style="stroke:#C82930;stroke-width:1.0;" width="6" x="281.5" y="748.6484"/><text fill="#000000" font-family="sans-serif" font-size="14" lengthAdjust="spacing" textLength="155" x="293.5" y="754.9951">Integer MAX_COLORS</text><rect fill="none" height="6" style="stroke:#C82930;stroke-width:1.0;" width="6" x="281.5" y="764.9453"/><text fill="#000000" font-family="sans-serif" font-size="14" lengthAdjust="spacing" textLength="157" x="293.5" y="771.292">String VALID_COLORS</text><line style="stroke:#181818;stroke-width:0.5;" x1="274.5" x2="456.5" y1="778.5938" y2="778.5938"/><ellipse cx="284.5" cy="792.2422" fill="#84BE84" rx="3" ry="3" style="stroke:#038048;stroke-width:1.0;"/><text fill="#000000" font-family="sans-serif" font-size="14" lengthAdjust="spacing" textLength="149" x="293.5" y="795.5889">isValidCombination()</text><ellipse cx="284.5" cy="808.5391" fill="#84BE84" rx="3" ry="3" style="stroke:#038048;stroke-width:1.0;"/><text fill="#000000" font-family="sans-serif" font-size="14" lengthAdjust="spacing" textLength="107" x="293.5" y="811.8857">isValidLength()</text><ellipse cx="284.5" cy="824.8359" fill="#84BE84" rx="3" ry="3" style="stroke:#038048;stroke-width:1.0;"/><text fill="#000000" font-family="sans-serif" font-size="14" lengthAdjust="spacing" textLength="101" x="293.5" y="828.1826">isValidColors()</text><ellipse cx="284.5" cy="841.1328" fill="#84BE84" rx="3" ry="3" style="stroke:#038048;stroke-width:1.0;"/><text fill="#000000" font-family="sans-serif" font-size="14" lengthAdjust="spacing" textLength="130" x="293.5" y="844.4795">isRepeatedColor()</text></g><!--MD5=[e370ee5c0c15ce04544d5f5a73174d72]
class SecretCombination--><g id="elem_SecretCombination"><rect fill="#F1F1F1" height="80.5938" id="SecretCombination" rx="2.5" ry="2.5" style="stroke:#181818;stroke-width:0.5;" width="207" x="7" y="467.5"/><ellipse cx="37.3" cy="483.5" fill="#ADD1B2" rx="11" ry="11" style="stroke:#181818;stroke-width:1.0;"/><path d="M39.6438,479.1719 C38.7063,478.7344 38.1125,478.5938 37.2375,478.5938 C34.6125,478.5938 32.6125,480.6719 32.6125,483.3906 L32.6125,484.5156 C32.6125,487.0938 34.7219,488.9844 37.6125,488.9844 C38.8313,488.9844 39.9875,488.6875 40.7375,488.1406 C41.3156,487.7344 41.6438,487.2813 41.6438,486.8906 C41.6438,486.4375 41.2531,486.0469 40.7844,486.0469 C40.5656,486.0469 40.3625,486.125 40.175,486.3125 C39.7219,486.7969 39.7219,486.7969 39.5344,486.8906 C39.1125,487.1563 38.425,487.2813 37.6594,487.2813 C35.6125,487.2813 34.3156,486.1875 34.3156,484.4844 L34.3156,483.3906 C34.3156,481.6094 35.5656,480.2969 37.3,480.2969 C37.8781,480.2969 38.4875,480.4531 38.9563,480.7031 C39.4406,480.9844 39.6125,481.2031 39.7063,481.6094 C39.7688,482.0156 39.8,482.1406 39.9406,482.2656 C40.0813,482.4063 40.3156,482.5156 40.5344,482.5156 C40.8,482.5156 41.0656,482.375 41.2375,482.1563 C41.3469,482 41.3781,481.8125 41.3781,481.3906 L41.3781,479.9688 C41.3781,479.5313 41.3625,479.4063 41.2688,479.25 C41.1125,478.9844 40.8313,478.8438 40.5344,478.8438 C40.2375,478.8438 40.0344,478.9375 39.8156,479.25 L39.6438,479.1719 Z " fill="#000000"/><text fill="#000000" font-family="sans-serif" font-size="14" lengthAdjust="spacing" textLength="141" x="54.7" y="488.3467">SecretCombination</text><line style="stroke:#181818;stroke-width:0.5;" x1="8" x2="213" y1="499.5" y2="499.5"/><rect fill="none" height="6" style="stroke:#C82930;stroke-width:1.0;" width="6" x="15" y="510.1484"/><text fill="#000000" font-family="sans-serif" font-size="14" lengthAdjust="spacing" textLength="181" x="27" y="516.4951">Array secretCombination</text><line style="stroke:#181818;stroke-width:0.5;" x1="8" x2="213" y1="523.7969" y2="523.7969"/><ellipse cx="18" cy="537.4453" fill="#84BE84" rx="3" ry="3" style="stroke:#038048;stroke-width:1.0;"/><text fill="#000000" font-family="sans-serif" font-size="14" lengthAdjust="spacing" textLength="176" x="27" y="540.792">getSecretCombination()</text></g><!--MD5=[3a48ee4297765fd0ccd9921ef3d801b2]
link startMastermind to Mastermind--><g id="link_startMastermind_Mastermind"><path codeLine="1" d="M499.5,55.099 C499.5,69.502 499.5,89.151 499.5,109.658 " fill="none" id="startMastermind-to-Mastermind" style="stroke:#181818;stroke-width:1.0;"/><polygon fill="#181818" points="499.5,114.888,503.5,105.888,499.5,109.888,495.5,105.888,499.5,114.888" style="stroke:#181818;stroke-width:1.0;"/></g><!--MD5=[830c7bd9c6aed4aed565e6adbed5db93]
link Mastermind to GameView--><g id="link_Mastermind_GameView"><path codeLine="2" d="M548.5465,320.9248 C548.5465,320.9248 577.938,385.302 591.351,414.681 " fill="none" id="Mastermind-GameView" style="stroke:#181818;stroke-width:1.0;"/><polygon fill="#181818" points="596.8,426.616,596.7012,416.7676,594.7236,422.0675,589.4237,420.0899,596.8,426.616" style="stroke:#181818;stroke-width:1.0;"/><line style="stroke:#181818;stroke-width:1.0;" x1="594.7236" x2="591.401" y1="422.0675" y2="414.7905"/><polygon fill="none" points="543.562,310.009,542.4157,317.1284,548.5465,320.9248,549.6929,313.8054,543.562,310.009" style="stroke:#181818;stroke-width:1.0;"/></g><!--MD5=[213c4a734ac0e7e97a7308e8138ed0fa]
link Mastermind to Game--><g id="link_Mastermind_Game"><path codeLine="3" d="M450.4535,320.9248 C450.4535,320.9248 439.087,345.823 433.624,357.789 " fill="none" id="Mastermind-Game" style="stroke:#181818;stroke-width:1.0;"/><polygon fill="#181818" points="428.162,369.751,435.5387,363.2253,430.2387,365.2027,428.2613,359.9026,428.162,369.751" style="stroke:#181818;stroke-width:1.0;"/><line style="stroke:#181818;stroke-width:1.0;" x1="430.2387" x2="433.5615" y1="365.2027" y2="357.925"/><polygon fill="#181818" points="455.438,310.009,449.3071,313.8054,450.4535,320.9248,456.5843,317.1284,455.438,310.009" style="stroke:#181818;stroke-width:1.0;"/></g><!--MD5=[2868424877c9568bf88c5121f1ae6218]
link Game to GameView--><g id="link_Game_GameView"><path codeLine="4" d="M493.703,508 C493.703,508 500.905,508 503.892,508 " fill="none" id="Game-GameView" style="stroke:#181818;stroke-width:1.0;"/><polygon fill="#181818" points="516.984,508,507.984,504,511.984,508,507.984,512,516.984,508" style="stroke:#181818;stroke-width:1.0;"/><line style="stroke:#181818;stroke-width:1.0;" x1="511.984" x2="503.984" y1="508" y2="508"/><polygon fill="none" points="481.703,508,487.703,512,493.703,508,487.703,504,481.703,508" style="stroke:#181818;stroke-width:1.0;"/></g><!--MD5=[286ee51fbf1d084702a37e6924157f64]
link Game to ValidateCombination--><g id="link_Game_ValidateCombination"><path codeLine="5" d="M365.5,658.258 C365.5,658.258 365.5,681.826 365.5,692.55 " fill="none" id="Game-ValidateCombination" style="stroke:#181818;stroke-width:1.0;"/><polygon fill="#181818" points="365.5,705.851,369.5,696.851,365.5,700.851,361.5,696.851,365.5,705.851" style="stroke:#181818;stroke-width:1.0;"/><line style="stroke:#181818;stroke-width:1.0;" x1="365.5" x2="365.5" y1="700.851" y2="692.851"/><polygon fill="none" points="365.5,646.258,361.5,652.258,365.5,658.258,369.5,652.258,365.5,646.258" style="stroke:#181818;stroke-width:1.0;"/></g><!--MD5=[af97763b9fa8f75784e40997cdb750ab]
link SecretCombination to Game--><g id="link_SecretCombination_Game"><path codeLine="6" d="M227.29,508 C230.268,508 237.284,508 237.284,508 " fill="none" id="SecretCombination-Game" style="stroke:#181818;stroke-width:1.0;"/><polygon fill="#181818" points="249.284,508,243.284,504,237.284,508,243.284,512,249.284,508" style="stroke:#181818;stroke-width:1.0;"/><polygon fill="#181818" points="214.094,508,223.094,512,219.094,508,223.094,504,214.094,508" style="stroke:#181818;stroke-width:1.0;"/><line style="stroke:#181818;stroke-width:1.0;" x1="219.094" x2="227.094" y1="508" y2="508"/></g><!--MD5=[aebd35673695bfd3140e77adff720cc9]
@startuml
startMastermind - -> Mastermind
Mastermind o- -> GameView
Mastermind *- -> Game
Game o-> GameView
Game o- -> ValidateCombination
SecretCombination <-* Game

Mastermind : -Object game
Mastermind : -Object gameView
Mastermind : -Object board
Mastermind : play()
Mastermind : showBoard()
Mastermind : proposeCombination()
Mastermind : setCombination()
Mastermind : showResult()
Mastermind : playAgain()

Game : -Array SECRET_COMBINATION
Game : -Integer MAX_COLORS
Game : -String VALID_COLORS
Game : +String MESSAGES
Game : +Array board
Game : +getMaxColors()
Game : +getValidColors()
Game : +getSecretCombination()
Game : +getBlacks()
Game : +getWhites()
Game : +isValidCombination()
Game : +getCombinationErrors()
Game : +isWinner()
Game : +isGameOver()

GameView : -Object game
GameView : +showTitle()
GameView : +showProposedCombination()
GameView : +askCombination()
GameView : +showCombinationErrors()
GameView : +showResult()
GameView : +askPlayAgain()

ValidateCombination : -Integer MAX_COLORS
ValidateCombination : -String VALID_COLORS
ValidateCombination : +isValidCombination()
ValidateCombination : +isValidLength()
ValidateCombination : +isValidColors()
ValidateCombination : +isRepeatedColor()

SecretCombination : -Array secretCombination
SecretCombination : +getSecretCombination()
@enduml

PlantUML version 1.2022.10beta1(Unknown compile time)
(GPL source distribution)
Java Runtime: Java(TM) SE Runtime Environment
JVM: Java HotSpot(TM) 64-Bit Server VM
Default Encoding: UTF-8
Language: en
Country: US
--></g></svg>