
<?xml version="1.0" encoding="us-ascii" standalone="no"?><svg xmlns="http://www.w3.org/2000/svg" xmlns:xlink="http://www.w3.org/1999/xlink" contentStyleType="text/css" height="386px" preserveAspectRatio="none" style="width:442px;height:386px;background:#FFFFFF;" version="1.1" viewBox="0 0 442 386" width="442px" zoomAndPan="magnify"><defs/><g><!--class Connect4--><g id="elem_Connect4"><rect codeLine="1" fill="#F1F1F1" height="48" id="Connect4" rx="2.5" ry="2.5" style="stroke:#181818;stroke-width:0.5;" width="101" x="291.5" y="7"/><ellipse cx="306.5" cy="23" fill="#ADD1B2" rx="11" ry="11" style="stroke:#181818;stroke-width:1.0;"/><path d="M308.8438,18.6719 C307.9063,18.2344 307.3125,18.0938 306.4375,18.0938 C303.8125,18.0938 301.8125,20.1719 301.8125,22.8906 L301.8125,24.0156 C301.8125,26.5938 303.9219,28.4844 306.8125,28.4844 C308.0313,28.4844 309.1875,28.1875 309.9375,27.6406 C310.5156,27.2344 310.8438,26.7813 310.8438,26.3906 C310.8438,25.9375 310.4531,25.5469 309.9844,25.5469 C309.7656,25.5469 309.5625,25.625 309.375,25.8125 C308.9219,26.2969 308.9219,26.2969 308.7344,26.3906 C308.3125,26.6563 307.625,26.7813 306.8594,26.7813 C304.8125,26.7813 303.5156,25.6875 303.5156,23.9844 L303.5156,22.8906 C303.5156,21.1094 304.7656,19.7969 306.5,19.7969 C307.0781,19.7969 307.6875,19.9531 308.1563,20.2031 C308.6406,20.4844 308.8125,20.7031 308.9063,21.1094 C308.9688,21.5156 309,21.6406 309.1406,21.7656 C309.2813,21.9063 309.5156,22.0156 309.7344,22.0156 C310,22.0156 310.2656,21.875 310.4375,21.6563 C310.5469,21.5 310.5781,21.3125 310.5781,20.8906 L310.5781,19.4688 C310.5781,19.0313 310.5625,18.9063 310.4688,18.75 C310.3125,18.4844 310.0313,18.3438 309.7344,18.3438 C309.4375,18.3438 309.2344,18.4375 309.0156,18.75 L308.8438,18.6719 Z " fill="#000000"/><text fill="#000000" font-family="sans-serif" font-size="14" lengthAdjust="spacing" textLength="69" x="320.5" y="27.8467">Connect4</text><line style="stroke:#181818;stroke-width:0.5;" x1="292.5" x2="391.5" y1="39" y2="39"/><line style="stroke:#181818;stroke-width:0.5;" x1="292.5" x2="391.5" y1="47" y2="47"/></g><!--class Game--><g id="elem_Game"><rect codeLine="2" fill="#F1F1F1" height="48" id="Game" rx="2.5" ry="2.5" style="stroke:#181818;stroke-width:0.5;" width="74" x="250" y="115"/><ellipse cx="265" cy="131" fill="#ADD1B2" rx="11" ry="11" style="stroke:#181818;stroke-width:1.0;"/><path d="M267.3438,126.6719 C266.4063,126.2344 265.8125,126.0938 264.9375,126.0938 C262.3125,126.0938 260.3125,128.1719 260.3125,130.8906 L260.3125,132.0156 C260.3125,134.5938 262.4219,136.4844 265.3125,136.4844 C266.5313,136.4844 267.6875,136.1875 268.4375,135.6406 C269.0156,135.2344 269.3438,134.7813 269.3438,134.3906 C269.3438,133.9375 268.9531,133.5469 268.4844,133.5469 C268.2656,133.5469 268.0625,133.625 267.875,133.8125 C267.4219,134.2969 267.4219,134.2969 267.2344,134.3906 C266.8125,134.6563 266.125,134.7813 265.3594,134.7813 C263.3125,134.7813 262.0156,133.6875 262.0156,131.9844 L262.0156,130.8906 C262.0156,129.1094 263.2656,127.7969 265,127.7969 C265.5781,127.7969 266.1875,127.9531 266.6563,128.2031 C267.1406,128.4844 267.3125,128.7031 267.4063,129.1094 C267.4688,129.5156 267.5,129.6406 267.6406,129.7656 C267.7813,129.9063 268.0156,130.0156 268.2344,130.0156 C268.5,130.0156 268.7656,129.875 268.9375,129.6563 C269.0469,129.5 269.0781,129.3125 269.0781,128.8906 L269.0781,127.4688 C269.0781,127.0313 269.0625,126.9063 268.9688,126.75 C268.8125,126.4844 268.5313,126.3438 268.2344,126.3438 C267.9375,126.3438 267.7344,126.4375 267.5156,126.75 L267.3438,126.6719 Z " fill="#000000"/><text fill="#000000" font-family="sans-serif" font-size="14" lengthAdjust="spacing" textLength="42" x="279" y="135.8467">Game</text><line style="stroke:#181818;stroke-width:0.5;" x1="251" x2="323" y1="147" y2="147"/><line style="stroke:#181818;stroke-width:0.5;" x1="251" x2="323" y1="155" y2="155"/></g><!--class Coordenate--><g id="elem_Coordenate"><rect codeLine="3" fill="#F1F1F1" height="48" id="Coordenate" rx="2.5" ry="2.5" style="stroke:#181818;stroke-width:0.5;" width="117" x="128.5" y="331"/><ellipse cx="143.5" cy="347" fill="#ADD1B2" rx="11" ry="11" style="stroke:#181818;stroke-width:1.0;"/><path d="M145.8438,342.6719 C144.9063,342.2344 144.3125,342.0938 143.4375,342.0938 C140.8125,342.0938 138.8125,344.1719 138.8125,346.8906 L138.8125,348.0156 C138.8125,350.5938 140.9219,352.4844 143.8125,352.4844 C145.0313,352.4844 146.1875,352.1875 146.9375,351.6406 C147.5156,351.2344 147.8438,350.7813 147.8438,350.3906 C147.8438,349.9375 147.4531,349.5469 146.9844,349.5469 C146.7656,349.5469 146.5625,349.625 146.375,349.8125 C145.9219,350.2969 145.9219,350.2969 145.7344,350.3906 C145.3125,350.6563 144.625,350.7813 143.8594,350.7813 C141.8125,350.7813 140.5156,349.6875 140.5156,347.9844 L140.5156,346.8906 C140.5156,345.1094 141.7656,343.7969 143.5,343.7969 C144.0781,343.7969 144.6875,343.9531 145.1563,344.2031 C145.6406,344.4844 145.8125,344.7031 145.9063,345.1094 C145.9688,345.5156 146,345.6406 146.1406,345.7656 C146.2813,345.9063 146.5156,346.0156 146.7344,346.0156 C147,346.0156 147.2656,345.875 147.4375,345.6563 C147.5469,345.5 147.5781,345.3125 147.5781,344.8906 L147.5781,343.4688 C147.5781,343.0313 147.5625,342.9063 147.4688,342.75 C147.3125,342.4844 147.0313,342.3438 146.7344,342.3438 C146.4375,342.3438 146.2344,342.4375 146.0156,342.75 L145.8438,342.6719 Z " fill="#000000"/><text fill="#000000" font-family="sans-serif" font-size="14" lengthAdjust="spacing" textLength="85" x="157.5" y="351.8467">Coordenate</text><line style="stroke:#181818;stroke-width:0.5;" x1="129.5" x2="244.5" y1="363" y2="363"/><line style="stroke:#181818;stroke-width:0.5;" x1="129.5" x2="244.5" y1="371" y2="371"/></g><!--class GameView--><g id="elem_GameView"><rect codeLine="4" fill="#F1F1F1" height="48" id="GameView" rx="2.5" ry="2.5" style="stroke:#181818;stroke-width:0.5;" width="108" x="107" y="115"/><ellipse cx="122" cy="131" fill="#ADD1B2" rx="11" ry="11" style="stroke:#181818;stroke-width:1.0;"/><path d="M124.3438,126.6719 C123.4063,126.2344 122.8125,126.0938 121.9375,126.0938 C119.3125,126.0938 117.3125,128.1719 117.3125,130.8906 L117.3125,132.0156 C117.3125,134.5938 119.4219,136.4844 122.3125,136.4844 C123.5313,136.4844 124.6875,136.1875 125.4375,135.6406 C126.0156,135.2344 126.3438,134.7813 126.3438,134.3906 C126.3438,133.9375 125.9531,133.5469 125.4844,133.5469 C125.2656,133.5469 125.0625,133.625 124.875,133.8125 C124.4219,134.2969 124.4219,134.2969 124.2344,134.3906 C123.8125,134.6563 123.125,134.7813 122.3594,134.7813 C120.3125,134.7813 119.0156,133.6875 119.0156,131.9844 L119.0156,130.8906 C119.0156,129.1094 120.2656,127.7969 122,127.7969 C122.5781,127.7969 123.1875,127.9531 123.6563,128.2031 C124.1406,128.4844 124.3125,128.7031 124.4063,129.1094 C124.4688,129.5156 124.5,129.6406 124.6406,129.7656 C124.7813,129.9063 125.0156,130.0156 125.2344,130.0156 C125.5,130.0156 125.7656,129.875 125.9375,129.6563 C126.0469,129.5 126.0781,129.3125 126.0781,128.8906 L126.0781,127.4688 C126.0781,127.0313 126.0625,126.9063 125.9688,126.75 C125.8125,126.4844 125.5313,126.3438 125.2344,126.3438 C124.9375,126.3438 124.7344,126.4375 124.5156,126.75 L124.3438,126.6719 Z " fill="#000000"/><text fill="#000000" font-family="sans-serif" font-size="14" lengthAdjust="spacing" textLength="76" x="136" y="135.8467">GameView</text><line style="stroke:#181818;stroke-width:0.5;" x1="108" x2="214" y1="147" y2="147"/><line style="stroke:#181818;stroke-width:0.5;" x1="108" x2="214" y1="155" y2="155"/></g><!--class Turn--><g id="elem_Turn"><rect codeLine="5" fill="#F1F1F1" height="48" id="Turn" rx="2.5" ry="2.5" style="stroke:#181818;stroke-width:0.5;" width="64" x="259" y="223"/><ellipse cx="274" cy="239" fill="#ADD1B2" rx="11" ry="11" style="stroke:#181818;stroke-width:1.0;"/><path d="M276.3438,234.6719 C275.4063,234.2344 274.8125,234.0938 273.9375,234.0938 C271.3125,234.0938 269.3125,236.1719 269.3125,238.8906 L269.3125,240.0156 C269.3125,242.5938 271.4219,244.4844 274.3125,244.4844 C275.5313,244.4844 276.6875,244.1875 277.4375,243.6406 C278.0156,243.2344 278.3438,242.7813 278.3438,242.3906 C278.3438,241.9375 277.9531,241.5469 277.4844,241.5469 C277.2656,241.5469 277.0625,241.625 276.875,241.8125 C276.4219,242.2969 276.4219,242.2969 276.2344,242.3906 C275.8125,242.6563 275.125,242.7813 274.3594,242.7813 C272.3125,242.7813 271.0156,241.6875 271.0156,239.9844 L271.0156,238.8906 C271.0156,237.1094 272.2656,235.7969 274,235.7969 C274.5781,235.7969 275.1875,235.9531 275.6563,236.2031 C276.1406,236.4844 276.3125,236.7031 276.4063,237.1094 C276.4688,237.5156 276.5,237.6406 276.6406,237.7656 C276.7813,237.9063 277.0156,238.0156 277.2344,238.0156 C277.5,238.0156 277.7656,237.875 277.9375,237.6563 C278.0469,237.5 278.0781,237.3125 278.0781,236.8906 L278.0781,235.4688 C278.0781,235.0313 278.0625,234.9063 277.9688,234.75 C277.8125,234.4844 277.5313,234.3438 277.2344,234.3438 C276.9375,234.3438 276.7344,234.4375 276.5156,234.75 L276.3438,234.6719 Z " fill="#000000"/><text fill="#000000" font-family="sans-serif" font-size="14" lengthAdjust="spacing" textLength="32" x="288" y="243.8467">Turn</text><line style="stroke:#181818;stroke-width:0.5;" x1="260" x2="322" y1="255" y2="255"/><line style="stroke:#181818;stroke-width:0.5;" x1="260" x2="322" y1="263" y2="263"/></g><!--class Token--><g id="elem_Token"><rect codeLine="6" fill="#F1F1F1" height="48" id="Token" rx="2.5" ry="2.5" style="stroke:#181818;stroke-width:0.5;" width="77" x="358.5" y="223"/><ellipse cx="373.5" cy="239" fill="#ADD1B2" rx="11" ry="11" style="stroke:#181818;stroke-width:1.0;"/><path d="M375.8438,234.6719 C374.9063,234.2344 374.3125,234.0938 373.4375,234.0938 C370.8125,234.0938 368.8125,236.1719 368.8125,238.8906 L368.8125,240.0156 C368.8125,242.5938 370.9219,244.4844 373.8125,244.4844 C375.0313,244.4844 376.1875,244.1875 376.9375,243.6406 C377.5156,243.2344 377.8438,242.7813 377.8438,242.3906 C377.8438,241.9375 377.4531,241.5469 376.9844,241.5469 C376.7656,241.5469 376.5625,241.625 376.375,241.8125 C375.9219,242.2969 375.9219,242.2969 375.7344,242.3906 C375.3125,242.6563 374.625,242.7813 373.8594,242.7813 C371.8125,242.7813 370.5156,241.6875 370.5156,239.9844 L370.5156,238.8906 C370.5156,237.1094 371.7656,235.7969 373.5,235.7969 C374.0781,235.7969 374.6875,235.9531 375.1563,236.2031 C375.6406,236.4844 375.8125,236.7031 375.9063,237.1094 C375.9688,237.5156 376,237.6406 376.1406,237.7656 C376.2813,237.9063 376.5156,238.0156 376.7344,238.0156 C377,238.0156 377.2656,237.875 377.4375,237.6563 C377.5469,237.5 377.5781,237.3125 377.5781,236.8906 L377.5781,235.4688 C377.5781,235.0313 377.5625,234.9063 377.4688,234.75 C377.3125,234.4844 377.0313,234.3438 376.7344,234.3438 C376.4375,234.3438 376.2344,234.4375 376.0156,234.75 L375.8438,234.6719 Z " fill="#000000"/><text fill="#000000" font-family="sans-serif" font-size="14" lengthAdjust="spacing" textLength="45" x="387.5" y="243.8467">Token</text><line style="stroke:#181818;stroke-width:0.5;" x1="359.5" x2="434.5" y1="255" y2="255"/><line style="stroke:#181818;stroke-width:0.5;" x1="359.5" x2="434.5" y1="263" y2="263"/></g><!--class Board--><g id="elem_Board"><rect codeLine="7" fill="#F1F1F1" height="48" id="Board" rx="2.5" ry="2.5" style="stroke:#181818;stroke-width:0.5;" width="74" x="150" y="223"/><ellipse cx="165" cy="239" fill="#ADD1B2" rx="11" ry="11" style="stroke:#181818;stroke-width:1.0;"/><path d="M167.3438,234.6719 C166.4063,234.2344 165.8125,234.0938 164.9375,234.0938 C162.3125,234.0938 160.3125,236.1719 160.3125,238.8906 L160.3125,240.0156 C160.3125,242.5938 162.4219,244.4844 165.3125,244.4844 C166.5313,244.4844 167.6875,244.1875 168.4375,243.6406 C169.0156,243.2344 169.3438,242.7813 169.3438,242.3906 C169.3438,241.9375 168.9531,241.5469 168.4844,241.5469 C168.2656,241.5469 168.0625,241.625 167.875,241.8125 C167.4219,242.2969 167.4219,242.2969 167.2344,242.3906 C166.8125,242.6563 166.125,242.7813 165.3594,242.7813 C163.3125,242.7813 162.0156,241.6875 162.0156,239.9844 L162.0156,238.8906 C162.0156,237.1094 163.2656,235.7969 165,235.7969 C165.5781,235.7969 166.1875,235.9531 166.6563,236.2031 C167.1406,236.4844 167.3125,236.7031 167.4063,237.1094 C167.4688,237.5156 167.5,237.6406 167.6406,237.7656 C167.7813,237.9063 168.0156,238.0156 168.2344,238.0156 C168.5,238.0156 168.7656,237.875 168.9375,237.6563 C169.0469,237.5 169.0781,237.3125 169.0781,236.8906 L169.0781,235.4688 C169.0781,235.0313 169.0625,234.9063 168.9688,234.75 C168.8125,234.4844 168.5313,234.3438 168.2344,234.3438 C167.9375,234.3438 167.7344,234.4375 167.5156,234.75 L167.3438,234.6719 Z " fill="#000000"/><text fill="#000000" font-family="sans-serif" font-size="14" lengthAdjust="spacing" textLength="42" x="179" y="243.8467">Board</text><line style="stroke:#181818;stroke-width:0.5;" x1="151" x2="223" y1="255" y2="255"/><line style="stroke:#181818;stroke-width:0.5;" x1="151" x2="223" y1="263" y2="263"/></g><!--class BoardView--><g id="elem_BoardView"><rect codeLine="8" fill="#F1F1F1" height="48" id="BoardView" rx="2.5" ry="2.5" style="stroke:#181818;stroke-width:0.5;" width="108" x="7" y="223"/><ellipse cx="22" cy="239" fill="#ADD1B2" rx="11" ry="11" style="stroke:#181818;stroke-width:1.0;"/><path d="M24.3438,234.6719 C23.4063,234.2344 22.8125,234.0938 21.9375,234.0938 C19.3125,234.0938 17.3125,236.1719 17.3125,238.8906 L17.3125,240.0156 C17.3125,242.5938 19.4219,244.4844 22.3125,244.4844 C23.5313,244.4844 24.6875,244.1875 25.4375,243.6406 C26.0156,243.2344 26.3438,242.7813 26.3438,242.3906 C26.3438,241.9375 25.9531,241.5469 25.4844,241.5469 C25.2656,241.5469 25.0625,241.625 24.875,241.8125 C24.4219,242.2969 24.4219,242.2969 24.2344,242.3906 C23.8125,242.6563 23.125,242.7813 22.3594,242.7813 C20.3125,242.7813 19.0156,241.6875 19.0156,239.9844 L19.0156,238.8906 C19.0156,237.1094 20.2656,235.7969 22,235.7969 C22.5781,235.7969 23.1875,235.9531 23.6563,236.2031 C24.1406,236.4844 24.3125,236.7031 24.4063,237.1094 C24.4688,237.5156 24.5,237.6406 24.6406,237.7656 C24.7813,237.9063 25.0156,238.0156 25.2344,238.0156 C25.5,238.0156 25.7656,237.875 25.9375,237.6563 C26.0469,237.5 26.0781,237.3125 26.0781,236.8906 L26.0781,235.4688 C26.0781,235.0313 26.0625,234.9063 25.9688,234.75 C25.8125,234.4844 25.5313,234.3438 25.2344,234.3438 C24.9375,234.3438 24.7344,234.4375 24.5156,234.75 L24.3438,234.6719 Z " fill="#000000"/><text fill="#000000" font-family="sans-serif" font-size="14" lengthAdjust="spacing" textLength="76" x="36" y="243.8467">BoardView</text><line style="stroke:#181818;stroke-width:0.5;" x1="8" x2="114" y1="255" y2="255"/><line style="stroke:#181818;stroke-width:0.5;" x1="8" x2="114" y1="263" y2="263"/></g><!--class Player--><g id="elem_Player"><rect codeLine="9" fill="#F1F1F1" height="48" id="Player" rx="2.5" ry="2.5" style="stroke:#181818;stroke-width:0.5;" width="76" x="359" y="115"/><ellipse cx="374" cy="131" fill="#ADD1B2" rx="11" ry="11" style="stroke:#181818;stroke-width:1.0;"/><path d="M376.3438,126.6719 C375.4063,126.2344 374.8125,126.0938 373.9375,126.0938 C371.3125,126.0938 369.3125,128.1719 369.3125,130.8906 L369.3125,132.0156 C369.3125,134.5938 371.4219,136.4844 374.3125,136.4844 C375.5313,136.4844 376.6875,136.1875 377.4375,135.6406 C378.0156,135.2344 378.3438,134.7813 378.3438,134.3906 C378.3438,133.9375 377.9531,133.5469 377.4844,133.5469 C377.2656,133.5469 377.0625,133.625 376.875,133.8125 C376.4219,134.2969 376.4219,134.2969 376.2344,134.3906 C375.8125,134.6563 375.125,134.7813 374.3594,134.7813 C372.3125,134.7813 371.0156,133.6875 371.0156,131.9844 L371.0156,130.8906 C371.0156,129.1094 372.2656,127.7969 374,127.7969 C374.5781,127.7969 375.1875,127.9531 375.6563,128.2031 C376.1406,128.4844 376.3125,128.7031 376.4063,129.1094 C376.4688,129.5156 376.5,129.6406 376.6406,129.7656 C376.7813,129.9063 377.0156,130.0156 377.2344,130.0156 C377.5,130.0156 377.7656,129.875 377.9375,129.6563 C378.0469,129.5 378.0781,129.3125 378.0781,128.8906 L378.0781,127.4688 C378.0781,127.0313 378.0625,126.9063 377.9688,126.75 C377.8125,126.4844 377.5313,126.3438 377.2344,126.3438 C376.9375,126.3438 376.7344,126.4375 376.5156,126.75 L376.3438,126.6719 Z " fill="#000000"/><text fill="#000000" font-family="sans-serif" font-size="14" lengthAdjust="spacing" textLength="44" x="388" y="135.8467">Player</text><line style="stroke:#181818;stroke-width:0.5;" x1="360" x2="434" y1="147" y2="147"/><line style="stroke:#181818;stroke-width:0.5;" x1="360" x2="434" y1="155" y2="155"/></g><!--link Connect4 to Player--><g id="link_Connect4_Player"><path codeLine="11" d="M359.4607,65.6516 C368.6227,83.3096 372.9327,91.6152 382.1357,109.3522 " fill="none" id="Connect4-Player" style="stroke:#181818;stroke-width:1.0;"/><polygon fill="#181818" points="353.934,55,353.1468,62.168,359.4607,65.6516,360.2479,58.4836,353.934,55" style="stroke:#181818;stroke-width:1.0;"/><polygon fill="#181818" points="384.899,114.678,384.3045,104.8471,382.5962,110.2398,377.2035,108.5315,384.899,114.678" style="stroke:#181818;stroke-width:1.0;"/></g><!--link Connect4 to Game--><g id="link_Connect4_Game"><path codeLine="12" d="M324.5393,65.6516 C315.3773,83.3096 311.0673,91.6152 301.8643,109.3522 " fill="none" id="Connect4-Game" style="stroke:#181818;stroke-width:1.0;"/><polygon fill="#181818" points="330.066,55,323.7521,58.4836,324.5393,65.6516,330.8532,62.168,330.066,55" style="stroke:#181818;stroke-width:1.0;"/><polygon fill="#181818" points="299.101,114.678,306.7965,108.5315,301.4038,110.2398,299.6955,104.8471,299.101,114.678" style="stroke:#181818;stroke-width:1.0;"/></g><!--reverse link GameView to Game--><g id="link_GameView_Game"><path codeLine="13" d="M221.141,139 C232.743,139 238.345,139 249.948,139 " fill="none" id="GameView-backto-Game" style="stroke:#181818;stroke-width:1.0;stroke-dasharray:7.0,7.0;"/><polygon fill="#181818" points="215.141,139,224.141,143,220.141,139,224.141,135,215.141,139" style="stroke:#181818;stroke-width:1.0;"/></g><!--link Game to Player--><g id="link_Game_Player"><path codeLine="14" d="M324.383,139 C335.918,139 341.454,139 352.989,139 " fill="none" id="Game-to-Player" style="stroke:#181818;stroke-width:1.0;"/><polygon fill="#181818" points="358.989,139,349.989,135,353.989,139,349.989,143,358.989,139" style="stroke:#181818;stroke-width:1.0;"/></g><!--link Game to Board--><g id="link_Game_Board"><path codeLine="15" d="M257.0665,171.7288 C240.4085,189.3868 229.8525,200.5768 213.1185,218.3138 " fill="none" id="Game-Board" style="stroke:#181818;stroke-width:1.0;"/><polygon fill="#181818" points="265.301,163,258.2741,164.6196,257.0665,171.7288,264.0934,170.1093,265.301,163" style="stroke:#181818;stroke-width:1.0;"/><polygon fill="#181818" points="209.001,222.678,218.0867,218.8766,212.4322,219.0411,212.2677,213.3867,209.001,222.678" style="stroke:#181818;stroke-width:1.0;"/></g><!--link Game to Turn--><g id="link_Game_Turn"><path codeLine="16" d="M288.3203,174.9915 C288.9863,192.6495 289.2249,198.9453 289.8939,216.6823 " fill="none" id="Game-Turn" style="stroke:#181818;stroke-width:1.0;"/><polygon fill="#181818" points="287.868,163,284.097,169.1465,288.3203,174.9915,292.0913,168.845,287.868,163" style="stroke:#181818;stroke-width:1.0;"/><polygon fill="#181818" points="290.12,222.678,293.7779,213.5336,289.9315,217.6816,285.7836,213.8352,290.12,222.678" style="stroke:#181818;stroke-width:1.0;"/></g><!--link Game to BoardView--><g id="link_Game_BoardView"><path codeLine="17" d="M249.934,157.385 C211.865,175.24 157.8282,200.5852 115.7932,220.3002 " fill="none" id="Game-to-BoardView" style="stroke:#181818;stroke-width:1.0;stroke-dasharray:7.0,7.0;"/><polygon fill="#181818" points="110.361,222.848,120.2078,222.6478,114.8878,220.7249,116.8108,215.4049,110.361,222.848" style="stroke:#181818;stroke-width:1.0;"/></g><!--link BoardView to Board--><g id="link_BoardView_Board"><path codeLine="18" d="M115.141,247 C126.743,247 132.345,247 143.948,247 " fill="none" id="BoardView-to-Board" style="stroke:#181818;stroke-width:1.0;stroke-dasharray:7.0,7.0;"/><polygon fill="#181818" points="149.948,247,140.948,243,144.948,247,140.948,251,149.948,247" style="stroke:#181818;stroke-width:1.0;"/></g><!--link Player to Token--><g id="link_Player_Token"><path codeLine="19" d="M397,163 C397,180.658 397,198.941 397,216.678 " fill="none" id="Player-to-Token" style="stroke:#181818;stroke-width:1.0;stroke-dasharray:7.0,7.0;"/><polygon fill="#181818" points="397,222.678,401,213.678,397,217.678,393,213.678,397,222.678" style="stroke:#181818;stroke-width:1.0;"/></g><!--link Game to Token--><g id="link_Game_Token"><path codeLine="20" d="M319.5091,171.3266 C337.8341,188.9846 350.0705,200.7777 368.4775,218.5147 " fill="none" id="Game-Token" style="stroke:#181818;stroke-width:1.0;"/><polygon fill="#181818" points="310.868,163,312.413,170.0436,319.5091,171.3266,317.9641,164.2829,310.868,163" style="stroke:#181818;stroke-width:1.0;"/><polygon fill="#181818" points="372.798,222.678,369.0927,213.5527,369.1975,219.2086,363.5417,219.3134,372.798,222.678" style="stroke:#181818;stroke-width:1.0;"/></g><!--link Board to Coordenate--><g id="link_Board_Coordenate"><path codeLine="21" d="M187,283 C187,300.6584 187,306.9408 187,324.6784 " fill="none" id="Board-Coordenate" style="stroke:#181818;stroke-width:1.0;"/><polygon fill="#181818" points="187,271,183,277,187,283,191,277,187,271" style="stroke:#181818;stroke-width:1.0;"/><polygon fill="#181818" points="187,330.6784,191,321.6784,187,325.6784,183,321.6784,187,330.6784" style="stroke:#181818;stroke-width:1.0;"/></g><!--SRC=[LL0n3i8m3Dpp2iz8pSJSeHrOErJiLceaH8YbD0ZnUrgx9c69xiwvEoSXuhh2o2bHA6SNX5xmIGSScVD22Giri-kTtWUTNpaPv0SP7XZpqkB6CaNyK7REIk7KTRsf_w8iiX_W8zrANzj5h3QXOj7cocL1ZR2f1FmGU3Df5lXDqBSqASBbcWhrNxu0]--></g></svg>