<?xml version="1.0" encoding="UTF-8" standalone="no"?><svg xmlns="http://www.w3.org/2000/svg" xmlns:xlink="http://www.w3.org/1999/xlink" contentStyleType="text/css" height="808px" preserveAspectRatio="none" style="width:1339px;height:808px;background:#FFFFFF;" version="1.1" viewBox="0 0 1339 808" width="1339px" zoomAndPan="magnify"><defs/><g><rect height="26.2969" id="_title" style="stroke:#00000000;stroke-width:1.0;fill:none;" width="279" x="523" y="5"/><text fill="#000000" font-family="sans-serif" font-size="14" font-weight="bold" lengthAdjust="spacing" textLength="269" x="528" y="22.9951">Ejercicio Disciplinas del Software</text><!--MD5=[fe9b79eeb773063b60029e9ad14aea1e]
class Restaurante--><g id="elem_Restaurante"><rect codeLine="3" fill="#F1F1F1" height="48" id="Restaurante" rx="2.5" ry="2.5" style="stroke:#181818;stroke-width:0.5;" width="120" x="384.5" y="44.2969"/><ellipse cx="399.5" cy="60.2969" fill="#ADD1B2" rx="11" ry="11" style="stroke:#181818;stroke-width:1.0;"/><path d="M401.8438,55.9688 C400.9063,55.5313 400.3125,55.3906 399.4375,55.3906 C396.8125,55.3906 394.8125,57.4688 394.8125,60.1875 L394.8125,61.3125 C394.8125,63.8906 396.9219,65.7813 399.8125,65.7813 C401.0313,65.7813 402.1875,65.4844 402.9375,64.9375 C403.5156,64.5313 403.8438,64.0781 403.8438,63.6875 C403.8438,63.2344 403.4531,62.8438 402.9844,62.8438 C402.7656,62.8438 402.5625,62.9219 402.375,63.1094 C401.9219,63.5938 401.9219,63.5938 401.7344,63.6875 C401.3125,63.9531 400.625,64.0781 399.8594,64.0781 C397.8125,64.0781 396.5156,62.9844 396.5156,61.2813 L396.5156,60.1875 C396.5156,58.4063 397.7656,57.0938 399.5,57.0938 C400.0781,57.0938 400.6875,57.25 401.1563,57.5 C401.6406,57.7813 401.8125,58 401.9063,58.4063 C401.9688,58.8125 402,58.9375 402.1406,59.0625 C402.2813,59.2031 402.5156,59.3125 402.7344,59.3125 C403,59.3125 403.2656,59.1719 403.4375,58.9531 C403.5469,58.7969 403.5781,58.6094 403.5781,58.1875 L403.5781,56.7656 C403.5781,56.3281 403.5625,56.2031 403.4688,56.0469 C403.3125,55.7813 403.0313,55.6406 402.7344,55.6406 C402.4375,55.6406 402.2344,55.7344 402.0156,56.0469 L401.8438,55.9688 Z " fill="#000000"/><text fill="#000000" font-family="sans-serif" font-size="14" lengthAdjust="spacing" textLength="88" x="413.5" y="65.1436">Restaurante</text><line style="stroke:#181818;stroke-width:0.5;" x1="385.5" x2="503.5" y1="76.2969" y2="76.2969"/><line style="stroke:#181818;stroke-width:0.5;" x1="385.5" x2="503.5" y1="84.2969" y2="84.2969"/></g><!--MD5=[89bf876b63e207e617eefe0108caca8d]
class Comensal--><g id="elem_Comensal"><rect codeLine="4" fill="#F1F1F1" height="48" id="Comensal" rx="2.5" ry="2.5" style="stroke:#181818;stroke-width:0.5;" width="102" x="539.5" y="44.2969"/><ellipse cx="554.5" cy="60.2969" fill="#ADD1B2" rx="11" ry="11" style="stroke:#181818;stroke-width:1.0;"/><path d="M556.8438,55.9688 C555.9063,55.5313 555.3125,55.3906 554.4375,55.3906 C551.8125,55.3906 549.8125,57.4688 549.8125,60.1875 L549.8125,61.3125 C549.8125,63.8906 551.9219,65.7813 554.8125,65.7813 C556.0313,65.7813 557.1875,65.4844 557.9375,64.9375 C558.5156,64.5313 558.8438,64.0781 558.8438,63.6875 C558.8438,63.2344 558.4531,62.8438 557.9844,62.8438 C557.7656,62.8438 557.5625,62.9219 557.375,63.1094 C556.9219,63.5938 556.9219,63.5938 556.7344,63.6875 C556.3125,63.9531 555.625,64.0781 554.8594,64.0781 C552.8125,64.0781 551.5156,62.9844 551.5156,61.2813 L551.5156,60.1875 C551.5156,58.4063 552.7656,57.0938 554.5,57.0938 C555.0781,57.0938 555.6875,57.25 556.1563,57.5 C556.6406,57.7813 556.8125,58 556.9063,58.4063 C556.9688,58.8125 557,58.9375 557.1406,59.0625 C557.2813,59.2031 557.5156,59.3125 557.7344,59.3125 C558,59.3125 558.2656,59.1719 558.4375,58.9531 C558.5469,58.7969 558.5781,58.6094 558.5781,58.1875 L558.5781,56.7656 C558.5781,56.3281 558.5625,56.2031 558.4688,56.0469 C558.3125,55.7813 558.0313,55.6406 557.7344,55.6406 C557.4375,55.6406 557.2344,55.7344 557.0156,56.0469 L556.8438,55.9688 Z " fill="#000000"/><text fill="#000000" font-family="sans-serif" font-size="14" lengthAdjust="spacing" textLength="70" x="568.5" y="65.1436">Comensal</text><line style="stroke:#181818;stroke-width:0.5;" x1="540.5" x2="640.5" y1="76.2969" y2="76.2969"/><line style="stroke:#181818;stroke-width:0.5;" x1="540.5" x2="640.5" y1="84.2969" y2="84.2969"/></g><!--MD5=[ac17753575e69cc5e4b1ebe13284b57a]
class Terraza--><g id="elem_Terraza"><rect codeLine="5" fill="#F1F1F1" height="48" id="Terraza" rx="2.5" ry="2.5" style="stroke:#181818;stroke-width:0.5;" width="86" x="424.5" y="645.2969"/><ellipse cx="439.5" cy="661.2969" fill="#ADD1B2" rx="11" ry="11" style="stroke:#181818;stroke-width:1.0;"/><path d="M441.8438,656.9688 C440.9063,656.5313 440.3125,656.3906 439.4375,656.3906 C436.8125,656.3906 434.8125,658.4688 434.8125,661.1875 L434.8125,662.3125 C434.8125,664.8906 436.9219,666.7813 439.8125,666.7813 C441.0313,666.7813 442.1875,666.4844 442.9375,665.9375 C443.5156,665.5313 443.8438,665.0781 443.8438,664.6875 C443.8438,664.2344 443.4531,663.8438 442.9844,663.8438 C442.7656,663.8438 442.5625,663.9219 442.375,664.1094 C441.9219,664.5938 441.9219,664.5938 441.7344,664.6875 C441.3125,664.9531 440.625,665.0781 439.8594,665.0781 C437.8125,665.0781 436.5156,663.9844 436.5156,662.2813 L436.5156,661.1875 C436.5156,659.4063 437.7656,658.0938 439.5,658.0938 C440.0781,658.0938 440.6875,658.25 441.1563,658.5 C441.6406,658.7813 441.8125,659 441.9063,659.4063 C441.9688,659.8125 442,659.9375 442.1406,660.0625 C442.2813,660.2031 442.5156,660.3125 442.7344,660.3125 C443,660.3125 443.2656,660.1719 443.4375,659.9531 C443.5469,659.7969 443.5781,659.6094 443.5781,659.1875 L443.5781,657.7656 C443.5781,657.3281 443.5625,657.2031 443.4688,657.0469 C443.3125,656.7813 443.0313,656.6406 442.7344,656.6406 C442.4375,656.6406 442.2344,656.7344 442.0156,657.0469 L441.8438,656.9688 Z " fill="#000000"/><text fill="#000000" font-family="sans-serif" font-size="14" lengthAdjust="spacing" textLength="54" x="453.5" y="666.1436">Terraza</text><line style="stroke:#181818;stroke-width:0.5;" x1="425.5" x2="509.5" y1="677.2969" y2="677.2969"/><line style="stroke:#181818;stroke-width:0.5;" x1="425.5" x2="509.5" y1="685.2969" y2="685.2969"/></g><!--MD5=[cbfe0d4e2bba4e12bfdf7402c000e889]
class Comedor--><g id="elem_Comedor"><rect codeLine="6" fill="#F1F1F1" height="48" id="Comedor" rx="2.5" ry="2.5" style="stroke:#181818;stroke-width:0.5;" width="98" x="631.5" y="645.2969"/><ellipse cx="646.5" cy="661.2969" fill="#ADD1B2" rx="11" ry="11" style="stroke:#181818;stroke-width:1.0;"/><path d="M648.8438,656.9688 C647.9063,656.5313 647.3125,656.3906 646.4375,656.3906 C643.8125,656.3906 641.8125,658.4688 641.8125,661.1875 L641.8125,662.3125 C641.8125,664.8906 643.9219,666.7813 646.8125,666.7813 C648.0313,666.7813 649.1875,666.4844 649.9375,665.9375 C650.5156,665.5313 650.8438,665.0781 650.8438,664.6875 C650.8438,664.2344 650.4531,663.8438 649.9844,663.8438 C649.7656,663.8438 649.5625,663.9219 649.375,664.1094 C648.9219,664.5938 648.9219,664.5938 648.7344,664.6875 C648.3125,664.9531 647.625,665.0781 646.8594,665.0781 C644.8125,665.0781 643.5156,663.9844 643.5156,662.2813 L643.5156,661.1875 C643.5156,659.4063 644.7656,658.0938 646.5,658.0938 C647.0781,658.0938 647.6875,658.25 648.1563,658.5 C648.6406,658.7813 648.8125,659 648.9063,659.4063 C648.9688,659.8125 649,659.9375 649.1406,660.0625 C649.2813,660.2031 649.5156,660.3125 649.7344,660.3125 C650,660.3125 650.2656,660.1719 650.4375,659.9531 C650.5469,659.7969 650.5781,659.6094 650.5781,659.1875 L650.5781,657.7656 C650.5781,657.3281 650.5625,657.2031 650.4688,657.0469 C650.3125,656.7813 650.0313,656.6406 649.7344,656.6406 C649.4375,656.6406 649.2344,656.7344 649.0156,657.0469 L648.8438,656.9688 Z " fill="#000000"/><text fill="#000000" font-family="sans-serif" font-size="14" lengthAdjust="spacing" textLength="66" x="660.5" y="666.1436">Comedor</text><line style="stroke:#181818;stroke-width:0.5;" x1="632.5" x2="728.5" y1="677.2969" y2="677.2969"/><line style="stroke:#181818;stroke-width:0.5;" x1="632.5" x2="728.5" y1="685.2969" y2="685.2969"/></g><!--MD5=[44dcafc5f29c2cc388994b1fc9b90680]
class Desayuno--><g id="elem_Desayuno"><rect codeLine="7" fill="#F1F1F1" height="48" id="Desayuno" rx="2.5" ry="2.5" style="stroke:#181818;stroke-width:0.5;" width="101" x="7" y="429.2969"/><ellipse cx="22" cy="445.2969" fill="#ADD1B2" rx="11" ry="11" style="stroke:#181818;stroke-width:1.0;"/><path d="M24.3438,440.9688 C23.4063,440.5313 22.8125,440.3906 21.9375,440.3906 C19.3125,440.3906 17.3125,442.4688 17.3125,445.1875 L17.3125,446.3125 C17.3125,448.8906 19.4219,450.7813 22.3125,450.7813 C23.5313,450.7813 24.6875,450.4844 25.4375,449.9375 C26.0156,449.5313 26.3438,449.0781 26.3438,448.6875 C26.3438,448.2344 25.9531,447.8438 25.4844,447.8438 C25.2656,447.8438 25.0625,447.9219 24.875,448.1094 C24.4219,448.5938 24.4219,448.5938 24.2344,448.6875 C23.8125,448.9531 23.125,449.0781 22.3594,449.0781 C20.3125,449.0781 19.0156,447.9844 19.0156,446.2813 L19.0156,445.1875 C19.0156,443.4063 20.2656,442.0938 22,442.0938 C22.5781,442.0938 23.1875,442.25 23.6563,442.5 C24.1406,442.7813 24.3125,443 24.4063,443.4063 C24.4688,443.8125 24.5,443.9375 24.6406,444.0625 C24.7813,444.2031 25.0156,444.3125 25.2344,444.3125 C25.5,444.3125 25.7656,444.1719 25.9375,443.9531 C26.0469,443.7969 26.0781,443.6094 26.0781,443.1875 L26.0781,441.7656 C26.0781,441.3281 26.0625,441.2031 25.9688,441.0469 C25.8125,440.7813 25.5313,440.6406 25.2344,440.6406 C24.9375,440.6406 24.7344,440.7344 24.5156,441.0469 L24.3438,440.9688 Z " fill="#000000"/><text fill="#000000" font-family="sans-serif" font-size="14" lengthAdjust="spacing" textLength="69" x="36" y="450.1436">Desayuno</text><line style="stroke:#181818;stroke-width:0.5;" x1="8" x2="107" y1="461.2969" y2="461.2969"/><line style="stroke:#181818;stroke-width:0.5;" x1="8" x2="107" y1="469.2969" y2="469.2969"/></g><!--MD5=[499270d29bbdba8d04de2a857c850c15]
class Comida--><g id="elem_Comida"><rect codeLine="8" fill="#F1F1F1" height="48" id="Comida" rx="2.5" ry="2.5" style="stroke:#181818;stroke-width:0.5;" width="86" x="150.5" y="429.2969"/><ellipse cx="165.5" cy="445.2969" fill="#ADD1B2" rx="11" ry="11" style="stroke:#181818;stroke-width:1.0;"/><path d="M167.8438,440.9688 C166.9063,440.5313 166.3125,440.3906 165.4375,440.3906 C162.8125,440.3906 160.8125,442.4688 160.8125,445.1875 L160.8125,446.3125 C160.8125,448.8906 162.9219,450.7813 165.8125,450.7813 C167.0313,450.7813 168.1875,450.4844 168.9375,449.9375 C169.5156,449.5313 169.8438,449.0781 169.8438,448.6875 C169.8438,448.2344 169.4531,447.8438 168.9844,447.8438 C168.7656,447.8438 168.5625,447.9219 168.375,448.1094 C167.9219,448.5938 167.9219,448.5938 167.7344,448.6875 C167.3125,448.9531 166.625,449.0781 165.8594,449.0781 C163.8125,449.0781 162.5156,447.9844 162.5156,446.2813 L162.5156,445.1875 C162.5156,443.4063 163.7656,442.0938 165.5,442.0938 C166.0781,442.0938 166.6875,442.25 167.1563,442.5 C167.6406,442.7813 167.8125,443 167.9063,443.4063 C167.9688,443.8125 168,443.9375 168.1406,444.0625 C168.2813,444.2031 168.5156,444.3125 168.7344,444.3125 C169,444.3125 169.2656,444.1719 169.4375,443.9531 C169.5469,443.7969 169.5781,443.6094 169.5781,443.1875 L169.5781,441.7656 C169.5781,441.3281 169.5625,441.2031 169.4688,441.0469 C169.3125,440.7813 169.0313,440.6406 168.7344,440.6406 C168.4375,440.6406 168.2344,440.7344 168.0156,441.0469 L167.8438,440.9688 Z " fill="#000000"/><text fill="#000000" font-family="sans-serif" font-size="14" lengthAdjust="spacing" textLength="54" x="179.5" y="450.1436">Comida</text><line style="stroke:#181818;stroke-width:0.5;" x1="151.5" x2="235.5" y1="461.2969" y2="461.2969"/><line style="stroke:#181818;stroke-width:0.5;" x1="151.5" x2="235.5" y1="469.2969" y2="469.2969"/></g><!--MD5=[eaa8e25a9da3efeb88ed8b571285ea04]
class Cena--><g id="elem_Cena"><rect codeLine="9" fill="#F1F1F1" height="48" id="Cena" rx="2.5" ry="2.5" style="stroke:#181818;stroke-width:0.5;" width="68" x="271.5" y="429.2969"/><ellipse cx="286.5" cy="445.2969" fill="#ADD1B2" rx="11" ry="11" style="stroke:#181818;stroke-width:1.0;"/><path d="M288.8438,440.9688 C287.9063,440.5313 287.3125,440.3906 286.4375,440.3906 C283.8125,440.3906 281.8125,442.4688 281.8125,445.1875 L281.8125,446.3125 C281.8125,448.8906 283.9219,450.7813 286.8125,450.7813 C288.0313,450.7813 289.1875,450.4844 289.9375,449.9375 C290.5156,449.5313 290.8438,449.0781 290.8438,448.6875 C290.8438,448.2344 290.4531,447.8438 289.9844,447.8438 C289.7656,447.8438 289.5625,447.9219 289.375,448.1094 C288.9219,448.5938 288.9219,448.5938 288.7344,448.6875 C288.3125,448.9531 287.625,449.0781 286.8594,449.0781 C284.8125,449.0781 283.5156,447.9844 283.5156,446.2813 L283.5156,445.1875 C283.5156,443.4063 284.7656,442.0938 286.5,442.0938 C287.0781,442.0938 287.6875,442.25 288.1563,442.5 C288.6406,442.7813 288.8125,443 288.9063,443.4063 C288.9688,443.8125 289,443.9375 289.1406,444.0625 C289.2813,444.2031 289.5156,444.3125 289.7344,444.3125 C290,444.3125 290.2656,444.1719 290.4375,443.9531 C290.5469,443.7969 290.5781,443.6094 290.5781,443.1875 L290.5781,441.7656 C290.5781,441.3281 290.5625,441.2031 290.4688,441.0469 C290.3125,440.7813 290.0313,440.6406 289.7344,440.6406 C289.4375,440.6406 289.2344,440.7344 289.0156,441.0469 L288.8438,440.9688 Z " fill="#000000"/><text fill="#000000" font-family="sans-serif" font-size="14" lengthAdjust="spacing" textLength="36" x="300.5" y="450.1436">Cena</text><line style="stroke:#181818;stroke-width:0.5;" x1="272.5" x2="338.5" y1="461.2969" y2="461.2969"/><line style="stroke:#181818;stroke-width:0.5;" x1="272.5" x2="338.5" y1="469.2969" y2="469.2969"/></g><!--MD5=[61648a8743b9d565b9d2d8c710705f7e]
class Menú--><g id="elem_Menú"><rect codeLine="10" fill="#F1F1F1" height="48" id="Menú" rx="2.5" ry="2.5" style="stroke:#181818;stroke-width:0.5;" width="70" x="285.5" y="213.2969"/><ellipse cx="300.5" cy="229.2969" fill="#ADD1B2" rx="11" ry="11" style="stroke:#181818;stroke-width:1.0;"/><path d="M302.8438,224.9688 C301.9063,224.5313 301.3125,224.3906 300.4375,224.3906 C297.8125,224.3906 295.8125,226.4688 295.8125,229.1875 L295.8125,230.3125 C295.8125,232.8906 297.9219,234.7813 300.8125,234.7813 C302.0313,234.7813 303.1875,234.4844 303.9375,233.9375 C304.5156,233.5313 304.8438,233.0781 304.8438,232.6875 C304.8438,232.2344 304.4531,231.8438 303.9844,231.8438 C303.7656,231.8438 303.5625,231.9219 303.375,232.1094 C302.9219,232.5938 302.9219,232.5938 302.7344,232.6875 C302.3125,232.9531 301.625,233.0781 300.8594,233.0781 C298.8125,233.0781 297.5156,231.9844 297.5156,230.2813 L297.5156,229.1875 C297.5156,227.4063 298.7656,226.0938 300.5,226.0938 C301.0781,226.0938 301.6875,226.25 302.1563,226.5 C302.6406,226.7813 302.8125,227 302.9063,227.4063 C302.9688,227.8125 303,227.9375 303.1406,228.0625 C303.2813,228.2031 303.5156,228.3125 303.7344,228.3125 C304,228.3125 304.2656,228.1719 304.4375,227.9531 C304.5469,227.7969 304.5781,227.6094 304.5781,227.1875 L304.5781,225.7656 C304.5781,225.3281 304.5625,225.2031 304.4688,225.0469 C304.3125,224.7813 304.0313,224.6406 303.7344,224.6406 C303.4375,224.6406 303.2344,224.7344 303.0156,225.0469 L302.8438,224.9688 Z " fill="#000000"/><text fill="#000000" font-family="sans-serif" font-size="14" lengthAdjust="spacing" textLength="38" x="314.5" y="234.1436">Menú</text><line style="stroke:#181818;stroke-width:0.5;" x1="286.5" x2="354.5" y1="245.2969" y2="245.2969"/><line style="stroke:#181818;stroke-width:0.5;" x1="286.5" x2="354.5" y1="253.2969" y2="253.2969"/></g><!--MD5=[3e810361228f291838b77424283ffc08]
class Carta--><g id="elem_Carta"><rect codeLine="11" fill="#F1F1F1" height="48" id="Carta" rx="2.5" ry="2.5" style="stroke:#181818;stroke-width:0.5;" width="71" x="125" y="213.2969"/><ellipse cx="140" cy="229.2969" fill="#ADD1B2" rx="11" ry="11" style="stroke:#181818;stroke-width:1.0;"/><path d="M142.3438,224.9688 C141.4063,224.5313 140.8125,224.3906 139.9375,224.3906 C137.3125,224.3906 135.3125,226.4688 135.3125,229.1875 L135.3125,230.3125 C135.3125,232.8906 137.4219,234.7813 140.3125,234.7813 C141.5313,234.7813 142.6875,234.4844 143.4375,233.9375 C144.0156,233.5313 144.3438,233.0781 144.3438,232.6875 C144.3438,232.2344 143.9531,231.8438 143.4844,231.8438 C143.2656,231.8438 143.0625,231.9219 142.875,232.1094 C142.4219,232.5938 142.4219,232.5938 142.2344,232.6875 C141.8125,232.9531 141.125,233.0781 140.3594,233.0781 C138.3125,233.0781 137.0156,231.9844 137.0156,230.2813 L137.0156,229.1875 C137.0156,227.4063 138.2656,226.0938 140,226.0938 C140.5781,226.0938 141.1875,226.25 141.6563,226.5 C142.1406,226.7813 142.3125,227 142.4063,227.4063 C142.4688,227.8125 142.5,227.9375 142.6406,228.0625 C142.7813,228.2031 143.0156,228.3125 143.2344,228.3125 C143.5,228.3125 143.7656,228.1719 143.9375,227.9531 C144.0469,227.7969 144.0781,227.6094 144.0781,227.1875 L144.0781,225.7656 C144.0781,225.3281 144.0625,225.2031 143.9688,225.0469 C143.8125,224.7813 143.5313,224.6406 143.2344,224.6406 C142.9375,224.6406 142.7344,224.7344 142.5156,225.0469 L142.3438,224.9688 Z " fill="#000000"/><text fill="#000000" font-family="sans-serif" font-size="14" lengthAdjust="spacing" textLength="39" x="154" y="234.1436">Carta</text><line style="stroke:#181818;stroke-width:0.5;" x1="126" x2="195" y1="245.2969" y2="245.2969"/><line style="stroke:#181818;stroke-width:0.5;" x1="126" x2="195" y1="253.2969" y2="253.2969"/></g><!--MD5=[10f054697b8e206f7cee2707e402a581]
class Plato--><g id="elem_Plato"><rect codeLine="12" fill="#F1F1F1" height="48" id="Plato" rx="2.5" ry="2.5" style="stroke:#181818;stroke-width:0.5;" width="69" x="172" y="537.2969"/><ellipse cx="187" cy="553.2969" fill="#ADD1B2" rx="11" ry="11" style="stroke:#181818;stroke-width:1.0;"/><path d="M189.3438,548.9688 C188.4063,548.5313 187.8125,548.3906 186.9375,548.3906 C184.3125,548.3906 182.3125,550.4688 182.3125,553.1875 L182.3125,554.3125 C182.3125,556.8906 184.4219,558.7813 187.3125,558.7813 C188.5313,558.7813 189.6875,558.4844 190.4375,557.9375 C191.0156,557.5313 191.3438,557.0781 191.3438,556.6875 C191.3438,556.2344 190.9531,555.8438 190.4844,555.8438 C190.2656,555.8438 190.0625,555.9219 189.875,556.1094 C189.4219,556.5938 189.4219,556.5938 189.2344,556.6875 C188.8125,556.9531 188.125,557.0781 187.3594,557.0781 C185.3125,557.0781 184.0156,555.9844 184.0156,554.2813 L184.0156,553.1875 C184.0156,551.4063 185.2656,550.0938 187,550.0938 C187.5781,550.0938 188.1875,550.25 188.6563,550.5 C189.1406,550.7813 189.3125,551 189.4063,551.4063 C189.4688,551.8125 189.5,551.9375 189.6406,552.0625 C189.7813,552.2031 190.0156,552.3125 190.2344,552.3125 C190.5,552.3125 190.7656,552.1719 190.9375,551.9531 C191.0469,551.7969 191.0781,551.6094 191.0781,551.1875 L191.0781,549.7656 C191.0781,549.3281 191.0625,549.2031 190.9688,549.0469 C190.8125,548.7813 190.5313,548.6406 190.2344,548.6406 C189.9375,548.6406 189.7344,548.7344 189.5156,549.0469 L189.3438,548.9688 Z " fill="#000000"/><text fill="#000000" font-family="sans-serif" font-size="14" lengthAdjust="spacing" textLength="37" x="201" y="558.1436">Plato</text><line style="stroke:#181818;stroke-width:0.5;" x1="173" x2="240" y1="569.2969" y2="569.2969"/><line style="stroke:#181818;stroke-width:0.5;" x1="173" x2="240" y1="577.2969" y2="577.2969"/></g><!--MD5=[268a25248fa13cb6a0386339b471b79a]
class Ingrediente--><g id="elem_Ingrediente"><rect codeLine="13" fill="#F1F1F1" height="48" id="Ingrediente" rx="2.5" ry="2.5" style="stroke:#181818;stroke-width:0.5;" width="116" x="148.5" y="645.2969"/><ellipse cx="163.5" cy="661.2969" fill="#ADD1B2" rx="11" ry="11" style="stroke:#181818;stroke-width:1.0;"/><path d="M165.8438,656.9688 C164.9063,656.5313 164.3125,656.3906 163.4375,656.3906 C160.8125,656.3906 158.8125,658.4688 158.8125,661.1875 L158.8125,662.3125 C158.8125,664.8906 160.9219,666.7813 163.8125,666.7813 C165.0313,666.7813 166.1875,666.4844 166.9375,665.9375 C167.5156,665.5313 167.8438,665.0781 167.8438,664.6875 C167.8438,664.2344 167.4531,663.8438 166.9844,663.8438 C166.7656,663.8438 166.5625,663.9219 166.375,664.1094 C165.9219,664.5938 165.9219,664.5938 165.7344,664.6875 C165.3125,664.9531 164.625,665.0781 163.8594,665.0781 C161.8125,665.0781 160.5156,663.9844 160.5156,662.2813 L160.5156,661.1875 C160.5156,659.4063 161.7656,658.0938 163.5,658.0938 C164.0781,658.0938 164.6875,658.25 165.1563,658.5 C165.6406,658.7813 165.8125,659 165.9063,659.4063 C165.9688,659.8125 166,659.9375 166.1406,660.0625 C166.2813,660.2031 166.5156,660.3125 166.7344,660.3125 C167,660.3125 167.2656,660.1719 167.4375,659.9531 C167.5469,659.7969 167.5781,659.6094 167.5781,659.1875 L167.5781,657.7656 C167.5781,657.3281 167.5625,657.2031 167.4688,657.0469 C167.3125,656.7813 167.0313,656.6406 166.7344,656.6406 C166.4375,656.6406 166.2344,656.7344 166.0156,657.0469 L165.8438,656.9688 Z " fill="#000000"/><text fill="#000000" font-family="sans-serif" font-size="14" lengthAdjust="spacing" textLength="84" x="177.5" y="666.1436">Ingrediente</text><line style="stroke:#181818;stroke-width:0.5;" x1="149.5" x2="263.5" y1="677.2969" y2="677.2969"/><line style="stroke:#181818;stroke-width:0.5;" x1="149.5" x2="263.5" y1="685.2969" y2="685.2969"/></g><!--MD5=[b6e0c31e632093ef8470f6cbe79cda6d]
class Cebolla--><g id="elem_Cebolla"><rect codeLine="14" fill="#F1F1F1" height="48" id="Cebolla" rx="2.5" ry="2.5" style="stroke:#181818;stroke-width:0.5;" width="86" x="107.5" y="753.2969"/><ellipse cx="122.5" cy="769.2969" fill="#ADD1B2" rx="11" ry="11" style="stroke:#181818;stroke-width:1.0;"/><path d="M124.8438,764.9688 C123.9063,764.5313 123.3125,764.3906 122.4375,764.3906 C119.8125,764.3906 117.8125,766.4688 117.8125,769.1875 L117.8125,770.3125 C117.8125,772.8906 119.9219,774.7813 122.8125,774.7813 C124.0313,774.7813 125.1875,774.4844 125.9375,773.9375 C126.5156,773.5313 126.8438,773.0781 126.8438,772.6875 C126.8438,772.2344 126.4531,771.8438 125.9844,771.8438 C125.7656,771.8438 125.5625,771.9219 125.375,772.1094 C124.9219,772.5938 124.9219,772.5938 124.7344,772.6875 C124.3125,772.9531 123.625,773.0781 122.8594,773.0781 C120.8125,773.0781 119.5156,771.9844 119.5156,770.2813 L119.5156,769.1875 C119.5156,767.4063 120.7656,766.0938 122.5,766.0938 C123.0781,766.0938 123.6875,766.25 124.1563,766.5 C124.6406,766.7813 124.8125,767 124.9063,767.4063 C124.9688,767.8125 125,767.9375 125.1406,768.0625 C125.2813,768.2031 125.5156,768.3125 125.7344,768.3125 C126,768.3125 126.2656,768.1719 126.4375,767.9531 C126.5469,767.7969 126.5781,767.6094 126.5781,767.1875 L126.5781,765.7656 C126.5781,765.3281 126.5625,765.2031 126.4688,765.0469 C126.3125,764.7813 126.0313,764.6406 125.7344,764.6406 C125.4375,764.6406 125.2344,764.7344 125.0156,765.0469 L124.8438,764.9688 Z " fill="#000000"/><text fill="#000000" font-family="sans-serif" font-size="14" lengthAdjust="spacing" textLength="54" x="136.5" y="774.1436">Cebolla</text><line style="stroke:#181818;stroke-width:0.5;" x1="108.5" x2="192.5" y1="785.2969" y2="785.2969"/><line style="stroke:#181818;stroke-width:0.5;" x1="108.5" x2="192.5" y1="793.2969" y2="793.2969"/></g><!--MD5=[bce19fba24740ef82b47fe668dcd8974]
class Trigo--><g id="elem_Trigo"><rect codeLine="15" fill="#F1F1F1" height="48" id="Trigo" rx="2.5" ry="2.5" style="stroke:#181818;stroke-width:0.5;" width="69" x="229" y="753.2969"/><ellipse cx="244" cy="769.2969" fill="#ADD1B2" rx="11" ry="11" style="stroke:#181818;stroke-width:1.0;"/><path d="M246.3438,764.9688 C245.4063,764.5313 244.8125,764.3906 243.9375,764.3906 C241.3125,764.3906 239.3125,766.4688 239.3125,769.1875 L239.3125,770.3125 C239.3125,772.8906 241.4219,774.7813 244.3125,774.7813 C245.5313,774.7813 246.6875,774.4844 247.4375,773.9375 C248.0156,773.5313 248.3438,773.0781 248.3438,772.6875 C248.3438,772.2344 247.9531,771.8438 247.4844,771.8438 C247.2656,771.8438 247.0625,771.9219 246.875,772.1094 C246.4219,772.5938 246.4219,772.5938 246.2344,772.6875 C245.8125,772.9531 245.125,773.0781 244.3594,773.0781 C242.3125,773.0781 241.0156,771.9844 241.0156,770.2813 L241.0156,769.1875 C241.0156,767.4063 242.2656,766.0938 244,766.0938 C244.5781,766.0938 245.1875,766.25 245.6563,766.5 C246.1406,766.7813 246.3125,767 246.4063,767.4063 C246.4688,767.8125 246.5,767.9375 246.6406,768.0625 C246.7813,768.2031 247.0156,768.3125 247.2344,768.3125 C247.5,768.3125 247.7656,768.1719 247.9375,767.9531 C248.0469,767.7969 248.0781,767.6094 248.0781,767.1875 L248.0781,765.7656 C248.0781,765.3281 248.0625,765.2031 247.9688,765.0469 C247.8125,764.7813 247.5313,764.6406 247.2344,764.6406 C246.9375,764.6406 246.7344,764.7344 246.5156,765.0469 L246.3438,764.9688 Z " fill="#000000"/><text fill="#000000" font-family="sans-serif" font-size="14" lengthAdjust="spacing" textLength="37" x="258" y="774.1436">Trigo</text><line style="stroke:#181818;stroke-width:0.5;" x1="230" x2="297" y1="785.2969" y2="785.2969"/><line style="stroke:#181818;stroke-width:0.5;" x1="230" x2="297" y1="793.2969" y2="793.2969"/></g><!--MD5=[28125a0c793a6fc414f63a9f3803b7f4]
class Envío--><g id="elem_Envío"><rect codeLine="16" fill="#F1F1F1" height="48" id="Envío" rx="2.5" ry="2.5" style="stroke:#181818;stroke-width:0.5;" width="71" x="471" y="537.2969"/><ellipse cx="486" cy="553.2969" fill="#ADD1B2" rx="11" ry="11" style="stroke:#181818;stroke-width:1.0;"/><path d="M488.3438,548.9688 C487.4063,548.5313 486.8125,548.3906 485.9375,548.3906 C483.3125,548.3906 481.3125,550.4688 481.3125,553.1875 L481.3125,554.3125 C481.3125,556.8906 483.4219,558.7813 486.3125,558.7813 C487.5313,558.7813 488.6875,558.4844 489.4375,557.9375 C490.0156,557.5313 490.3438,557.0781 490.3438,556.6875 C490.3438,556.2344 489.9531,555.8438 489.4844,555.8438 C489.2656,555.8438 489.0625,555.9219 488.875,556.1094 C488.4219,556.5938 488.4219,556.5938 488.2344,556.6875 C487.8125,556.9531 487.125,557.0781 486.3594,557.0781 C484.3125,557.0781 483.0156,555.9844 483.0156,554.2813 L483.0156,553.1875 C483.0156,551.4063 484.2656,550.0938 486,550.0938 C486.5781,550.0938 487.1875,550.25 487.6563,550.5 C488.1406,550.7813 488.3125,551 488.4063,551.4063 C488.4688,551.8125 488.5,551.9375 488.6406,552.0625 C488.7813,552.2031 489.0156,552.3125 489.2344,552.3125 C489.5,552.3125 489.7656,552.1719 489.9375,551.9531 C490.0469,551.7969 490.0781,551.6094 490.0781,551.1875 L490.0781,549.7656 C490.0781,549.3281 490.0625,549.2031 489.9688,549.0469 C489.8125,548.7813 489.5313,548.6406 489.2344,548.6406 C488.9375,548.6406 488.7344,548.7344 488.5156,549.0469 L488.3438,548.9688 Z " fill="#000000"/><text fill="#000000" font-family="sans-serif" font-size="14" lengthAdjust="spacing" textLength="39" x="500" y="558.1436">Envío</text><line style="stroke:#181818;stroke-width:0.5;" x1="472" x2="541" y1="569.2969" y2="569.2969"/><line style="stroke:#181818;stroke-width:0.5;" x1="472" x2="541" y1="577.2969" y2="577.2969"/></g><!--MD5=[d337dcc9d7044504ec728240dea3f979]
class Crítico--><g id="elem_Crítico"><rect codeLine="17" fill="#F1F1F1" height="48" id="Crítico" rx="2.5" ry="2.5" style="stroke:#181818;stroke-width:0.5;" width="80" x="269.5" y="44.2969"/><ellipse cx="284.5" cy="60.2969" fill="#ADD1B2" rx="11" ry="11" style="stroke:#181818;stroke-width:1.0;"/><path d="M286.8438,55.9688 C285.9063,55.5313 285.3125,55.3906 284.4375,55.3906 C281.8125,55.3906 279.8125,57.4688 279.8125,60.1875 L279.8125,61.3125 C279.8125,63.8906 281.9219,65.7813 284.8125,65.7813 C286.0313,65.7813 287.1875,65.4844 287.9375,64.9375 C288.5156,64.5313 288.8438,64.0781 288.8438,63.6875 C288.8438,63.2344 288.4531,62.8438 287.9844,62.8438 C287.7656,62.8438 287.5625,62.9219 287.375,63.1094 C286.9219,63.5938 286.9219,63.5938 286.7344,63.6875 C286.3125,63.9531 285.625,64.0781 284.8594,64.0781 C282.8125,64.0781 281.5156,62.9844 281.5156,61.2813 L281.5156,60.1875 C281.5156,58.4063 282.7656,57.0938 284.5,57.0938 C285.0781,57.0938 285.6875,57.25 286.1563,57.5 C286.6406,57.7813 286.8125,58 286.9063,58.4063 C286.9688,58.8125 287,58.9375 287.1406,59.0625 C287.2813,59.2031 287.5156,59.3125 287.7344,59.3125 C288,59.3125 288.2656,59.1719 288.4375,58.9531 C288.5469,58.7969 288.5781,58.6094 288.5781,58.1875 L288.5781,56.7656 C288.5781,56.3281 288.5625,56.2031 288.4688,56.0469 C288.3125,55.7813 288.0313,55.6406 287.7344,55.6406 C287.4375,55.6406 287.2344,55.7344 287.0156,56.0469 L286.8438,55.9688 Z " fill="#000000"/><text fill="#000000" font-family="sans-serif" font-size="14" lengthAdjust="spacing" textLength="48" x="298.5" y="65.1436">Crítico</text><line style="stroke:#181818;stroke-width:0.5;" x1="270.5" x2="348.5" y1="76.2969" y2="76.2969"/><line style="stroke:#181818;stroke-width:0.5;" x1="270.5" x2="348.5" y1="84.2969" y2="84.2969"/></g><!--MD5=[5ae9ae39a93830c34da1e7f0c8e0d5da]
class Camarero--><g id="elem_Camarero"><rect codeLine="18" fill="#F1F1F1" height="48" id="Camarero" rx="2.5" ry="2.5" style="stroke:#181818;stroke-width:0.5;" width="102" x="577.5" y="537.2969"/><ellipse cx="592.5" cy="553.2969" fill="#ADD1B2" rx="11" ry="11" style="stroke:#181818;stroke-width:1.0;"/><path d="M594.8438,548.9688 C593.9063,548.5313 593.3125,548.3906 592.4375,548.3906 C589.8125,548.3906 587.8125,550.4688 587.8125,553.1875 L587.8125,554.3125 C587.8125,556.8906 589.9219,558.7813 592.8125,558.7813 C594.0313,558.7813 595.1875,558.4844 595.9375,557.9375 C596.5156,557.5313 596.8438,557.0781 596.8438,556.6875 C596.8438,556.2344 596.4531,555.8438 595.9844,555.8438 C595.7656,555.8438 595.5625,555.9219 595.375,556.1094 C594.9219,556.5938 594.9219,556.5938 594.7344,556.6875 C594.3125,556.9531 593.625,557.0781 592.8594,557.0781 C590.8125,557.0781 589.5156,555.9844 589.5156,554.2813 L589.5156,553.1875 C589.5156,551.4063 590.7656,550.0938 592.5,550.0938 C593.0781,550.0938 593.6875,550.25 594.1563,550.5 C594.6406,550.7813 594.8125,551 594.9063,551.4063 C594.9688,551.8125 595,551.9375 595.1406,552.0625 C595.2813,552.2031 595.5156,552.3125 595.7344,552.3125 C596,552.3125 596.2656,552.1719 596.4375,551.9531 C596.5469,551.7969 596.5781,551.6094 596.5781,551.1875 L596.5781,549.7656 C596.5781,549.3281 596.5625,549.2031 596.4688,549.0469 C596.3125,548.7813 596.0313,548.6406 595.7344,548.6406 C595.4375,548.6406 595.2344,548.7344 595.0156,549.0469 L594.8438,548.9688 Z " fill="#000000"/><text fill="#000000" font-family="sans-serif" font-size="14" lengthAdjust="spacing" textLength="70" x="606.5" y="558.1436">Camarero</text><line style="stroke:#181818;stroke-width:0.5;" x1="578.5" x2="678.5" y1="569.2969" y2="569.2969"/><line style="stroke:#181818;stroke-width:0.5;" x1="578.5" x2="678.5" y1="577.2969" y2="577.2969"/></g><!--MD5=[59506a8c2e0bd16391dc79e79fac83ed]
class Cocinero--><g id="elem_Cocinero"><rect codeLine="19" fill="#F1F1F1" height="48" id="Cocinero" rx="2.5" ry="2.5" style="stroke:#181818;stroke-width:0.5;" width="96" x="844.5" y="537.2969"/><ellipse cx="859.5" cy="553.2969" fill="#ADD1B2" rx="11" ry="11" style="stroke:#181818;stroke-width:1.0;"/><path d="M861.8438,548.9688 C860.9063,548.5313 860.3125,548.3906 859.4375,548.3906 C856.8125,548.3906 854.8125,550.4688 854.8125,553.1875 L854.8125,554.3125 C854.8125,556.8906 856.9219,558.7813 859.8125,558.7813 C861.0313,558.7813 862.1875,558.4844 862.9375,557.9375 C863.5156,557.5313 863.8438,557.0781 863.8438,556.6875 C863.8438,556.2344 863.4531,555.8438 862.9844,555.8438 C862.7656,555.8438 862.5625,555.9219 862.375,556.1094 C861.9219,556.5938 861.9219,556.5938 861.7344,556.6875 C861.3125,556.9531 860.625,557.0781 859.8594,557.0781 C857.8125,557.0781 856.5156,555.9844 856.5156,554.2813 L856.5156,553.1875 C856.5156,551.4063 857.7656,550.0938 859.5,550.0938 C860.0781,550.0938 860.6875,550.25 861.1563,550.5 C861.6406,550.7813 861.8125,551 861.9063,551.4063 C861.9688,551.8125 862,551.9375 862.1406,552.0625 C862.2813,552.2031 862.5156,552.3125 862.7344,552.3125 C863,552.3125 863.2656,552.1719 863.4375,551.9531 C863.5469,551.7969 863.5781,551.6094 863.5781,551.1875 L863.5781,549.7656 C863.5781,549.3281 863.5625,549.2031 863.4688,549.0469 C863.3125,548.7813 863.0313,548.6406 862.7344,548.6406 C862.4375,548.6406 862.2344,548.7344 862.0156,549.0469 L861.8438,548.9688 Z " fill="#000000"/><text fill="#000000" font-family="sans-serif" font-size="14" lengthAdjust="spacing" textLength="64" x="873.5" y="558.1436">Cocinero</text><line style="stroke:#181818;stroke-width:0.5;" x1="845.5" x2="939.5" y1="569.2969" y2="569.2969"/><line style="stroke:#181818;stroke-width:0.5;" x1="845.5" x2="939.5" y1="577.2969" y2="577.2969"/></g><!--MD5=[d8433e2e5dce43d5d7392ba0461fd576]
class JefeDeCocina--><g id="elem_JefeDeCocina"><rect codeLine="20" fill="#F1F1F1" height="48" id="JefeDeCocina" rx="2.5" ry="2.5" style="stroke:#181818;stroke-width:0.5;" width="128" x="1004.5" y="429.2969"/><ellipse cx="1019.5" cy="445.2969" fill="#ADD1B2" rx="11" ry="11" style="stroke:#181818;stroke-width:1.0;"/><path d="M1021.8438,440.9688 C1020.9063,440.5313 1020.3125,440.3906 1019.4375,440.3906 C1016.8125,440.3906 1014.8125,442.4688 1014.8125,445.1875 L1014.8125,446.3125 C1014.8125,448.8906 1016.9219,450.7813 1019.8125,450.7813 C1021.0313,450.7813 1022.1875,450.4844 1022.9375,449.9375 C1023.5156,449.5313 1023.8438,449.0781 1023.8438,448.6875 C1023.8438,448.2344 1023.4531,447.8438 1022.9844,447.8438 C1022.7656,447.8438 1022.5625,447.9219 1022.375,448.1094 C1021.9219,448.5938 1021.9219,448.5938 1021.7344,448.6875 C1021.3125,448.9531 1020.625,449.0781 1019.8594,449.0781 C1017.8125,449.0781 1016.5156,447.9844 1016.5156,446.2813 L1016.5156,445.1875 C1016.5156,443.4063 1017.7656,442.0938 1019.5,442.0938 C1020.0781,442.0938 1020.6875,442.25 1021.1563,442.5 C1021.6406,442.7813 1021.8125,443 1021.9063,443.4063 C1021.9688,443.8125 1022,443.9375 1022.1406,444.0625 C1022.2813,444.2031 1022.5156,444.3125 1022.7344,444.3125 C1023,444.3125 1023.2656,444.1719 1023.4375,443.9531 C1023.5469,443.7969 1023.5781,443.6094 1023.5781,443.1875 L1023.5781,441.7656 C1023.5781,441.3281 1023.5625,441.2031 1023.4688,441.0469 C1023.3125,440.7813 1023.0313,440.6406 1022.7344,440.6406 C1022.4375,440.6406 1022.2344,440.7344 1022.0156,441.0469 L1021.8438,440.9688 Z " fill="#000000"/><text fill="#000000" font-family="sans-serif" font-size="14" lengthAdjust="spacing" textLength="96" x="1033.5" y="450.1436">JefeDeCocina</text><line style="stroke:#181818;stroke-width:0.5;" x1="1005.5" x2="1131.5" y1="461.2969" y2="461.2969"/><line style="stroke:#181818;stroke-width:0.5;" x1="1005.5" x2="1131.5" y1="469.2969" y2="469.2969"/></g><!--MD5=[87a7e5105a1a0f27406a53268f236c57]
class Cocina--><g id="elem_Cocina"><rect codeLine="21" fill="#F1F1F1" height="48" id="Cocina" rx="2.5" ry="2.5" style="stroke:#181818;stroke-width:0.5;" width="80" x="472.5" y="429.2969"/><ellipse cx="487.5" cy="445.2969" fill="#ADD1B2" rx="11" ry="11" style="stroke:#181818;stroke-width:1.0;"/><path d="M489.8438,440.9688 C488.9063,440.5313 488.3125,440.3906 487.4375,440.3906 C484.8125,440.3906 482.8125,442.4688 482.8125,445.1875 L482.8125,446.3125 C482.8125,448.8906 484.9219,450.7813 487.8125,450.7813 C489.0313,450.7813 490.1875,450.4844 490.9375,449.9375 C491.5156,449.5313 491.8438,449.0781 491.8438,448.6875 C491.8438,448.2344 491.4531,447.8438 490.9844,447.8438 C490.7656,447.8438 490.5625,447.9219 490.375,448.1094 C489.9219,448.5938 489.9219,448.5938 489.7344,448.6875 C489.3125,448.9531 488.625,449.0781 487.8594,449.0781 C485.8125,449.0781 484.5156,447.9844 484.5156,446.2813 L484.5156,445.1875 C484.5156,443.4063 485.7656,442.0938 487.5,442.0938 C488.0781,442.0938 488.6875,442.25 489.1563,442.5 C489.6406,442.7813 489.8125,443 489.9063,443.4063 C489.9688,443.8125 490,443.9375 490.1406,444.0625 C490.2813,444.2031 490.5156,444.3125 490.7344,444.3125 C491,444.3125 491.2656,444.1719 491.4375,443.9531 C491.5469,443.7969 491.5781,443.6094 491.5781,443.1875 L491.5781,441.7656 C491.5781,441.3281 491.5625,441.2031 491.4688,441.0469 C491.3125,440.7813 491.0313,440.6406 490.7344,440.6406 C490.4375,440.6406 490.2344,440.7344 490.0156,441.0469 L489.8438,440.9688 Z " fill="#000000"/><text fill="#000000" font-family="sans-serif" font-size="14" lengthAdjust="spacing" textLength="48" x="501.5" y="450.1436">Cocina</text><line style="stroke:#181818;stroke-width:0.5;" x1="473.5" x2="551.5" y1="461.2969" y2="461.2969"/><line style="stroke:#181818;stroke-width:0.5;" x1="473.5" x2="551.5" y1="469.2969" y2="469.2969"/></g><!--MD5=[7a58f42d35cbb2250f3bbe9b4f1e2437]
class Horno--><g id="elem_Horno"><rect codeLine="22" fill="#F1F1F1" height="48" id="Horno" rx="2.5" ry="2.5" style="stroke:#181818;stroke-width:0.5;" width="75" x="361" y="537.2969"/><ellipse cx="376" cy="553.2969" fill="#ADD1B2" rx="11" ry="11" style="stroke:#181818;stroke-width:1.0;"/><path d="M378.3438,548.9688 C377.4063,548.5313 376.8125,548.3906 375.9375,548.3906 C373.3125,548.3906 371.3125,550.4688 371.3125,553.1875 L371.3125,554.3125 C371.3125,556.8906 373.4219,558.7813 376.3125,558.7813 C377.5313,558.7813 378.6875,558.4844 379.4375,557.9375 C380.0156,557.5313 380.3438,557.0781 380.3438,556.6875 C380.3438,556.2344 379.9531,555.8438 379.4844,555.8438 C379.2656,555.8438 379.0625,555.9219 378.875,556.1094 C378.4219,556.5938 378.4219,556.5938 378.2344,556.6875 C377.8125,556.9531 377.125,557.0781 376.3594,557.0781 C374.3125,557.0781 373.0156,555.9844 373.0156,554.2813 L373.0156,553.1875 C373.0156,551.4063 374.2656,550.0938 376,550.0938 C376.5781,550.0938 377.1875,550.25 377.6563,550.5 C378.1406,550.7813 378.3125,551 378.4063,551.4063 C378.4688,551.8125 378.5,551.9375 378.6406,552.0625 C378.7813,552.2031 379.0156,552.3125 379.2344,552.3125 C379.5,552.3125 379.7656,552.1719 379.9375,551.9531 C380.0469,551.7969 380.0781,551.6094 380.0781,551.1875 L380.0781,549.7656 C380.0781,549.3281 380.0625,549.2031 379.9688,549.0469 C379.8125,548.7813 379.5313,548.6406 379.2344,548.6406 C378.9375,548.6406 378.7344,548.7344 378.5156,549.0469 L378.3438,548.9688 Z " fill="#000000"/><text fill="#000000" font-family="sans-serif" font-size="14" lengthAdjust="spacing" textLength="43" x="390" y="558.1436">Horno</text><line style="stroke:#181818;stroke-width:0.5;" x1="362" x2="435" y1="569.2969" y2="569.2969"/><line style="stroke:#181818;stroke-width:0.5;" x1="362" x2="435" y1="577.2969" y2="577.2969"/></g><!--MD5=[e54d1ddad44fdb9ba256a8749f08d4fc]
class Equipo--><g id="elem_Equipo"><rect codeLine="23" fill="#F1F1F1" height="48" id="Equipo" rx="2.5" ry="2.5" style="stroke:#181818;stroke-width:0.5;" width="81" x="888" y="213.2969"/><ellipse cx="903" cy="229.2969" fill="#ADD1B2" rx="11" ry="11" style="stroke:#181818;stroke-width:1.0;"/><path d="M905.3438,224.9688 C904.4063,224.5313 903.8125,224.3906 902.9375,224.3906 C900.3125,224.3906 898.3125,226.4688 898.3125,229.1875 L898.3125,230.3125 C898.3125,232.8906 900.4219,234.7813 903.3125,234.7813 C904.5313,234.7813 905.6875,234.4844 906.4375,233.9375 C907.0156,233.5313 907.3438,233.0781 907.3438,232.6875 C907.3438,232.2344 906.9531,231.8438 906.4844,231.8438 C906.2656,231.8438 906.0625,231.9219 905.875,232.1094 C905.4219,232.5938 905.4219,232.5938 905.2344,232.6875 C904.8125,232.9531 904.125,233.0781 903.3594,233.0781 C901.3125,233.0781 900.0156,231.9844 900.0156,230.2813 L900.0156,229.1875 C900.0156,227.4063 901.2656,226.0938 903,226.0938 C903.5781,226.0938 904.1875,226.25 904.6563,226.5 C905.1406,226.7813 905.3125,227 905.4063,227.4063 C905.4688,227.8125 905.5,227.9375 905.6406,228.0625 C905.7813,228.2031 906.0156,228.3125 906.2344,228.3125 C906.5,228.3125 906.7656,228.1719 906.9375,227.9531 C907.0469,227.7969 907.0781,227.6094 907.0781,227.1875 L907.0781,225.7656 C907.0781,225.3281 907.0625,225.2031 906.9688,225.0469 C906.8125,224.7813 906.5313,224.6406 906.2344,224.6406 C905.9375,224.6406 905.7344,224.7344 905.5156,225.0469 L905.3438,224.9688 Z " fill="#000000"/><text fill="#000000" font-family="sans-serif" font-size="14" lengthAdjust="spacing" textLength="49" x="917" y="234.1436">Equipo</text><line style="stroke:#181818;stroke-width:0.5;" x1="889" x2="968" y1="245.2969" y2="245.2969"/><line style="stroke:#181818;stroke-width:0.5;" x1="889" x2="968" y1="253.2969" y2="253.2969"/></g><!--MD5=[52e8bf6fc0668e8147db1210ed0f20d1]
class JefeDePersonal--><g id="elem_JefeDePersonal"><rect codeLine="24" fill="#F1F1F1" height="48" id="JefeDePersonal" rx="2.5" ry="2.5" style="stroke:#181818;stroke-width:0.5;" width="141" x="1005" y="321.2969"/><ellipse cx="1020" cy="337.2969" fill="#ADD1B2" rx="11" ry="11" style="stroke:#181818;stroke-width:1.0;"/><path d="M1022.3438,332.9688 C1021.4063,332.5313 1020.8125,332.3906 1019.9375,332.3906 C1017.3125,332.3906 1015.3125,334.4688 1015.3125,337.1875 L1015.3125,338.3125 C1015.3125,340.8906 1017.4219,342.7813 1020.3125,342.7813 C1021.5313,342.7813 1022.6875,342.4844 1023.4375,341.9375 C1024.0156,341.5313 1024.3438,341.0781 1024.3438,340.6875 C1024.3438,340.2344 1023.9531,339.8438 1023.4844,339.8438 C1023.2656,339.8438 1023.0625,339.9219 1022.875,340.1094 C1022.4219,340.5938 1022.4219,340.5938 1022.2344,340.6875 C1021.8125,340.9531 1021.125,341.0781 1020.3594,341.0781 C1018.3125,341.0781 1017.0156,339.9844 1017.0156,338.2813 L1017.0156,337.1875 C1017.0156,335.4063 1018.2656,334.0938 1020,334.0938 C1020.5781,334.0938 1021.1875,334.25 1021.6563,334.5 C1022.1406,334.7813 1022.3125,335 1022.4063,335.4063 C1022.4688,335.8125 1022.5,335.9375 1022.6406,336.0625 C1022.7813,336.2031 1023.0156,336.3125 1023.2344,336.3125 C1023.5,336.3125 1023.7656,336.1719 1023.9375,335.9531 C1024.0469,335.7969 1024.0781,335.6094 1024.0781,335.1875 L1024.0781,333.7656 C1024.0781,333.3281 1024.0625,333.2031 1023.9688,333.0469 C1023.8125,332.7813 1023.5313,332.6406 1023.2344,332.6406 C1022.9375,332.6406 1022.7344,332.7344 1022.5156,333.0469 L1022.3438,332.9688 Z " fill="#000000"/><text fill="#000000" font-family="sans-serif" font-size="14" lengthAdjust="spacing" textLength="109" x="1034" y="342.1436">JefeDePersonal</text><line style="stroke:#181818;stroke-width:0.5;" x1="1006" x2="1145" y1="353.2969" y2="353.2969"/><line style="stroke:#181818;stroke-width:0.5;" x1="1006" x2="1145" y1="361.2969" y2="361.2969"/></g><!--MD5=[8831de083a354ec2f3d5c9addd03da61]
class Entrevista--><g id="elem_Entrevista"><rect codeLine="25" fill="#F1F1F1" height="48" id="Entrevista" rx="2.5" ry="2.5" style="stroke:#181818;stroke-width:0.5;" width="106" x="746.5" y="321.2969"/><ellipse cx="761.5" cy="337.2969" fill="#ADD1B2" rx="11" ry="11" style="stroke:#181818;stroke-width:1.0;"/><path d="M763.8438,332.9688 C762.9063,332.5313 762.3125,332.3906 761.4375,332.3906 C758.8125,332.3906 756.8125,334.4688 756.8125,337.1875 L756.8125,338.3125 C756.8125,340.8906 758.9219,342.7813 761.8125,342.7813 C763.0313,342.7813 764.1875,342.4844 764.9375,341.9375 C765.5156,341.5313 765.8438,341.0781 765.8438,340.6875 C765.8438,340.2344 765.4531,339.8438 764.9844,339.8438 C764.7656,339.8438 764.5625,339.9219 764.375,340.1094 C763.9219,340.5938 763.9219,340.5938 763.7344,340.6875 C763.3125,340.9531 762.625,341.0781 761.8594,341.0781 C759.8125,341.0781 758.5156,339.9844 758.5156,338.2813 L758.5156,337.1875 C758.5156,335.4063 759.7656,334.0938 761.5,334.0938 C762.0781,334.0938 762.6875,334.25 763.1563,334.5 C763.6406,334.7813 763.8125,335 763.9063,335.4063 C763.9688,335.8125 764,335.9375 764.1406,336.0625 C764.2813,336.2031 764.5156,336.3125 764.7344,336.3125 C765,336.3125 765.2656,336.1719 765.4375,335.9531 C765.5469,335.7969 765.5781,335.6094 765.5781,335.1875 L765.5781,333.7656 C765.5781,333.3281 765.5625,333.2031 765.4688,333.0469 C765.3125,332.7813 765.0313,332.6406 764.7344,332.6406 C764.4375,332.6406 764.2344,332.7344 764.0156,333.0469 L763.8438,332.9688 Z " fill="#000000"/><text fill="#000000" font-family="sans-serif" font-size="14" lengthAdjust="spacing" textLength="74" x="775.5" y="342.1436">Entrevista</text><line style="stroke:#181818;stroke-width:0.5;" x1="747.5" x2="851.5" y1="353.2969" y2="353.2969"/><line style="stroke:#181818;stroke-width:0.5;" x1="747.5" x2="851.5" y1="361.2969" y2="361.2969"/></g><!--MD5=[82f72405d3bc99316490fd00ed542541]
class Ensayo--><g id="elem_Ensayo"><rect codeLine="26" fill="#F1F1F1" height="48" id="Ensayo" rx="2.5" ry="2.5" style="stroke:#181818;stroke-width:0.5;" width="82" x="887.5" y="321.2969"/><ellipse cx="902.5" cy="337.2969" fill="#ADD1B2" rx="11" ry="11" style="stroke:#181818;stroke-width:1.0;"/><path d="M904.8438,332.9688 C903.9063,332.5313 903.3125,332.3906 902.4375,332.3906 C899.8125,332.3906 897.8125,334.4688 897.8125,337.1875 L897.8125,338.3125 C897.8125,340.8906 899.9219,342.7813 902.8125,342.7813 C904.0313,342.7813 905.1875,342.4844 905.9375,341.9375 C906.5156,341.5313 906.8438,341.0781 906.8438,340.6875 C906.8438,340.2344 906.4531,339.8438 905.9844,339.8438 C905.7656,339.8438 905.5625,339.9219 905.375,340.1094 C904.9219,340.5938 904.9219,340.5938 904.7344,340.6875 C904.3125,340.9531 903.625,341.0781 902.8594,341.0781 C900.8125,341.0781 899.5156,339.9844 899.5156,338.2813 L899.5156,337.1875 C899.5156,335.4063 900.7656,334.0938 902.5,334.0938 C903.0781,334.0938 903.6875,334.25 904.1563,334.5 C904.6406,334.7813 904.8125,335 904.9063,335.4063 C904.9688,335.8125 905,335.9375 905.1406,336.0625 C905.2813,336.2031 905.5156,336.3125 905.7344,336.3125 C906,336.3125 906.2656,336.1719 906.4375,335.9531 C906.5469,335.7969 906.5781,335.6094 906.5781,335.1875 L906.5781,333.7656 C906.5781,333.3281 906.5625,333.2031 906.4688,333.0469 C906.3125,332.7813 906.0313,332.6406 905.7344,332.6406 C905.4375,332.6406 905.2344,332.7344 905.0156,333.0469 L904.8438,332.9688 Z " fill="#000000"/><text fill="#000000" font-family="sans-serif" font-size="14" lengthAdjust="spacing" textLength="50" x="916.5" y="342.1436">Ensayo</text><line style="stroke:#181818;stroke-width:0.5;" x1="888.5" x2="968.5" y1="353.2969" y2="353.2969"/><line style="stroke:#181818;stroke-width:0.5;" x1="888.5" x2="968.5" y1="361.2969" y2="361.2969"/></g><!--MD5=[f8ee293aa2dcf772bab405924dc5c6e1]
class Reglas--><g id="elem_Reglas"><rect codeLine="27" fill="#F1F1F1" height="48" id="Reglas" rx="2.5" ry="2.5" style="stroke:#181818;stroke-width:0.5;" width="79" x="1253" y="321.2969"/><ellipse cx="1268" cy="337.2969" fill="#ADD1B2" rx="11" ry="11" style="stroke:#181818;stroke-width:1.0;"/><path d="M1270.3438,332.9688 C1269.4063,332.5313 1268.8125,332.3906 1267.9375,332.3906 C1265.3125,332.3906 1263.3125,334.4688 1263.3125,337.1875 L1263.3125,338.3125 C1263.3125,340.8906 1265.4219,342.7813 1268.3125,342.7813 C1269.5313,342.7813 1270.6875,342.4844 1271.4375,341.9375 C1272.0156,341.5313 1272.3438,341.0781 1272.3438,340.6875 C1272.3438,340.2344 1271.9531,339.8438 1271.4844,339.8438 C1271.2656,339.8438 1271.0625,339.9219 1270.875,340.1094 C1270.4219,340.5938 1270.4219,340.5938 1270.2344,340.6875 C1269.8125,340.9531 1269.125,341.0781 1268.3594,341.0781 C1266.3125,341.0781 1265.0156,339.9844 1265.0156,338.2813 L1265.0156,337.1875 C1265.0156,335.4063 1266.2656,334.0938 1268,334.0938 C1268.5781,334.0938 1269.1875,334.25 1269.6563,334.5 C1270.1406,334.7813 1270.3125,335 1270.4063,335.4063 C1270.4688,335.8125 1270.5,335.9375 1270.6406,336.0625 C1270.7813,336.2031 1271.0156,336.3125 1271.2344,336.3125 C1271.5,336.3125 1271.7656,336.1719 1271.9375,335.9531 C1272.0469,335.7969 1272.0781,335.6094 1272.0781,335.1875 L1272.0781,333.7656 C1272.0781,333.3281 1272.0625,333.2031 1271.9688,333.0469 C1271.8125,332.7813 1271.5313,332.6406 1271.2344,332.6406 C1270.9375,332.6406 1270.7344,332.7344 1270.5156,333.0469 L1270.3438,332.9688 Z " fill="#000000"/><text fill="#000000" font-family="sans-serif" font-size="14" lengthAdjust="spacing" textLength="47" x="1282" y="342.1436">Reglas</text><line style="stroke:#181818;stroke-width:0.5;" x1="1254" x2="1331" y1="353.2969" y2="353.2969"/><line style="stroke:#181818;stroke-width:0.5;" x1="1254" x2="1331" y1="361.2969" y2="361.2969"/></g><!--MD5=[cc27fa1021036b5bf8169f2e65d057a1]
reverse link Restaurante to Comensal--><g id="link_Restaurante_Comensal"><path codeLine="29" d="M509.794,68.2969 C519.597,68.2969 529.399,68.2969 539.202,68.2969 " fill="none" id="Restaurante-backto-Comensal" style="stroke:#181818;stroke-width:1.0;stroke-dasharray:7.0,7.0;"/><polygon fill="#181818" points="504.668,68.2969,513.668,72.2969,509.668,68.2969,513.668,64.2969,504.668,68.2969" style="stroke:#181818;stroke-width:1.0;"/></g><!--MD5=[354cbb263a2c91be9f68287d77fdb2d6]
link Crítico to Restaurante--><g id="link_Crítico_Restaurante"><path codeLine="30" d="M349.578,68.2969 C359.472,68.2969 369.365,68.2969 379.259,68.2969 " fill="none" id="Crítico-to-Restaurante" style="stroke:#181818;stroke-width:1.0;stroke-dasharray:7.0,7.0;"/><polygon fill="#181818" points="384.432,68.2969,375.432,64.2969,379.432,68.2969,375.432,72.2969,384.432,68.2969" style="stroke:#181818;stroke-width:1.0;"/></g><!--MD5=[2ca8ed700eac1095696a5a1dc1e0aa40]
link Restaurante to Equipo--><g id="link_Restaurante_Equipo"><path codeLine="32" d="M516.1637,94.0239 C516.1637,94.0239 788.576,188.0169 875.488,218.0059 " fill="none" id="Restaurante-Equipo" style="stroke:#181818;stroke-width:1.0;"/><polygon fill="#181818" points="887.919,222.2949,880.7166,215.5774,883.1926,220.6636,878.1064,223.1396,887.919,222.2949" style="stroke:#181818;stroke-width:1.0;"/><line style="stroke:#181818;stroke-width:1.0;" x1="883.1926" x2="875.6305" y1="220.6636" y2="218.0549"/><polygon fill="#181818" points="504.82,90.1099,509.1872,95.8481,516.1637,94.0239,511.7965,88.2856,504.82,90.1099" style="stroke:#181818;stroke-width:1.0;"/></g><!--MD5=[42e88a2b2bc466380892659f15f08864]
link Equipo to Ensayo--><g id="link_Equipo_Ensayo"><path codeLine="34" d="M928.5,261.2969 C928.5,277.2999 928.5,298.7429 928.5,315.8249 " fill="none" id="Equipo-to-Ensayo" style="stroke:#181818;stroke-width:1.0;stroke-dasharray:7.0,7.0;"/><polygon fill="#181818" points="928.5,320.9749,932.5,311.9749,928.5,315.9749,924.5,311.9749,928.5,320.9749" style="stroke:#181818;stroke-width:1.0;"/></g><!--MD5=[13b80d0852d5156c48b61b8796dc60d6]
link Equipo to Reglas--><g id="link_Equipo_Reglas"><path codeLine="35" d="M969.071,248.8339 C1026.46,263.9199 1134.5,292.9889 1225.5,321.2969 C1232.75,323.5529 1240.4,326.0589 1247.84,328.5619 " fill="none" id="Equipo-to-Reglas" style="stroke:#181818;stroke-width:1.0;stroke-dasharray:7.0,7.0;"/><polygon fill="#181818" points="1252.95,330.2919,1245.7044,323.6209,1248.2132,328.691,1243.1431,331.1998,1252.95,330.2919" style="stroke:#181818;stroke-width:1.0;"/></g><!--MD5=[94a8e6d3dd21812c1bb44abe33d15b87]
reverse link Restaurante to Cocina--><g id="link_Restaurante_Cocina"><path codeLine="37" d="M452.122,112.2249 C466.524,193.3459 497.288,366.6179 508.394,429.1709 " fill="none" id="Restaurante-backto-Cocina" style="stroke:#181818;stroke-width:1.0;"/><polygon fill="none" points="445.205,113.3089,448.601,92.3929,458.989,110.8609,445.205,113.3089" style="stroke:#181818;stroke-width:1.0;"/></g><!--MD5=[0aaa337d89cb491ab90dc64c8ecd4f9f]
link Cocina to Camarero--><g id="link_Cocina_Camarero"><path codeLine="39" d="M537.67,477.2969 C555.786,493.8519 580.274,516.2279 599.258,533.5759 " fill="none" id="Cocina-to-Camarero" style="stroke:#181818;stroke-width:1.0;"/><polygon fill="#181818" points="602.978,536.9749,599.0337,527.9503,599.2874,533.6015,593.6363,533.8552,602.978,536.9749" style="stroke:#181818;stroke-width:1.0;"/></g><!--MD5=[1ec60d8ef3a4eb67d23df0669447f2c2]
reverse link Restaurante to Terraza--><g id="link_Restaurante_Terraza"><path codeLine="41" d="M435.264,112.1829 C419.25,186.5259 385.284,344.1449 356.5,477.2969 C346.285,524.5519 320.727,542.6499 343.5,585.2969 C360.522,617.1749 395.814,638.9569 424.409,652.1799 " fill="none" id="Restaurante-backto-Terraza" style="stroke:#181818;stroke-width:1.0;"/><polygon fill="none" points="428.491,110.3819,439.546,92.3039,442.177,113.3299,428.491,110.3819" style="stroke:#181818;stroke-width:1.0;"/></g><!--MD5=[94bca7d431d1ce69f91b61fa71cbf280]
reverse link Restaurante to Comedor--><g id="link_Restaurante_Comedor"><path codeLine="42" d="M474.598,108.4599 C531.636,185.4409 653.68,364.0949 697.5,537.2969 C706.894,574.4269 696.797,618.8609 688.642,645.2689 " fill="none" id="Restaurante-backto-Comedor" style="stroke:#181818;stroke-width:1.0;"/><polygon fill="none" points="468.93,112.5689,462.52,92.3719,480.126,104.1639,468.93,112.5689" style="stroke:#181818;stroke-width:1.0;"/></g><!--MD5=[68db44ce1f4ac3b95b19e142cabab01a]
link Cocina to Envío--><g id="link_Cocina_Envío"><path codeLine="43" d="M511.198,477.2969 C510.292,493.2999 509.079,514.7429 508.112,531.8249 " fill="none" id="Cocina-to-Envío" style="stroke:#181818;stroke-width:1.0;"/><polygon fill="#181818" points="507.82,536.9749,512.3228,528.2156,508.1029,531.9829,504.3356,527.763,507.82,536.9749" style="stroke:#181818;stroke-width:1.0;"/></g><!--MD5=[00d230d7c629645854c4e268d6b1f0c9]
link Camarero to Terraza--><g id="link_Camarero_Terraza"><path codeLine="45" d="M593.565,585.2969 C568.019,602.1159 533.345,624.9459 506.827,642.4039 " fill="none" id="Camarero-to-Terraza" style="stroke:#181818;stroke-width:1.0;"/><polygon fill="#181818" points="502.644,645.1589,512.3607,643.5509,506.8202,642.4095,507.9617,636.869,502.644,645.1589" style="stroke:#181818;stroke-width:1.0;"/></g><!--MD5=[51bc403d3b86170c2ce5ed5e07a83b8e]
link Camarero to Comedor--><g id="link_Camarero_Comedor"><path codeLine="46" d="M639.783,585.2969 C647.701,601.4379 658.334,623.1129 666.749,640.2659 " fill="none" id="Camarero-to-Comedor" style="stroke:#181818;stroke-width:1.0;"/><polygon fill="#181818" points="669.059,644.9749,668.6872,635.133,666.8573,640.4857,661.5046,638.6558,669.059,644.9749" style="stroke:#181818;stroke-width:1.0;"/></g><!--MD5=[82f4dba54fbeaff32f4c419fee37f7ac]
reverse link Cocina to Horno--><g id="link_Cocina_Horno"><path codeLine="48" d="M472.913,491.1059 C456.536,506.3329 438.038,523.5339 423.582,536.9749 " fill="none" id="Cocina-backto-Horno" style="stroke:#181818;stroke-width:1.0;"/><polygon fill="none" points="468.35,485.7899,487.764,477.2969,477.884,496.0429,468.35,485.7899" style="stroke:#181818;stroke-width:1.0;"/></g><!--MD5=[b6610a8e4d5a4827152030a58ebd830a]
link Equipo to JefeDePersonal--><g id="link_Equipo_JefeDePersonal"><path codeLine="50" d="M970.1304,268.3154 C970.1304,268.3154 1013.28,299.4319 1032.72,313.4499 " fill="none" id="Equipo-JefeDePersonal" style="stroke:#181818;stroke-width:1.0;"/><polygon fill="#181818" points="1043.41,321.1589,1038.4477,312.6515,1039.3538,318.2353,1033.77,319.1414,1043.41,321.1589" style="stroke:#181818;stroke-width:1.0;"/><line style="stroke:#181818;stroke-width:1.0;" x1="1039.3538" x2="1032.87" y1="318.2353" y2="313.5554"/><polygon fill="none" points="960.397,261.2969,962.9242,268.0506,970.1304,268.3154,967.6032,261.5617,960.397,261.2969" style="stroke:#181818;stroke-width:1.0;"/></g><!--MD5=[028318c83581ce50ae5647dd58e1e568]
link Equipo to JefeDeCocina--><g id="link_Equipo_JefeDeCocina"><path codeLine="51" d="M981.1495,240.2529 C981.1495,240.2529 1122.64,263.5349 1163.5,321.2969 C1187.91,355.8009 1150.82,394.9909 1116.09,421.4439 " fill="none" id="Equipo-JefeDeCocina" style="stroke:#181818;stroke-width:1.0;"/><polygon fill="#181818" points="1105.45,429.2249,1115.076,427.1415,1109.4861,426.2736,1110.354,420.6838,1105.45,429.2249" style="stroke:#181818;stroke-width:1.0;"/><line style="stroke:#181818;stroke-width:1.0;" x1="1109.4861" x2="1115.945" y1="426.2736" y2="421.5479"/><polygon fill="none" points="969.19,239.2679,974.8414,243.7469,981.1495,240.2529,975.4981,235.7739,969.19,239.2679" style="stroke:#181818;stroke-width:1.0;"/></g><!--MD5=[19034d78dda71599ff341c2ea272abbc]
link Equipo to Cocinero--><g id="link_Equipo_Cocinero"><path codeLine="52" d="M875.904,244.178 C875.904,244.178 761.593,273.1379 729.5,321.2969 C679.344,396.5609 780.41,484.2019 844.764,529.5639 " fill="none" id="Equipo-Cocinero" style="stroke:#181818;stroke-width:1.0;"/><polygon fill="#181818" points="855.528,537.0019,850.3973,528.595,851.4144,534.1597,845.8497,535.1768,855.528,537.0019" style="stroke:#181818;stroke-width:1.0;"/><line style="stroke:#181818;stroke-width:1.0;" x1="851.4144" x2="844.8335" y1="534.1597" y2="529.6114"/><polygon fill="none" points="887.746,242.2369,881.178,239.2601,875.904,244.178,882.4721,247.1548,887.746,242.2369" style="stroke:#181818;stroke-width:1.0;"/></g><!--MD5=[7940fbad33b57f7b773769ff38585736]
link Equipo to Camarero--><g id="link_Equipo_Camarero"><path codeLine="53" d="M875.8157,244.9677 C875.8157,244.9677 751.977,275.0029 707.5,321.2969 C653.141,377.8759 636.172,472.6479 630.885,524.2129 " fill="none" id="Equipo-Camarero" style="stroke:#181818;stroke-width:1.0;"/><polygon fill="#181818" points="629.705,537.2439,634.4997,528.6409,630.1555,532.2642,626.5323,527.92,629.705,537.2439" style="stroke:#181818;stroke-width:1.0;"/><line style="stroke:#181818;stroke-width:1.0;" x1="630.1555" x2="630.8775" y1="532.2642" y2="524.2969"/><polygon fill="none" points="887.646,242.9569,881.0606,240.0189,875.8157,244.9677,882.4011,247.9057,887.646,242.9569" style="stroke:#181818;stroke-width:1.0;"/></g><!--MD5=[6dca94f231606d672951dbbb21de8d7a]
link JefeDePersonal to Camarero--><g id="link_JefeDePersonal_Camarero"><path codeLine="55" d="M1027.24,369.4019 C942.739,409.8559 768.683,493.1849 681.173,535.0799 " fill="none" id="JefeDePersonal-to-Camarero" style="stroke:#181818;stroke-width:1.0;"/><polygon fill="#181818" points="676.56,537.2889,686.4049,537.0114,681.07,535.1303,682.9512,529.7954,676.56,537.2889" style="stroke:#181818;stroke-width:1.0;"/></g><!--MD5=[ebe29d20ec428bd1b2ae99e6ccda1580]
link JefeDePersonal to JefeDeCocina--><g id="link_JefeDePersonal_JefeDeCocina"><path codeLine="56" d="M1073.98,369.2969 C1072.92,385.2999 1071.51,406.7429 1070.38,423.8249 " fill="none" id="JefeDePersonal-to-JefeDeCocina" style="stroke:#181818;stroke-width:1.0;"/><polygon fill="#181818" points="1070.04,428.9749,1074.624,420.2578,1070.3693,423.9857,1066.6414,419.731,1070.04,428.9749" style="stroke:#181818;stroke-width:1.0;"/></g><!--MD5=[1ad121cb71e58616486bbc5f34e07360]
link JefeDePersonal to Cocinero--><g id="link_JefeDePersonal_Cocinero"><path codeLine="57" d="M1048.45,369.4179 C1030.36,385.4349 1006.494,407.6859 987.5,429.2969 C957.924,462.9479 928.332,505.5079 910.22,532.8189 " fill="none" id="JefeDePersonal-to-Cocinero" style="stroke:#181818;stroke-width:1.0;"/><polygon fill="#181818" points="907.414,537.0679,915.7123,531.7633,910.17,532.896,909.0373,527.3537,907.414,537.0679" style="stroke:#181818;stroke-width:1.0;"/></g><!--MD5=[30b3c87cfe900501506bfbfcfb237508]
reverse link Entrevista to JefeDePersonal--><g id="link_Entrevista_JefeDePersonal"><path codeLine="59" d="M833.785,318.2989 C849.395,307.6729 868.677,296.7269 888,291.2969 C923.086,281.4379 934.57,282.7569 970,291.2969 C994.404,297.1799 1019.51,309.7189 1039.1,321.2349 " fill="none" id="Entrevista-backto-JefeDePersonal" style="stroke:#181818;stroke-width:1.0;stroke-dasharray:7.0,7.0;"/><polygon fill="#181818" points="829.483,321.2829,839.1579,319.4398,833.5913,318.433,834.5981,312.8665,829.483,321.2829" style="stroke:#181818;stroke-width:1.0;"/></g><!--MD5=[c0ce3cd612848d59511c88eb4c7d87b8]
link Cocina to JefeDeCocina--><g id="link_Cocina_JefeDeCocina"><path codeLine="61" d="M564.68,453.2969 C564.68,453.2969 849.306,453.2969 991.004,453.2969 " fill="none" id="Cocina-JefeDeCocina" style="stroke:#181818;stroke-width:1.0;"/><polygon fill="#181818" points="1004.274,453.2969,995.274,449.2969,999.274,453.2969,995.274,457.2969,1004.274,453.2969" style="stroke:#181818;stroke-width:1.0;"/><line style="stroke:#181818;stroke-width:1.0;" x1="999.274" x2="991.274" y1="453.2969" y2="453.2969"/><polygon fill="none" points="552.68,453.2969,558.68,457.2969,564.68,453.2969,558.68,449.2969,552.68,453.2969" style="stroke:#181818;stroke-width:1.0;"/></g><!--MD5=[ae0fb286ea13ae99e3aa11e715d2eb24]
link Cocina to Cocinero--><g id="link_Cocina_Cocinero"><path codeLine="62" d="M564.3657,468.7652 C564.3657,468.7652 757.987,522.7749 831.595,543.3079 " fill="none" id="Cocina-Cocinero" style="stroke:#181818;stroke-width:1.0;"/><polygon fill="#181818" points="844.301,546.8519,836.7065,540.581,839.4848,545.5086,834.5572,548.2868,844.301,546.8519" style="stroke:#181818;stroke-width:1.0;"/><line style="stroke:#181818;stroke-width:1.0;" x1="839.4848" x2="831.7795" y1="545.5086" y2="543.3589"/><polygon fill="none" points="552.807,465.5409,557.5116,471.0059,564.3657,468.7652,559.6611,463.3001,552.807,465.5409" style="stroke:#181818;stroke-width:1.0;"/></g><!--MD5=[f413c97f6b74d5a342396a50c6926be8]
link JefeDeCocina to Cocinero--><g id="link_JefeDeCocina_Cocinero"><path codeLine="64" d="M1030.31,477.2969 C1002.385,494.1159 964.48,516.9459 935.491,534.4039 " fill="none" id="JefeDeCocina-to-Cocinero" style="stroke:#181818;stroke-width:1.0;"/><polygon fill="#181818" points="930.918,537.1589,940.6916,535.9435,935.2016,534.5799,936.5652,529.0899,930.918,537.1589" style="stroke:#181818;stroke-width:1.0;"/></g><!--MD5=[b94431f3a4798ab1e9110aa8a6dcb56d]
reverse link Plato to Camarero--><g id="link_Plato_Camarero"><path codeLine="66" d="M245.998,543.3399 C276.647,530.4369 320.582,514.1569 361,507.2969 C440.31,493.8359 464.667,485.1399 542,507.2969 C562.763,513.2459 583.381,525.7889 599.277,537.2899 " fill="none" id="Plato-backto-Camarero" style="stroke:#181818;stroke-width:1.0;stroke-dasharray:7.0,7.0;"/><polygon fill="#181818" points="241.196,545.3799,251.0435,545.5444,245.7983,543.4258,247.917,538.1807,241.196,545.3799" style="stroke:#181818;stroke-width:1.0;"/></g><!--MD5=[40f8ce544c745f6fca443950bff2dcf9]
link Restaurante to Menú--><g id="link_Restaurante_Menú"><path codeLine="68" d="M427.093,92.5249 C414.647,109.1529 397.512,132.0799 382.5,152.2969 C368.454,171.2129 352.688,192.5759 340.569,209.0239 " fill="none" id="Restaurante-to-Menú" style="stroke:#181818;stroke-width:1.0;"/><polygon fill="#181818" points="337.57,213.0949,346.1285,208.2213,340.5356,209.0693,339.6876,203.4764,337.57,213.0949" style="stroke:#181818;stroke-width:1.0;"/></g><!--MD5=[c462c8999a50ac6b4f867414c8682d0b]
link Restaurante to Carta--><g id="link_Restaurante_Carta"><path codeLine="69" d="M405.309,92.3419 C351.436,124.0219 255.009,180.7229 200.64,212.6929 " fill="none" id="Restaurante-to-Carta" style="stroke:#181818;stroke-width:1.0;"/><polygon fill="#181818" points="196.157,215.3299,205.9427,214.2161,200.4671,212.7955,201.8877,207.32,196.157,215.3299" style="stroke:#181818;stroke-width:1.0;"/></g><!--MD5=[31aef29481b7b2e41a196fe8493f68d1]
link Carta to Desayuno--><g id="link_Carta_Desayuno"><path codeLine="71" d="M149.281,261.6059 C130.203,301.2429 91.519,381.6169 70.9949,424.2589 " fill="none" id="Carta-to-Desayuno" style="stroke:#181818;stroke-width:1.0;"/><polygon fill="#181818" points="68.705,429.0169,76.2126,422.6423,70.8736,424.5116,69.0042,419.1726,68.705,429.0169" style="stroke:#181818;stroke-width:1.0;"/></g><!--MD5=[e97d3607192949712a5be7ef6e35c651]
link Carta to Comida--><g id="link_Carta_Comida"><path codeLine="72" d="M160.611,261.6689 C161.082,288.0139 162.91,332.0329 169.5,369.2969 C172.791,387.9039 178.654,408.2959 183.761,424.2109 " fill="none" id="Carta-to-Comida" style="stroke:#181818;stroke-width:1.0;"/><polygon fill="#181818" points="185.318,428.9989,186.3393,419.2031,183.7721,424.2439,178.7313,421.6766,185.318,428.9989" style="stroke:#181818;stroke-width:1.0;"/></g><!--MD5=[d3474f5762e9aa4bd782879c75a506e8]
link Carta to Cena--><g id="link_Carta_Cena"><path codeLine="73" d="M176.294,261.6059 C203.259,301.4039 258.051,382.2689 286.853,424.7759 " fill="none" id="Carta-to-Cena" style="stroke:#181818;stroke-width:1.0;"/><polygon fill="#181818" points="289.726,429.0169,287.9904,419.3221,286.9219,424.8772,281.3669,423.8087,289.726,429.0169" style="stroke:#181818;stroke-width:1.0;"/></g><!--MD5=[0ede276d041ae692ef039ae7590dc16c]
link Menú to Comida--><g id="link_Menú_Comida"><path codeLine="75" d="M306.667,261.6059 C283.096,301.3239 235.252,381.9429 209.986,424.5179 " fill="none" id="Menú-to-Comida" style="stroke:#181818;stroke-width:1.0;"/><polygon fill="#181818" points="207.316,429.0169,215.3486,423.318,209.8674,424.7169,208.4686,419.2357,207.316,429.0169" style="stroke:#181818;stroke-width:1.0;"/></g><!--MD5=[b5039b0eaf46540e3b3aea13b27836e1]
link Menú to Cena--><g id="link_Menú_Cena"><path codeLine="76" d="M318.866,261.6059 C316.094,301.1629 310.477,381.2909 307.484,423.9989 " fill="none" id="Menú-to-Cena" style="stroke:#181818;stroke-width:1.0;"/><polygon fill="#181818" points="307.132,429.0169,311.7523,420.319,307.482,424.0291,303.7719,419.7589,307.132,429.0169" style="stroke:#181818;stroke-width:1.0;"/></g><!--MD5=[fc6db7349c9609fc0d1dc130a458b34c]
link Desayuno to Plato--><g id="link_Desayuno_Plato"><path codeLine="78" d="M89.8308,477.2969 C113.375,494.0469 145.299,516.7579 169.801,534.1889 " fill="none" id="Desayuno-to-Plato" style="stroke:#181818;stroke-width:1.0;"/><polygon fill="#181818" points="173.975,537.1589,168.9603,528.6823,169.9008,534.2604,164.3227,535.2009,173.975,537.1589" style="stroke:#181818;stroke-width:1.0;"/></g><!--MD5=[82e740e789f6e27da9de72bcd6d55476]
link Comida to Plato--><g id="link_Comida_Plato"><path codeLine="79" d="M196.321,477.2969 C198.283,493.2999 200.913,514.7429 203.008,531.8249 " fill="none" id="Comida-to-Plato" style="stroke:#181818;stroke-width:1.0;"/><polygon fill="#181818" points="203.64,536.9749,206.5148,527.5549,203.0314,532.012,198.5743,528.5286,203.64,536.9749" style="stroke:#181818;stroke-width:1.0;"/></g><!--MD5=[a298c383f1ec417cada46f7ad2fae440]
link Cena to Plato--><g id="link_Cena_Plato"><path codeLine="80" d="M284.018,477.2969 C268.686,493.7139 248.006,515.8559 231.862,533.1409 " fill="none" id="Cena-to-Plato" style="stroke:#181818;stroke-width:1.0;"/><polygon fill="#181818" points="228.281,536.9749,237.3473,533.1276,231.6938,533.3207,231.5006,527.6671,228.281,536.9749" style="stroke:#181818;stroke-width:1.0;"/></g><!--MD5=[30c8f68068a794e441c385fdb6827d84]
reverse link Plato to Ingrediente--><g id="link_Plato_Ingrediente"><path codeLine="82" d="M206.5,605.3209 C206.5,618.8759 206.5,633.3349 206.5,644.9749 " fill="none" id="Plato-backto-Ingrediente" style="stroke:#181818;stroke-width:1.0;"/><polygon fill="none" points="199.5,605.2969,206.5,585.2969,213.5,605.2969,199.5,605.2969" style="stroke:#181818;stroke-width:1.0;"/></g><!--MD5=[8eeca90fd25420a1ea91bc2769f0718d]
reverse link Ingrediente to Cebolla--><g id="link_Ingrediente_Cebolla"><path codeLine="84" d="M184.79,711.3905 C177.34,725.4927 169.263,740.7807 162.821,752.9753 " fill="none" id="Ingrediente-backto-Cebolla" style="stroke:#181818;stroke-width:1.0;"/><polygon fill="none" points="178.817,707.7113,194.349,693.2969,191.196,714.2511,178.817,707.7113" style="stroke:#181818;stroke-width:1.0;"/></g><!--MD5=[2fbe42e1f399962a7041088d0c6c9458]
reverse link Ingrediente to Trigo--><g id="link_Ingrediente_Trigo"><path codeLine="85" d="M228.598,711.3905 C236.181,725.4927 244.402,740.7807 250.959,752.9753 " fill="none" id="Ingrediente-backto-Trigo" style="stroke:#181818;stroke-width:1.0;"/><polygon fill="none" points="222.175,714.2273,218.868,693.2969,234.505,707.5968,222.175,714.2273" style="stroke:#181818;stroke-width:1.0;"/></g><!--MD5=[f9d132de3417c9b6cefaa4a1b8e79f73]
@startuml
Title Ejercicio Disciplinas del Software

class Restaurante
class Comensal
class Terraza
class Comedor
class Desayuno
class Comida
class Cena
class Menú
class Carta
class Plato
class Ingrediente
class Cebolla
class Trigo
class Envío
class Crítico
class Camarero
class Cocinero
class JefeDeCocina
class Cocina
class Horno
class Equipo
class JefeDePersonal
class Entrevista
class Ensayo
class Reglas

Comensal .left.> Restaurante
Crítico .right.> Restaurante

Restaurante *-down-> Equipo

Equipo .down.> Ensayo
Equipo .down.> Reglas

Cocina - - -up-|> Restaurante

Cocina -down-> Camarero

Terraza - -up-|> Restaurante
Comedor - -up-|> Restaurante
Cocina -down-> Envío

Camarero -down-> Terraza
Camarero -down-> Comedor

Horno -up-|> Cocina

Equipo o-down-> JefeDePersonal
Equipo o-down-> JefeDeCocina
Equipo o-down-> Cocinero
Equipo o-down-> Camarero

JefeDePersonal -down-> Camarero
JefeDePersonal -down-> JefeDeCocina
JefeDePersonal -down-> Cocinero

JefeDePersonal .left.> Entrevista

Cocina o-right-> JefeDeCocina
Cocina o-down-> Cocinero

JefeDeCocina -down-> Cocinero

Camarero .left.> Plato

Restaurante - -down-> Menú
Restaurante - -down-> Carta

Carta - -down-> Desayuno
Carta - -down-> Comida
Carta - -down-> Cena

Menú - -down-> Comida
Menú - -down-> Cena

Desayuno -down-> Plato
Comida -down-> Plato
Cena -down-> Plato

Ingrediente -up-|> Plato

Cebolla -up-|> Ingrediente
Trigo -up-|> Ingrediente
@enduml

PlantUML version 1.2022.7beta2(Unknown compile time)
(GPL source distribution)
Java Runtime: Java(TM) SE Runtime Environment
JVM: Java HotSpot(TM) 64-Bit Server VM
Default Encoding: UTF-8
Language: en
Country: US
--></g></svg>