<?xml version="1.0" encoding="UTF-8" standalone="no"?><svg xmlns="http://www.w3.org/2000/svg" xmlns:xlink="http://www.w3.org/1999/xlink" contentStyleType="text/css" height="224px" preserveAspectRatio="none" style="width:170px;height:224px;background:#69696936;" version="1.1" viewBox="0 0 170 224" width="170px" zoomAndPan="magnify"><defs/><g><ellipse cx="74.5" cy="20" fill="#222222" rx="10" ry="10" style="stroke:#222222;stroke-width:1.0;"/><rect fill="#F1F1F1" height="33.9688" rx="12.5" ry="12.5" style="stroke:#181818;stroke-width:0.5;" width="116" x="16.5" y="94"/><text fill="#000000" font-family="sans-serif" font-size="12" lengthAdjust="spacing" textLength="96" x="26.5" y="115.1387">Choose column</text><polygon fill="#F1F1F1" points="74.5,50,86.5,62,74.5,74,62.5,62,74.5,50" style="stroke:#181818;stroke-width:0.5;"/><polygon fill="#F1F1F1" points="32,147.9688,117,147.9688,129,159.9688,117,171.9688,32,171.9688,20,159.9688,32,147.9688" style="stroke:#181818;stroke-width:0.5;"/><text fill="#000000" font-family="sans-serif" font-size="11" lengthAdjust="spacing" textLength="85" x="32" y="163.7769">Is valid column</text><text fill="#000000" font-family="sans-serif" font-size="11" lengthAdjust="spacing" textLength="28" x="129" y="157.3745">false</text><ellipse cx="74.5" cy="202.9688" fill="none" rx="11" ry="11" style="stroke:#222222;stroke-width:1.0;"/><ellipse cx="74.5" cy="202.9688" fill="#222222" rx="6" ry="6" style="stroke:#111111;stroke-width:1.0;"/><line style="stroke:#181818;stroke-width:1.0;" x1="74.5" x2="74.5" y1="74" y2="94"/><polygon fill="#181818" points="70.5,84,74.5,94,78.5,84,74.5,88" style="stroke:#181818;stroke-width:1.0;"/><line style="stroke:#181818;stroke-width:1.0;" x1="129" x2="144.5" y1="159.9688" y2="159.9688"/><polygon fill="#181818" points="140.5,120.9844,144.5,110.9844,148.5,120.9844,144.5,116.9844" style="stroke:#181818;stroke-width:1.0;"/><line style="stroke:#181818;stroke-width:1.0;" x1="144.5" x2="144.5" y1="62" y2="159.9688"/><line style="stroke:#181818;stroke-width:1.0;" x1="144.5" x2="86.5" y1="62" y2="62"/><polygon fill="#181818" points="96.5,58,86.5,62,96.5,66,92.5,62" style="stroke:#181818;stroke-width:1.0;"/><line style="stroke:#181818;stroke-width:1.0;" x1="74.5" x2="74.5" y1="127.9688" y2="147.9688"/><polygon fill="#181818" points="70.5,137.9688,74.5,147.9688,78.5,137.9688,74.5,141.9688" style="stroke:#181818;stroke-width:1.0;"/><line style="stroke:#181818;stroke-width:1.0;" x1="74.5" x2="74.5" y1="30" y2="50"/><polygon fill="#181818" points="70.5,40,74.5,50,78.5,40,74.5,44" style="stroke:#181818;stroke-width:1.0;"/><line style="stroke:#181818;stroke-width:1.0;" x1="74.5" x2="74.5" y1="171.9688" y2="191.9688"/><polygon fill="#181818" points="70.5,181.9688,74.5,191.9688,78.5,181.9688,74.5,185.9688" style="stroke:#181818;stroke-width:1.0;"/><!--MD5=[b72ba5e5e1d3c8544d6a738c0db1fd1d]
@startuml "Activity Diagram - Choose column"

skinparam backGroundColor #69696936

start
repeat
:Choose column;
repeat while (Is valid column) is (false)
stop
@enduml

PlantUML version 1.2022.7(Mon Aug 22 17:01:30 UTC 2022)
(GPL source distribution)
Java Runtime: OpenJDK Runtime Environment
JVM: OpenJDK 64-Bit Server VM
Default Encoding: UTF-8
Language: es
Country: ES
--></g></svg>