<?xml version="1.0" encoding="UTF-8" standalone="no"?><svg xmlns="http://www.w3.org/2000/svg" xmlns:xlink="http://www.w3.org/1999/xlink" contentStyleType="text/css" height="698px" preserveAspectRatio="none" style="width:459px;height:698px;background:#69696936;" version="1.1" viewBox="0 0 459 698" width="459px" zoomAndPan="magnify"><defs/><g><g id="NewBoard"><rect fill="#F1F1F1" height="52.5938" rx="12.5" ry="12.5" style="stroke:#181818;stroke-width:0.5;" width="142" x="165.5" y="103"/><line style="stroke:#181818;stroke-width:0.5;" x1="165.5" x2="307.5" y1="129.2969" y2="129.2969"/><text fill="#000000" font-family="sans-serif" font-size="14" lengthAdjust="spacing" textLength="71" x="201" y="120.9951">NewBoard</text><text fill="#000000" font-family="sans-serif" font-size="14" lengthAdjust="spacing" textLength="122" x="170.5" y="147.292">New empty Board</text></g><g id="PartialyFull"><rect fill="#F1F1F1" height="68.8906" rx="12.5" ry="12.5" style="stroke:#181818;stroke-width:0.5;" width="188" x="24.5" y="233"/><line style="stroke:#181818;stroke-width:0.5;" x1="24.5" x2="212.5" y1="259.2969" y2="259.2969"/><text fill="#000000" font-family="sans-serif" font-size="14" lengthAdjust="spacing" textLength="71" x="83" y="250.9951">PartialyFull</text><text fill="#000000" font-family="sans-serif" font-size="14" lengthAdjust="spacing" textLength="168" x="29.5" y="277.292">Board with some tokens</text><text fill="#000000" font-family="sans-serif" font-size="14" lengthAdjust="spacing" textLength="94" x="29.5" y="293.5889">No winner yet</text></g><rect fill="#555555" height="8" style="stroke:none;stroke-width:1.0;" width="80" x="78.5" y="367.5"/><g id="PartialyFullWinner"><rect fill="#F1F1F1" height="50" rx="12.5" ry="12.5" style="stroke:#181818;stroke-width:0.5;" width="139" x="7" y="458.5"/><line style="stroke:#181818;stroke-width:0.5;" x1="7" x2="146" y1="484.7969" y2="484.7969"/><text fill="#000000" font-family="sans-serif" font-size="14" lengthAdjust="spacing" textLength="119" x="17" y="476.4951">PartialyFullWinner</text></g><g id="Full"><rect fill="#F1F1F1" height="52.5938" rx="12.5" ry="12.5" style="stroke:#181818;stroke-width:0.5;" width="120" x="181.5" y="457"/><line style="stroke:#181818;stroke-width:0.5;" x1="181.5" x2="301.5" y1="483.2969" y2="483.2969"/><text fill="#000000" font-family="sans-serif" font-size="14" lengthAdjust="spacing" textLength="23" x="230" y="474.9951">Full</text><text fill="#000000" font-family="sans-serif" font-size="14" lengthAdjust="spacing" textLength="100" x="186.5" y="501.292">Winner or Tied</text></g><g id="elem_PlayAgain"><polygon fill="#F1F1F1" points="241.5,571,253.5,583,241.5,595,229.5,583,241.5,571" style="stroke:#181818;stroke-width:0.5;"/></g><ellipse cx="236.5" cy="16" fill="#222222" rx="10" ry="10" style="stroke:none;stroke-width:1.0;"/><ellipse cx="241.5" cy="682" fill="none" rx="10" ry="10" style="stroke:#222222;stroke-width:1.0;"/><ellipse cx="242" cy="682.5" fill="#222222" rx="6" ry="6" style="stroke:none;stroke-width:1.0;"/><!--MD5=[8837d7c4a429b513a20c8571e7ab64d8]
link *start to NewBoard--><g id="link_*start_NewBoard"><path d="M236.5,26.12 C236.5,41.57 236.5,73.52 236.5,97.65 " fill="none" id="*start-to-NewBoard" style="stroke:#181818;stroke-width:1.0;"/><polygon fill="#181818" points="236.5,102.67,240.5,93.67,236.5,97.67,232.5,93.67,236.5,102.67" style="stroke:#181818;stroke-width:1.0;"/><text fill="#000000" font-family="sans-serif" font-size="13" lengthAdjust="spacing" textLength="71" x="237.5" y="69.0669">resetBoard</text></g><!--MD5=[4e03cca9dbb6bbde1d44561f4741040b]
link NewBoard to PartialyFull--><g id="link_NewBoard_PartialyFull"><path d="M214.31,156.08 C196.51,176.59 171.27,205.68 151.17,228.85 " fill="none" id="NewBoard-to-PartialyFull" style="stroke:#181818;stroke-width:1.0;"/><polygon fill="#181818" points="147.73,232.81,156.6579,228.6516,151.0144,229.04,150.626,223.3965,147.73,232.81" style="stroke:#181818;stroke-width:1.0;"/><text fill="#000000" font-family="sans-serif" font-size="13" lengthAdjust="spacing" textLength="59" x="189.5" y="199.0669">putToken</text></g><!--MD5=[c7d294dab51635ea8cb916df675f04c2]
link PartialyFull to WinnerTied--><g id="link_PartialyFull_WinnerTied"><path d="M118.5,302.18 C118.5,323.33 118.5,348.98 118.5,362.01 " fill="none" id="PartialyFull-to-WinnerTied" style="stroke:#181818;stroke-width:1.0;"/><polygon fill="#181818" points="118.5,367.32,122.5,358.32,118.5,362.32,114.5,358.32,118.5,367.32" style="stroke:#181818;stroke-width:1.0;"/></g><!--MD5=[99d01349db7679e8dd907dd531e50ebf]
link PartialyFull to PartialyFull--><g id="link_PartialyFull_PartialyFull"><path d="M212.71,255.87 C232.89,257.03 247.5,260.91 247.5,267.5 C247.5,273.53 235.3,277.28 217.79,278.77 " fill="none" id="PartialyFull-to-PartialyFull" style="stroke:#181818;stroke-width:1.0;"/><polygon fill="#181818" points="212.71,279.13,221.9632,282.5031,217.6982,278.787,221.4144,274.522,212.71,279.13" style="stroke:#181818;stroke-width:1.0;"/><text fill="#000000" font-family="sans-serif" font-size="13" lengthAdjust="spacing" textLength="59" x="253.5" y="272.0669">putToken</text></g><!--MD5=[2b11f190f14d5af9836821b18e9ff0af]
link WinnerTied to PartialyFullWinner--><g id="link_WinnerTied_PartialyFullWinner"><path d="M117.29,375.67 C112.98,386.95 98.12,425.88 87.58,453.48 " fill="none" id="WinnerTied-to-PartialyFullWinner" style="stroke:#181818;stroke-width:1.0;"/><polygon fill="#181818" points="85.67,458.49,92.6199,451.5115,87.4553,453.8196,85.1473,448.655,85.67,458.49" style="stroke:#181818;stroke-width:1.0;"/><text fill="#000000" font-family="sans-serif" font-size="13" lengthAdjust="spacing" textLength="59" x="105.5" y="423.0669">putToken</text></g><!--MD5=[7ba0ac14718f1f4dca52363da8629feb]
link WinnerTied to Full--><g id="link_WinnerTied_Full"><path d="M123.29,375.56 C132.71,381.64 154.13,395.92 170.5,410 C186.01,423.34 202.05,439.48 214.95,453.15 " fill="none" id="WinnerTied-to-Full" style="stroke:#181818;stroke-width:1.0;"/><polygon fill="#181818" points="218.51,456.94,215.2739,447.638,215.0908,453.2919,209.4369,453.1087,218.51,456.94" style="stroke:#181818;stroke-width:1.0;"/><text fill="#000000" font-family="sans-serif" font-size="13" lengthAdjust="spacing" textLength="59" x="190.5" y="423.0669">putToken</text></g><!--MD5=[5e6dc60c13e1e9226d6f020873725225]
link Full to PlayAgain--><g id="link_Full_PlayAgain"><path d="M241.5,510.12 C241.5,527.7 241.5,550.52 241.5,565.68 " fill="none" id="Full-to-PlayAgain" style="stroke:#181818;stroke-width:1.0;"/><polygon fill="#181818" points="241.5,570.9,245.5,561.9,241.5,565.9,237.5,561.9,241.5,570.9" style="stroke:#181818;stroke-width:1.0;"/></g><!--MD5=[bc3a2fa061670df43c039dc3a752f90f]
link PartialyFullWinner to PlayAgain--><g id="link_PartialyFullWinner_PlayAgain"><path d="M117.29,508.6 C154.53,530.61 207.16,561.71 230.09,575.26 " fill="none" id="PartialyFullWinner-to-PlayAgain" style="stroke:#181818;stroke-width:1.0;"/><polygon fill="#181818" points="234.51,577.87,228.7993,569.8458,230.2062,575.3249,224.7271,576.7319,234.51,577.87" style="stroke:#181818;stroke-width:1.0;"/></g><!--MD5=[e4a69941a79a16bbf8c18e38d6b6bc64]
link PlayAgain to NewBoard--><g id="link_PlayAgain_NewBoard"><path d="M249.99,579.34 C276.27,570.54 354.5,539.69 354.5,484.5 C354.5,266.5 354.5,266.5 354.5,266.5 C354.5,221.03 316.4,183.32 283.5,159.23 " fill="none" id="PlayAgain-to-NewBoard" style="stroke:#181818;stroke-width:1.0;"/><polygon fill="#181818" points="279.1,156.07,284.0761,164.5693,283.1609,158.987,288.7433,158.0719,279.1,156.07" style="stroke:#181818;stroke-width:1.0;"/><text fill="#000000" font-family="sans-serif" font-size="13" lengthAdjust="spacing" textLength="96" x="355.5" y="376.0669">playAgain : yes</text></g><!--MD5=[5e6a634b1f6b277d07ece35099a73f16]
link PlayAgain to *end--><g id="link_PlayAgain_*end"><path d="M241.5,595.13 C241.5,612.78 241.5,647.18 241.5,666.66 " fill="none" id="PlayAgain-to-*end" style="stroke:#181818;stroke-width:1.0;"/><polygon fill="#181818" points="241.5,671.73,245.5,662.73,241.5,666.73,237.5,662.73,241.5,671.73" style="stroke:#181818;stroke-width:1.0;"/><text fill="#000000" font-family="sans-serif" font-size="13" lengthAdjust="spacing" textLength="90" x="242.5" y="638.0669">playAgain : no</text></g><!--MD5=[830b77dda791c480358c96ea8b6d5d6b]
@startuml "State Diagram - Board"

skinparam backGroundColor #69696936

state NewBoard
state PartialyFull
state WinnerTied <<fork>>
state PartialyFullWinner
state Full
state PlayAgain <<choice>>

NewBoard : New empty Board
PartialyFull : Board with some tokens
PartialyFull : No winner yet
Full : Winner or Tied

[*] - -> NewBoard : resetBoard
NewBoard - -> PartialyFull : putToken
PartialyFull - -> WinnerTied
PartialyFull - -> PartialyFull : putToken
WinnerTied - -> PartialyFullWinner : putToken
WinnerTied - -> Full : putToken
Full - -> PlayAgain
PartialyFullWinner - -> PlayAgain
PlayAgain - -> NewBoard : playAgain : yes
PlayAgain - -> [*] : playAgain : no

@enduml

PlantUML version 1.2022.7(Mon Aug 22 17:01:30 UTC 2022)
(GPL source distribution)
Java Runtime: OpenJDK Runtime Environment
JVM: OpenJDK 64-Bit Server VM
Default Encoding: UTF-8
Language: es
Country: ES
--></g></svg>