<?xml version="1.0" encoding="UTF-8" standalone="no"?><svg xmlns="http://www.w3.org/2000/svg" xmlns:xlink="http://www.w3.org/1999/xlink" contentStyleType="text/css" height="385px" preserveAspectRatio="none" style="width:1125px;height:385px;background:#FFFFFF;" version="1.1" viewBox="0 0 1125 385" width="1125px" zoomAndPan="magnify"><defs/><g><rect height="26.2969" id="_title" style="stroke:#00000000;stroke-width:1.0;fill:none;" width="189" x="461" y="5"/><text fill="#000000" font-family="sans-serif" font-size="14" font-weight="bold" lengthAdjust="spacing" textLength="179" x="466" y="22.9951">Conecta4 State Model</text><g id="elem_Board"><rect fill="#F1F1F1" height="36.2969" style="stroke:#181818;stroke-width:0.5;" width="56" x="534" y="140.2969"/><text fill="#000000" font-family="sans-serif" font-size="14" lengthAdjust="spacing" textLength="42" x="541" y="155.292">Board</text><line style="stroke:#181818;stroke-width:0.5;" x1="535" x2="589" y1="160.5938" y2="160.5938"/></g><g id="elem_Conecta4"><rect fill="#F1F1F1" height="36.2969" style="stroke:#181818;stroke-width:0.5;" width="82" x="521" y="44.2969"/><text fill="#000000" font-family="sans-serif" font-size="14" lengthAdjust="spacing" textLength="68" x="528" y="59.292">Conecta4</text><line style="stroke:#181818;stroke-width:0.5;" x1="522" x2="602" y1="64.5938" y2="64.5938"/></g><g id="elem_Row1"><rect fill="#F1F1F1" height="142.375" style="stroke:#181818;stroke-width:0.5;" width="156" x="7" y="236.2969"/><text fill="#000000" font-family="sans-serif" font-size="14" lengthAdjust="spacing" textLength="39" x="65.5" y="251.292">Row1</text><line style="stroke:#181818;stroke-width:0.5;" x1="8" x2="162" y1="256.5938" y2="256.5938"/><text fill="#000000" font-family="sans-serif" font-size="14" lengthAdjust="spacing" textLength="137" x="13" y="273.5889">Column1 = "Empty</text><text fill="#000000" font-family="sans-serif" font-size="14" lengthAdjust="spacing" textLength="136" x="13" y="289.8857">Column2 = "Empty</text><text fill="#000000" font-family="sans-serif" font-size="14" lengthAdjust="spacing" textLength="137" x="13" y="306.1826">Column3 = "Empty</text><text fill="#000000" font-family="sans-serif" font-size="14" lengthAdjust="spacing" textLength="136" x="13" y="322.4795">Column4 = "Empty</text><text fill="#000000" font-family="sans-serif" font-size="14" lengthAdjust="spacing" textLength="137" x="13" y="338.7764">Column5 = "Empty</text><text fill="#000000" font-family="sans-serif" font-size="14" lengthAdjust="spacing" textLength="137" x="13" y="355.0732">Column6 = "Empty</text><text fill="#000000" font-family="sans-serif" font-size="14" lengthAdjust="spacing" textLength="144" x="13" y="371.3701">Column7 = "Empty"</text></g><g id="elem_Row2"><rect fill="#F1F1F1" height="142.375" style="stroke:#181818;stroke-width:0.5;" width="156" x="198" y="236.2969"/><text fill="#000000" font-family="sans-serif" font-size="14" lengthAdjust="spacing" textLength="38" x="257" y="251.292">Row2</text><line style="stroke:#181818;stroke-width:0.5;" x1="199" x2="353" y1="256.5938" y2="256.5938"/><text fill="#000000" font-family="sans-serif" font-size="14" lengthAdjust="spacing" textLength="137" x="204" y="273.5889">Column1 = "Empty</text><text fill="#000000" font-family="sans-serif" font-size="14" lengthAdjust="spacing" textLength="136" x="204" y="289.8857">Column2 = "Empty</text><text fill="#000000" font-family="sans-serif" font-size="14" lengthAdjust="spacing" textLength="137" x="204" y="306.1826">Column3 = "Empty</text><text fill="#000000" font-family="sans-serif" font-size="14" lengthAdjust="spacing" textLength="136" x="204" y="322.4795">Column4 = "Empty</text><text fill="#000000" font-family="sans-serif" font-size="14" lengthAdjust="spacing" textLength="137" x="204" y="338.7764">Column5 = "Empty</text><text fill="#000000" font-family="sans-serif" font-size="14" lengthAdjust="spacing" textLength="137" x="204" y="355.0732">Column6 = "Empty</text><text fill="#000000" font-family="sans-serif" font-size="14" lengthAdjust="spacing" textLength="144" x="204" y="371.3701">Column7 = "Empty"</text></g><g id="elem_Row3"><rect fill="#F1F1F1" height="142.375" style="stroke:#181818;stroke-width:0.5;" width="156" x="389" y="236.2969"/><text fill="#000000" font-family="sans-serif" font-size="14" lengthAdjust="spacing" textLength="39" x="447.5" y="251.292">Row3</text><line style="stroke:#181818;stroke-width:0.5;" x1="390" x2="544" y1="256.5938" y2="256.5938"/><text fill="#000000" font-family="sans-serif" font-size="14" lengthAdjust="spacing" textLength="137" x="395" y="273.5889">Column1 = "Empty</text><text fill="#000000" font-family="sans-serif" font-size="14" lengthAdjust="spacing" textLength="136" x="395" y="289.8857">Column2 = "Empty</text><text fill="#000000" font-family="sans-serif" font-size="14" lengthAdjust="spacing" textLength="137" x="395" y="306.1826">Column3 = "Empty</text><text fill="#000000" font-family="sans-serif" font-size="14" lengthAdjust="spacing" textLength="136" x="395" y="322.4795">Column4 = "Empty</text><text fill="#000000" font-family="sans-serif" font-size="14" lengthAdjust="spacing" textLength="137" x="395" y="338.7764">Column5 = "Empty</text><text fill="#000000" font-family="sans-serif" font-size="14" lengthAdjust="spacing" textLength="137" x="395" y="355.0732">Column6 = "Empty</text><text fill="#000000" font-family="sans-serif" font-size="14" lengthAdjust="spacing" textLength="144" x="395" y="371.3701">Column7 = "Empty"</text></g><g id="elem_Row4"><rect fill="#F1F1F1" height="142.375" style="stroke:#181818;stroke-width:0.5;" width="156" x="580" y="236.2969"/><text fill="#000000" font-family="sans-serif" font-size="14" lengthAdjust="spacing" textLength="38" x="639" y="251.292">Row4</text><line style="stroke:#181818;stroke-width:0.5;" x1="581" x2="735" y1="256.5938" y2="256.5938"/><text fill="#000000" font-family="sans-serif" font-size="14" lengthAdjust="spacing" textLength="137" x="586" y="273.5889">Column1 = "Empty</text><text fill="#000000" font-family="sans-serif" font-size="14" lengthAdjust="spacing" textLength="136" x="586" y="289.8857">Column2 = "Empty</text><text fill="#000000" font-family="sans-serif" font-size="14" lengthAdjust="spacing" textLength="137" x="586" y="306.1826">Column3 = "Empty</text><text fill="#000000" font-family="sans-serif" font-size="14" lengthAdjust="spacing" textLength="136" x="586" y="322.4795">Column4 = "Empty</text><text fill="#000000" font-family="sans-serif" font-size="14" lengthAdjust="spacing" textLength="137" x="586" y="338.7764">Column5 = "Empty</text><text fill="#000000" font-family="sans-serif" font-size="14" lengthAdjust="spacing" textLength="137" x="586" y="355.0732">Column6 = "Empty</text><text fill="#000000" font-family="sans-serif" font-size="14" lengthAdjust="spacing" textLength="144" x="586" y="371.3701">Column7 = "Empty"</text></g><g id="elem_Row5"><rect fill="#F1F1F1" height="142.375" style="stroke:#181818;stroke-width:0.5;" width="156" x="771" y="236.2969"/><text fill="#000000" font-family="sans-serif" font-size="14" lengthAdjust="spacing" textLength="39" x="829.5" y="251.292">Row5</text><line style="stroke:#181818;stroke-width:0.5;" x1="772" x2="926" y1="256.5938" y2="256.5938"/><text fill="#000000" font-family="sans-serif" font-size="14" lengthAdjust="spacing" textLength="137" x="777" y="273.5889">Column1 = "Empty</text><text fill="#000000" font-family="sans-serif" font-size="14" lengthAdjust="spacing" textLength="136" x="777" y="289.8857">Column2 = "Empty</text><text fill="#000000" font-family="sans-serif" font-size="14" lengthAdjust="spacing" textLength="137" x="777" y="306.1826">Column3 = "Empty</text><text fill="#000000" font-family="sans-serif" font-size="14" lengthAdjust="spacing" textLength="136" x="777" y="322.4795">Column4 = "Empty</text><text fill="#000000" font-family="sans-serif" font-size="14" lengthAdjust="spacing" textLength="137" x="777" y="338.7764">Column5 = "Empty</text><text fill="#000000" font-family="sans-serif" font-size="14" lengthAdjust="spacing" textLength="137" x="777" y="355.0732">Column6 = "Empty</text><text fill="#000000" font-family="sans-serif" font-size="14" lengthAdjust="spacing" textLength="144" x="777" y="371.3701">Column7 = "Empty"</text></g><g id="elem_Row6"><rect fill="#F1F1F1" height="142.375" style="stroke:#181818;stroke-width:0.5;" width="156" x="962" y="236.2969"/><text fill="#000000" font-family="sans-serif" font-size="14" lengthAdjust="spacing" textLength="39" x="1020.5" y="251.292">Row6</text><line style="stroke:#181818;stroke-width:0.5;" x1="963" x2="1117" y1="256.5938" y2="256.5938"/><text fill="#000000" font-family="sans-serif" font-size="14" lengthAdjust="spacing" textLength="137" x="968" y="273.5889">Column1 = "Empty</text><text fill="#000000" font-family="sans-serif" font-size="14" lengthAdjust="spacing" textLength="136" x="968" y="289.8857">Column2 = "Empty</text><text fill="#000000" font-family="sans-serif" font-size="14" lengthAdjust="spacing" textLength="137" x="968" y="306.1826">Column3 = "Empty</text><text fill="#000000" font-family="sans-serif" font-size="14" lengthAdjust="spacing" textLength="136" x="968" y="322.4795">Column4 = "Empty</text><text fill="#000000" font-family="sans-serif" font-size="14" lengthAdjust="spacing" textLength="137" x="968" y="338.7764">Column5 = "Empty</text><text fill="#000000" font-family="sans-serif" font-size="14" lengthAdjust="spacing" textLength="137" x="968" y="355.0732">Column6 = "Empty</text><text fill="#000000" font-family="sans-serif" font-size="14" lengthAdjust="spacing" textLength="144" x="968" y="371.3701">Column7 = "Empty"</text></g><!--MD5=[e018ed0913258b803264571def57fa62]
link Conecta4 to Board--><g id="link_Conecta4_Board"><path codeLine="64" d="M562,92.5379 C562,92.5379 562,116.4159 562,127.1059 " fill="none" id="Conecta4-Board" style="stroke:#181818;stroke-width:1.0;"/><polygon fill="#181818" points="562,140.1649,566,131.1649,562,135.1649,558,131.1649,562,140.1649" style="stroke:#181818;stroke-width:1.0;"/><line style="stroke:#181818;stroke-width:1.0;" x1="562" x2="562" y1="135.1649" y2="127.1649"/><polygon fill="#181818" points="562,80.5379,558,86.5379,562,92.5379,566,86.5379,562,80.5379" style="stroke:#181818;stroke-width:1.0;"/></g><!--MD5=[67cfdaf8d87a575458e29aba8b2d3ac2]
link Board to Row1--><g id="link_Board_Row1"><path codeLine="66" d="M521.9272,161.671 C521.9272,161.671 296.562,184.6669 180,236.2969 C178.332,237.0359 176.665,237.8079 175,238.6109 " fill="none" id="Board-Row1" style="stroke:#181818;stroke-width:1.0;"/><polygon fill="#181818" points="163.253,244.7749,173.081,244.1343,167.6803,242.4513,169.3633,237.0506,163.253,244.7749" style="stroke:#181818;stroke-width:1.0;"/><line style="stroke:#181818;stroke-width:1.0;" x1="167.6803" x2="174.7645" y1="242.4513" y2="238.7339"/><polygon fill="#181818" points="533.896,160.8059,527.6232,157.2488,521.9272,161.671,528.2,165.228,533.896,160.8059" style="stroke:#181818;stroke-width:1.0;"/></g><!--MD5=[7863fc81cb21f870fc2986d0dd97db3c]
link Board to Row2--><g id="link_Board_Row2"><path codeLine="67" d="M522.4179,171.9769 C522.4179,171.9769 420.364,208.7419 371,236.2969 C369.063,237.3779 367.12,238.4929 365.175,239.6369 " fill="none" id="Board-Row2" style="stroke:#181818;stroke-width:1.0;"/><polygon fill="#181818" points="354.038,246.4729,363.8009,245.1744,358.2995,243.8575,359.6164,238.3561,354.038,246.4729" style="stroke:#181818;stroke-width:1.0;"/><line style="stroke:#181818;stroke-width:1.0;" x1="358.2995" x2="365.118" y1="243.8575" y2="239.6719"/><polygon fill="#181818" points="533.798,168.1699,526.8389,166.28,522.4179,171.9769,529.3769,173.8667,533.798,168.1699" style="stroke:#181818;stroke-width:1.0;"/></g><!--MD5=[9eb1c0611c32f4e10cb5590e71197fa1]
link Board to Row3--><g id="link_Board_Row3"><path codeLine="68" d="M544.4021,186.525 C544.4021,186.525 528.198,211.6009 519.55,224.9829 " fill="none" id="Board-Row3" style="stroke:#181818;stroke-width:1.0;"/><polygon fill="#181818" points="512.257,236.2669,520.5013,230.8788,514.9707,232.0674,513.7822,226.5368,512.257,236.2669" style="stroke:#181818;stroke-width:1.0;"/><line style="stroke:#181818;stroke-width:1.0;" x1="514.9707" x2="519.3135" y1="232.0674" y2="225.3484"/><polygon fill="#181818" points="550.916,176.4469,544.2997,179.3146,544.4021,186.525,551.0184,183.6573,550.916,176.4469" style="stroke:#181818;stroke-width:1.0;"/></g><!--MD5=[0c289a0f90df3226a7d9586b62b24371]
link Board to Row4--><g id="link_Board_Row4"><path codeLine="69" d="M579.7618,186.4939 C579.7618,186.4939 596.157,211.6009 604.897,224.9829 " fill="none" id="Board-Row4" style="stroke:#181818;stroke-width:1.0;"/><polygon fill="#181818" points="612.266,236.2669,610.6943,226.5442,609.5322,232.0804,603.996,230.9183,612.266,236.2669" style="stroke:#181818;stroke-width:1.0;"/><line style="stroke:#181818;stroke-width:1.0;" x1="609.5322" x2="605.158" y1="232.0804" y2="225.3829"/><polygon fill="#181818" points="573.2,176.4469,573.1319,183.6577,579.7618,186.4939,579.8299,179.2831,573.2,176.4469" style="stroke:#181818;stroke-width:1.0;"/></g><!--MD5=[a1a1d213d883d1db34e6ec7f38a481b2]
link Board to Row5--><g id="link_Board_Row5"><path codeLine="70" d="M601.4163,171.8172 C601.4163,171.8172 704.139,208.5239 754,236.2969 C755.938,237.3759 757.882,238.4899 759.828,239.6319 " fill="none" id="Board-Row5" style="stroke:#181818;stroke-width:1.0;"/><polygon fill="#181818" points="770.968,246.4609,765.3849,238.3474,766.705,243.848,761.2044,245.1681,770.968,246.4609" style="stroke:#181818;stroke-width:1.0;"/><line style="stroke:#181818;stroke-width:1.0;" x1="766.705" x2="759.8845" y1="243.848" y2="239.6669"/><polygon fill="#181818" points="590.027,168.0379,594.4619,173.724,601.4163,171.8172,596.9814,166.1311,590.027,168.0379" style="stroke:#181818;stroke-width:1.0;"/></g><!--MD5=[2c3f259ba2cdf2b97045bc0fe8d748e4]
link Board to Row6--><g id="link_Board_Row6"><path codeLine="71" d="M602.1463,161.6491 C602.1463,161.6491 828.132,184.5669 945,236.2969 C946.668,237.0359 948.336,237.8069 950,238.6089 " fill="none" id="Board-Row6" style="stroke:#181818;stroke-width:1.0;"/><polygon fill="#181818" points="961.748,244.7719,955.6369,237.0482,957.3205,242.4488,951.9199,244.1323,961.748,244.7719" style="stroke:#181818;stroke-width:1.0;"/><line style="stroke:#181818;stroke-width:1.0;" x1="957.3205" x2="950.236" y1="242.4488" y2="238.7329"/><polygon fill="#181818" points="590.177,160.7919,595.8759,165.2103,602.1463,161.6491,596.4474,157.2307,590.177,160.7919" style="stroke:#181818;stroke-width:1.0;"/></g><!--MD5=[97a0e7f513ecd44e177a8fd08635505b]
@startuml
allowmixing

title Conecta4 State Model

object Board

object Conecta4

object Row1{
  Column1 = "Empty
  Column2 = "Empty
  Column3 = "Empty
  Column4 = "Empty
  Column5 = "Empty
  Column6 = "Empty
  Column7 = "Empty"
}
object Row2{
  Column1 = "Empty
  Column2 = "Empty
  Column3 = "Empty
  Column4 = "Empty
  Column5 = "Empty
  Column6 = "Empty
  Column7 = "Empty"
}
object Row3{
  Column1 = "Empty
  Column2 = "Empty
  Column3 = "Empty
  Column4 = "Empty
  Column5 = "Empty
  Column6 = "Empty
  Column7 = "Empty"
}
object Row4{
  Column1 = "Empty
  Column2 = "Empty
  Column3 = "Empty
  Column4 = "Empty
  Column5 = "Empty
  Column6 = "Empty
  Column7 = "Empty"
}
object Row5{
  Column1 = "Empty
  Column2 = "Empty
  Column3 = "Empty
  Column4 = "Empty
  Column5 = "Empty
  Column6 = "Empty
  Column7 = "Empty"
}
object Row6{
  Column1 = "Empty
  Column2 = "Empty
  Column3 = "Empty
  Column4 = "Empty
  Column5 = "Empty
  Column6 = "Empty
  Column7 = "Empty"
}

Conecta4 *-down-> Board

Board *-down-> Row1
Board *-down-> Row2
Board *-down-> Row3
Board *-down-> Row4
Board *-down-> Row5
Board *-down-> Row6
@enduml

PlantUML version 1.2022.7beta2(Unknown compile time)
(GPL source distribution)
Java Runtime: Java(TM) SE Runtime Environment
JVM: Java HotSpot(TM) 64-Bit Server VM
Default Encoding: UTF-8
Language: en
Country: US
--></g></svg>