<?xml version="1.0" encoding="UTF-8" standalone="no"?><svg xmlns="http://www.w3.org/2000/svg" xmlns:xlink="http://www.w3.org/1999/xlink" contentStyleType="text/css" height="777px" preserveAspectRatio="none" style="width:233px;height:777px;background:#FFFFFF;" version="1.1" viewBox="0 0 233 777" width="233px" zoomAndPan="magnify"><defs/><g><ellipse cx="107.5" cy="20" fill="#222222" rx="10" ry="10" style="stroke:#222222;stroke-width:1.0;"/><rect fill="#F1F1F1" height="33.9688" rx="12.5" ry="12.5" style="stroke:#181818;stroke-width:0.5;" width="64" x="75.5" y="94"/><text fill="#000000" font-family="sans-serif" font-size="12" lengthAdjust="spacing" textLength="44" x="85.5" y="115.1387">Put Red</text><rect fill="#F1F1F1" height="33.9688" rx="12.5" ry="12.5" style="stroke:#181818;stroke-width:0.5;" width="80" x="67.5" y="155.4688"/><text fill="#000000" font-family="sans-serif" font-size="12" lengthAdjust="spacing" textLength="60" x="77.5" y="176.6074">Put Yellow</text><polygon fill="#F1F1F1" points="107.5,50,119.5,62,107.5,74,95.5,62,107.5,50" style="stroke:#181818;stroke-width:0.5;"/><polygon fill="#F1F1F1" points="32,209.4375,183,209.4375,195,221.4375,183,233.4375,32,233.4375,20,221.4375,32,209.4375" style="stroke:#181818;stroke-width:0.5;"/><text fill="#000000" font-family="sans-serif" font-size="11" lengthAdjust="spacing" textLength="151" x="32" y="225.2456">are there 3 Red on board?</text><rect fill="#F1F1F1" height="33.9688" rx="12.5" ry="12.5" style="stroke:#181818;stroke-width:0.5;" width="64" x="75.5" y="253.4375"/><text fill="#000000" font-family="sans-serif" font-size="12" lengthAdjust="spacing" textLength="44" x="85.5" y="274.5762">Put Red</text><rect fill="#F1F1F1" height="33.9688" rx="12.5" ry="12.5" style="stroke:#181818;stroke-width:0.5;" width="80" x="67.5" y="355.8086"/><text fill="#000000" font-family="sans-serif" font-size="12" lengthAdjust="spacing" textLength="60" x="77.5" y="376.9473">Put Yellow</text><rect fill="#F1F1F1" height="33.9688" rx="12.5" ry="12.5" style="stroke:#181818;stroke-width:0.5;" width="64" x="75.5" y="465.4878"/><text fill="#000000" font-family="sans-serif" font-size="12" lengthAdjust="spacing" textLength="44" x="85.5" y="486.6265">Put Red</text><rect fill="#F1F1F1" height="33.9688" rx="12.5" ry="12.5" style="stroke:#181818;stroke-width:0.5;" width="80" x="67.5" y="580.8745"/><text fill="#000000" font-family="sans-serif" font-size="12" lengthAdjust="spacing" textLength="60" x="77.5" y="602.0132">Put Yellow</text><polygon fill="#F1F1F1" points="107.5,532.4722,107.5,532.4722,119.5,544.4722,107.5,556.4722,107.5,556.4722,95.5,544.4722,107.5,532.4722" style="stroke:#181818;stroke-width:0.5;"/><text fill="#000000" font-family="sans-serif" font-size="11" lengthAdjust="spacing" textLength="14" x="111.5" y="566.6826">no</text><text fill="#000000" font-family="sans-serif" font-size="11" lengthAdjust="spacing" textLength="68" x="119.5" y="541.8779">!isConecta4</text><polygon fill="#F1F1F1" points="107.5,634.8433,119.5,646.8433,107.5,658.8433,95.5,646.8433,107.5,634.8433" style="stroke:#181818;stroke-width:0.5;"/><polygon fill="#F1F1F1" points="107.5,409.7773,107.5,409.7773,119.5,421.7773,107.5,433.7773,107.5,433.7773,95.5,421.7773,107.5,409.7773" style="stroke:#181818;stroke-width:0.5;"/><text fill="#000000" font-family="sans-serif" font-size="11" lengthAdjust="spacing" textLength="68" x="111.5" y="443.9878">!isConecta4</text><text fill="#000000" font-family="sans-serif" font-size="11" lengthAdjust="spacing" textLength="14" x="81.5" y="419.1831">no</text><polygon fill="#F1F1F1" points="107.5,307.4063,107.5,307.4063,119.5,319.4063,107.5,331.4063,107.5,331.4063,95.5,319.4063,107.5,307.4063" style="stroke:#181818;stroke-width:0.5;"/><text fill="#000000" font-family="sans-serif" font-size="11" lengthAdjust="spacing" textLength="14" x="111.5" y="341.6167">no</text><text fill="#000000" font-family="sans-serif" font-size="11" lengthAdjust="spacing" textLength="69" x="119.5" y="316.812">isConecta4?</text><polygon fill="#F1F1F1" points="107.5,700.8433,119.5,712.8433,107.5,724.8433,95.5,712.8433,107.5,700.8433" style="stroke:#181818;stroke-width:0.5;"/><ellipse cx="107.5" cy="755.8433" rx="11" ry="11" style="stroke:#222222;stroke-width:1.0;fill:none;"/><ellipse cx="107.5" cy="755.8433" fill="#222222" rx="6" ry="6" style="stroke:#111111;stroke-width:1.0;"/><line style="stroke:#181818;stroke-width:1.0;" x1="107.5" x2="107.5" y1="127.9688" y2="155.4688"/><polygon fill="#181818" points="103.5,145.4688,107.5,155.4688,111.5,145.4688,107.5,149.4688" style="stroke:#181818;stroke-width:1.0;"/><line style="stroke:#181818;stroke-width:1.0;" x1="107.5" x2="107.5" y1="74" y2="94"/><polygon fill="#181818" points="103.5,84,107.5,94,111.5,84,107.5,88" style="stroke:#181818;stroke-width:1.0;"/><line style="stroke:#181818;stroke-width:1.0;" x1="195" x2="207" y1="221.4375" y2="221.4375"/><polygon fill="#181818" points="203,147.9688,207,137.9688,211,147.9688,207,143.9688" style="stroke:#181818;stroke-width:1.0;"/><line style="stroke:#181818;stroke-width:1.0;" x1="207" x2="207" y1="62" y2="221.4375"/><line style="stroke:#181818;stroke-width:1.0;" x1="207" x2="119.5" y1="62" y2="62"/><polygon fill="#181818" points="129.5,58,119.5,62,129.5,66,125.5,62" style="stroke:#181818;stroke-width:1.0;"/><line style="stroke:#181818;stroke-width:1.0;" x1="107.5" x2="107.5" y1="189.4375" y2="209.4375"/><polygon fill="#181818" points="103.5,199.4375,107.5,209.4375,111.5,199.4375,107.5,203.4375" style="stroke:#181818;stroke-width:1.0;"/><line style="stroke:#181818;stroke-width:1.0;" x1="107.5" x2="107.5" y1="30" y2="50"/><polygon fill="#181818" points="103.5,40,107.5,50,111.5,40,107.5,44" style="stroke:#181818;stroke-width:1.0;"/><line style="stroke:#181818;stroke-width:1.0;" x1="107.5" x2="107.5" y1="233.4375" y2="253.4375"/><polygon fill="#181818" points="103.5,243.4375,107.5,253.4375,111.5,243.4375,107.5,247.4375" style="stroke:#181818;stroke-width:1.0;"/><line style="stroke:#181818;stroke-width:1.0;" x1="107.5" x2="107.5" y1="556.4722" y2="580.8745"/><polygon fill="#181818" points="103.5,570.8745,107.5,580.8745,111.5,570.8745,107.5,574.8745" style="stroke:#181818;stroke-width:1.0;"/><line style="stroke:#181818;stroke-width:1.0;" x1="119.5" x2="157.5" y1="544.4722" y2="544.4722"/><polygon fill="#181818" points="153.5,587.8589,157.5,597.8589,161.5,587.8589,157.5,591.8589" style="stroke:#181818;stroke-width:1.0;"/><line style="stroke:#181818;stroke-width:1.0;" x1="157.5" x2="157.5" y1="544.4722" y2="646.8433"/><line style="stroke:#181818;stroke-width:1.0;" x1="157.5" x2="119.5" y1="646.8433" y2="646.8433"/><polygon fill="#181818" points="129.5,642.8433,119.5,646.8433,129.5,650.8433,125.5,646.8433" style="stroke:#181818;stroke-width:1.0;"/><line style="stroke:#181818;stroke-width:1.0;" x1="107.5" x2="107.5" y1="614.8433" y2="634.8433"/><polygon fill="#181818" points="103.5,624.8433,107.5,634.8433,111.5,624.8433,107.5,628.8433" style="stroke:#181818;stroke-width:1.0;"/><line style="stroke:#181818;stroke-width:1.0;" x1="107.5" x2="107.5" y1="499.4565" y2="532.4722"/><polygon fill="#181818" points="103.5,522.4722,107.5,532.4722,111.5,522.4722,107.5,526.4722" style="stroke:#181818;stroke-width:1.0;"/><line style="stroke:#181818;stroke-width:1.0;" x1="107.5" x2="107.5" y1="433.7773" y2="465.4878"/><polygon fill="#181818" points="103.5,455.4878,107.5,465.4878,111.5,455.4878,107.5,459.4878" style="stroke:#181818;stroke-width:1.0;"/><line style="stroke:#181818;stroke-width:1.0;" x1="107.5" x2="107.5" y1="658.8433" y2="668.8433"/><line style="stroke:#181818;stroke-width:1.0;" x1="107.5" x2="181.5" y1="668.8433" y2="668.8433"/><polygon fill="#181818" points="177.5,554.9722,181.5,544.9722,185.5,554.9722,181.5,550.9722" style="stroke:#181818;stroke-width:1.0;"/><line style="stroke:#181818;stroke-width:1.0;" x1="181.5" x2="181.5" y1="421.7773" y2="668.8433"/><line style="stroke:#181818;stroke-width:1.0;" x1="181.5" x2="119.5" y1="421.7773" y2="421.7773"/><polygon fill="#181818" points="129.5,417.7773,119.5,421.7773,129.5,425.7773,125.5,421.7773" style="stroke:#181818;stroke-width:1.0;"/><line style="stroke:#181818;stroke-width:1.0;" x1="95.5" x2="45.5" y1="421.7773" y2="421.7773"/><polygon fill="#181818" points="41.5,540.9722,45.5,550.9722,49.5,540.9722,45.5,544.9722" style="stroke:#181818;stroke-width:1.0;"/><line style="stroke:#181818;stroke-width:1.0;" x1="45.5" x2="45.5" y1="421.7773" y2="680.8433"/><line style="stroke:#181818;stroke-width:1.0;" x1="45.5" x2="107.5" y1="680.8433" y2="680.8433"/><line style="stroke:#181818;stroke-width:1.0;" x1="107.5" x2="107.5" y1="680.8433" y2="700.8433"/><polygon fill="#181818" points="103.5,690.8433,107.5,700.8433,111.5,690.8433,107.5,694.8433" style="stroke:#181818;stroke-width:1.0;"/><line style="stroke:#181818;stroke-width:1.0;" x1="107.5" x2="107.5" y1="389.7773" y2="409.7773"/><polygon fill="#181818" points="103.5,399.7773,107.5,409.7773,111.5,399.7773,107.5,403.7773" style="stroke:#181818;stroke-width:1.0;"/><line style="stroke:#181818;stroke-width:1.0;" x1="107.5" x2="107.5" y1="331.4063" y2="355.8086"/><polygon fill="#181818" points="103.5,345.8086,107.5,355.8086,111.5,345.8086,107.5,349.8086" style="stroke:#181818;stroke-width:1.0;"/><line style="stroke:#181818;stroke-width:1.0;" x1="119.5" x2="191.5" y1="319.4063" y2="319.4063"/><polygon fill="#181818" points="187.5,502.4722,191.5,512.4722,195.5,502.4722,191.5,506.4722" style="stroke:#181818;stroke-width:1.0;"/><line style="stroke:#181818;stroke-width:1.0;" x1="191.5" x2="191.5" y1="319.4063" y2="712.8433"/><line style="stroke:#181818;stroke-width:1.0;" x1="191.5" x2="119.5" y1="712.8433" y2="712.8433"/><polygon fill="#181818" points="129.5,708.8433,119.5,712.8433,129.5,716.8433,125.5,712.8433" style="stroke:#181818;stroke-width:1.0;"/><line style="stroke:#181818;stroke-width:1.0;" x1="107.5" x2="107.5" y1="287.4063" y2="307.4063"/><polygon fill="#181818" points="103.5,297.4063,107.5,307.4063,111.5,297.4063,107.5,301.4063" style="stroke:#181818;stroke-width:1.0;"/><line style="stroke:#181818;stroke-width:1.0;" x1="107.5" x2="107.5" y1="724.8433" y2="744.8433"/><polygon fill="#181818" points="103.5,734.8433,107.5,744.8433,111.5,734.8433,107.5,738.8433" style="stroke:#181818;stroke-width:1.0;"/><!--MD5=[c47696029ce3dd9e750f94704b0e98f0]
@startuml
start

repeat
  :Put Red;
  :Put Yellow;
repeat while (are there 3 Red on board?)
:Put Red;
if () then (isConecta4?)
else (no)
  :Put Yellow;
  while () is (!isConecta4)
    :Put Red;
    if () then (!isConecta4)
    else (no)
    :Put Yellow;
    endif
  endwhile (no)
endif
stop
@enduml

PlantUML version 1.2022.7beta2(Unknown compile time)
(GPL source distribution)
Java Runtime: Java(TM) SE Runtime Environment
JVM: Java HotSpot(TM) 64-Bit Server VM
Default Encoding: UTF-8
Language: en
Country: US
--></g></svg>