<?xml version="1.0" encoding="UTF-8" standalone="no"?><svg xmlns="http://www.w3.org/2000/svg" xmlns:xlink="http://www.w3.org/1999/xlink" contentStyleType="text/css" height="367px" preserveAspectRatio="none" style="width:449px;height:367px;background:#FFFFFF;" version="1.1" viewBox="0 0 449 367" width="449px" zoomAndPan="magnify"><defs/><g><g id="State1"><rect fill="#F1F1F1" height="50" rx="12.5" ry="12.5" style="stroke:#181818;stroke-width:0.5;" width="50" x="187.8605" y="87"/><line style="stroke:#181818;stroke-width:0.5;" x1="187.8605" x2="237.8605" y1="113.2969" y2="113.2969"/><text fill="#000000" font-family="sans-serif" font-size="14" lengthAdjust="spacing" textLength="4" x="210.8605" y="104.9951"> </text></g><g id="State2"><rect fill="#F1F1F1" height="50" rx="12.5" ry="12.5" style="stroke:#181818;stroke-width:0.5;" width="50" x="94.8602" y="214"/><line style="stroke:#181818;stroke-width:0.5;" x1="94.8602" x2="144.8602" y1="240.2969" y2="240.2969"/><text fill="#000000" font-family="sans-serif" font-size="14" lengthAdjust="spacing" textLength="4" x="117.8602" y="231.9951"> </text></g><ellipse cx="212.8605" cy="16" fill="#222222" rx="10" ry="10" style="stroke:none;stroke-width:1.0;"/><ellipse cx="218.8605" cy="351" fill="none" rx="10" ry="10" style="stroke:#222222;stroke-width:1.0;"/><ellipse cx="219.3605" cy="351.5" fill="#222222" rx="6" ry="6" style="stroke:none;stroke-width:1.0;"/><!--MD5=[60533a5dc91355c93bf187ba4549d745]
link *start to State1--><g id="link_*start_State1"><path d="M212.8605,26.013 C212.8605,38.698 212.8605,62.409 212.8605,81.57 " fill="none" id="*start-to-State1" style="stroke:#181818;stroke-width:1.0;"/><polygon fill="#181818" points="212.8605,86.84,216.8605,77.84,212.8605,81.84,208.8605,77.84,212.8605,86.84" style="stroke:#181818;stroke-width:1.0;"/></g><!--MD5=[dc702cd49c4e27e6abb2620dc4bb28d8]
link State1 to State2--><g id="link_State1_State2"><path d="M187.7095,114.477 C154.9235,117.912 98.7255,129.301 72.8602,167 C61.604,183.406 75.1756,202.187 90.5797,216.31 " fill="none" id="State1-to-State2" style="stroke:#181818;stroke-width:1.0;"/><polygon fill="#181818" points="94.5214,219.796,90.4293,210.8375,90.7759,216.4837,85.1297,216.8304,94.5214,219.796" style="stroke:#181818;stroke-width:1.0;"/><text fill="#000000" font-family="sans-serif" font-size="13" lengthAdjust="spacing" textLength="50" x="73.8602" y="180.0669">put Red</text></g><!--MD5=[9ca92f0828cef308805b33a10f0728b8]
link State2 to State1--><g id="link_State2_State1"><path d="M133.9285,213.689 C142.3685,199.668 153.6185,181.918 164.8605,167 C171.4775,158.219 179.1905,149.12 186.4735,140.951 " fill="none" id="State2-to-State1" style="stroke:#181818;stroke-width:1.0;"/><polygon fill="#181818" points="190.0075,137.021,181.0151,141.038,186.664,140.7387,186.9634,146.3876,190.0075,137.021" style="stroke:#181818;stroke-width:1.0;"/><text fill="#000000" font-family="sans-serif" font-size="13" lengthAdjust="spacing" textLength="66" x="165.8605" y="180.0669">put Yellow</text></g><!--MD5=[37ebb224bae70bf8df0e6bab9d19d55b]
link State2 to *end--><g id="link_State2_*end"><path d="M94.8185,247.57 C60.6156,259.171 6,282.9709 28.8602,311 C50.9599,338.0968 162.2425,346.8958 203.4675,349.2522 " fill="none" id="State2-to-*end" style="stroke:#181818;stroke-width:1.0;"/><polygon fill="#181818" points="208.5825,349.5317,199.8142,345.0465,203.59,349.2588,199.3776,353.0346,208.5825,349.5317" style="stroke:#181818;stroke-width:1.0;"/><text fill="#000000" font-family="sans-serif" font-size="13" lengthAdjust="spacing" textLength="106" x="29.8602" y="307.0669">[isConecta4Red]</text></g><!--MD5=[37ebb224bae70bf8df0e6bab9d19d55b]
link State2 to *end--><g id="link_State2_*end"><path d="M137.7705,264.0623 C148.6045,278.1603 162.9695,296.0721 176.8605,311 C186.7635,321.6422 199.0415,332.8391 207.7595,340.4918 " fill="none" id="State2-to-*end-1" style="stroke:#181818;stroke-width:1.0;"/><polygon fill="#181818" points="211.7265,343.9458,207.5646,335.0195,207.9553,340.6629,202.3119,341.0535,211.7265,343.9458" style="stroke:#181818;stroke-width:1.0;"/><text fill="#000000" font-family="sans-serif" font-size="13" lengthAdjust="spacing" textLength="54" x="177.8605" y="307.0669">[isDraw]</text></g><!--MD5=[ca1046a354e184ac9d197a073cc82934]
link State1 to *end--><g id="link_State1_*end"><path d="M226.1075,137 C230.4365,146.112 234.6875,156.764 236.8605,167 C250.1465,229.606 250.5895,248.49 236.8605,311 C234.8325,320.2319 230.4005,329.8826 226.4415,337.2742 " fill="none" id="State1-to-*end" style="stroke:#181818;stroke-width:1.0;"/><polygon fill="#181818" points="223.8115,341.9977,231.6843,336.08,226.2437,337.6291,224.6945,332.1885,223.8115,341.9977" style="stroke:#181818;stroke-width:1.0;"/><text fill="#000000" font-family="sans-serif" font-size="13" lengthAdjust="spacing" textLength="122" x="247.8605" y="243.5669">[isConecta4Yellow]</text></g><!--MD5=[ca1046a354e184ac9d197a073cc82934]
link State1 to *end--><g id="link_State1_*end"><path d="M237.9625,119.73 C276.3885,131.542 348.5275,160.038 378.8605,214 C389.7495,233.372 390.2625,244.926 378.8605,264 C346.4515,318.2136 266.8185,340.2377 233.6915,347.2563 " fill="none" id="State1-to-*end-1" style="stroke:#181818;stroke-width:1.0;"/><polygon fill="#181818" points="228.7885,348.2566,238.4067,350.3758,233.6875,347.2566,236.8067,342.5374,228.7885,348.2566" style="stroke:#181818;stroke-width:1.0;"/><text fill="#000000" font-family="sans-serif" font-size="13" lengthAdjust="spacing" textLength="54" x="387.8605" y="243.5669">[isDraw]</text></g><!--MD5=[ca1ceb68a0bec6e159b4ac79ae6c1579]
@startuml
state State1 as " "
state State2 as " "

[*] - -> State1

State1 - -> State2 : put Red
State2 - -> State1 : put Yellow
State2 - -> [*] : [isConecta4Red]
State2 - -> [*] : [isDraw]
State1 - -> [*] : [isConecta4Yellow]
State1 - -> [*] : [isDraw]
@enduml

PlantUML version 1.2022.7beta2(Unknown compile time)
(GPL source distribution)
Java Runtime: Java(TM) SE Runtime Environment
JVM: Java HotSpot(TM) 64-Bit Server VM
Default Encoding: UTF-8
Language: en
Country: US
--></g></svg>