<?xml version="1.0" encoding="UTF-8" standalone="no"?><svg xmlns="http://www.w3.org/2000/svg" xmlns:xlink="http://www.w3.org/1999/xlink" contentStyleType="text/css" height="504px" preserveAspectRatio="none" style="width:315px;height:504px;background:#FFFFFF;" version="1.1" viewBox="0 0 315 504" width="315px" zoomAndPan="magnify"><defs/><g><ellipse cx="172" cy="20" fill="#222222" rx="10" ry="10" style="stroke:#222222;stroke-width:1.0;"/><rect fill="#F1F1F1" height="33.9688" rx="12.5" ry="12.5" style="stroke:#181818;stroke-width:0.5;" width="64" x="140" y="94"/><text fill="#000000" font-family="sans-serif" font-size="12" lengthAdjust="spacing" textLength="44" x="150" y="115.1387">Put Red</text><rect fill="#F1F1F1" height="33.9688" rx="12.5" ry="12.5" style="stroke:#181818;stroke-width:0.5;" width="80" x="132" y="155.4688"/><text fill="#000000" font-family="sans-serif" font-size="12" lengthAdjust="spacing" textLength="60" x="142" y="176.6074">Put Yellow</text><polygon fill="#F1F1F1" points="172,50,184,62,172,74,160,62,172,50" style="stroke:#181818;stroke-width:0.5;"/><polygon fill="#F1F1F1" points="96.5,209.4375,247.5,209.4375,259.5,221.4375,247.5,233.4375,96.5,233.4375,84.5,221.4375,96.5,209.4375" style="stroke:#181818;stroke-width:0.5;"/><text fill="#000000" font-family="sans-serif" font-size="11" lengthAdjust="spacing" textLength="151" x="96.5" y="225.2456">are there 3 Red on board?</text><polygon fill="#F1F1F1" points="32,253.4375,101,253.4375,113,265.4375,101,277.4375,32,277.4375,20,265.4375,32,253.4375" style="stroke:#181818;stroke-width:0.5;"/><text fill="#000000" font-family="sans-serif" font-size="11" lengthAdjust="spacing" textLength="14" x="70.5" y="287.6479">no</text><text fill="#000000" font-family="sans-serif" font-size="11" lengthAdjust="spacing" textLength="69" x="32" y="269.2456">isConecta4?</text><rect fill="#F1F1F1" height="33.9688" rx="12.5" ry="12.5" style="stroke:#181818;stroke-width:0.5;" width="64" x="34.5" y="353.1479"/><text fill="#000000" font-family="sans-serif" font-size="12" lengthAdjust="spacing" textLength="44" x="44.5" y="374.2866">Put Red</text><polygon fill="#F1F1F1" points="66.5,309.1479,78.5,321.1479,66.5,333.1479,54.5,321.1479,66.5,309.1479" style="stroke:#181818;stroke-width:0.5;"/><polygon fill="#F1F1F1" points="32,407.1167,101,407.1167,113,419.1167,101,431.1167,32,431.1167,20,419.1167,32,407.1167" style="stroke:#181818;stroke-width:0.5;"/><text fill="#000000" font-family="sans-serif" font-size="11" lengthAdjust="spacing" textLength="69" x="32" y="422.9248">isConecta4?</text><text fill="#000000" font-family="sans-serif" font-size="11" lengthAdjust="spacing" textLength="14" x="113" y="416.5225">no</text><polygon fill="#F1F1F1" points="169,253.4375,238,253.4375,250,265.4375,238,277.4375,169,277.4375,157,265.4375,169,253.4375" style="stroke:#181818;stroke-width:0.5;"/><text fill="#000000" font-family="sans-serif" font-size="11" lengthAdjust="spacing" textLength="14" x="207.5" y="287.6479">no</text><text fill="#000000" font-family="sans-serif" font-size="11" lengthAdjust="spacing" textLength="69" x="169" y="269.2456">isConecta4?</text><rect fill="#F1F1F1" height="33.9688" rx="12.5" ry="12.5" style="stroke:#181818;stroke-width:0.5;" width="80" x="163.5" y="353.1479"/><text fill="#000000" font-family="sans-serif" font-size="12" lengthAdjust="spacing" textLength="60" x="173.5" y="374.2866">Put Yellow</text><polygon fill="#F1F1F1" points="203.5,309.1479,215.5,321.1479,203.5,333.1479,191.5,321.1479,203.5,309.1479" style="stroke:#181818;stroke-width:0.5;"/><polygon fill="#F1F1F1" points="169,407.1167,238,407.1167,250,419.1167,238,431.1167,169,431.1167,157,419.1167,169,407.1167" style="stroke:#181818;stroke-width:0.5;"/><text fill="#000000" font-family="sans-serif" font-size="11" lengthAdjust="spacing" textLength="69" x="169" y="422.9248">isConecta4?</text><text fill="#000000" font-family="sans-serif" font-size="11" lengthAdjust="spacing" textLength="14" x="250" y="416.5225">no</text><ellipse cx="172" cy="482.1167" rx="11" ry="11" style="stroke:#222222;stroke-width:1.0;fill:none;"/><ellipse cx="172" cy="482.1167" fill="#222222" rx="6" ry="6" style="stroke:#111111;stroke-width:1.0;"/><line style="stroke:#181818;stroke-width:1.0;" x1="172" x2="172" y1="127.9688" y2="155.4688"/><polygon fill="#181818" points="168,145.4688,172,155.4688,176,145.4688,172,149.4688" style="stroke:#181818;stroke-width:1.0;"/><line style="stroke:#181818;stroke-width:1.0;" x1="172" x2="172" y1="74" y2="94"/><polygon fill="#181818" points="168,84,172,94,176,84,172,88" style="stroke:#181818;stroke-width:1.0;"/><line style="stroke:#181818;stroke-width:1.0;" x1="259.5" x2="271.5" y1="221.4375" y2="221.4375"/><polygon fill="#181818" points="267.5,147.9688,271.5,137.9688,275.5,147.9688,271.5,143.9688" style="stroke:#181818;stroke-width:1.0;"/><line style="stroke:#181818;stroke-width:1.0;" x1="271.5" x2="271.5" y1="62" y2="221.4375"/><line style="stroke:#181818;stroke-width:1.0;" x1="271.5" x2="184" y1="62" y2="62"/><polygon fill="#181818" points="194,58,184,62,194,66,190,62" style="stroke:#181818;stroke-width:1.0;"/><line style="stroke:#181818;stroke-width:1.0;" x1="172" x2="172" y1="189.4375" y2="209.4375"/><polygon fill="#181818" points="168,199.4375,172,209.4375,176,199.4375,172,203.4375" style="stroke:#181818;stroke-width:1.0;"/><line style="stroke:#181818;stroke-width:1.0;" x1="172" x2="172" y1="30" y2="50"/><polygon fill="#181818" points="168,40,172,50,176,40,172,44" style="stroke:#181818;stroke-width:1.0;"/><line style="stroke:#181818;stroke-width:1.0;" x1="66.5" x2="66.5" y1="333.1479" y2="353.1479"/><polygon fill="#181818" points="62.5,343.1479,66.5,353.1479,70.5,343.1479,66.5,347.1479" style="stroke:#181818;stroke-width:1.0;"/><line style="stroke:#181818;stroke-width:1.0;" x1="113" x2="125" y1="419.1167" y2="419.1167"/><polygon fill="#181818" points="121,380.1323,125,370.1323,129,380.1323,125,376.1323" style="stroke:#181818;stroke-width:1.0;"/><line style="stroke:#181818;stroke-width:1.0;" x1="125" x2="125" y1="321.1479" y2="419.1167"/><line style="stroke:#181818;stroke-width:1.0;" x1="125" x2="78.5" y1="321.1479" y2="321.1479"/><polygon fill="#181818" points="88.5,317.1479,78.5,321.1479,88.5,325.1479,84.5,321.1479" style="stroke:#181818;stroke-width:1.0;"/><line style="stroke:#181818;stroke-width:1.0;" x1="66.5" x2="66.5" y1="387.1167" y2="407.1167"/><polygon fill="#181818" points="62.5,397.1167,66.5,407.1167,70.5,397.1167,66.5,401.1167" style="stroke:#181818;stroke-width:1.0;"/><line style="stroke:#181818;stroke-width:1.0;" x1="203.5" x2="203.5" y1="333.1479" y2="353.1479"/><polygon fill="#181818" points="199.5,343.1479,203.5,353.1479,207.5,343.1479,203.5,347.1479" style="stroke:#181818;stroke-width:1.0;"/><line style="stroke:#181818;stroke-width:1.0;" x1="250" x2="262" y1="419.1167" y2="419.1167"/><polygon fill="#181818" points="258,380.1323,262,370.1323,266,380.1323,262,376.1323" style="stroke:#181818;stroke-width:1.0;"/><line style="stroke:#181818;stroke-width:1.0;" x1="262" x2="262" y1="321.1479" y2="419.1167"/><line style="stroke:#181818;stroke-width:1.0;" x1="262" x2="215.5" y1="321.1479" y2="321.1479"/><polygon fill="#181818" points="225.5,317.1479,215.5,321.1479,225.5,325.1479,221.5,321.1479" style="stroke:#181818;stroke-width:1.0;"/><line style="stroke:#181818;stroke-width:1.0;" x1="203.5" x2="203.5" y1="387.1167" y2="407.1167"/><polygon fill="#181818" points="199.5,397.1167,203.5,407.1167,207.5,397.1167,203.5,401.1167" style="stroke:#181818;stroke-width:1.0;"/><line style="stroke:#181818;stroke-width:1.0;" x1="66.5" x2="66.5" y1="277.4375" y2="309.1479"/><polygon fill="#181818" points="62.5,299.1479,66.5,309.1479,70.5,299.1479,66.5,303.1479" style="stroke:#181818;stroke-width:1.0;"/><line style="stroke:#181818;stroke-width:1.0;" x1="66.5" x2="66.5" y1="431.1167" y2="451.1167"/><polygon fill="#181818" points="62.5,441.1167,66.5,451.1167,70.5,441.1167,66.5,445.1167" style="stroke:#181818;stroke-width:1.0;"/><line style="stroke:#181818;stroke-width:1.0;" x1="203.5" x2="203.5" y1="277.4375" y2="309.1479"/><polygon fill="#181818" points="199.5,299.1479,203.5,309.1479,207.5,299.1479,203.5,303.1479" style="stroke:#181818;stroke-width:1.0;"/><line style="stroke:#181818;stroke-width:1.0;" x1="203.5" x2="203.5" y1="431.1167" y2="451.1167"/><polygon fill="#181818" points="199.5,441.1167,203.5,451.1167,207.5,441.1167,203.5,445.1167" style="stroke:#181818;stroke-width:1.0;"/><line style="stroke:#181818;stroke-width:1.0;" x1="113" x2="157" y1="265.4375" y2="265.4375"/><polygon fill="#181818" points="147,261.4375,157,265.4375,147,269.4375,151,265.4375" style="stroke:#181818;stroke-width:1.0;"/><line style="stroke:#181818;stroke-width:1.0;" x1="172" x2="172" y1="233.4375" y2="238.4375"/><line style="stroke:#181818;stroke-width:1.0;" x1="172" x2="66.5" y1="238.4375" y2="238.4375"/><line style="stroke:#181818;stroke-width:1.0;" x1="66.5" x2="66.5" y1="238.4375" y2="253.4375"/><polygon fill="#181818" points="62.5,243.4375,66.5,253.4375,70.5,243.4375,66.5,247.4375" style="stroke:#181818;stroke-width:1.0;"/><line style="stroke:#181818;stroke-width:1.0;" x1="250" x2="289.5" y1="265.4375" y2="265.4375"/><line style="stroke:#181818;stroke-width:1.0;" x1="289.5" x2="289.5" y1="265.4375" y2="451.1167"/><polygon fill="#181818" points="285.5,441.1167,289.5,451.1167,293.5,441.1167,289.5,445.1167" style="stroke:#181818;stroke-width:1.0;"/><line style="stroke:#181818;stroke-width:1.0;" x1="66.5" x2="289.5" y1="451.1167" y2="451.1167"/><line style="stroke:#181818;stroke-width:1.0;" x1="172" x2="172" y1="451.1167" y2="471.1167"/><polygon fill="#181818" points="168,461.1167,172,471.1167,176,461.1167,172,465.1167" style="stroke:#181818;stroke-width:1.0;"/><!--MD5=[650f5613cf5a6559e01d41384101758d]
@startuml
start

repeat
  :Put Red;
  :Put Yellow;
repeat while (are there 3 Red on board?)
if(isConecta4?) then (no)
  repeat
    :Put Red;
  repeat while (isConecta4?) is (no)

elseif(isConecta4?) then (no)
repeat
    :Put Yellow;
  repeat while (isConecta4?) is (no)
endif

stop
@enduml

PlantUML version 1.2022.7beta2(Unknown compile time)
(GPL source distribution)
Java Runtime: Java(TM) SE Runtime Environment
JVM: Java HotSpot(TM) 64-Bit Server VM
Default Encoding: UTF-8
Language: en
Country: US
--></g></svg>