<?xml version="1.0" encoding="UTF-8" standalone="no"?><svg xmlns="http://www.w3.org/2000/svg" xmlns:xlink="http://www.w3.org/1999/xlink" contentStyleType="text/css" height="747px" preserveAspectRatio="none" style="width:1030px;height:747px;background:#FFFFFF;" version="1.1" viewBox="0 0 1030 747" width="1030px" zoomAndPan="magnify"><defs/><g><rect height="26.2969" id="_title" style="stroke:#00000000;stroke-width:1.0;fill:none;" width="374" x="321" y="5"/><text fill="#000000" font-family="sans-serif" font-size="14" font-weight="bold" lengthAdjust="spacing" textLength="364" x="326" y="22.9951">Sistema Complejo - Una Empresa Organizada</text><!--MD5=[093d379f2b7e54e4fc4757309739f182]
class Business--><g id="elem_Business"><rect codeLine="3" fill="#F1F1F1" height="48" id="Business" rx="2.5" ry="2.5" style="stroke:#181818;stroke-width:0.5;" width="93" x="752.5" y="44.2969"/><ellipse cx="767.5" cy="60.2969" fill="#ADD1B2" rx="11" ry="11" style="stroke:#181818;stroke-width:1.0;"/><path d="M769.8438,55.9688 C768.9063,55.5313 768.3125,55.3906 767.4375,55.3906 C764.8125,55.3906 762.8125,57.4688 762.8125,60.1875 L762.8125,61.3125 C762.8125,63.8906 764.9219,65.7813 767.8125,65.7813 C769.0313,65.7813 770.1875,65.4844 770.9375,64.9375 C771.5156,64.5313 771.8438,64.0781 771.8438,63.6875 C771.8438,63.2344 771.4531,62.8438 770.9844,62.8438 C770.7656,62.8438 770.5625,62.9219 770.375,63.1094 C769.9219,63.5938 769.9219,63.5938 769.7344,63.6875 C769.3125,63.9531 768.625,64.0781 767.8594,64.0781 C765.8125,64.0781 764.5156,62.9844 764.5156,61.2813 L764.5156,60.1875 C764.5156,58.4063 765.7656,57.0938 767.5,57.0938 C768.0781,57.0938 768.6875,57.25 769.1563,57.5 C769.6406,57.7813 769.8125,58 769.9063,58.4063 C769.9688,58.8125 770,58.9375 770.1406,59.0625 C770.2813,59.2031 770.5156,59.3125 770.7344,59.3125 C771,59.3125 771.2656,59.1719 771.4375,58.9531 C771.5469,58.7969 771.5781,58.6094 771.5781,58.1875 L771.5781,56.7656 C771.5781,56.3281 771.5625,56.2031 771.4688,56.0469 C771.3125,55.7813 771.0313,55.6406 770.7344,55.6406 C770.4375,55.6406 770.2344,55.7344 770.0156,56.0469 L769.8438,55.9688 Z " fill="#000000"/><text fill="#000000" font-family="sans-serif" font-size="14" lengthAdjust="spacing" textLength="61" x="781.5" y="65.1436">Business</text><line style="stroke:#181818;stroke-width:0.5;" x1="753.5" x2="844.5" y1="76.2969" y2="76.2969"/><line style="stroke:#181818;stroke-width:0.5;" x1="753.5" x2="844.5" y1="84.2969" y2="84.2969"/></g><!--MD5=[08d6a551530ab71b272f9c2c40bfb385]
class Owner--><g id="elem_Owner"><rect codeLine="5" fill="#F1F1F1" height="48" id="Owner" rx="2.5" ry="2.5" style="stroke:#181818;stroke-width:0.5;" width="78" x="760" y="152.2969"/><ellipse cx="775" cy="168.2969" fill="#ADD1B2" rx="11" ry="11" style="stroke:#181818;stroke-width:1.0;"/><path d="M777.3438,163.9688 C776.4063,163.5313 775.8125,163.3906 774.9375,163.3906 C772.3125,163.3906 770.3125,165.4688 770.3125,168.1875 L770.3125,169.3125 C770.3125,171.8906 772.4219,173.7813 775.3125,173.7813 C776.5313,173.7813 777.6875,173.4844 778.4375,172.9375 C779.0156,172.5313 779.3438,172.0781 779.3438,171.6875 C779.3438,171.2344 778.9531,170.8438 778.4844,170.8438 C778.2656,170.8438 778.0625,170.9219 777.875,171.1094 C777.4219,171.5938 777.4219,171.5938 777.2344,171.6875 C776.8125,171.9531 776.125,172.0781 775.3594,172.0781 C773.3125,172.0781 772.0156,170.9844 772.0156,169.2813 L772.0156,168.1875 C772.0156,166.4063 773.2656,165.0938 775,165.0938 C775.5781,165.0938 776.1875,165.25 776.6563,165.5 C777.1406,165.7813 777.3125,166 777.4063,166.4063 C777.4688,166.8125 777.5,166.9375 777.6406,167.0625 C777.7813,167.2031 778.0156,167.3125 778.2344,167.3125 C778.5,167.3125 778.7656,167.1719 778.9375,166.9531 C779.0469,166.7969 779.0781,166.6094 779.0781,166.1875 L779.0781,164.7656 C779.0781,164.3281 779.0625,164.2031 778.9688,164.0469 C778.8125,163.7813 778.5313,163.6406 778.2344,163.6406 C777.9375,163.6406 777.7344,163.7344 777.5156,164.0469 L777.3438,163.9688 Z " fill="#000000"/><text fill="#000000" font-family="sans-serif" font-size="14" lengthAdjust="spacing" textLength="46" x="789" y="173.1436">Owner</text><line style="stroke:#181818;stroke-width:0.5;" x1="761" x2="837" y1="184.2969" y2="184.2969"/><line style="stroke:#181818;stroke-width:0.5;" x1="761" x2="837" y1="192.2969" y2="192.2969"/></g><!--MD5=[a57bd1032262edb96b7e0f2b6442fcba]
class CEO--><g id="elem_CEO"><rect codeLine="7" fill="#F1F1F1" height="48" id="CEO" rx="2.5" ry="2.5" style="stroke:#181818;stroke-width:0.5;" width="62" x="768" y="260.2969"/><ellipse cx="783" cy="276.2969" fill="#ADD1B2" rx="11" ry="11" style="stroke:#181818;stroke-width:1.0;"/><path d="M785.3438,271.9688 C784.4063,271.5313 783.8125,271.3906 782.9375,271.3906 C780.3125,271.3906 778.3125,273.4688 778.3125,276.1875 L778.3125,277.3125 C778.3125,279.8906 780.4219,281.7813 783.3125,281.7813 C784.5313,281.7813 785.6875,281.4844 786.4375,280.9375 C787.0156,280.5313 787.3438,280.0781 787.3438,279.6875 C787.3438,279.2344 786.9531,278.8438 786.4844,278.8438 C786.2656,278.8438 786.0625,278.9219 785.875,279.1094 C785.4219,279.5938 785.4219,279.5938 785.2344,279.6875 C784.8125,279.9531 784.125,280.0781 783.3594,280.0781 C781.3125,280.0781 780.0156,278.9844 780.0156,277.2813 L780.0156,276.1875 C780.0156,274.4063 781.2656,273.0938 783,273.0938 C783.5781,273.0938 784.1875,273.25 784.6563,273.5 C785.1406,273.7813 785.3125,274 785.4063,274.4063 C785.4688,274.8125 785.5,274.9375 785.6406,275.0625 C785.7813,275.2031 786.0156,275.3125 786.2344,275.3125 C786.5,275.3125 786.7656,275.1719 786.9375,274.9531 C787.0469,274.7969 787.0781,274.6094 787.0781,274.1875 L787.0781,272.7656 C787.0781,272.3281 787.0625,272.2031 786.9688,272.0469 C786.8125,271.7813 786.5313,271.6406 786.2344,271.6406 C785.9375,271.6406 785.7344,271.7344 785.5156,272.0469 L785.3438,271.9688 Z " fill="#000000"/><text fill="#000000" font-family="sans-serif" font-size="14" lengthAdjust="spacing" textLength="30" x="797" y="281.1436">CEO</text><line style="stroke:#181818;stroke-width:0.5;" x1="769" x2="829" y1="292.2969" y2="292.2969"/><line style="stroke:#181818;stroke-width:0.5;" x1="769" x2="829" y1="300.2969" y2="300.2969"/></g><!--MD5=[d61987a7aa818eb3587ce913f2a7d429]
class Administration--><g id="elem_Administration"><rect codeLine="9" fill="#F1F1F1" height="48" id="Administration" rx="2.5" ry="2.5" style="stroke:#181818;stroke-width:0.5;" width="139" x="649.5" y="368.2969"/><ellipse cx="664.5" cy="384.2969" fill="#ADD1B2" rx="11" ry="11" style="stroke:#181818;stroke-width:1.0;"/><path d="M666.8438,379.9688 C665.9063,379.5313 665.3125,379.3906 664.4375,379.3906 C661.8125,379.3906 659.8125,381.4688 659.8125,384.1875 L659.8125,385.3125 C659.8125,387.8906 661.9219,389.7813 664.8125,389.7813 C666.0313,389.7813 667.1875,389.4844 667.9375,388.9375 C668.5156,388.5313 668.8438,388.0781 668.8438,387.6875 C668.8438,387.2344 668.4531,386.8438 667.9844,386.8438 C667.7656,386.8438 667.5625,386.9219 667.375,387.1094 C666.9219,387.5938 666.9219,387.5938 666.7344,387.6875 C666.3125,387.9531 665.625,388.0781 664.8594,388.0781 C662.8125,388.0781 661.5156,386.9844 661.5156,385.2813 L661.5156,384.1875 C661.5156,382.4063 662.7656,381.0938 664.5,381.0938 C665.0781,381.0938 665.6875,381.25 666.1563,381.5 C666.6406,381.7813 666.8125,382 666.9063,382.4063 C666.9688,382.8125 667,382.9375 667.1406,383.0625 C667.2813,383.2031 667.5156,383.3125 667.7344,383.3125 C668,383.3125 668.2656,383.1719 668.4375,382.9531 C668.5469,382.7969 668.5781,382.6094 668.5781,382.1875 L668.5781,380.7656 C668.5781,380.3281 668.5625,380.2031 668.4688,380.0469 C668.3125,379.7813 668.0313,379.6406 667.7344,379.6406 C667.4375,379.6406 667.2344,379.7344 667.0156,380.0469 L666.8438,379.9688 Z " fill="#000000"/><text fill="#000000" font-family="sans-serif" font-size="14" lengthAdjust="spacing" textLength="107" x="678.5" y="389.1436">Administration</text><line style="stroke:#181818;stroke-width:0.5;" x1="650.5" x2="787.5" y1="400.2969" y2="400.2969"/><line style="stroke:#181818;stroke-width:0.5;" x1="650.5" x2="787.5" y1="408.2969" y2="408.2969"/></g><!--MD5=[41e89daf1a0ec8af7e0fda1c4a9b9d12]
class Contability--><g id="elem_Contability"><rect codeLine="10" fill="#F1F1F1" height="48" id="Contability" rx="2.5" ry="2.5" style="stroke:#181818;stroke-width:0.5;" width="112" x="824" y="368.2969"/><ellipse cx="839" cy="384.2969" fill="#ADD1B2" rx="11" ry="11" style="stroke:#181818;stroke-width:1.0;"/><path d="M841.3438,379.9688 C840.4063,379.5313 839.8125,379.3906 838.9375,379.3906 C836.3125,379.3906 834.3125,381.4688 834.3125,384.1875 L834.3125,385.3125 C834.3125,387.8906 836.4219,389.7813 839.3125,389.7813 C840.5313,389.7813 841.6875,389.4844 842.4375,388.9375 C843.0156,388.5313 843.3438,388.0781 843.3438,387.6875 C843.3438,387.2344 842.9531,386.8438 842.4844,386.8438 C842.2656,386.8438 842.0625,386.9219 841.875,387.1094 C841.4219,387.5938 841.4219,387.5938 841.2344,387.6875 C840.8125,387.9531 840.125,388.0781 839.3594,388.0781 C837.3125,388.0781 836.0156,386.9844 836.0156,385.2813 L836.0156,384.1875 C836.0156,382.4063 837.2656,381.0938 839,381.0938 C839.5781,381.0938 840.1875,381.25 840.6563,381.5 C841.1406,381.7813 841.3125,382 841.4063,382.4063 C841.4688,382.8125 841.5,382.9375 841.6406,383.0625 C841.7813,383.2031 842.0156,383.3125 842.2344,383.3125 C842.5,383.3125 842.7656,383.1719 842.9375,382.9531 C843.0469,382.7969 843.0781,382.6094 843.0781,382.1875 L843.0781,380.7656 C843.0781,380.3281 843.0625,380.2031 842.9688,380.0469 C842.8125,379.7813 842.5313,379.6406 842.2344,379.6406 C841.9375,379.6406 841.7344,379.7344 841.5156,380.0469 L841.3438,379.9688 Z " fill="#000000"/><text fill="#000000" font-family="sans-serif" font-size="14" lengthAdjust="spacing" textLength="80" x="853" y="389.1436">Contability</text><line style="stroke:#181818;stroke-width:0.5;" x1="825" x2="935" y1="400.2969" y2="400.2969"/><line style="stroke:#181818;stroke-width:0.5;" x1="825" x2="935" y1="408.2969" y2="408.2969"/></g><!--MD5=[51e02b357e8cc63872d40ad5f3c5bd80]
class HR--><g id="elem_HR"><rect codeLine="11" fill="#F1F1F1" height="48" id="HR" rx="2.5" ry="2.5" style="stroke:#181818;stroke-width:0.5;" width="52" x="971" y="368.2969"/><ellipse cx="986" cy="384.2969" fill="#ADD1B2" rx="11" ry="11" style="stroke:#181818;stroke-width:1.0;"/><path d="M988.3438,379.9688 C987.4063,379.5313 986.8125,379.3906 985.9375,379.3906 C983.3125,379.3906 981.3125,381.4688 981.3125,384.1875 L981.3125,385.3125 C981.3125,387.8906 983.4219,389.7813 986.3125,389.7813 C987.5313,389.7813 988.6875,389.4844 989.4375,388.9375 C990.0156,388.5313 990.3438,388.0781 990.3438,387.6875 C990.3438,387.2344 989.9531,386.8438 989.4844,386.8438 C989.2656,386.8438 989.0625,386.9219 988.875,387.1094 C988.4219,387.5938 988.4219,387.5938 988.2344,387.6875 C987.8125,387.9531 987.125,388.0781 986.3594,388.0781 C984.3125,388.0781 983.0156,386.9844 983.0156,385.2813 L983.0156,384.1875 C983.0156,382.4063 984.2656,381.0938 986,381.0938 C986.5781,381.0938 987.1875,381.25 987.6563,381.5 C988.1406,381.7813 988.3125,382 988.4063,382.4063 C988.4688,382.8125 988.5,382.9375 988.6406,383.0625 C988.7813,383.2031 989.0156,383.3125 989.2344,383.3125 C989.5,383.3125 989.7656,383.1719 989.9375,382.9531 C990.0469,382.7969 990.0781,382.6094 990.0781,382.1875 L990.0781,380.7656 C990.0781,380.3281 990.0625,380.2031 989.9688,380.0469 C989.8125,379.7813 989.5313,379.6406 989.2344,379.6406 C988.9375,379.6406 988.7344,379.7344 988.5156,380.0469 L988.3438,379.9688 Z " fill="#000000"/><text fill="#000000" font-family="sans-serif" font-size="14" lengthAdjust="spacing" textLength="20" x="1000" y="389.1436">HR</text><line style="stroke:#181818;stroke-width:0.5;" x1="972" x2="1022" y1="400.2969" y2="400.2969"/><line style="stroke:#181818;stroke-width:0.5;" x1="972" x2="1022" y1="408.2969" y2="408.2969"/></g><!--MD5=[db0c53e899335b3ba85b881ba2c9053e]
class Marketing--><g id="elem_Marketing"><rect codeLine="12" fill="#F1F1F1" height="48" id="Marketing" rx="2.5" ry="2.5" style="stroke:#181818;stroke-width:0.5;" width="105" x="509.5" y="368.2969"/><ellipse cx="524.5" cy="384.2969" fill="#ADD1B2" rx="11" ry="11" style="stroke:#181818;stroke-width:1.0;"/><path d="M526.8438,379.9688 C525.9063,379.5313 525.3125,379.3906 524.4375,379.3906 C521.8125,379.3906 519.8125,381.4688 519.8125,384.1875 L519.8125,385.3125 C519.8125,387.8906 521.9219,389.7813 524.8125,389.7813 C526.0313,389.7813 527.1875,389.4844 527.9375,388.9375 C528.5156,388.5313 528.8438,388.0781 528.8438,387.6875 C528.8438,387.2344 528.4531,386.8438 527.9844,386.8438 C527.7656,386.8438 527.5625,386.9219 527.375,387.1094 C526.9219,387.5938 526.9219,387.5938 526.7344,387.6875 C526.3125,387.9531 525.625,388.0781 524.8594,388.0781 C522.8125,388.0781 521.5156,386.9844 521.5156,385.2813 L521.5156,384.1875 C521.5156,382.4063 522.7656,381.0938 524.5,381.0938 C525.0781,381.0938 525.6875,381.25 526.1563,381.5 C526.6406,381.7813 526.8125,382 526.9063,382.4063 C526.9688,382.8125 527,382.9375 527.1406,383.0625 C527.2813,383.2031 527.5156,383.3125 527.7344,383.3125 C528,383.3125 528.2656,383.1719 528.4375,382.9531 C528.5469,382.7969 528.5781,382.6094 528.5781,382.1875 L528.5781,380.7656 C528.5781,380.3281 528.5625,380.2031 528.4688,380.0469 C528.3125,379.7813 528.0313,379.6406 527.7344,379.6406 C527.4375,379.6406 527.2344,379.7344 527.0156,380.0469 L526.8438,379.9688 Z " fill="#000000"/><text fill="#000000" font-family="sans-serif" font-size="14" lengthAdjust="spacing" textLength="73" x="538.5" y="389.1436">Marketing</text><line style="stroke:#181818;stroke-width:0.5;" x1="510.5" x2="613.5" y1="400.2969" y2="400.2969"/><line style="stroke:#181818;stroke-width:0.5;" x1="510.5" x2="613.5" y1="408.2969" y2="408.2969"/></g><!--MD5=[b474ef1e1ba285d176da3ff9e91fa33b]
class SEO--><g id="elem_SEO"><rect codeLine="14" fill="#F1F1F1" height="48" id="SEO" rx="2.5" ry="2.5" style="stroke:#181818;stroke-width:0.5;" width="61" x="346.5" y="476.2969"/><ellipse cx="361.5" cy="492.2969" fill="#ADD1B2" rx="11" ry="11" style="stroke:#181818;stroke-width:1.0;"/><path d="M363.8438,487.9688 C362.9063,487.5313 362.3125,487.3906 361.4375,487.3906 C358.8125,487.3906 356.8125,489.4688 356.8125,492.1875 L356.8125,493.3125 C356.8125,495.8906 358.9219,497.7813 361.8125,497.7813 C363.0313,497.7813 364.1875,497.4844 364.9375,496.9375 C365.5156,496.5313 365.8438,496.0781 365.8438,495.6875 C365.8438,495.2344 365.4531,494.8438 364.9844,494.8438 C364.7656,494.8438 364.5625,494.9219 364.375,495.1094 C363.9219,495.5938 363.9219,495.5938 363.7344,495.6875 C363.3125,495.9531 362.625,496.0781 361.8594,496.0781 C359.8125,496.0781 358.5156,494.9844 358.5156,493.2813 L358.5156,492.1875 C358.5156,490.4063 359.7656,489.0938 361.5,489.0938 C362.0781,489.0938 362.6875,489.25 363.1563,489.5 C363.6406,489.7813 363.8125,490 363.9063,490.4063 C363.9688,490.8125 364,490.9375 364.1406,491.0625 C364.2813,491.2031 364.5156,491.3125 364.7344,491.3125 C365,491.3125 365.2656,491.1719 365.4375,490.9531 C365.5469,490.7969 365.5781,490.6094 365.5781,490.1875 L365.5781,488.7656 C365.5781,488.3281 365.5625,488.2031 365.4688,488.0469 C365.3125,487.7813 365.0313,487.6406 364.7344,487.6406 C364.4375,487.6406 364.2344,487.7344 364.0156,488.0469 L363.8438,487.9688 Z " fill="#000000"/><text fill="#000000" font-family="sans-serif" font-size="14" lengthAdjust="spacing" textLength="29" x="375.5" y="497.1436">SEO</text><line style="stroke:#181818;stroke-width:0.5;" x1="347.5" x2="406.5" y1="508.2969" y2="508.2969"/><line style="stroke:#181818;stroke-width:0.5;" x1="347.5" x2="406.5" y1="516.2969" y2="516.2969"/></g><!--MD5=[1346e0f537d6ef43909038be12620162]
class SocialMedia--><g id="elem_SocialMedia"><rect codeLine="15" fill="#F1F1F1" height="48" id="SocialMedia" rx="2.5" ry="2.5" style="stroke:#181818;stroke-width:0.5;" width="116" x="443" y="476.2969"/><ellipse cx="458" cy="492.2969" fill="#ADD1B2" rx="11" ry="11" style="stroke:#181818;stroke-width:1.0;"/><path d="M460.3438,487.9688 C459.4063,487.5313 458.8125,487.3906 457.9375,487.3906 C455.3125,487.3906 453.3125,489.4688 453.3125,492.1875 L453.3125,493.3125 C453.3125,495.8906 455.4219,497.7813 458.3125,497.7813 C459.5313,497.7813 460.6875,497.4844 461.4375,496.9375 C462.0156,496.5313 462.3438,496.0781 462.3438,495.6875 C462.3438,495.2344 461.9531,494.8438 461.4844,494.8438 C461.2656,494.8438 461.0625,494.9219 460.875,495.1094 C460.4219,495.5938 460.4219,495.5938 460.2344,495.6875 C459.8125,495.9531 459.125,496.0781 458.3594,496.0781 C456.3125,496.0781 455.0156,494.9844 455.0156,493.2813 L455.0156,492.1875 C455.0156,490.4063 456.2656,489.0938 458,489.0938 C458.5781,489.0938 459.1875,489.25 459.6563,489.5 C460.1406,489.7813 460.3125,490 460.4063,490.4063 C460.4688,490.8125 460.5,490.9375 460.6406,491.0625 C460.7813,491.2031 461.0156,491.3125 461.2344,491.3125 C461.5,491.3125 461.7656,491.1719 461.9375,490.9531 C462.0469,490.7969 462.0781,490.6094 462.0781,490.1875 L462.0781,488.7656 C462.0781,488.3281 462.0625,488.2031 461.9688,488.0469 C461.8125,487.7813 461.5313,487.6406 461.2344,487.6406 C460.9375,487.6406 460.7344,487.7344 460.5156,488.0469 L460.3438,487.9688 Z " fill="#000000"/><text fill="#000000" font-family="sans-serif" font-size="14" lengthAdjust="spacing" textLength="84" x="472" y="497.1436">SocialMedia</text><line style="stroke:#181818;stroke-width:0.5;" x1="444" x2="558" y1="508.2969" y2="508.2969"/><line style="stroke:#181818;stroke-width:0.5;" x1="444" x2="558" y1="516.2969" y2="516.2969"/></g><!--MD5=[3240b2da80383c38367d8fb4f65496ac]
class Ads--><g id="elem_Ads"><rect codeLine="16" fill="#F1F1F1" height="48" id="Ads" rx="2.5" ry="2.5" style="stroke:#181818;stroke-width:0.5;" width="58" x="594" y="476.2969"/><ellipse cx="609" cy="492.2969" fill="#ADD1B2" rx="11" ry="11" style="stroke:#181818;stroke-width:1.0;"/><path d="M611.3438,487.9688 C610.4063,487.5313 609.8125,487.3906 608.9375,487.3906 C606.3125,487.3906 604.3125,489.4688 604.3125,492.1875 L604.3125,493.3125 C604.3125,495.8906 606.4219,497.7813 609.3125,497.7813 C610.5313,497.7813 611.6875,497.4844 612.4375,496.9375 C613.0156,496.5313 613.3438,496.0781 613.3438,495.6875 C613.3438,495.2344 612.9531,494.8438 612.4844,494.8438 C612.2656,494.8438 612.0625,494.9219 611.875,495.1094 C611.4219,495.5938 611.4219,495.5938 611.2344,495.6875 C610.8125,495.9531 610.125,496.0781 609.3594,496.0781 C607.3125,496.0781 606.0156,494.9844 606.0156,493.2813 L606.0156,492.1875 C606.0156,490.4063 607.2656,489.0938 609,489.0938 C609.5781,489.0938 610.1875,489.25 610.6563,489.5 C611.1406,489.7813 611.3125,490 611.4063,490.4063 C611.4688,490.8125 611.5,490.9375 611.6406,491.0625 C611.7813,491.2031 612.0156,491.3125 612.2344,491.3125 C612.5,491.3125 612.7656,491.1719 612.9375,490.9531 C613.0469,490.7969 613.0781,490.6094 613.0781,490.1875 L613.0781,488.7656 C613.0781,488.3281 613.0625,488.2031 612.9688,488.0469 C612.8125,487.7813 612.5313,487.6406 612.2344,487.6406 C611.9375,487.6406 611.7344,487.7344 611.5156,488.0469 L611.3438,487.9688 Z " fill="#000000"/><text fill="#000000" font-family="sans-serif" font-size="14" lengthAdjust="spacing" textLength="26" x="623" y="497.1436">Ads</text><line style="stroke:#181818;stroke-width:0.5;" x1="595" x2="651" y1="508.2969" y2="508.2969"/><line style="stroke:#181818;stroke-width:0.5;" x1="595" x2="651" y1="516.2969" y2="516.2969"/></g><!--MD5=[1a639477e471bcb5b19f88cf366e27b2]
class Branding--><g id="elem_Branding"><rect codeLine="17" fill="#F1F1F1" height="48" id="Branding" rx="2.5" ry="2.5" style="stroke:#181818;stroke-width:0.5;" width="96" x="687" y="476.2969"/><ellipse cx="702" cy="492.2969" fill="#ADD1B2" rx="11" ry="11" style="stroke:#181818;stroke-width:1.0;"/><path d="M704.3438,487.9688 C703.4063,487.5313 702.8125,487.3906 701.9375,487.3906 C699.3125,487.3906 697.3125,489.4688 697.3125,492.1875 L697.3125,493.3125 C697.3125,495.8906 699.4219,497.7813 702.3125,497.7813 C703.5313,497.7813 704.6875,497.4844 705.4375,496.9375 C706.0156,496.5313 706.3438,496.0781 706.3438,495.6875 C706.3438,495.2344 705.9531,494.8438 705.4844,494.8438 C705.2656,494.8438 705.0625,494.9219 704.875,495.1094 C704.4219,495.5938 704.4219,495.5938 704.2344,495.6875 C703.8125,495.9531 703.125,496.0781 702.3594,496.0781 C700.3125,496.0781 699.0156,494.9844 699.0156,493.2813 L699.0156,492.1875 C699.0156,490.4063 700.2656,489.0938 702,489.0938 C702.5781,489.0938 703.1875,489.25 703.6563,489.5 C704.1406,489.7813 704.3125,490 704.4063,490.4063 C704.4688,490.8125 704.5,490.9375 704.6406,491.0625 C704.7813,491.2031 705.0156,491.3125 705.2344,491.3125 C705.5,491.3125 705.7656,491.1719 705.9375,490.9531 C706.0469,490.7969 706.0781,490.6094 706.0781,490.1875 L706.0781,488.7656 C706.0781,488.3281 706.0625,488.2031 705.9688,488.0469 C705.8125,487.7813 705.5313,487.6406 705.2344,487.6406 C704.9375,487.6406 704.7344,487.7344 704.5156,488.0469 L704.3438,487.9688 Z " fill="#000000"/><text fill="#000000" font-family="sans-serif" font-size="14" lengthAdjust="spacing" textLength="64" x="716" y="497.1436">Branding</text><line style="stroke:#181818;stroke-width:0.5;" x1="688" x2="782" y1="508.2969" y2="508.2969"/><line style="stroke:#181818;stroke-width:0.5;" x1="688" x2="782" y1="516.2969" y2="516.2969"/></g><!--MD5=[d6aff3ace64ab072343342700c92d005]
class OnPage--><g id="elem_OnPage"><rect codeLine="19" fill="#F1F1F1" height="48" id="OnPage" rx="2.5" ry="2.5" style="stroke:#181818;stroke-width:0.5;" width="87" x="271.5" y="584.2969"/><ellipse cx="286.5" cy="600.2969" fill="#ADD1B2" rx="11" ry="11" style="stroke:#181818;stroke-width:1.0;"/><path d="M288.8438,595.9688 C287.9063,595.5313 287.3125,595.3906 286.4375,595.3906 C283.8125,595.3906 281.8125,597.4688 281.8125,600.1875 L281.8125,601.3125 C281.8125,603.8906 283.9219,605.7813 286.8125,605.7813 C288.0313,605.7813 289.1875,605.4844 289.9375,604.9375 C290.5156,604.5313 290.8438,604.0781 290.8438,603.6875 C290.8438,603.2344 290.4531,602.8438 289.9844,602.8438 C289.7656,602.8438 289.5625,602.9219 289.375,603.1094 C288.9219,603.5938 288.9219,603.5938 288.7344,603.6875 C288.3125,603.9531 287.625,604.0781 286.8594,604.0781 C284.8125,604.0781 283.5156,602.9844 283.5156,601.2813 L283.5156,600.1875 C283.5156,598.4063 284.7656,597.0938 286.5,597.0938 C287.0781,597.0938 287.6875,597.25 288.1563,597.5 C288.6406,597.7813 288.8125,598 288.9063,598.4063 C288.9688,598.8125 289,598.9375 289.1406,599.0625 C289.2813,599.2031 289.5156,599.3125 289.7344,599.3125 C290,599.3125 290.2656,599.1719 290.4375,598.9531 C290.5469,598.7969 290.5781,598.6094 290.5781,598.1875 L290.5781,596.7656 C290.5781,596.3281 290.5625,596.2031 290.4688,596.0469 C290.3125,595.7813 290.0313,595.6406 289.7344,595.6406 C289.4375,595.6406 289.2344,595.7344 289.0156,596.0469 L288.8438,595.9688 Z " fill="#000000"/><text fill="#000000" font-family="sans-serif" font-size="14" lengthAdjust="spacing" textLength="55" x="300.5" y="605.1436">OnPage</text><line style="stroke:#181818;stroke-width:0.5;" x1="272.5" x2="357.5" y1="616.2969" y2="616.2969"/><line style="stroke:#181818;stroke-width:0.5;" x1="272.5" x2="357.5" y1="624.2969" y2="624.2969"/></g><!--MD5=[0d8d761c53660d0ea4aec8c1754ed4e3]
class OffPage--><g id="elem_OffPage"><rect codeLine="20" fill="#F1F1F1" height="48" id="OffPage" rx="2.5" ry="2.5" style="stroke:#181818;stroke-width:0.5;" width="90" x="468" y="584.2969"/><ellipse cx="483" cy="600.2969" fill="#ADD1B2" rx="11" ry="11" style="stroke:#181818;stroke-width:1.0;"/><path d="M485.3438,595.9688 C484.4063,595.5313 483.8125,595.3906 482.9375,595.3906 C480.3125,595.3906 478.3125,597.4688 478.3125,600.1875 L478.3125,601.3125 C478.3125,603.8906 480.4219,605.7813 483.3125,605.7813 C484.5313,605.7813 485.6875,605.4844 486.4375,604.9375 C487.0156,604.5313 487.3438,604.0781 487.3438,603.6875 C487.3438,603.2344 486.9531,602.8438 486.4844,602.8438 C486.2656,602.8438 486.0625,602.9219 485.875,603.1094 C485.4219,603.5938 485.4219,603.5938 485.2344,603.6875 C484.8125,603.9531 484.125,604.0781 483.3594,604.0781 C481.3125,604.0781 480.0156,602.9844 480.0156,601.2813 L480.0156,600.1875 C480.0156,598.4063 481.2656,597.0938 483,597.0938 C483.5781,597.0938 484.1875,597.25 484.6563,597.5 C485.1406,597.7813 485.3125,598 485.4063,598.4063 C485.4688,598.8125 485.5,598.9375 485.6406,599.0625 C485.7813,599.2031 486.0156,599.3125 486.2344,599.3125 C486.5,599.3125 486.7656,599.1719 486.9375,598.9531 C487.0469,598.7969 487.0781,598.6094 487.0781,598.1875 L487.0781,596.7656 C487.0781,596.3281 487.0625,596.2031 486.9688,596.0469 C486.8125,595.7813 486.5313,595.6406 486.2344,595.6406 C485.9375,595.6406 485.7344,595.7344 485.5156,596.0469 L485.3438,595.9688 Z " fill="#000000"/><text fill="#000000" font-family="sans-serif" font-size="14" lengthAdjust="spacing" textLength="58" x="497" y="605.1436">OffPage</text><line style="stroke:#181818;stroke-width:0.5;" x1="469" x2="557" y1="616.2969" y2="616.2969"/><line style="stroke:#181818;stroke-width:0.5;" x1="469" x2="557" y1="624.2969" y2="624.2969"/></g><!--MD5=[2027fa2c348fa3457eb38515db80be1f]
class KeywordResearch--><g id="elem_KeywordResearch"><rect codeLine="22" fill="#F1F1F1" height="48" id="KeywordResearch" rx="2.5" ry="2.5" style="stroke:#181818;stroke-width:0.5;" width="160" x="7" y="692.2969"/><ellipse cx="22" cy="708.2969" fill="#ADD1B2" rx="11" ry="11" style="stroke:#181818;stroke-width:1.0;"/><path d="M24.3438,703.9688 C23.4063,703.5313 22.8125,703.3906 21.9375,703.3906 C19.3125,703.3906 17.3125,705.4688 17.3125,708.1875 L17.3125,709.3125 C17.3125,711.8906 19.4219,713.7813 22.3125,713.7813 C23.5313,713.7813 24.6875,713.4844 25.4375,712.9375 C26.0156,712.5313 26.3438,712.0781 26.3438,711.6875 C26.3438,711.2344 25.9531,710.8438 25.4844,710.8438 C25.2656,710.8438 25.0625,710.9219 24.875,711.1094 C24.4219,711.5938 24.4219,711.5938 24.2344,711.6875 C23.8125,711.9531 23.125,712.0781 22.3594,712.0781 C20.3125,712.0781 19.0156,710.9844 19.0156,709.2813 L19.0156,708.1875 C19.0156,706.4063 20.2656,705.0938 22,705.0938 C22.5781,705.0938 23.1875,705.25 23.6563,705.5 C24.1406,705.7813 24.3125,706 24.4063,706.4063 C24.4688,706.8125 24.5,706.9375 24.6406,707.0625 C24.7813,707.2031 25.0156,707.3125 25.2344,707.3125 C25.5,707.3125 25.7656,707.1719 25.9375,706.9531 C26.0469,706.7969 26.0781,706.6094 26.0781,706.1875 L26.0781,704.7656 C26.0781,704.3281 26.0625,704.2031 25.9688,704.0469 C25.8125,703.7813 25.5313,703.6406 25.2344,703.6406 C24.9375,703.6406 24.7344,703.7344 24.5156,704.0469 L24.3438,703.9688 Z " fill="#000000"/><text fill="#000000" font-family="sans-serif" font-size="14" lengthAdjust="spacing" textLength="128" x="36" y="713.1436">KeywordResearch</text><line style="stroke:#181818;stroke-width:0.5;" x1="8" x2="166" y1="724.2969" y2="724.2969"/><line style="stroke:#181818;stroke-width:0.5;" x1="8" x2="166" y1="732.2969" y2="732.2969"/></g><!--MD5=[4d841c00f4e0ea5b3da608323136a170]
class SEOArquitecture--><g id="elem_SEOArquitecture"><rect codeLine="23" fill="#F1F1F1" height="48" id="SEOArquitecture" rx="2.5" ry="2.5" style="stroke:#181818;stroke-width:0.5;" width="152" x="202" y="692.2969"/><ellipse cx="217" cy="708.2969" fill="#ADD1B2" rx="11" ry="11" style="stroke:#181818;stroke-width:1.0;"/><path d="M219.3438,703.9688 C218.4063,703.5313 217.8125,703.3906 216.9375,703.3906 C214.3125,703.3906 212.3125,705.4688 212.3125,708.1875 L212.3125,709.3125 C212.3125,711.8906 214.4219,713.7813 217.3125,713.7813 C218.5313,713.7813 219.6875,713.4844 220.4375,712.9375 C221.0156,712.5313 221.3438,712.0781 221.3438,711.6875 C221.3438,711.2344 220.9531,710.8438 220.4844,710.8438 C220.2656,710.8438 220.0625,710.9219 219.875,711.1094 C219.4219,711.5938 219.4219,711.5938 219.2344,711.6875 C218.8125,711.9531 218.125,712.0781 217.3594,712.0781 C215.3125,712.0781 214.0156,710.9844 214.0156,709.2813 L214.0156,708.1875 C214.0156,706.4063 215.2656,705.0938 217,705.0938 C217.5781,705.0938 218.1875,705.25 218.6563,705.5 C219.1406,705.7813 219.3125,706 219.4063,706.4063 C219.4688,706.8125 219.5,706.9375 219.6406,707.0625 C219.7813,707.2031 220.0156,707.3125 220.2344,707.3125 C220.5,707.3125 220.7656,707.1719 220.9375,706.9531 C221.0469,706.7969 221.0781,706.6094 221.0781,706.1875 L221.0781,704.7656 C221.0781,704.3281 221.0625,704.2031 220.9688,704.0469 C220.8125,703.7813 220.5313,703.6406 220.2344,703.6406 C219.9375,703.6406 219.7344,703.7344 219.5156,704.0469 L219.3438,703.9688 Z " fill="#000000"/><text fill="#000000" font-family="sans-serif" font-size="14" lengthAdjust="spacing" textLength="120" x="231" y="713.1436">SEOArquitecture</text><line style="stroke:#181818;stroke-width:0.5;" x1="203" x2="353" y1="724.2969" y2="724.2969"/><line style="stroke:#181818;stroke-width:0.5;" x1="203" x2="353" y1="732.2969" y2="732.2969"/></g><!--MD5=[23b1a4f48a03ac2ac29d6b7a97187c37]
class WPO--><g id="elem_WPO"><rect codeLine="24" fill="#F1F1F1" height="48" id="WPO" rx="2.5" ry="2.5" style="stroke:#181818;stroke-width:0.5;" width="66" x="389" y="692.2969"/><ellipse cx="404" cy="708.2969" fill="#ADD1B2" rx="11" ry="11" style="stroke:#181818;stroke-width:1.0;"/><path d="M406.3438,703.9688 C405.4063,703.5313 404.8125,703.3906 403.9375,703.3906 C401.3125,703.3906 399.3125,705.4688 399.3125,708.1875 L399.3125,709.3125 C399.3125,711.8906 401.4219,713.7813 404.3125,713.7813 C405.5313,713.7813 406.6875,713.4844 407.4375,712.9375 C408.0156,712.5313 408.3438,712.0781 408.3438,711.6875 C408.3438,711.2344 407.9531,710.8438 407.4844,710.8438 C407.2656,710.8438 407.0625,710.9219 406.875,711.1094 C406.4219,711.5938 406.4219,711.5938 406.2344,711.6875 C405.8125,711.9531 405.125,712.0781 404.3594,712.0781 C402.3125,712.0781 401.0156,710.9844 401.0156,709.2813 L401.0156,708.1875 C401.0156,706.4063 402.2656,705.0938 404,705.0938 C404.5781,705.0938 405.1875,705.25 405.6563,705.5 C406.1406,705.7813 406.3125,706 406.4063,706.4063 C406.4688,706.8125 406.5,706.9375 406.6406,707.0625 C406.7813,707.2031 407.0156,707.3125 407.2344,707.3125 C407.5,707.3125 407.7656,707.1719 407.9375,706.9531 C408.0469,706.7969 408.0781,706.6094 408.0781,706.1875 L408.0781,704.7656 C408.0781,704.3281 408.0625,704.2031 407.9688,704.0469 C407.8125,703.7813 407.5313,703.6406 407.2344,703.6406 C406.9375,703.6406 406.7344,703.7344 406.5156,704.0469 L406.3438,703.9688 Z " fill="#000000"/><text fill="#000000" font-family="sans-serif" font-size="14" lengthAdjust="spacing" textLength="34" x="418" y="713.1436">WPO</text><line style="stroke:#181818;stroke-width:0.5;" x1="390" x2="454" y1="724.2969" y2="724.2969"/><line style="stroke:#181818;stroke-width:0.5;" x1="390" x2="454" y1="732.2969" y2="732.2969"/></g><!--MD5=[446c0208a530fb0681fe9f61aa6e5cca]
class Linkbuilding--><g id="elem_Linkbuilding"><rect codeLine="25" fill="#F1F1F1" height="48" id="Linkbuilding" rx="2.5" ry="2.5" style="stroke:#181818;stroke-width:0.5;" width="119" x="490.5" y="692.2969"/><ellipse cx="505.5" cy="708.2969" fill="#ADD1B2" rx="11" ry="11" style="stroke:#181818;stroke-width:1.0;"/><path d="M507.8438,703.9688 C506.9063,703.5313 506.3125,703.3906 505.4375,703.3906 C502.8125,703.3906 500.8125,705.4688 500.8125,708.1875 L500.8125,709.3125 C500.8125,711.8906 502.9219,713.7813 505.8125,713.7813 C507.0313,713.7813 508.1875,713.4844 508.9375,712.9375 C509.5156,712.5313 509.8438,712.0781 509.8438,711.6875 C509.8438,711.2344 509.4531,710.8438 508.9844,710.8438 C508.7656,710.8438 508.5625,710.9219 508.375,711.1094 C507.9219,711.5938 507.9219,711.5938 507.7344,711.6875 C507.3125,711.9531 506.625,712.0781 505.8594,712.0781 C503.8125,712.0781 502.5156,710.9844 502.5156,709.2813 L502.5156,708.1875 C502.5156,706.4063 503.7656,705.0938 505.5,705.0938 C506.0781,705.0938 506.6875,705.25 507.1563,705.5 C507.6406,705.7813 507.8125,706 507.9063,706.4063 C507.9688,706.8125 508,706.9375 508.1406,707.0625 C508.2813,707.2031 508.5156,707.3125 508.7344,707.3125 C509,707.3125 509.2656,707.1719 509.4375,706.9531 C509.5469,706.7969 509.5781,706.6094 509.5781,706.1875 L509.5781,704.7656 C509.5781,704.3281 509.5625,704.2031 509.4688,704.0469 C509.3125,703.7813 509.0313,703.6406 508.7344,703.6406 C508.4375,703.6406 508.2344,703.7344 508.0156,704.0469 L507.8438,703.9688 Z " fill="#000000"/><text fill="#000000" font-family="sans-serif" font-size="14" lengthAdjust="spacing" textLength="87" x="519.5" y="713.1436">Linkbuilding</text><line style="stroke:#181818;stroke-width:0.5;" x1="491.5" x2="608.5" y1="724.2969" y2="724.2969"/><line style="stroke:#181818;stroke-width:0.5;" x1="491.5" x2="608.5" y1="732.2969" y2="732.2969"/></g><!--MD5=[c10802f2f64e3b670c976a16961db889]
link Business to Owner--><g id="link_Business_Owner"><path codeLine="27" d="M799,104.2969 C799,104.2969 799,127.9739 799,138.6609 " fill="none" id="Business-Owner" style="stroke:#181818;stroke-width:1.0;"/><polygon fill="#181818" points="799,151.9749,803,142.9749,799,146.9749,795,142.9749,799,151.9749" style="stroke:#181818;stroke-width:1.0;"/><line style="stroke:#181818;stroke-width:1.0;" x1="799" x2="799" y1="146.9749" y2="138.9749"/><polygon fill="#181818" points="799,92.2969,795,98.2969,799,104.2969,803,98.2969,799,92.2969" style="stroke:#181818;stroke-width:1.0;"/></g><!--MD5=[d0b55393c8b2f02fa7ef7eb45056ce77]
link Owner to CEO--><g id="link_Owner_CEO"><path codeLine="29" d="M799,212.2969 C799,212.2969 799,235.9739 799,246.6609 " fill="none" id="Owner-CEO" style="stroke:#181818;stroke-width:1.0;"/><polygon fill="#181818" points="799,259.9749,803,250.9749,799,254.9749,795,250.9749,799,259.9749" style="stroke:#181818;stroke-width:1.0;"/><line style="stroke:#181818;stroke-width:1.0;" x1="799" x2="799" y1="254.9749" y2="246.9749"/><polygon fill="none" points="799,200.2969,795,206.2969,799,212.2969,803,206.2969,799,200.2969" style="stroke:#181818;stroke-width:1.0;"/></g><!--MD5=[499c978488cc959d199c476a9ea5601b]
link CEO to Administration--><g id="link_CEO_Administration"><path codeLine="31" d="M774.4123,317.8753 C774.4123,317.8753 753.778,345.2159 744.434,357.5969 " fill="none" id="CEO-Administration" style="stroke:#181818;stroke-width:1.0;"/><polygon fill="#181818" points="736.601,367.9749,745.2156,363.2012,739.6132,363.9841,738.8303,358.3816,736.601,367.9749" style="stroke:#181818;stroke-width:1.0;"/><line style="stroke:#181818;stroke-width:1.0;" x1="739.6132" x2="744.4325" y1="363.9841" y2="357.5989"/><polygon fill="none" points="781.641,308.2969,774.8339,310.6765,774.4123,317.8753,781.2195,315.4956,781.641,308.2969" style="stroke:#181818;stroke-width:1.0;"/></g><!--MD5=[d2b46d1c6f4d2ceb747d0d7e8db45c51]
link CEO to Contability--><g id="link_CEO_Contability"><path codeLine="32" d="M823.8631,317.831 C823.8631,317.831 844.787,345.2159 854.248,357.5969 " fill="none" id="CEO-Contability" style="stroke:#181818;stroke-width:1.0;"/><polygon fill="#181818" points="862.179,367.9749,859.8924,358.3951,859.143,364.0021,853.536,363.2527,862.179,367.9749" style="stroke:#181818;stroke-width:1.0;"/><line style="stroke:#181818;stroke-width:1.0;" x1="859.143" x2="854.2855" y1="364.0021" y2="357.6459"/><polygon fill="none" points="816.576,308.2969,817.0415,315.4929,823.8631,317.831,823.3976,310.6349,816.576,308.2969" style="stroke:#181818;stroke-width:1.0;"/></g><!--MD5=[5ec37ea83935651c0019e34deee350fa]
link CEO to HR--><g id="link_CEO_HR"><path codeLine="33" d="M840.9534,307.7564 C840.9534,307.7564 925.772,353.1649 959.249,371.0869 " fill="none" id="CEO-HR" style="stroke:#181818;stroke-width:1.0;"/><polygon fill="#181818" points="970.832,377.2879,964.7857,369.5134,966.424,374.9278,961.0096,376.5662,970.832,377.2879" style="stroke:#181818;stroke-width:1.0;"/><line style="stroke:#181818;stroke-width:1.0;" x1="966.424" x2="959.3705" y1="374.9278" y2="371.1519"/><polygon fill="none" points="830.374,302.0929,833.7759,308.4511,840.9534,307.7564,837.5516,301.3982,830.374,302.0929" style="stroke:#181818;stroke-width:1.0;"/></g><!--MD5=[0e34eba72d87577f5ab855f3b0fa7dce]
link CEO to Marketing--><g id="link_CEO_Marketing"><path codeLine="34" d="M756.574,304.2729 C756.574,304.2729 666.776,344.4349 625.685,362.8129 " fill="none" id="CEO-Marketing" style="stroke:#181818;stroke-width:1.0;"/><polygon fill="#181818" points="613.599,368.2189,623.4478,368.1951,618.1632,366.1772,620.1811,360.8925,613.599,368.2189" style="stroke:#181818;stroke-width:1.0;"/><line style="stroke:#181818;stroke-width:1.0;" x1="618.1632" x2="625.466" y1="366.1772" y2="362.9114"/><polygon fill="none" points="767.528,299.3729,760.4177,298.1716,756.574,304.2729,763.6844,305.4742,767.528,299.3729" style="stroke:#181818;stroke-width:1.0;"/></g><!--MD5=[97e29a945fbe360eb745ac630cad7d06]
reverse link Marketing to SEO--><g id="link_Marketing_SEO"><path codeLine="36" d="M504.392,426.3049 C472.391,444.6409 433.86,466.7179 407.612,481.7569 " fill="none" id="Marketing-backto-SEO" style="stroke:#181818;stroke-width:1.0;"/><polygon fill="none" points="501.024,420.1669,521.858,416.2969,507.984,432.3139,501.024,420.1669" style="stroke:#181818;stroke-width:1.0;"/></g><!--MD5=[9bac0bb4a852791e63038787bc6d1b0c]
reverse link Marketing to SocialMedia--><g id="link_Marketing_SocialMedia"><path codeLine="37" d="M538.628,433.9099 C530.437,448.1449 521.518,463.6419 514.421,475.9749 " fill="none" id="Marketing-backto-SocialMedia" style="stroke:#181818;stroke-width:1.0;"/><polygon fill="none" points="532.721,430.1409,548.764,416.2969,544.855,437.1229,532.721,430.1409" style="stroke:#181818;stroke-width:1.0;"/></g><!--MD5=[e6d0ef3e1cdc3a4aafe57cc63f2ab1aa]
reverse link Marketing to Ads--><g id="link_Marketing_Ads"><path codeLine="38" d="M585.372,433.9099 C593.563,448.1449 602.482,463.6419 609.579,475.9749 " fill="none" id="Marketing-backto-Ads" style="stroke:#181818;stroke-width:1.0;"/><polygon fill="none" points="579.145,437.1229,575.236,416.2969,591.279,430.1409,579.145,437.1229" style="stroke:#181818;stroke-width:1.0;"/></g><!--MD5=[730610052c01094f61ef6ad5b2b1bab7]
reverse link Marketing to Branding--><g id="link_Marketing_Branding"><path codeLine="39" d="M616.81,426.8799 C643.003,442.9289 673.694,461.7339 697.237,476.1589 " fill="none" id="Marketing-backto-Branding" style="stroke:#181818;stroke-width:1.0;"/><polygon fill="none" points="612.935,432.7149,599.538,416.2969,620.249,420.7779,612.935,432.7149" style="stroke:#181818;stroke-width:1.0;"/></g><!--MD5=[ece958efb5bb89ba27191d282fd1d9fb]
reverse link SEO to OnPage--><g id="link_SEO_OnPage"><path codeLine="41" d="M353.245,541.9099 C344.919,556.1449 335.855,571.6419 328.641,583.9749 " fill="none" id="SEO-backto-OnPage" style="stroke:#181818;stroke-width:1.0;"/><polygon fill="none" points="347.407,538.0269,363.547,524.2969,359.492,545.0949,347.407,538.0269" style="stroke:#181818;stroke-width:1.0;"/></g><!--MD5=[6ae7b99d0c1f2d951a5fa2c8a01a982a]
reverse link SEO to OffPage--><g id="link_SEO_OffPage"><path codeLine="42" d="M422.421,536.6989 C442.394,552.2659 465.299,570.1179 483.078,583.9749 " fill="none" id="SEO-backto-OffPage" style="stroke:#181818;stroke-width:1.0;"/><polygon fill="none" points="417.981,542.1129,406.51,524.2969,426.588,531.0709,417.981,542.1129" style="stroke:#181818;stroke-width:1.0;"/></g><!--MD5=[d42800f1a02ac1d2be7671d343d04a92]
link OnPage to KeywordResearch--><g id="link_OnPage_KeywordResearch"><path codeLine="44" d="M271.309,629.6089 C234.282,646.8238 181.019,671.5864 141.264,690.069 " fill="none" id="OnPage-to-KeywordResearch" style="stroke:#181818;stroke-width:1.0;stroke-dasharray:7.0,7.0;"/><polygon fill="#181818" points="136.485,692.2909,146.3325,692.1252,141.0193,690.1836,142.9608,684.8704,136.485,692.2909" style="stroke:#181818;stroke-width:1.0;"/></g><!--MD5=[87739971becfee92fb1b34f05d6eb9ff]
link OnPage to SEOArquitecture--><g id="link_OnPage_SEOArquitecture"><path codeLine="45" d="M306.972,632.2969 C301.386,648.2999 293.901,669.743 287.938,686.8249 " fill="none" id="OnPage-to-SEOArquitecture" style="stroke:#181818;stroke-width:1.0;stroke-dasharray:7.0,7.0;"/><polygon fill="#181818" points="286.141,691.9753,292.8833,684.796,287.7886,687.2545,285.3301,682.1599,286.141,691.9753" style="stroke:#181818;stroke-width:1.0;"/></g><!--MD5=[49db2b90e3fad2372284a8d089f33d64]
link OnPage to WPO--><g id="link_OnPage_WPO"><path codeLine="46" d="M338.217,632.2969 C354.789,648.7137 377.14,670.8557 394.588,688.1413 " fill="none" id="OnPage-to-WPO" style="stroke:#181818;stroke-width:1.0;stroke-dasharray:7.0,7.0;"/><polygon fill="#181818" points="398.458,691.9753,394.879,682.7997,394.9058,688.4565,389.249,688.4832,398.458,691.9753" style="stroke:#181818;stroke-width:1.0;"/></g><!--MD5=[277b30219adabad462f63ba12045d196]
link OffPage to Linkbuilding--><g id="link_OffPage_Linkbuilding"><path codeLine="48" d="M521.028,632.2969 C526.614,648.2999 534.099,669.743 540.062,686.8249 " fill="none" id="OffPage-to-Linkbuilding" style="stroke:#181818;stroke-width:1.0;stroke-dasharray:7.0,7.0;"/><polygon fill="#181818" points="541.859,691.9753,542.6699,682.1599,540.2114,687.2545,535.1167,684.796,541.859,691.9753" style="stroke:#181818;stroke-width:1.0;"/></g><!--MD5=[fe90661f50abff443810daf4306b7467]
@startuml
Title Sistema Complejo - Una Empresa Organizada

class Business

class Owner

class CEO

class Administration
class Contability
class HR
class Marketing

class SEO
class SocialMedia
class Ads
class Branding

class OnPage
class OffPage

class KeywordResearch
class SEOArquitecture
class WPO
class Linkbuilding

Business *-down-> Owner

Owner o-down-> CEO

CEO o-down-> Administration
CEO o-down-> Contability
CEO o-down-> HR
CEO o-down-> Marketing

SEO -up-|> Marketing
SocialMedia -up-|> Marketing
Ads -up-|> Marketing
Branding -up-|> Marketing

OnPage -up-|> SEO
OffPage -up-|> SEO

OnPage .down.> KeywordResearch
OnPage .down.> SEOArquitecture
OnPage .down.> WPO

OffPage .down.> Linkbuilding
@enduml

PlantUML version 1.2022.7beta2(Unknown compile time)
(GPL source distribution)
Java Runtime: Java(TM) SE Runtime Environment
JVM: Java HotSpot(TM) 64-Bit Server VM
Default Encoding: UTF-8
Language: en
Country: US
--></g></svg>