<?xml version="1.0" encoding="UTF-8" standalone="no"?><svg xmlns="http://www.w3.org/2000/svg" xmlns:xlink="http://www.w3.org/1999/xlink" contentStyleType="text/css" height="639px" preserveAspectRatio="none" style="width:827px;height:639px;background:#FFFFFF;" version="1.1" viewBox="0 0 827 639" width="827px" zoomAndPan="magnify"><defs/><g><rect height="26.2969" id="_title" style="stroke:#00000000;stroke-width:1.0;fill:none;" width="276" x="268.5" y="5"/><text fill="#000000" font-family="sans-serif" font-size="14" font-weight="bold" lengthAdjust="spacing" textLength="266" x="273.5" y="22.9951">Sistema Complejo - Una Empresa</text><!--MD5=[08d6a551530ab71b272f9c2c40bfb385]
class Owner--><g id="elem_Owner"><rect codeLine="3" fill="#F1F1F1" height="48" id="Owner" rx="2.5" ry="2.5" style="stroke:#181818;stroke-width:0.5;" width="78" x="387" y="44.2969"/><ellipse cx="402" cy="60.2969" fill="#ADD1B2" rx="11" ry="11" style="stroke:#181818;stroke-width:1.0;"/><path d="M404.3438,55.9688 C403.4063,55.5313 402.8125,55.3906 401.9375,55.3906 C399.3125,55.3906 397.3125,57.4688 397.3125,60.1875 L397.3125,61.3125 C397.3125,63.8906 399.4219,65.7813 402.3125,65.7813 C403.5313,65.7813 404.6875,65.4844 405.4375,64.9375 C406.0156,64.5313 406.3438,64.0781 406.3438,63.6875 C406.3438,63.2344 405.9531,62.8438 405.4844,62.8438 C405.2656,62.8438 405.0625,62.9219 404.875,63.1094 C404.4219,63.5938 404.4219,63.5938 404.2344,63.6875 C403.8125,63.9531 403.125,64.0781 402.3594,64.0781 C400.3125,64.0781 399.0156,62.9844 399.0156,61.2813 L399.0156,60.1875 C399.0156,58.4063 400.2656,57.0938 402,57.0938 C402.5781,57.0938 403.1875,57.25 403.6563,57.5 C404.1406,57.7813 404.3125,58 404.4063,58.4063 C404.4688,58.8125 404.5,58.9375 404.6406,59.0625 C404.7813,59.2031 405.0156,59.3125 405.2344,59.3125 C405.5,59.3125 405.7656,59.1719 405.9375,58.9531 C406.0469,58.7969 406.0781,58.6094 406.0781,58.1875 L406.0781,56.7656 C406.0781,56.3281 406.0625,56.2031 405.9688,56.0469 C405.8125,55.7813 405.5313,55.6406 405.2344,55.6406 C404.9375,55.6406 404.7344,55.7344 404.5156,56.0469 L404.3438,55.9688 Z " fill="#000000"/><text fill="#000000" font-family="sans-serif" font-size="14" lengthAdjust="spacing" textLength="46" x="416" y="65.1436">Owner</text><line style="stroke:#181818;stroke-width:0.5;" x1="388" x2="464" y1="76.2969" y2="76.2969"/><line style="stroke:#181818;stroke-width:0.5;" x1="388" x2="464" y1="84.2969" y2="84.2969"/></g><!--MD5=[a57bd1032262edb96b7e0f2b6442fcba]
class CEO--><g id="elem_CEO"><rect codeLine="5" fill="#F1F1F1" height="48" id="CEO" rx="2.5" ry="2.5" style="stroke:#181818;stroke-width:0.5;" width="62" x="395" y="152.2969"/><ellipse cx="410" cy="168.2969" fill="#ADD1B2" rx="11" ry="11" style="stroke:#181818;stroke-width:1.0;"/><path d="M412.3438,163.9688 C411.4063,163.5313 410.8125,163.3906 409.9375,163.3906 C407.3125,163.3906 405.3125,165.4688 405.3125,168.1875 L405.3125,169.3125 C405.3125,171.8906 407.4219,173.7813 410.3125,173.7813 C411.5313,173.7813 412.6875,173.4844 413.4375,172.9375 C414.0156,172.5313 414.3438,172.0781 414.3438,171.6875 C414.3438,171.2344 413.9531,170.8438 413.4844,170.8438 C413.2656,170.8438 413.0625,170.9219 412.875,171.1094 C412.4219,171.5938 412.4219,171.5938 412.2344,171.6875 C411.8125,171.9531 411.125,172.0781 410.3594,172.0781 C408.3125,172.0781 407.0156,170.9844 407.0156,169.2813 L407.0156,168.1875 C407.0156,166.4063 408.2656,165.0938 410,165.0938 C410.5781,165.0938 411.1875,165.25 411.6563,165.5 C412.1406,165.7813 412.3125,166 412.4063,166.4063 C412.4688,166.8125 412.5,166.9375 412.6406,167.0625 C412.7813,167.2031 413.0156,167.3125 413.2344,167.3125 C413.5,167.3125 413.7656,167.1719 413.9375,166.9531 C414.0469,166.7969 414.0781,166.6094 414.0781,166.1875 L414.0781,164.7656 C414.0781,164.3281 414.0625,164.2031 413.9688,164.0469 C413.8125,163.7813 413.5313,163.6406 413.2344,163.6406 C412.9375,163.6406 412.7344,163.7344 412.5156,164.0469 L412.3438,163.9688 Z " fill="#000000"/><text fill="#000000" font-family="sans-serif" font-size="14" lengthAdjust="spacing" textLength="30" x="424" y="173.1436">CEO</text><line style="stroke:#181818;stroke-width:0.5;" x1="396" x2="456" y1="184.2969" y2="184.2969"/><line style="stroke:#181818;stroke-width:0.5;" x1="396" x2="456" y1="192.2969" y2="192.2969"/></g><!--MD5=[d61987a7aa818eb3587ce913f2a7d429]
class Administration--><g id="elem_Administration"><rect codeLine="7" fill="#F1F1F1" height="48" id="Administration" rx="2.5" ry="2.5" style="stroke:#181818;stroke-width:0.5;" width="139" x="137.5" y="260.2969"/><ellipse cx="152.5" cy="276.2969" fill="#ADD1B2" rx="11" ry="11" style="stroke:#181818;stroke-width:1.0;"/><path d="M154.8438,271.9688 C153.9063,271.5313 153.3125,271.3906 152.4375,271.3906 C149.8125,271.3906 147.8125,273.4688 147.8125,276.1875 L147.8125,277.3125 C147.8125,279.8906 149.9219,281.7813 152.8125,281.7813 C154.0313,281.7813 155.1875,281.4844 155.9375,280.9375 C156.5156,280.5313 156.8438,280.0781 156.8438,279.6875 C156.8438,279.2344 156.4531,278.8438 155.9844,278.8438 C155.7656,278.8438 155.5625,278.9219 155.375,279.1094 C154.9219,279.5938 154.9219,279.5938 154.7344,279.6875 C154.3125,279.9531 153.625,280.0781 152.8594,280.0781 C150.8125,280.0781 149.5156,278.9844 149.5156,277.2813 L149.5156,276.1875 C149.5156,274.4063 150.7656,273.0938 152.5,273.0938 C153.0781,273.0938 153.6875,273.25 154.1563,273.5 C154.6406,273.7813 154.8125,274 154.9063,274.4063 C154.9688,274.8125 155,274.9375 155.1406,275.0625 C155.2813,275.2031 155.5156,275.3125 155.7344,275.3125 C156,275.3125 156.2656,275.1719 156.4375,274.9531 C156.5469,274.7969 156.5781,274.6094 156.5781,274.1875 L156.5781,272.7656 C156.5781,272.3281 156.5625,272.2031 156.4688,272.0469 C156.3125,271.7813 156.0313,271.6406 155.7344,271.6406 C155.4375,271.6406 155.2344,271.7344 155.0156,272.0469 L154.8438,271.9688 Z " fill="#000000"/><text fill="#000000" font-family="sans-serif" font-size="14" lengthAdjust="spacing" textLength="107" x="166.5" y="281.1436">Administration</text><line style="stroke:#181818;stroke-width:0.5;" x1="138.5" x2="275.5" y1="292.2969" y2="292.2969"/><line style="stroke:#181818;stroke-width:0.5;" x1="138.5" x2="275.5" y1="300.2969" y2="300.2969"/></g><!--MD5=[41e89daf1a0ec8af7e0fda1c4a9b9d12]
class Contability--><g id="elem_Contability"><rect codeLine="8" fill="#F1F1F1" height="48" id="Contability" rx="2.5" ry="2.5" style="stroke:#181818;stroke-width:0.5;" width="112" x="312" y="260.2969"/><ellipse cx="327" cy="276.2969" fill="#ADD1B2" rx="11" ry="11" style="stroke:#181818;stroke-width:1.0;"/><path d="M329.3438,271.9688 C328.4063,271.5313 327.8125,271.3906 326.9375,271.3906 C324.3125,271.3906 322.3125,273.4688 322.3125,276.1875 L322.3125,277.3125 C322.3125,279.8906 324.4219,281.7813 327.3125,281.7813 C328.5313,281.7813 329.6875,281.4844 330.4375,280.9375 C331.0156,280.5313 331.3438,280.0781 331.3438,279.6875 C331.3438,279.2344 330.9531,278.8438 330.4844,278.8438 C330.2656,278.8438 330.0625,278.9219 329.875,279.1094 C329.4219,279.5938 329.4219,279.5938 329.2344,279.6875 C328.8125,279.9531 328.125,280.0781 327.3594,280.0781 C325.3125,280.0781 324.0156,278.9844 324.0156,277.2813 L324.0156,276.1875 C324.0156,274.4063 325.2656,273.0938 327,273.0938 C327.5781,273.0938 328.1875,273.25 328.6563,273.5 C329.1406,273.7813 329.3125,274 329.4063,274.4063 C329.4688,274.8125 329.5,274.9375 329.6406,275.0625 C329.7813,275.2031 330.0156,275.3125 330.2344,275.3125 C330.5,275.3125 330.7656,275.1719 330.9375,274.9531 C331.0469,274.7969 331.0781,274.6094 331.0781,274.1875 L331.0781,272.7656 C331.0781,272.3281 331.0625,272.2031 330.9688,272.0469 C330.8125,271.7813 330.5313,271.6406 330.2344,271.6406 C329.9375,271.6406 329.7344,271.7344 329.5156,272.0469 L329.3438,271.9688 Z " fill="#000000"/><text fill="#000000" font-family="sans-serif" font-size="14" lengthAdjust="spacing" textLength="80" x="341" y="281.1436">Contability</text><line style="stroke:#181818;stroke-width:0.5;" x1="313" x2="423" y1="292.2969" y2="292.2969"/><line style="stroke:#181818;stroke-width:0.5;" x1="313" x2="423" y1="300.2969" y2="300.2969"/></g><!--MD5=[51e02b357e8cc63872d40ad5f3c5bd80]
class HR--><g id="elem_HR"><rect codeLine="9" fill="#F1F1F1" height="48" id="HR" rx="2.5" ry="2.5" style="stroke:#181818;stroke-width:0.5;" width="52" x="459" y="260.2969"/><ellipse cx="474" cy="276.2969" fill="#ADD1B2" rx="11" ry="11" style="stroke:#181818;stroke-width:1.0;"/><path d="M476.3438,271.9688 C475.4063,271.5313 474.8125,271.3906 473.9375,271.3906 C471.3125,271.3906 469.3125,273.4688 469.3125,276.1875 L469.3125,277.3125 C469.3125,279.8906 471.4219,281.7813 474.3125,281.7813 C475.5313,281.7813 476.6875,281.4844 477.4375,280.9375 C478.0156,280.5313 478.3438,280.0781 478.3438,279.6875 C478.3438,279.2344 477.9531,278.8438 477.4844,278.8438 C477.2656,278.8438 477.0625,278.9219 476.875,279.1094 C476.4219,279.5938 476.4219,279.5938 476.2344,279.6875 C475.8125,279.9531 475.125,280.0781 474.3594,280.0781 C472.3125,280.0781 471.0156,278.9844 471.0156,277.2813 L471.0156,276.1875 C471.0156,274.4063 472.2656,273.0938 474,273.0938 C474.5781,273.0938 475.1875,273.25 475.6563,273.5 C476.1406,273.7813 476.3125,274 476.4063,274.4063 C476.4688,274.8125 476.5,274.9375 476.6406,275.0625 C476.7813,275.2031 477.0156,275.3125 477.2344,275.3125 C477.5,275.3125 477.7656,275.1719 477.9375,274.9531 C478.0469,274.7969 478.0781,274.6094 478.0781,274.1875 L478.0781,272.7656 C478.0781,272.3281 478.0625,272.2031 477.9688,272.0469 C477.8125,271.7813 477.5313,271.6406 477.2344,271.6406 C476.9375,271.6406 476.7344,271.7344 476.5156,272.0469 L476.3438,271.9688 Z " fill="#000000"/><text fill="#000000" font-family="sans-serif" font-size="14" lengthAdjust="spacing" textLength="20" x="488" y="281.1436">HR</text><line style="stroke:#181818;stroke-width:0.5;" x1="460" x2="510" y1="292.2969" y2="292.2969"/><line style="stroke:#181818;stroke-width:0.5;" x1="460" x2="510" y1="300.2969" y2="300.2969"/></g><!--MD5=[db0c53e899335b3ba85b881ba2c9053e]
class Marketing--><g id="elem_Marketing"><rect codeLine="10" fill="#F1F1F1" height="48" id="Marketing" rx="2.5" ry="2.5" style="stroke:#181818;stroke-width:0.5;" width="105" x="546.5" y="260.2969"/><ellipse cx="561.5" cy="276.2969" fill="#ADD1B2" rx="11" ry="11" style="stroke:#181818;stroke-width:1.0;"/><path d="M563.8438,271.9688 C562.9063,271.5313 562.3125,271.3906 561.4375,271.3906 C558.8125,271.3906 556.8125,273.4688 556.8125,276.1875 L556.8125,277.3125 C556.8125,279.8906 558.9219,281.7813 561.8125,281.7813 C563.0313,281.7813 564.1875,281.4844 564.9375,280.9375 C565.5156,280.5313 565.8438,280.0781 565.8438,279.6875 C565.8438,279.2344 565.4531,278.8438 564.9844,278.8438 C564.7656,278.8438 564.5625,278.9219 564.375,279.1094 C563.9219,279.5938 563.9219,279.5938 563.7344,279.6875 C563.3125,279.9531 562.625,280.0781 561.8594,280.0781 C559.8125,280.0781 558.5156,278.9844 558.5156,277.2813 L558.5156,276.1875 C558.5156,274.4063 559.7656,273.0938 561.5,273.0938 C562.0781,273.0938 562.6875,273.25 563.1563,273.5 C563.6406,273.7813 563.8125,274 563.9063,274.4063 C563.9688,274.8125 564,274.9375 564.1406,275.0625 C564.2813,275.2031 564.5156,275.3125 564.7344,275.3125 C565,275.3125 565.2656,275.1719 565.4375,274.9531 C565.5469,274.7969 565.5781,274.6094 565.5781,274.1875 L565.5781,272.7656 C565.5781,272.3281 565.5625,272.2031 565.4688,272.0469 C565.3125,271.7813 565.0313,271.6406 564.7344,271.6406 C564.4375,271.6406 564.2344,271.7344 564.0156,272.0469 L563.8438,271.9688 Z " fill="#000000"/><text fill="#000000" font-family="sans-serif" font-size="14" lengthAdjust="spacing" textLength="73" x="575.5" y="281.1436">Marketing</text><line style="stroke:#181818;stroke-width:0.5;" x1="547.5" x2="650.5" y1="292.2969" y2="292.2969"/><line style="stroke:#181818;stroke-width:0.5;" x1="547.5" x2="650.5" y1="300.2969" y2="300.2969"/></g><!--MD5=[b474ef1e1ba285d176da3ff9e91fa33b]
class SEO--><g id="elem_SEO"><rect codeLine="12" fill="#F1F1F1" height="48" id="SEO" rx="2.5" ry="2.5" style="stroke:#181818;stroke-width:0.5;" width="61" x="383.5" y="368.2969"/><ellipse cx="398.5" cy="384.2969" fill="#ADD1B2" rx="11" ry="11" style="stroke:#181818;stroke-width:1.0;"/><path d="M400.8438,379.9688 C399.9063,379.5313 399.3125,379.3906 398.4375,379.3906 C395.8125,379.3906 393.8125,381.4688 393.8125,384.1875 L393.8125,385.3125 C393.8125,387.8906 395.9219,389.7813 398.8125,389.7813 C400.0313,389.7813 401.1875,389.4844 401.9375,388.9375 C402.5156,388.5313 402.8438,388.0781 402.8438,387.6875 C402.8438,387.2344 402.4531,386.8438 401.9844,386.8438 C401.7656,386.8438 401.5625,386.9219 401.375,387.1094 C400.9219,387.5938 400.9219,387.5938 400.7344,387.6875 C400.3125,387.9531 399.625,388.0781 398.8594,388.0781 C396.8125,388.0781 395.5156,386.9844 395.5156,385.2813 L395.5156,384.1875 C395.5156,382.4063 396.7656,381.0938 398.5,381.0938 C399.0781,381.0938 399.6875,381.25 400.1563,381.5 C400.6406,381.7813 400.8125,382 400.9063,382.4063 C400.9688,382.8125 401,382.9375 401.1406,383.0625 C401.2813,383.2031 401.5156,383.3125 401.7344,383.3125 C402,383.3125 402.2656,383.1719 402.4375,382.9531 C402.5469,382.7969 402.5781,382.6094 402.5781,382.1875 L402.5781,380.7656 C402.5781,380.3281 402.5625,380.2031 402.4688,380.0469 C402.3125,379.7813 402.0313,379.6406 401.7344,379.6406 C401.4375,379.6406 401.2344,379.7344 401.0156,380.0469 L400.8438,379.9688 Z " fill="#000000"/><text fill="#000000" font-family="sans-serif" font-size="14" lengthAdjust="spacing" textLength="29" x="412.5" y="389.1436">SEO</text><line style="stroke:#181818;stroke-width:0.5;" x1="384.5" x2="443.5" y1="400.2969" y2="400.2969"/><line style="stroke:#181818;stroke-width:0.5;" x1="384.5" x2="443.5" y1="408.2969" y2="408.2969"/></g><!--MD5=[1346e0f537d6ef43909038be12620162]
class SocialMedia--><g id="elem_SocialMedia"><rect codeLine="13" fill="#F1F1F1" height="48" id="SocialMedia" rx="2.5" ry="2.5" style="stroke:#181818;stroke-width:0.5;" width="116" x="480" y="368.2969"/><ellipse cx="495" cy="384.2969" fill="#ADD1B2" rx="11" ry="11" style="stroke:#181818;stroke-width:1.0;"/><path d="M497.3438,379.9688 C496.4063,379.5313 495.8125,379.3906 494.9375,379.3906 C492.3125,379.3906 490.3125,381.4688 490.3125,384.1875 L490.3125,385.3125 C490.3125,387.8906 492.4219,389.7813 495.3125,389.7813 C496.5313,389.7813 497.6875,389.4844 498.4375,388.9375 C499.0156,388.5313 499.3438,388.0781 499.3438,387.6875 C499.3438,387.2344 498.9531,386.8438 498.4844,386.8438 C498.2656,386.8438 498.0625,386.9219 497.875,387.1094 C497.4219,387.5938 497.4219,387.5938 497.2344,387.6875 C496.8125,387.9531 496.125,388.0781 495.3594,388.0781 C493.3125,388.0781 492.0156,386.9844 492.0156,385.2813 L492.0156,384.1875 C492.0156,382.4063 493.2656,381.0938 495,381.0938 C495.5781,381.0938 496.1875,381.25 496.6563,381.5 C497.1406,381.7813 497.3125,382 497.4063,382.4063 C497.4688,382.8125 497.5,382.9375 497.6406,383.0625 C497.7813,383.2031 498.0156,383.3125 498.2344,383.3125 C498.5,383.3125 498.7656,383.1719 498.9375,382.9531 C499.0469,382.7969 499.0781,382.6094 499.0781,382.1875 L499.0781,380.7656 C499.0781,380.3281 499.0625,380.2031 498.9688,380.0469 C498.8125,379.7813 498.5313,379.6406 498.2344,379.6406 C497.9375,379.6406 497.7344,379.7344 497.5156,380.0469 L497.3438,379.9688 Z " fill="#000000"/><text fill="#000000" font-family="sans-serif" font-size="14" lengthAdjust="spacing" textLength="84" x="509" y="389.1436">SocialMedia</text><line style="stroke:#181818;stroke-width:0.5;" x1="481" x2="595" y1="400.2969" y2="400.2969"/><line style="stroke:#181818;stroke-width:0.5;" x1="481" x2="595" y1="408.2969" y2="408.2969"/></g><!--MD5=[3240b2da80383c38367d8fb4f65496ac]
class Ads--><g id="elem_Ads"><rect codeLine="14" fill="#F1F1F1" height="48" id="Ads" rx="2.5" ry="2.5" style="stroke:#181818;stroke-width:0.5;" width="58" x="631" y="368.2969"/><ellipse cx="646" cy="384.2969" fill="#ADD1B2" rx="11" ry="11" style="stroke:#181818;stroke-width:1.0;"/><path d="M648.3438,379.9688 C647.4063,379.5313 646.8125,379.3906 645.9375,379.3906 C643.3125,379.3906 641.3125,381.4688 641.3125,384.1875 L641.3125,385.3125 C641.3125,387.8906 643.4219,389.7813 646.3125,389.7813 C647.5313,389.7813 648.6875,389.4844 649.4375,388.9375 C650.0156,388.5313 650.3438,388.0781 650.3438,387.6875 C650.3438,387.2344 649.9531,386.8438 649.4844,386.8438 C649.2656,386.8438 649.0625,386.9219 648.875,387.1094 C648.4219,387.5938 648.4219,387.5938 648.2344,387.6875 C647.8125,387.9531 647.125,388.0781 646.3594,388.0781 C644.3125,388.0781 643.0156,386.9844 643.0156,385.2813 L643.0156,384.1875 C643.0156,382.4063 644.2656,381.0938 646,381.0938 C646.5781,381.0938 647.1875,381.25 647.6563,381.5 C648.1406,381.7813 648.3125,382 648.4063,382.4063 C648.4688,382.8125 648.5,382.9375 648.6406,383.0625 C648.7813,383.2031 649.0156,383.3125 649.2344,383.3125 C649.5,383.3125 649.7656,383.1719 649.9375,382.9531 C650.0469,382.7969 650.0781,382.6094 650.0781,382.1875 L650.0781,380.7656 C650.0781,380.3281 650.0625,380.2031 649.9688,380.0469 C649.8125,379.7813 649.5313,379.6406 649.2344,379.6406 C648.9375,379.6406 648.7344,379.7344 648.5156,380.0469 L648.3438,379.9688 Z " fill="#000000"/><text fill="#000000" font-family="sans-serif" font-size="14" lengthAdjust="spacing" textLength="26" x="660" y="389.1436">Ads</text><line style="stroke:#181818;stroke-width:0.5;" x1="632" x2="688" y1="400.2969" y2="400.2969"/><line style="stroke:#181818;stroke-width:0.5;" x1="632" x2="688" y1="408.2969" y2="408.2969"/></g><!--MD5=[1a639477e471bcb5b19f88cf366e27b2]
class Branding--><g id="elem_Branding"><rect codeLine="15" fill="#F1F1F1" height="48" id="Branding" rx="2.5" ry="2.5" style="stroke:#181818;stroke-width:0.5;" width="96" x="724" y="368.2969"/><ellipse cx="739" cy="384.2969" fill="#ADD1B2" rx="11" ry="11" style="stroke:#181818;stroke-width:1.0;"/><path d="M741.3438,379.9688 C740.4063,379.5313 739.8125,379.3906 738.9375,379.3906 C736.3125,379.3906 734.3125,381.4688 734.3125,384.1875 L734.3125,385.3125 C734.3125,387.8906 736.4219,389.7813 739.3125,389.7813 C740.5313,389.7813 741.6875,389.4844 742.4375,388.9375 C743.0156,388.5313 743.3438,388.0781 743.3438,387.6875 C743.3438,387.2344 742.9531,386.8438 742.4844,386.8438 C742.2656,386.8438 742.0625,386.9219 741.875,387.1094 C741.4219,387.5938 741.4219,387.5938 741.2344,387.6875 C740.8125,387.9531 740.125,388.0781 739.3594,388.0781 C737.3125,388.0781 736.0156,386.9844 736.0156,385.2813 L736.0156,384.1875 C736.0156,382.4063 737.2656,381.0938 739,381.0938 C739.5781,381.0938 740.1875,381.25 740.6563,381.5 C741.1406,381.7813 741.3125,382 741.4063,382.4063 C741.4688,382.8125 741.5,382.9375 741.6406,383.0625 C741.7813,383.2031 742.0156,383.3125 742.2344,383.3125 C742.5,383.3125 742.7656,383.1719 742.9375,382.9531 C743.0469,382.7969 743.0781,382.6094 743.0781,382.1875 L743.0781,380.7656 C743.0781,380.3281 743.0625,380.2031 742.9688,380.0469 C742.8125,379.7813 742.5313,379.6406 742.2344,379.6406 C741.9375,379.6406 741.7344,379.7344 741.5156,380.0469 L741.3438,379.9688 Z " fill="#000000"/><text fill="#000000" font-family="sans-serif" font-size="14" lengthAdjust="spacing" textLength="64" x="753" y="389.1436">Branding</text><line style="stroke:#181818;stroke-width:0.5;" x1="725" x2="819" y1="400.2969" y2="400.2969"/><line style="stroke:#181818;stroke-width:0.5;" x1="725" x2="819" y1="408.2969" y2="408.2969"/></g><!--MD5=[d6aff3ace64ab072343342700c92d005]
class OnPage--><g id="elem_OnPage"><rect codeLine="17" fill="#F1F1F1" height="48" id="OnPage" rx="2.5" ry="2.5" style="stroke:#181818;stroke-width:0.5;" width="87" x="271.5" y="476.2969"/><ellipse cx="286.5" cy="492.2969" fill="#ADD1B2" rx="11" ry="11" style="stroke:#181818;stroke-width:1.0;"/><path d="M288.8438,487.9688 C287.9063,487.5313 287.3125,487.3906 286.4375,487.3906 C283.8125,487.3906 281.8125,489.4688 281.8125,492.1875 L281.8125,493.3125 C281.8125,495.8906 283.9219,497.7813 286.8125,497.7813 C288.0313,497.7813 289.1875,497.4844 289.9375,496.9375 C290.5156,496.5313 290.8438,496.0781 290.8438,495.6875 C290.8438,495.2344 290.4531,494.8438 289.9844,494.8438 C289.7656,494.8438 289.5625,494.9219 289.375,495.1094 C288.9219,495.5938 288.9219,495.5938 288.7344,495.6875 C288.3125,495.9531 287.625,496.0781 286.8594,496.0781 C284.8125,496.0781 283.5156,494.9844 283.5156,493.2813 L283.5156,492.1875 C283.5156,490.4063 284.7656,489.0938 286.5,489.0938 C287.0781,489.0938 287.6875,489.25 288.1563,489.5 C288.6406,489.7813 288.8125,490 288.9063,490.4063 C288.9688,490.8125 289,490.9375 289.1406,491.0625 C289.2813,491.2031 289.5156,491.3125 289.7344,491.3125 C290,491.3125 290.2656,491.1719 290.4375,490.9531 C290.5469,490.7969 290.5781,490.6094 290.5781,490.1875 L290.5781,488.7656 C290.5781,488.3281 290.5625,488.2031 290.4688,488.0469 C290.3125,487.7813 290.0313,487.6406 289.7344,487.6406 C289.4375,487.6406 289.2344,487.7344 289.0156,488.0469 L288.8438,487.9688 Z " fill="#000000"/><text fill="#000000" font-family="sans-serif" font-size="14" lengthAdjust="spacing" textLength="55" x="300.5" y="497.1436">OnPage</text><line style="stroke:#181818;stroke-width:0.5;" x1="272.5" x2="357.5" y1="508.2969" y2="508.2969"/><line style="stroke:#181818;stroke-width:0.5;" x1="272.5" x2="357.5" y1="516.2969" y2="516.2969"/></g><!--MD5=[0d8d761c53660d0ea4aec8c1754ed4e3]
class OffPage--><g id="elem_OffPage"><rect codeLine="18" fill="#F1F1F1" height="48" id="OffPage" rx="2.5" ry="2.5" style="stroke:#181818;stroke-width:0.5;" width="90" x="468" y="476.2969"/><ellipse cx="483" cy="492.2969" fill="#ADD1B2" rx="11" ry="11" style="stroke:#181818;stroke-width:1.0;"/><path d="M485.3438,487.9688 C484.4063,487.5313 483.8125,487.3906 482.9375,487.3906 C480.3125,487.3906 478.3125,489.4688 478.3125,492.1875 L478.3125,493.3125 C478.3125,495.8906 480.4219,497.7813 483.3125,497.7813 C484.5313,497.7813 485.6875,497.4844 486.4375,496.9375 C487.0156,496.5313 487.3438,496.0781 487.3438,495.6875 C487.3438,495.2344 486.9531,494.8438 486.4844,494.8438 C486.2656,494.8438 486.0625,494.9219 485.875,495.1094 C485.4219,495.5938 485.4219,495.5938 485.2344,495.6875 C484.8125,495.9531 484.125,496.0781 483.3594,496.0781 C481.3125,496.0781 480.0156,494.9844 480.0156,493.2813 L480.0156,492.1875 C480.0156,490.4063 481.2656,489.0938 483,489.0938 C483.5781,489.0938 484.1875,489.25 484.6563,489.5 C485.1406,489.7813 485.3125,490 485.4063,490.4063 C485.4688,490.8125 485.5,490.9375 485.6406,491.0625 C485.7813,491.2031 486.0156,491.3125 486.2344,491.3125 C486.5,491.3125 486.7656,491.1719 486.9375,490.9531 C487.0469,490.7969 487.0781,490.6094 487.0781,490.1875 L487.0781,488.7656 C487.0781,488.3281 487.0625,488.2031 486.9688,488.0469 C486.8125,487.7813 486.5313,487.6406 486.2344,487.6406 C485.9375,487.6406 485.7344,487.7344 485.5156,488.0469 L485.3438,487.9688 Z " fill="#000000"/><text fill="#000000" font-family="sans-serif" font-size="14" lengthAdjust="spacing" textLength="58" x="497" y="497.1436">OffPage</text><line style="stroke:#181818;stroke-width:0.5;" x1="469" x2="557" y1="508.2969" y2="508.2969"/><line style="stroke:#181818;stroke-width:0.5;" x1="469" x2="557" y1="516.2969" y2="516.2969"/></g><!--MD5=[2027fa2c348fa3457eb38515db80be1f]
class KeywordResearch--><g id="elem_KeywordResearch"><rect codeLine="20" fill="#F1F1F1" height="48" id="KeywordResearch" rx="2.5" ry="2.5" style="stroke:#181818;stroke-width:0.5;" width="160" x="7" y="584.2969"/><ellipse cx="22" cy="600.2969" fill="#ADD1B2" rx="11" ry="11" style="stroke:#181818;stroke-width:1.0;"/><path d="M24.3438,595.9688 C23.4063,595.5313 22.8125,595.3906 21.9375,595.3906 C19.3125,595.3906 17.3125,597.4688 17.3125,600.1875 L17.3125,601.3125 C17.3125,603.8906 19.4219,605.7813 22.3125,605.7813 C23.5313,605.7813 24.6875,605.4844 25.4375,604.9375 C26.0156,604.5313 26.3438,604.0781 26.3438,603.6875 C26.3438,603.2344 25.9531,602.8438 25.4844,602.8438 C25.2656,602.8438 25.0625,602.9219 24.875,603.1094 C24.4219,603.5938 24.4219,603.5938 24.2344,603.6875 C23.8125,603.9531 23.125,604.0781 22.3594,604.0781 C20.3125,604.0781 19.0156,602.9844 19.0156,601.2813 L19.0156,600.1875 C19.0156,598.4063 20.2656,597.0938 22,597.0938 C22.5781,597.0938 23.1875,597.25 23.6563,597.5 C24.1406,597.7813 24.3125,598 24.4063,598.4063 C24.4688,598.8125 24.5,598.9375 24.6406,599.0625 C24.7813,599.2031 25.0156,599.3125 25.2344,599.3125 C25.5,599.3125 25.7656,599.1719 25.9375,598.9531 C26.0469,598.7969 26.0781,598.6094 26.0781,598.1875 L26.0781,596.7656 C26.0781,596.3281 26.0625,596.2031 25.9688,596.0469 C25.8125,595.7813 25.5313,595.6406 25.2344,595.6406 C24.9375,595.6406 24.7344,595.7344 24.5156,596.0469 L24.3438,595.9688 Z " fill="#000000"/><text fill="#000000" font-family="sans-serif" font-size="14" lengthAdjust="spacing" textLength="128" x="36" y="605.1436">KeywordResearch</text><line style="stroke:#181818;stroke-width:0.5;" x1="8" x2="166" y1="616.2969" y2="616.2969"/><line style="stroke:#181818;stroke-width:0.5;" x1="8" x2="166" y1="624.2969" y2="624.2969"/></g><!--MD5=[4d841c00f4e0ea5b3da608323136a170]
class SEOArquitecture--><g id="elem_SEOArquitecture"><rect codeLine="21" fill="#F1F1F1" height="48" id="SEOArquitecture" rx="2.5" ry="2.5" style="stroke:#181818;stroke-width:0.5;" width="152" x="202" y="584.2969"/><ellipse cx="217" cy="600.2969" fill="#ADD1B2" rx="11" ry="11" style="stroke:#181818;stroke-width:1.0;"/><path d="M219.3438,595.9688 C218.4063,595.5313 217.8125,595.3906 216.9375,595.3906 C214.3125,595.3906 212.3125,597.4688 212.3125,600.1875 L212.3125,601.3125 C212.3125,603.8906 214.4219,605.7813 217.3125,605.7813 C218.5313,605.7813 219.6875,605.4844 220.4375,604.9375 C221.0156,604.5313 221.3438,604.0781 221.3438,603.6875 C221.3438,603.2344 220.9531,602.8438 220.4844,602.8438 C220.2656,602.8438 220.0625,602.9219 219.875,603.1094 C219.4219,603.5938 219.4219,603.5938 219.2344,603.6875 C218.8125,603.9531 218.125,604.0781 217.3594,604.0781 C215.3125,604.0781 214.0156,602.9844 214.0156,601.2813 L214.0156,600.1875 C214.0156,598.4063 215.2656,597.0938 217,597.0938 C217.5781,597.0938 218.1875,597.25 218.6563,597.5 C219.1406,597.7813 219.3125,598 219.4063,598.4063 C219.4688,598.8125 219.5,598.9375 219.6406,599.0625 C219.7813,599.2031 220.0156,599.3125 220.2344,599.3125 C220.5,599.3125 220.7656,599.1719 220.9375,598.9531 C221.0469,598.7969 221.0781,598.6094 221.0781,598.1875 L221.0781,596.7656 C221.0781,596.3281 221.0625,596.2031 220.9688,596.0469 C220.8125,595.7813 220.5313,595.6406 220.2344,595.6406 C219.9375,595.6406 219.7344,595.7344 219.5156,596.0469 L219.3438,595.9688 Z " fill="#000000"/><text fill="#000000" font-family="sans-serif" font-size="14" lengthAdjust="spacing" textLength="120" x="231" y="605.1436">SEOArquitecture</text><line style="stroke:#181818;stroke-width:0.5;" x1="203" x2="353" y1="616.2969" y2="616.2969"/><line style="stroke:#181818;stroke-width:0.5;" x1="203" x2="353" y1="624.2969" y2="624.2969"/></g><!--MD5=[23b1a4f48a03ac2ac29d6b7a97187c37]
class WPO--><g id="elem_WPO"><rect codeLine="22" fill="#F1F1F1" height="48" id="WPO" rx="2.5" ry="2.5" style="stroke:#181818;stroke-width:0.5;" width="66" x="389" y="584.2969"/><ellipse cx="404" cy="600.2969" fill="#ADD1B2" rx="11" ry="11" style="stroke:#181818;stroke-width:1.0;"/><path d="M406.3438,595.9688 C405.4063,595.5313 404.8125,595.3906 403.9375,595.3906 C401.3125,595.3906 399.3125,597.4688 399.3125,600.1875 L399.3125,601.3125 C399.3125,603.8906 401.4219,605.7813 404.3125,605.7813 C405.5313,605.7813 406.6875,605.4844 407.4375,604.9375 C408.0156,604.5313 408.3438,604.0781 408.3438,603.6875 C408.3438,603.2344 407.9531,602.8438 407.4844,602.8438 C407.2656,602.8438 407.0625,602.9219 406.875,603.1094 C406.4219,603.5938 406.4219,603.5938 406.2344,603.6875 C405.8125,603.9531 405.125,604.0781 404.3594,604.0781 C402.3125,604.0781 401.0156,602.9844 401.0156,601.2813 L401.0156,600.1875 C401.0156,598.4063 402.2656,597.0938 404,597.0938 C404.5781,597.0938 405.1875,597.25 405.6563,597.5 C406.1406,597.7813 406.3125,598 406.4063,598.4063 C406.4688,598.8125 406.5,598.9375 406.6406,599.0625 C406.7813,599.2031 407.0156,599.3125 407.2344,599.3125 C407.5,599.3125 407.7656,599.1719 407.9375,598.9531 C408.0469,598.7969 408.0781,598.6094 408.0781,598.1875 L408.0781,596.7656 C408.0781,596.3281 408.0625,596.2031 407.9688,596.0469 C407.8125,595.7813 407.5313,595.6406 407.2344,595.6406 C406.9375,595.6406 406.7344,595.7344 406.5156,596.0469 L406.3438,595.9688 Z " fill="#000000"/><text fill="#000000" font-family="sans-serif" font-size="14" lengthAdjust="spacing" textLength="34" x="418" y="605.1436">WPO</text><line style="stroke:#181818;stroke-width:0.5;" x1="390" x2="454" y1="616.2969" y2="616.2969"/><line style="stroke:#181818;stroke-width:0.5;" x1="390" x2="454" y1="624.2969" y2="624.2969"/></g><!--MD5=[446c0208a530fb0681fe9f61aa6e5cca]
class Linkbuilding--><g id="elem_Linkbuilding"><rect codeLine="23" fill="#F1F1F1" height="48" id="Linkbuilding" rx="2.5" ry="2.5" style="stroke:#181818;stroke-width:0.5;" width="119" x="490.5" y="584.2969"/><ellipse cx="505.5" cy="600.2969" fill="#ADD1B2" rx="11" ry="11" style="stroke:#181818;stroke-width:1.0;"/><path d="M507.8438,595.9688 C506.9063,595.5313 506.3125,595.3906 505.4375,595.3906 C502.8125,595.3906 500.8125,597.4688 500.8125,600.1875 L500.8125,601.3125 C500.8125,603.8906 502.9219,605.7813 505.8125,605.7813 C507.0313,605.7813 508.1875,605.4844 508.9375,604.9375 C509.5156,604.5313 509.8438,604.0781 509.8438,603.6875 C509.8438,603.2344 509.4531,602.8438 508.9844,602.8438 C508.7656,602.8438 508.5625,602.9219 508.375,603.1094 C507.9219,603.5938 507.9219,603.5938 507.7344,603.6875 C507.3125,603.9531 506.625,604.0781 505.8594,604.0781 C503.8125,604.0781 502.5156,602.9844 502.5156,601.2813 L502.5156,600.1875 C502.5156,598.4063 503.7656,597.0938 505.5,597.0938 C506.0781,597.0938 506.6875,597.25 507.1563,597.5 C507.6406,597.7813 507.8125,598 507.9063,598.4063 C507.9688,598.8125 508,598.9375 508.1406,599.0625 C508.2813,599.2031 508.5156,599.3125 508.7344,599.3125 C509,599.3125 509.2656,599.1719 509.4375,598.9531 C509.5469,598.7969 509.5781,598.6094 509.5781,598.1875 L509.5781,596.7656 C509.5781,596.3281 509.5625,596.2031 509.4688,596.0469 C509.3125,595.7813 509.0313,595.6406 508.7344,595.6406 C508.4375,595.6406 508.2344,595.7344 508.0156,596.0469 L507.8438,595.9688 Z " fill="#000000"/><text fill="#000000" font-family="sans-serif" font-size="14" lengthAdjust="spacing" textLength="87" x="519.5" y="605.1436">Linkbuilding</text><line style="stroke:#181818;stroke-width:0.5;" x1="491.5" x2="608.5" y1="616.2969" y2="616.2969"/><line style="stroke:#181818;stroke-width:0.5;" x1="491.5" x2="608.5" y1="624.2969" y2="624.2969"/></g><!--MD5=[d0b55393c8b2f02fa7ef7eb45056ce77]
link Owner to CEO--><g id="link_Owner_CEO"><path codeLine="26" d="M426,104.2969 C426,104.2969 426,127.9739 426,138.6609 " fill="none" id="Owner-CEO" style="stroke:#181818;stroke-width:1.0;"/><polygon fill="#181818" points="426,151.9749,430,142.9749,426,146.9749,422,142.9749,426,151.9749" style="stroke:#181818;stroke-width:1.0;"/><line style="stroke:#181818;stroke-width:1.0;" x1="426" x2="426" y1="146.9749" y2="138.9749"/><polygon fill="#181818" points="426,92.2969,422,98.2969,426,104.2969,430,98.2969,426,92.2969" style="stroke:#181818;stroke-width:1.0;"/></g><!--MD5=[499c978488cc959d199c476a9ea5601b]
link CEO to Administration--><g id="link_CEO_Administration"><path codeLine="28" d="M383.8219,197.7123 C383.8219,197.7123 303.579,236.5509 266.904,254.3019 " fill="none" id="CEO-Administration" style="stroke:#181818;stroke-width:1.0;"/><polygon fill="#181818" points="254.86,260.1319,264.7037,259.8119,259.3607,257.9538,261.2187,252.6108,254.86,260.1319" style="stroke:#181818;stroke-width:1.0;"/><line style="stroke:#181818;stroke-width:1.0;" x1="259.3607" x2="266.561" y1="257.9538" y2="254.4684"/><polygon fill="#181818" points="394.623,192.4839,387.4796,191.4977,383.8219,197.7123,390.9653,198.6985,394.623,192.4839" style="stroke:#181818;stroke-width:1.0;"/></g><!--MD5=[d2b46d1c6f4d2ceb747d0d7e8db45c51]
link CEO to Contability--><g id="link_CEO_Contability"><path codeLine="29" d="M407.6549,210.8241 C407.6549,210.8241 393.564,236.5759 387.134,248.3289 " fill="none" id="CEO-Contability" style="stroke:#181818;stroke-width:1.0;"/><polygon fill="#181818" points="380.761,259.9749,388.5901,253.9995,383.161,255.5886,381.572,250.1595,380.761,259.9749" style="stroke:#181818;stroke-width:1.0;"/><line style="stroke:#181818;stroke-width:1.0;" x1="383.161" x2="387.0015" y1="255.5886" y2="248.5709"/><polygon fill="#181818" points="413.415,200.2969,407.0259,203.6404,407.6549,210.8241,414.044,207.4805,413.415,200.2969" style="stroke:#181818;stroke-width:1.0;"/></g><!--MD5=[5ec37ea83935651c0019e34deee350fa]
link CEO to HR--><g id="link_CEO_HR"><path codeLine="30" d="M444.6376,210.7824 C444.6376,210.7824 458.995,236.5759 465.536,248.3289 " fill="none" id="CEO-HR" style="stroke:#181818;stroke-width:1.0;"/><polygon fill="#181818" points="472.019,259.9749,471.1375,250.1655,469.5875,255.6059,464.1472,254.0559,472.019,259.9749" style="stroke:#181818;stroke-width:1.0;"/><line style="stroke:#181818;stroke-width:1.0;" x1="469.5875" x2="465.6965" y1="255.6059" y2="248.6164"/><polygon fill="#181818" points="438.802,200.2969,438.2246,207.4848,444.6376,210.7824,445.215,203.5945,438.802,200.2969" style="stroke:#181818;stroke-width:1.0;"/></g><!--MD5=[0e34eba72d87577f5ab855f3b0fa7dce]
link CEO to Marketing--><g id="link_CEO_Marketing"><path codeLine="31" d="M467.5611,202.7622 C467.5611,202.7622 524.248,237.4949 549.908,253.2169 " fill="none" id="CEO-Marketing" style="stroke:#181818;stroke-width:1.0;"/><polygon fill="#181818" points="561.272,260.1799,555.6877,252.0672,557.0086,257.5677,551.5082,258.8886,561.272,260.1799" style="stroke:#181818;stroke-width:1.0;"/><line style="stroke:#181818;stroke-width:1.0;" x1="557.0086" x2="550.187" y1="257.5677" y2="253.3884"/><polygon fill="#181818" points="457.329,196.4929,460.3553,203.0382,467.5611,202.7622,464.5348,196.2168,457.329,196.4929" style="stroke:#181818;stroke-width:1.0;"/></g><!--MD5=[43264b0f695e496dc00c9c4ee2b2da85]
link Marketing to SEO--><g id="link_Marketing_SEO"><path codeLine="33" d="M548.4462,314.263 C548.4462,314.263 483.223,351.6339 456.07,367.1919 " fill="none" id="Marketing-SEO" style="stroke:#181818;stroke-width:1.0;"/><polygon fill="#181818" points="444.612,373.7569,454.4096,372.7534,448.9504,371.2712,450.4325,365.812,444.612,373.7569" style="stroke:#181818;stroke-width:1.0;"/><line style="stroke:#181818;stroke-width:1.0;" x1="448.9504" x2="455.892" y1="371.2712" y2="367.2939"/><polygon fill="#181818" points="558.858,308.2969,551.6634,307.8094,548.4462,314.263,555.6408,314.7505,558.858,308.2969" style="stroke:#181818;stroke-width:1.0;"/></g><!--MD5=[b3b1fb72458bae26b0fc636934076aa2]
link Marketing to SocialMedia--><g id="link_Marketing_SocialMedia"><path codeLine="34" d="M579.7784,318.6975 C579.7784,318.6975 564.728,344.8519 557.91,356.6989 " fill="none" id="Marketing-SocialMedia" style="stroke:#181818;stroke-width:1.0;"/><polygon fill="#181818" points="551.421,367.9749,559.3767,362.1692,553.9148,363.6412,552.4428,358.1792,551.421,367.9749" style="stroke:#181818;stroke-width:1.0;"/><line style="stroke:#181818;stroke-width:1.0;" x1="553.9148" x2="557.905" y1="363.6412" y2="356.7074"/><polygon fill="#181818" points="585.764,308.2969,579.3043,311.502,579.7784,318.6975,586.2381,315.4924,585.764,308.2969" style="stroke:#181818;stroke-width:1.0;"/></g><!--MD5=[6f3e953d29ef35cea5764b3417adfb42]
link Marketing to Ads--><g id="link_Marketing_Ads"><path codeLine="35" d="M618.2216,318.6975 C618.2216,318.6975 633.272,344.8519 640.09,356.6989 " fill="none" id="Marketing-Ads" style="stroke:#181818;stroke-width:1.0;"/><polygon fill="#181818" points="646.579,367.9749,645.5572,358.1792,644.0852,363.6412,638.6233,362.1692,646.579,367.9749" style="stroke:#181818;stroke-width:1.0;"/><line style="stroke:#181818;stroke-width:1.0;" x1="644.0852" x2="640.095" y1="363.6412" y2="356.7074"/><polygon fill="#181818" points="612.236,308.2969,611.7619,315.4924,618.2216,318.6975,618.6957,311.502,612.236,308.2969" style="stroke:#181818;stroke-width:1.0;"/></g><!--MD5=[09c177cc9d4b35b47aa503f9aa912d39]
link Marketing to Branding--><g id="link_Marketing_Branding"><path codeLine="36" d="M646.7701,314.5662 C646.7701,314.5662 699.545,346.9019 723.089,361.3289 " fill="none" id="Marketing-Branding" style="stroke:#181818;stroke-width:1.0;"/><polygon fill="#181818" points="734.237,368.1589,728.6527,360.0462,729.9736,365.5467,724.4732,366.8676,734.237,368.1589" style="stroke:#181818;stroke-width:1.0;"/><line style="stroke:#181818;stroke-width:1.0;" x1="729.9736" x2="723.152" y1="365.5467" y2="361.3664"/><polygon fill="#181818" points="636.538,308.2969,639.5643,314.8422,646.7701,314.5662,643.7438,308.0208,636.538,308.2969" style="stroke:#181818;stroke-width:1.0;"/></g><!--MD5=[f069f6cf97bc08a3908857fa7777d22f]
link SEO to OnPage--><g id="link_SEO_OnPage"><path codeLine="38" d="M384.3271,425.0667 C384.3271,425.0667 357.932,453.3289 345.957,466.1509 " fill="none" id="SEO-OnPage" style="stroke:#181818;stroke-width:1.0;"/><polygon fill="#181818" points="336.781,475.9749,345.8474,472.1278,340.1939,472.3208,340.0009,466.6672,336.781,475.9749" style="stroke:#181818;stroke-width:1.0;"/><line style="stroke:#181818;stroke-width:1.0;" x1="340.1939" x2="345.655" y1="472.3208" y2="466.4744"/><polygon fill="#181818" points="392.518,416.2969,385.4993,417.9515,384.3271,425.0667,391.3458,423.4121,392.518,416.2969" style="stroke:#181818;stroke-width:1.0;"/></g><!--MD5=[073e88e260fe74c5a8000883aef84488]
link SEO to OffPage--><g id="link_SEO_OffPage"><path codeLine="39" d="M443.6729,425.0667 C443.6729,425.0667 470.068,453.3289 482.043,466.1509 " fill="none" id="SEO-OffPage" style="stroke:#181818;stroke-width:1.0;"/><polygon fill="#181818" points="491.219,475.9749,487.9991,466.6672,487.8061,472.3208,482.1526,472.1278,491.219,475.9749" style="stroke:#181818;stroke-width:1.0;"/><line style="stroke:#181818;stroke-width:1.0;" x1="487.8061" x2="482.345" y1="472.3208" y2="466.4744"/><polygon fill="#181818" points="435.482,416.2969,436.6542,423.4121,443.6729,425.0667,442.5007,417.9515,435.482,416.2969" style="stroke:#181818;stroke-width:1.0;"/></g><!--MD5=[d42800f1a02ac1d2be7671d343d04a92]
link OnPage to KeywordResearch--><g id="link_OnPage_KeywordResearch"><path codeLine="41" d="M260.4273,526.6673 C260.4273,526.6673 182.782,562.7668 148.307,578.7947 " fill="none" id="OnPage-KeywordResearch" style="stroke:#181818;stroke-width:1.0;"/><polygon fill="#181818" points="136.485,584.2909,146.3324,584.1242,141.019,582.1831,142.9601,576.8697,136.485,584.2909" style="stroke:#181818;stroke-width:1.0;"/><line style="stroke:#181818;stroke-width:1.0;" x1="141.019" x2="148.273" y1="582.1831" y2="578.8103"/><polygon fill="#181818" points="271.309,521.6089,264.182,520.5109,260.4273,526.6673,267.5543,527.7653,271.309,521.6089" style="stroke:#181818;stroke-width:1.0;"/></g><!--MD5=[87739971becfee92fb1b34f05d6eb9ff]
link OnPage to SEOArquitecture--><g id="link_OnPage_SEOArquitecture"><path codeLine="42" d="M303.0174,535.6265 C303.0174,535.6265 294.42,560.2567 290.504,571.4748 " fill="none" id="OnPage-SEOArquitecture" style="stroke:#181818;stroke-width:1.0;"/><polygon fill="#181818" points="286.141,583.9753,292.8836,576.7963,287.7888,579.2546,285.3305,574.1598,286.141,583.9753" style="stroke:#181818;stroke-width:1.0;"/><line style="stroke:#181818;stroke-width:1.0;" x1="287.7888" x2="290.425" y1="579.2546" y2="571.7015"/><polygon fill="#181818" points="306.972,524.2969,301.2182,528.6435,303.0174,535.6265,308.7713,531.2799,306.972,524.2969" style="stroke:#181818;stroke-width:1.0;"/></g><!--MD5=[49db2b90e3fad2372284a8d089f33d64]
link OnPage to WPO--><g id="link_OnPage_WPO"><path codeLine="43" d="M346.7424,532.7418 C346.7424,532.7418 375.961,561.6883 389.218,574.8212 " fill="none" id="OnPage-WPO" style="stroke:#181818;stroke-width:1.0;"/><polygon fill="#181818" points="398.458,583.9753,394.879,574.7997,394.9058,580.4565,389.249,580.4833,398.458,583.9753" style="stroke:#181818;stroke-width:1.0;"/><line style="stroke:#181818;stroke-width:1.0;" x1="394.9058" x2="389.223" y1="580.4565" y2="574.8261"/><polygon fill="#181818" points="338.217,524.2969,339.6647,531.3612,346.7424,532.7418,345.2947,525.6776,338.217,524.2969" style="stroke:#181818;stroke-width:1.0;"/></g><!--MD5=[277b30219adabad462f63ba12045d196]
link OffPage to Linkbuilding--><g id="link_OffPage_Linkbuilding"><path codeLine="45" d="M524.9826,535.6265 C524.9826,535.6265 533.58,560.2567 537.496,571.4748 " fill="none" id="OffPage-Linkbuilding" style="stroke:#181818;stroke-width:1.0;"/><polygon fill="#181818" points="541.859,583.9753,542.6695,574.1598,540.2112,579.2546,535.1164,576.7963,541.859,583.9753" style="stroke:#181818;stroke-width:1.0;"/><line style="stroke:#181818;stroke-width:1.0;" x1="540.2112" x2="537.575" y1="579.2546" y2="571.7015"/><polygon fill="#181818" points="521.028,524.2969,519.2287,531.2799,524.9826,535.6265,526.7818,528.6435,521.028,524.2969" style="stroke:#181818;stroke-width:1.0;"/></g><!--MD5=[1652d5a3985ed0c54b2d287ceff8b528]
@startuml
Title Sistema Complejo - Una Empresa

class Owner

class CEO

class Administration
class Contability
class HR
class Marketing

class SEO
class SocialMedia
class Ads
class Branding

class OnPage
class OffPage

class KeywordResearch
class SEOArquitecture
class WPO
class Linkbuilding


Owner *-down-> CEO

CEO *-down-> Administration
CEO *-down-> Contability
CEO *-down-> HR
CEO *-down-> Marketing

Marketing *-down-> SEO
Marketing *-down-> SocialMedia
Marketing *-down-> Ads
Marketing *-down-> Branding

SEO *-down-> OnPage
SEO *-down-> OffPage

OnPage *-down-> KeywordResearch
OnPage *-down-> SEOArquitecture
OnPage *-down-> WPO

OffPage *-down-> Linkbuilding
@enduml

PlantUML version 1.2022.7beta2(Unknown compile time)
(GPL source distribution)
Java Runtime: Java(TM) SE Runtime Environment
JVM: Java HotSpot(TM) 64-Bit Server VM
Default Encoding: UTF-8
Language: en
Country: US
--></g></svg>