<?xml version="1.0" encoding="UTF-8" standalone="no"?><svg xmlns="http://www.w3.org/2000/svg" xmlns:xlink="http://www.w3.org/1999/xlink" contentStyleType="text/css" height="620px" preserveAspectRatio="none" style="width:721px;height:620px;background:#FFFFFF;" version="1.1" viewBox="0 0 721 620" width="721px" zoomAndPan="magnify"><defs/><g><!--MD5=[7283a9eed84464550b6d5ebf39c68b05]
class Mastermind--><g id="elem_Mastermind"><rect fill="#F1F1F1" height="48" id="Mastermind" rx="2.5" ry="2.5" style="stroke:#181818;stroke-width:0.5;" width="117" x="421.5" y="7"/><ellipse cx="436.5" cy="23" fill="#ADD1B2" rx="11" ry="11" style="stroke:#181818;stroke-width:1.0;"/><path d="M438.8438,18.6719 C437.9063,18.2344 437.3125,18.0938 436.4375,18.0938 C433.8125,18.0938 431.8125,20.1719 431.8125,22.8906 L431.8125,24.0156 C431.8125,26.5938 433.9219,28.4844 436.8125,28.4844 C438.0313,28.4844 439.1875,28.1875 439.9375,27.6406 C440.5156,27.2344 440.8438,26.7813 440.8438,26.3906 C440.8438,25.9375 440.4531,25.5469 439.9844,25.5469 C439.7656,25.5469 439.5625,25.625 439.375,25.8125 C438.9219,26.2969 438.9219,26.2969 438.7344,26.3906 C438.3125,26.6563 437.625,26.7813 436.8594,26.7813 C434.8125,26.7813 433.5156,25.6875 433.5156,23.9844 L433.5156,22.8906 C433.5156,21.1094 434.7656,19.7969 436.5,19.7969 C437.0781,19.7969 437.6875,19.9531 438.1563,20.2031 C438.6406,20.4844 438.8125,20.7031 438.9063,21.1094 C438.9688,21.5156 439,21.6406 439.1406,21.7656 C439.2813,21.9063 439.5156,22.0156 439.7344,22.0156 C440,22.0156 440.2656,21.875 440.4375,21.6563 C440.5469,21.5 440.5781,21.3125 440.5781,20.8906 L440.5781,19.4688 C440.5781,19.0313 440.5625,18.9063 440.4688,18.75 C440.3125,18.4844 440.0313,18.3438 439.7344,18.3438 C439.4375,18.3438 439.2344,18.4375 439.0156,18.75 L438.8438,18.6719 Z " fill="#000000"/><text fill="#000000" font-family="sans-serif" font-size="14" lengthAdjust="spacing" textLength="85" x="450.5" y="27.8467">Mastermind</text><line style="stroke:#181818;stroke-width:0.5;" x1="422.5" x2="537.5" y1="39" y2="39"/><line style="stroke:#181818;stroke-width:0.5;" x1="422.5" x2="537.5" y1="47" y2="47"/></g><!--MD5=[5d3822d29342fbd355d1b65ea3562ec9]
class GameView--><g id="elem_GameView"><rect fill="#F1F1F1" height="162.0781" id="GameView" rx="2.5" ry="2.5" style="stroke:#181818;stroke-width:0.5;" width="215" x="499.5" y="164"/><ellipse cx="564.75" cy="180" fill="#ADD1B2" rx="11" ry="11" style="stroke:#181818;stroke-width:1.0;"/><path d="M567.0938,175.6719 C566.1563,175.2344 565.5625,175.0938 564.6875,175.0938 C562.0625,175.0938 560.0625,177.1719 560.0625,179.8906 L560.0625,181.0156 C560.0625,183.5938 562.1719,185.4844 565.0625,185.4844 C566.2813,185.4844 567.4375,185.1875 568.1875,184.6406 C568.7656,184.2344 569.0938,183.7813 569.0938,183.3906 C569.0938,182.9375 568.7031,182.5469 568.2344,182.5469 C568.0156,182.5469 567.8125,182.625 567.625,182.8125 C567.1719,183.2969 567.1719,183.2969 566.9844,183.3906 C566.5625,183.6563 565.875,183.7813 565.1094,183.7813 C563.0625,183.7813 561.7656,182.6875 561.7656,180.9844 L561.7656,179.8906 C561.7656,178.1094 563.0156,176.7969 564.75,176.7969 C565.3281,176.7969 565.9375,176.9531 566.4063,177.2031 C566.8906,177.4844 567.0625,177.7031 567.1563,178.1094 C567.2188,178.5156 567.25,178.6406 567.3906,178.7656 C567.5313,178.9063 567.7656,179.0156 567.9844,179.0156 C568.25,179.0156 568.5156,178.875 568.6875,178.6563 C568.7969,178.5 568.8281,178.3125 568.8281,177.8906 L568.8281,176.4688 C568.8281,176.0313 568.8125,175.9063 568.7188,175.75 C568.5625,175.4844 568.2813,175.3438 567.9844,175.3438 C567.6875,175.3438 567.4844,175.4375 567.2656,175.75 L567.0938,175.6719 Z " fill="#000000"/><text fill="#000000" font-family="sans-serif" font-size="14" lengthAdjust="spacing" textLength="76" x="585.25" y="184.8467">GameView</text><line style="stroke:#181818;stroke-width:0.5;" x1="500.5" x2="713.5" y1="196" y2="196"/><rect fill="none" height="6" style="stroke:#C82930;stroke-width:1.0;" width="6" x="507.5" y="206.6484"/><text fill="#000000" font-family="sans-serif" font-size="14" lengthAdjust="spacing" textLength="40" x="519.5" y="212.9951">game</text><line style="stroke:#181818;stroke-width:0.5;" x1="500.5" x2="713.5" y1="220.2969" y2="220.2969"/><ellipse cx="510.5" cy="233.9453" fill="#84BE84" rx="3" ry="3" style="stroke:#038048;stroke-width:1.0;"/><text fill="#000000" font-family="sans-serif" font-size="14" lengthAdjust="spacing" textLength="40" x="519.5" y="237.292">play()</text><ellipse cx="510.5" cy="250.2422" fill="#84BE84" rx="3" ry="3" style="stroke:#038048;stroke-width:1.0;"/><text fill="#000000" font-family="sans-serif" font-size="14" lengthAdjust="spacing" textLength="88" x="519.5" y="253.5889">showBoard()</text><ellipse cx="510.5" cy="266.5391" fill="#84BE84" rx="3" ry="3" style="stroke:#038048;stroke-width:1.0;"/><text fill="#000000" font-family="sans-serif" font-size="14" lengthAdjust="spacing" textLength="189" x="519.5" y="269.8857">askProposalCombination()</text><ellipse cx="510.5" cy="282.8359" fill="#84BE84" rx="3" ry="3" style="stroke:#038048;stroke-width:1.0;"/><text fill="#000000" font-family="sans-serif" font-size="14" lengthAdjust="spacing" textLength="91" x="519.5" y="286.1826">showResult()</text><ellipse cx="510.5" cy="299.1328" fill="#84BE84" rx="3" ry="3" style="stroke:#038048;stroke-width:1.0;"/><text fill="#000000" font-family="sans-serif" font-size="14" lengthAdjust="spacing" textLength="189" x="519.5" y="302.4795">checkCombinationErrors()</text><ellipse cx="510.5" cy="315.4297" fill="#84BE84" rx="3" ry="3" style="stroke:#038048;stroke-width:1.0;"/><text fill="#000000" font-family="sans-serif" font-size="14" lengthAdjust="spacing" textLength="114" x="519.5" y="318.7764">playAgainView()</text></g><!--MD5=[b6dcce5e5ef3c84b0b048d11301373dd]
class Game--><g id="elem_Game"><rect fill="#F1F1F1" height="259.8594" id="Game" rx="2.5" ry="2.5" style="stroke:#181818;stroke-width:0.5;" width="220" x="244" y="115"/><ellipse cx="328.75" cy="131" fill="#ADD1B2" rx="11" ry="11" style="stroke:#181818;stroke-width:1.0;"/><path d="M331.0938,126.6719 C330.1563,126.2344 329.5625,126.0938 328.6875,126.0938 C326.0625,126.0938 324.0625,128.1719 324.0625,130.8906 L324.0625,132.0156 C324.0625,134.5938 326.1719,136.4844 329.0625,136.4844 C330.2813,136.4844 331.4375,136.1875 332.1875,135.6406 C332.7656,135.2344 333.0938,134.7813 333.0938,134.3906 C333.0938,133.9375 332.7031,133.5469 332.2344,133.5469 C332.0156,133.5469 331.8125,133.625 331.625,133.8125 C331.1719,134.2969 331.1719,134.2969 330.9844,134.3906 C330.5625,134.6563 329.875,134.7813 329.1094,134.7813 C327.0625,134.7813 325.7656,133.6875 325.7656,131.9844 L325.7656,130.8906 C325.7656,129.1094 327.0156,127.7969 328.75,127.7969 C329.3281,127.7969 329.9375,127.9531 330.4063,128.2031 C330.8906,128.4844 331.0625,128.7031 331.1563,129.1094 C331.2188,129.5156 331.25,129.6406 331.3906,129.7656 C331.5313,129.9063 331.7656,130.0156 331.9844,130.0156 C332.25,130.0156 332.5156,129.875 332.6875,129.6563 C332.7969,129.5 332.8281,129.3125 332.8281,128.8906 L332.8281,127.4688 C332.8281,127.0313 332.8125,126.9063 332.7188,126.75 C332.5625,126.4844 332.2813,126.3438 331.9844,126.3438 C331.6875,126.3438 331.4844,126.4375 331.2656,126.75 L331.0938,126.6719 Z " fill="#000000"/><text fill="#000000" font-family="sans-serif" font-size="14" lengthAdjust="spacing" textLength="42" x="349.25" y="135.8467">Game</text><line style="stroke:#181818;stroke-width:0.5;" x1="245" x2="463" y1="147" y2="147"/><rect fill="none" height="6" style="stroke:#C82930;stroke-width:1.0;" width="6" x="252" y="157.6484"/><text fill="#000000" font-family="sans-serif" font-size="14" lengthAdjust="spacing" textLength="164" x="264" y="163.9951">SECRET_COMBINATION</text><rect fill="none" height="6" style="stroke:#C82930;stroke-width:1.0;" width="6" x="252" y="173.9453"/><text fill="#000000" font-family="sans-serif" font-size="14" lengthAdjust="spacing" textLength="140" x="264" y="180.292">MAX_COMBINATION</text><rect fill="none" height="6" style="stroke:#C82930;stroke-width:1.0;" width="6" x="252" y="190.2422"/><text fill="#000000" font-family="sans-serif" font-size="14" lengthAdjust="spacing" textLength="109" x="264" y="196.5889">VALID_COLORS</text><ellipse cx="255" cy="209.5391" fill="none" rx="3" ry="3" style="stroke:#038048;stroke-width:1.0;"/><text fill="#000000" font-family="sans-serif" font-size="14" lengthAdjust="spacing" textLength="84" x="264" y="212.8857">Array board</text><line style="stroke:#181818;stroke-width:0.5;" x1="245" x2="463" y1="220.1875" y2="220.1875"/><text fill="#000000" font-family="sans-serif" font-size="14" lengthAdjust="spacing" textLength="176" x="264" y="237.1826">getSecretCombination()</text><ellipse cx="255" cy="250.1328" fill="#84BE84" rx="3" ry="3" style="stroke:#038048;stroke-width:1.0;"/><text fill="#000000" font-family="sans-serif" font-size="14" lengthAdjust="spacing" textLength="115" x="264" y="253.4795">getValidColors()</text><ellipse cx="255" cy="266.4297" fill="#84BE84" rx="3" ry="3" style="stroke:#038048;stroke-width:1.0;"/><text fill="#000000" font-family="sans-serif" font-size="14" lengthAdjust="spacing" textLength="108" x="264" y="269.7764">getMaxColors()</text><ellipse cx="255" cy="282.7266" fill="#84BE84" rx="3" ry="3" style="stroke:#038048;stroke-width:1.0;"/><text fill="#000000" font-family="sans-serif" font-size="14" lengthAdjust="spacing" textLength="77" x="264" y="286.0732">getBoard()</text><ellipse cx="255" cy="299.0234" fill="#84BE84" rx="3" ry="3" style="stroke:#038048;stroke-width:1.0;"/><text fill="#000000" font-family="sans-serif" font-size="14" lengthAdjust="spacing" textLength="81" x="264" y="302.3701">getBlacks()</text><ellipse cx="255" cy="315.3203" fill="#84BE84" rx="3" ry="3" style="stroke:#038048;stroke-width:1.0;"/><text fill="#000000" font-family="sans-serif" font-size="14" lengthAdjust="spacing" textLength="85" x="264" y="318.667">getWhites()</text><ellipse cx="255" cy="331.6172" fill="#84BE84" rx="3" ry="3" style="stroke:#038048;stroke-width:1.0;"/><text fill="#000000" font-family="sans-serif" font-size="14" lengthAdjust="spacing" textLength="194" x="264" y="334.9639">setProposedCombination()</text><ellipse cx="255" cy="347.9141" fill="#84BE84" rx="3" ry="3" style="stroke:#038048;stroke-width:1.0;"/><text fill="#000000" font-family="sans-serif" font-size="14" lengthAdjust="spacing" textLength="80" x="264" y="351.2607">playAgain()</text><ellipse cx="255" cy="364.2109" fill="#84BE84" rx="3" ry="3" style="stroke:#038048;stroke-width:1.0;"/><text fill="#000000" font-family="sans-serif" font-size="14" lengthAdjust="spacing" textLength="80" x="264" y="367.5576">getResult()</text></g><!--MD5=[25452c7211eda5987258184f003246f1]
class ValidateCombination--><g id="elem_ValidateCombination"><rect fill="#F1F1F1" height="178.375" id="ValidateCombination" rx="2.5" ry="2.5" style="stroke:#181818;stroke-width:0.5;" width="186" x="267" y="435"/><ellipse cx="282.9" cy="451" fill="#ADD1B2" rx="11" ry="11" style="stroke:#181818;stroke-width:1.0;"/><path d="M285.2438,446.6719 C284.3063,446.2344 283.7125,446.0938 282.8375,446.0938 C280.2125,446.0938 278.2125,448.1719 278.2125,450.8906 L278.2125,452.0156 C278.2125,454.5938 280.3219,456.4844 283.2125,456.4844 C284.4313,456.4844 285.5875,456.1875 286.3375,455.6406 C286.9156,455.2344 287.2438,454.7813 287.2438,454.3906 C287.2438,453.9375 286.8531,453.5469 286.3844,453.5469 C286.1656,453.5469 285.9625,453.625 285.775,453.8125 C285.3219,454.2969 285.3219,454.2969 285.1344,454.3906 C284.7125,454.6563 284.025,454.7813 283.2594,454.7813 C281.2125,454.7813 279.9156,453.6875 279.9156,451.9844 L279.9156,450.8906 C279.9156,449.1094 281.1656,447.7969 282.9,447.7969 C283.4781,447.7969 284.0875,447.9531 284.5563,448.2031 C285.0406,448.4844 285.2125,448.7031 285.3063,449.1094 C285.3688,449.5156 285.4,449.6406 285.5406,449.7656 C285.6813,449.9063 285.9156,450.0156 286.1344,450.0156 C286.4,450.0156 286.6656,449.875 286.8375,449.6563 C286.9469,449.5 286.9781,449.3125 286.9781,448.8906 L286.9781,447.4688 C286.9781,447.0313 286.9625,446.9063 286.8688,446.75 C286.7125,446.4844 286.4313,446.3438 286.1344,446.3438 C285.8375,446.3438 285.6344,446.4375 285.4156,446.75 L285.2438,446.6719 Z " fill="#000000"/><text fill="#000000" font-family="sans-serif" font-size="14" lengthAdjust="spacing" textLength="152" x="297.1" y="455.8467">ValidateCombination</text><line style="stroke:#181818;stroke-width:0.5;" x1="268" x2="452" y1="467" y2="467"/><rect fill="none" height="6" style="stroke:#C82930;stroke-width:1.0;" width="6" x="275" y="477.6484"/><text fill="#000000" font-family="sans-serif" font-size="14" lengthAdjust="spacing" textLength="140" x="287" y="483.9951">MAX_COMBINATION</text><rect fill="none" height="6" style="stroke:#C82930;stroke-width:1.0;" width="6" x="275" y="493.9453"/><text fill="#000000" font-family="sans-serif" font-size="14" lengthAdjust="spacing" textLength="109" x="287" y="500.292">VALID_COLORS</text><ellipse cx="278" cy="513.2422" fill="none" rx="3" ry="3" style="stroke:#038048;stroke-width:1.0;"/><text fill="#000000" font-family="sans-serif" font-size="14" lengthAdjust="spacing" textLength="124" x="287" y="516.5889">proposeQuestion</text><ellipse cx="278" cy="529.5391" fill="none" rx="3" ry="3" style="stroke:#038048;stroke-width:1.0;"/><text fill="#000000" font-family="sans-serif" font-size="14" lengthAdjust="spacing" textLength="43" x="287" y="532.8857">errors</text><line style="stroke:#181818;stroke-width:0.5;" x1="268" x2="452" y1="540.1875" y2="540.1875"/><ellipse cx="278" cy="553.8359" fill="#84BE84" rx="3" ry="3" style="stroke:#038048;stroke-width:1.0;"/><text fill="#000000" font-family="sans-serif" font-size="14" lengthAdjust="spacing" textLength="160" x="287" y="557.1826">validateCombination()</text><ellipse cx="278" cy="570.1328" fill="#84BE84" rx="3" ry="3" style="stroke:#038048;stroke-width:1.0;"/><text fill="#000000" font-family="sans-serif" font-size="14" lengthAdjust="spacing" textLength="107" x="287" y="573.4795">isValidLength()</text><ellipse cx="278" cy="586.4297" fill="#84BE84" rx="3" ry="3" style="stroke:#038048;stroke-width:1.0;"/><text fill="#000000" font-family="sans-serif" font-size="14" lengthAdjust="spacing" textLength="101" x="287" y="589.7764">isValidColors()</text><ellipse cx="278" cy="602.7266" fill="#84BE84" rx="3" ry="3" style="stroke:#038048;stroke-width:1.0;"/><text fill="#000000" font-family="sans-serif" font-size="14" lengthAdjust="spacing" textLength="130" x="287" y="606.0732">isRepeatedColor()</text></g><!--MD5=[320769387e187372d08cf725b6ec8eb3]
class ProposeCombinationView--><g id="elem_ProposeCombinationView"><rect fill="#F1F1F1" height="96.8906" id="ProposeCombinationView" rx="2.5" ry="2.5" style="stroke:#181818;stroke-width:0.5;" width="223" x="491.5" y="475.5"/><ellipse cx="508.75" cy="491.5" fill="#ADD1B2" rx="11" ry="11" style="stroke:#181818;stroke-width:1.0;"/><path d="M511.0938,487.1719 C510.1563,486.7344 509.5625,486.5938 508.6875,486.5938 C506.0625,486.5938 504.0625,488.6719 504.0625,491.3906 L504.0625,492.5156 C504.0625,495.0938 506.1719,496.9844 509.0625,496.9844 C510.2813,496.9844 511.4375,496.6875 512.1875,496.1406 C512.7656,495.7344 513.0938,495.2813 513.0938,494.8906 C513.0938,494.4375 512.7031,494.0469 512.2344,494.0469 C512.0156,494.0469 511.8125,494.125 511.625,494.3125 C511.1719,494.7969 511.1719,494.7969 510.9844,494.8906 C510.5625,495.1563 509.875,495.2813 509.1094,495.2813 C507.0625,495.2813 505.7656,494.1875 505.7656,492.4844 L505.7656,491.3906 C505.7656,489.6094 507.0156,488.2969 508.75,488.2969 C509.3281,488.2969 509.9375,488.4531 510.4063,488.7031 C510.8906,488.9844 511.0625,489.2031 511.1563,489.6094 C511.2188,490.0156 511.25,490.1406 511.3906,490.2656 C511.5313,490.4063 511.7656,490.5156 511.9844,490.5156 C512.25,490.5156 512.5156,490.375 512.6875,490.1563 C512.7969,490 512.8281,489.8125 512.8281,489.3906 L512.8281,487.9688 C512.8281,487.5313 512.8125,487.4063 512.7188,487.25 C512.5625,486.9844 512.2813,486.8438 511.9844,486.8438 C511.6875,486.8438 511.4844,486.9375 511.2656,487.25 L511.0938,487.1719 Z " fill="#000000"/><text fill="#000000" font-family="sans-serif" font-size="14" lengthAdjust="spacing" textLength="186" x="523.25" y="496.3467">ProposeCombinationView</text><line style="stroke:#181818;stroke-width:0.5;" x1="492.5" x2="713.5" y1="507.5" y2="507.5"/><rect fill="none" height="6" style="stroke:#C82930;stroke-width:1.0;" width="6" x="499.5" y="518.1484"/><text fill="#000000" font-family="sans-serif" font-size="14" lengthAdjust="spacing" textLength="156" x="511.5" y="524.4951">combinationValidator</text><line style="stroke:#181818;stroke-width:0.5;" x1="492.5" x2="713.5" y1="531.7969" y2="531.7969"/><ellipse cx="502.5" cy="545.4453" fill="#84BE84" rx="3" ry="3" style="stroke:#038048;stroke-width:1.0;"/><text fill="#000000" font-family="sans-serif" font-size="14" lengthAdjust="spacing" textLength="197" x="511.5" y="548.792">proposeCombinationView()</text><text fill="#000000" font-family="sans-serif" font-size="14" lengthAdjust="spacing" textLength="182" x="511.5" y="565.0889">showCombinationErrors()</text></g><!--MD5=[e370ee5c0c15ce04544d5f5a73174d72]
class SecretCombination--><g id="elem_SecretCombination"><rect fill="#F1F1F1" height="96.8906" id="SecretCombination" rx="2.5" ry="2.5" style="stroke:#181818;stroke-width:0.5;" width="202" x="7" y="196.5"/><ellipse cx="35.05" cy="212.5" fill="#ADD1B2" rx="11" ry="11" style="stroke:#181818;stroke-width:1.0;"/><path d="M37.3938,208.1719 C36.4563,207.7344 35.8625,207.5938 34.9875,207.5938 C32.3625,207.5938 30.3625,209.6719 30.3625,212.3906 L30.3625,213.5156 C30.3625,216.0938 32.4719,217.9844 35.3625,217.9844 C36.5813,217.9844 37.7375,217.6875 38.4875,217.1406 C39.0656,216.7344 39.3938,216.2813 39.3938,215.8906 C39.3938,215.4375 39.0031,215.0469 38.5344,215.0469 C38.3156,215.0469 38.1125,215.125 37.925,215.3125 C37.4719,215.7969 37.4719,215.7969 37.2844,215.8906 C36.8625,216.1563 36.175,216.2813 35.4094,216.2813 C33.3625,216.2813 32.0656,215.1875 32.0656,213.4844 L32.0656,212.3906 C32.0656,210.6094 33.3156,209.2969 35.05,209.2969 C35.6281,209.2969 36.2375,209.4531 36.7063,209.7031 C37.1906,209.9844 37.3625,210.2031 37.4563,210.6094 C37.5188,211.0156 37.55,211.1406 37.6906,211.2656 C37.8313,211.4063 38.0656,211.5156 38.2844,211.5156 C38.55,211.5156 38.8156,211.375 38.9875,211.1563 C39.0969,211 39.1281,210.8125 39.1281,210.3906 L39.1281,208.9688 C39.1281,208.5313 39.1125,208.4063 39.0188,208.25 C38.8625,207.9844 38.5813,207.8438 38.2844,207.8438 C37.9875,207.8438 37.7844,207.9375 37.5656,208.25 L37.3938,208.1719 Z " fill="#000000"/><text fill="#000000" font-family="sans-serif" font-size="14" lengthAdjust="spacing" textLength="141" x="51.95" y="217.3467">SecretCombination</text><line style="stroke:#181818;stroke-width:0.5;" x1="8" x2="208" y1="228.5" y2="228.5"/><rect fill="none" height="6" style="stroke:#C82930;stroke-width:1.0;" width="6" x="15" y="239.1484"/><text fill="#000000" font-family="sans-serif" font-size="14" lengthAdjust="spacing" textLength="139" x="27" y="245.4951">secretCombination</text><line style="stroke:#181818;stroke-width:0.5;" x1="8" x2="208" y1="252.7969" y2="252.7969"/><ellipse cx="18" cy="266.4453" fill="#84BE84" rx="3" ry="3" style="stroke:#038048;stroke-width:1.0;"/><text fill="#000000" font-family="sans-serif" font-size="14" lengthAdjust="spacing" textLength="176" x="27" y="269.792">getSecretCombination()</text><ellipse cx="18" cy="282.7422" fill="#84BE84" rx="3" ry="3" style="stroke:#038048;stroke-width:1.0;"/><text fill="#000000" font-family="sans-serif" font-size="14" lengthAdjust="spacing" textLength="162" x="27" y="286.0889">isSecretCombination()</text></g><!--MD5=[830c7bd9c6aed4aed565e6adbed5db93]
link Mastermind to GameView--><g id="link_Mastermind_GameView"><path codeLine="1" d="M500.0005,65.3848 C500.0005,65.3848 534.004,122.148 552.346,152.767 " fill="none" id="Mastermind-GameView" style="stroke:#181818;stroke-width:1.0;"/><polygon fill="#181818" points="559.047,163.952,557.8535,154.1757,556.4776,159.6627,550.9906,158.2868,559.047,163.952" style="stroke:#181818;stroke-width:1.0;"/><line style="stroke:#181818;stroke-width:1.0;" x1="556.4776" x2="552.366" y1="159.6627" y2="152.8"/><polygon fill="none" points="493.833,55.091,493.4855,62.2937,500.0005,65.3848,500.348,58.182,493.833,55.091" style="stroke:#181818;stroke-width:1.0;"/></g><!--MD5=[213c4a734ac0e7e97a7308e8138ed0fa]
link Mastermind to Game--><g id="link_Mastermind_Game"><path codeLine="2" d="M460.145,65.4065 C460.145,65.4065 445.578,89.917 437.538,103.443 " fill="none" id="Mastermind-Game" style="stroke:#181818;stroke-width:1.0;"/><polygon fill="#181818" points="430.681,114.981,438.7183,109.2888,433.236,110.6831,431.8417,105.2008,430.681,114.981" style="stroke:#181818;stroke-width:1.0;"/><line style="stroke:#181818;stroke-width:1.0;" x1="433.236" x2="437.323" y1="110.6831" y2="103.806"/><polygon fill="#181818" points="466.276,55.091,459.772,58.2051,460.145,65.4065,466.649,62.2924,466.276,55.091" style="stroke:#181818;stroke-width:1.0;"/></g><!--MD5=[2868424877c9568bf88c5121f1ae6218]
link Game to GameView--><g id="link_Game_GameView"><path codeLine="3" d="M476.193,245 C476.193,245 483.321,245 486.296,245 " fill="none" id="Game-GameView" style="stroke:#181818;stroke-width:1.0;"/><polygon fill="#181818" points="499.337,245,490.337,241,494.337,245,490.337,249,499.337,245" style="stroke:#181818;stroke-width:1.0;"/><line style="stroke:#181818;stroke-width:1.0;" x1="494.337" x2="486.337" y1="245" y2="245"/><polygon fill="none" points="464.193,245,470.193,249,476.193,245,470.193,241,464.193,245" style="stroke:#181818;stroke-width:1.0;"/></g><!--MD5=[286ee51fbf1d084702a37e6924157f64]
link Game to ValidateCombination--><g id="link_Game_ValidateCombination"><path codeLine="4" d="M357.0578,387.1712 C357.0578,387.1712 357.57,410.838 357.806,421.695 " fill="none" id="Game-ValidateCombination" style="stroke:#181818;stroke-width:1.0;"/><polygon fill="#181818" points="358.089,434.755,361.8932,425.6705,357.9808,429.7562,353.8951,425.8437,358.089,434.755" style="stroke:#181818;stroke-width:1.0;"/><line style="stroke:#181818;stroke-width:1.0;" x1="357.9808" x2="357.807" y1="429.7562" y2="421.7585"/><polygon fill="none" points="356.798,375.174,352.9288,381.2592,357.0578,387.1712,360.927,381.086,356.798,375.174" style="stroke:#181818;stroke-width:1.0;"/></g><!--MD5=[3c8ff7ba9eb6413d1a3c1c3b730e2881]
link GameView to ProposeCombinationView--><g id="link_GameView_ProposeCombinationView"><path codeLine="5" d="M605.843,326.12 C605.176,372.301 604.356,429.081 603.769,469.778 " fill="none" id="GameView-to-ProposeCombinationView" style="stroke:#181818;stroke-width:1.0;stroke-dasharray:7.0,7.0;"/><polygon fill="#181818" points="603.691,475.16,607.8217,466.2192,603.7638,470.1605,599.8226,466.1027,603.691,475.16" style="stroke:#181818;stroke-width:1.0;"/></g><!--MD5=[af97763b9fa8f75784e40997cdb750ab]
link SecretCombination to Game--><g id="link_SecretCombination_Game"><path codeLine="6" d="M222.571,245 C225.229,245 231.839,245 231.839,245 " fill="none" id="SecretCombination-Game" style="stroke:#181818;stroke-width:1.0;"/><polygon fill="#181818" points="243.839,245,237.839,241,231.839,245,237.839,249,243.839,245" style="stroke:#181818;stroke-width:1.0;"/><polygon fill="#181818" points="209.379,245,218.379,249,214.379,245,218.379,241,209.379,245" style="stroke:#181818;stroke-width:1.0;"/><line style="stroke:#181818;stroke-width:1.0;" x1="214.379" x2="222.379" y1="245" y2="245"/></g><!--MD5=[8c559873c84d5ed0a50f63add32f4fa7]
link ValidateCombination to ProposeCombinationView--><g id="link_ValidateCombination_ProposeCombinationView"><path codeLine="7" d="M465.023,524 C465.023,524 474.084,524 478.018,524 " fill="none" id="ValidateCombination-ProposeCombinationView" style="stroke:#181818;stroke-width:1.0;"/><polygon fill="#181818" points="491.396,524,482.396,520,486.396,524,482.396,528,491.396,524" style="stroke:#181818;stroke-width:1.0;"/><line style="stroke:#181818;stroke-width:1.0;" x1="486.396" x2="478.396" y1="524" y2="523.9999"/><polygon fill="none" points="453.023,524,459.023,528,465.023,524,459.023,520,453.023,524" style="stroke:#181818;stroke-width:1.0;"/></g><!--MD5=[5a9901f980ed4067b0c7ee0fc0757104]
@startuml
Mastermind o- -> GameView
Mastermind *- -> Game
Game o-> GameView
Game o- -> ValidateCombination
GameView ..> ProposeCombinationView
SecretCombination <-* Game
ValidateCombination o-> ProposeCombinationView

GameView : -game
GameView : +play()
GameView : +showBoard()
GameView : +askProposalCombination()
GameView : +showResult()
GameView : +checkCombinationErrors()
GameView : +playAgainView()

Game : -SECRET_COMBINATION
Game : -MAX_COMBINATION
Game : -VALID_COLORS
Game : +Array board
Game : getSecretCombination()
Game : +getValidColors()
Game : +getMaxColors()
Game : +getBoard()
Game : +getBlacks()
Game : +getWhites()
Game : +setProposedCombination()
Game : +playAgain()
Game : +getResult()

ValidateCombination : -MAX_COMBINATION
ValidateCombination : -VALID_COLORS
ValidateCombination : +proposeQuestion
ValidateCombination : +errors
ValidateCombination : +validateCombination()
ValidateCombination : +isValidLength()
ValidateCombination : +isValidColors()
ValidateCombination : +isRepeatedColor()

ProposeCombinationView : -combinationValidator
ProposeCombinationView : +proposeCombinationView()
ProposeCombinationView : showCombinationErrors()

SecretCombination : -secretCombination
SecretCombination : +getSecretCombination()
SecretCombination : +isSecretCombination()
@enduml

PlantUML version 1.2022.10beta1(Unknown compile time)
(GPL source distribution)
Java Runtime: Java(TM) SE Runtime Environment
JVM: Java HotSpot(TM) 64-Bit Server VM
Default Encoding: UTF-8
Language: en
Country: US
--></g></svg>