<?xml version="1.0" encoding="UTF-8" standalone="no"?><svg xmlns="http://www.w3.org/2000/svg" xmlns:xlink="http://www.w3.org/1999/xlink" contentStyleType="text/css" height="315px" preserveAspectRatio="none" style="width:725px;height:315px;background:#FFFFFF;" version="1.1" viewBox="0 0 725 315" width="725px" zoomAndPan="magnify"><defs/><g><rect height="26.2969" id="_title" style="stroke:#00000000;stroke-width:1.0;fill:none;" width="707" x="5" y="5"/><text fill="#000000" font-family="sans-serif" font-size="14" font-weight="bold" lengthAdjust="spacing" textLength="697" x="10" y="22.9951">Diagrama Relación: software, hardware, firmware, dataware, middleware, peopleware</text><!--MD5=[ec93e680e5c079a1bb6337ff2b922fa4]
class Software--><g id="elem_Software"><rect codeLine="3" fill="#F1F1F1" height="48" id="Software" rx="2.5" ry="2.5" style="stroke:#181818;stroke-width:0.5;" width="97" x="309.25" y="152.2969"/><ellipse cx="324.25" cy="168.2969" fill="#ADD1B2" rx="11" ry="11" style="stroke:#181818;stroke-width:1.0;"/><path d="M326.5938,163.9688 C325.6563,163.5313 325.0625,163.3906 324.1875,163.3906 C321.5625,163.3906 319.5625,165.4688 319.5625,168.1875 L319.5625,169.3125 C319.5625,171.8906 321.6719,173.7813 324.5625,173.7813 C325.7813,173.7813 326.9375,173.4844 327.6875,172.9375 C328.2656,172.5313 328.5938,172.0781 328.5938,171.6875 C328.5938,171.2344 328.2031,170.8438 327.7344,170.8438 C327.5156,170.8438 327.3125,170.9219 327.125,171.1094 C326.6719,171.5938 326.6719,171.5938 326.4844,171.6875 C326.0625,171.9531 325.375,172.0781 324.6094,172.0781 C322.5625,172.0781 321.2656,170.9844 321.2656,169.2813 L321.2656,168.1875 C321.2656,166.4063 322.5156,165.0938 324.25,165.0938 C324.8281,165.0938 325.4375,165.25 325.9063,165.5 C326.3906,165.7813 326.5625,166 326.6563,166.4063 C326.7188,166.8125 326.75,166.9375 326.8906,167.0625 C327.0313,167.2031 327.2656,167.3125 327.4844,167.3125 C327.75,167.3125 328.0156,167.1719 328.1875,166.9531 C328.2969,166.7969 328.3281,166.6094 328.3281,166.1875 L328.3281,164.7656 C328.3281,164.3281 328.3125,164.2031 328.2188,164.0469 C328.0625,163.7813 327.7813,163.6406 327.4844,163.6406 C327.1875,163.6406 326.9844,163.7344 326.7656,164.0469 L326.5938,163.9688 Z " fill="#000000"/><text fill="#000000" font-family="sans-serif" font-size="14" lengthAdjust="spacing" textLength="65" x="338.25" y="173.1436">Software</text><line style="stroke:#181818;stroke-width:0.5;" x1="310.25" x2="405.25" y1="184.2969" y2="184.2969"/><line style="stroke:#181818;stroke-width:0.5;" x1="310.25" x2="405.25" y1="192.2969" y2="192.2969"/></g><!--MD5=[2d22c547bfe7267814a0b6e9c8ad476f]
class Hardware--><g id="elem_Hardware"><rect codeLine="4" fill="#F1F1F1" height="48" id="Hardware" rx="2.5" ry="2.5" style="stroke:#181818;stroke-width:0.5;" width="99" x="441.25" y="152.2969"/><ellipse cx="456.25" cy="168.2969" fill="#ADD1B2" rx="11" ry="11" style="stroke:#181818;stroke-width:1.0;"/><path d="M458.5938,163.9688 C457.6563,163.5313 457.0625,163.3906 456.1875,163.3906 C453.5625,163.3906 451.5625,165.4688 451.5625,168.1875 L451.5625,169.3125 C451.5625,171.8906 453.6719,173.7813 456.5625,173.7813 C457.7813,173.7813 458.9375,173.4844 459.6875,172.9375 C460.2656,172.5313 460.5938,172.0781 460.5938,171.6875 C460.5938,171.2344 460.2031,170.8438 459.7344,170.8438 C459.5156,170.8438 459.3125,170.9219 459.125,171.1094 C458.6719,171.5938 458.6719,171.5938 458.4844,171.6875 C458.0625,171.9531 457.375,172.0781 456.6094,172.0781 C454.5625,172.0781 453.2656,170.9844 453.2656,169.2813 L453.2656,168.1875 C453.2656,166.4063 454.5156,165.0938 456.25,165.0938 C456.8281,165.0938 457.4375,165.25 457.9063,165.5 C458.3906,165.7813 458.5625,166 458.6563,166.4063 C458.7188,166.8125 458.75,166.9375 458.8906,167.0625 C459.0313,167.2031 459.2656,167.3125 459.4844,167.3125 C459.75,167.3125 460.0156,167.1719 460.1875,166.9531 C460.2969,166.7969 460.3281,166.6094 460.3281,166.1875 L460.3281,164.7656 C460.3281,164.3281 460.3125,164.2031 460.2188,164.0469 C460.0625,163.7813 459.7813,163.6406 459.4844,163.6406 C459.1875,163.6406 458.9844,163.7344 458.7656,164.0469 L458.5938,163.9688 Z " fill="#000000"/><text fill="#000000" font-family="sans-serif" font-size="14" lengthAdjust="spacing" textLength="67" x="470.25" y="173.1436">Hardware</text><line style="stroke:#181818;stroke-width:0.5;" x1="442.25" x2="539.25" y1="184.2969" y2="184.2969"/><line style="stroke:#181818;stroke-width:0.5;" x1="442.25" x2="539.25" y1="192.2969" y2="192.2969"/></g><!--MD5=[931ec41c47d2faaeac20fbe4d4246be7]
class Firmware--><g id="elem_Firmware"><rect codeLine="5" fill="#F1F1F1" height="48" id="Firmware" rx="2.5" ry="2.5" style="stroke:#181818;stroke-width:0.5;" width="98" x="174.75" y="260.2969"/><ellipse cx="189.75" cy="276.2969" fill="#ADD1B2" rx="11" ry="11" style="stroke:#181818;stroke-width:1.0;"/><path d="M192.0938,271.9688 C191.1563,271.5313 190.5625,271.3906 189.6875,271.3906 C187.0625,271.3906 185.0625,273.4688 185.0625,276.1875 L185.0625,277.3125 C185.0625,279.8906 187.1719,281.7813 190.0625,281.7813 C191.2813,281.7813 192.4375,281.4844 193.1875,280.9375 C193.7656,280.5313 194.0938,280.0781 194.0938,279.6875 C194.0938,279.2344 193.7031,278.8438 193.2344,278.8438 C193.0156,278.8438 192.8125,278.9219 192.625,279.1094 C192.1719,279.5938 192.1719,279.5938 191.9844,279.6875 C191.5625,279.9531 190.875,280.0781 190.1094,280.0781 C188.0625,280.0781 186.7656,278.9844 186.7656,277.2813 L186.7656,276.1875 C186.7656,274.4063 188.0156,273.0938 189.75,273.0938 C190.3281,273.0938 190.9375,273.25 191.4063,273.5 C191.8906,273.7813 192.0625,274 192.1563,274.4063 C192.2188,274.8125 192.25,274.9375 192.3906,275.0625 C192.5313,275.2031 192.7656,275.3125 192.9844,275.3125 C193.25,275.3125 193.5156,275.1719 193.6875,274.9531 C193.7969,274.7969 193.8281,274.6094 193.8281,274.1875 L193.8281,272.7656 C193.8281,272.3281 193.8125,272.2031 193.7188,272.0469 C193.5625,271.7813 193.2813,271.6406 192.9844,271.6406 C192.6875,271.6406 192.4844,271.7344 192.2656,272.0469 L192.0938,271.9688 Z " fill="#000000"/><text fill="#000000" font-family="sans-serif" font-size="14" lengthAdjust="spacing" textLength="66" x="203.75" y="281.1436">Firmware</text><line style="stroke:#181818;stroke-width:0.5;" x1="175.75" x2="271.75" y1="292.2969" y2="292.2969"/><line style="stroke:#181818;stroke-width:0.5;" x1="175.75" x2="271.75" y1="300.2969" y2="300.2969"/></g><!--MD5=[1d843b2552fd168e9bee2cad87455b0e]
class Dataware--><g id="elem_Dataware"><rect codeLine="6" fill="#F1F1F1" height="48" id="Dataware" rx="2.5" ry="2.5" style="stroke:#181818;stroke-width:0.5;" width="100" x="307.75" y="260.2969"/><ellipse cx="322.75" cy="276.2969" fill="#ADD1B2" rx="11" ry="11" style="stroke:#181818;stroke-width:1.0;"/><path d="M325.0938,271.9688 C324.1563,271.5313 323.5625,271.3906 322.6875,271.3906 C320.0625,271.3906 318.0625,273.4688 318.0625,276.1875 L318.0625,277.3125 C318.0625,279.8906 320.1719,281.7813 323.0625,281.7813 C324.2813,281.7813 325.4375,281.4844 326.1875,280.9375 C326.7656,280.5313 327.0938,280.0781 327.0938,279.6875 C327.0938,279.2344 326.7031,278.8438 326.2344,278.8438 C326.0156,278.8438 325.8125,278.9219 325.625,279.1094 C325.1719,279.5938 325.1719,279.5938 324.9844,279.6875 C324.5625,279.9531 323.875,280.0781 323.1094,280.0781 C321.0625,280.0781 319.7656,278.9844 319.7656,277.2813 L319.7656,276.1875 C319.7656,274.4063 321.0156,273.0938 322.75,273.0938 C323.3281,273.0938 323.9375,273.25 324.4063,273.5 C324.8906,273.7813 325.0625,274 325.1563,274.4063 C325.2188,274.8125 325.25,274.9375 325.3906,275.0625 C325.5313,275.2031 325.7656,275.3125 325.9844,275.3125 C326.25,275.3125 326.5156,275.1719 326.6875,274.9531 C326.7969,274.7969 326.8281,274.6094 326.8281,274.1875 L326.8281,272.7656 C326.8281,272.3281 326.8125,272.2031 326.7188,272.0469 C326.5625,271.7813 326.2813,271.6406 325.9844,271.6406 C325.6875,271.6406 325.4844,271.7344 325.2656,272.0469 L325.0938,271.9688 Z " fill="#000000"/><text fill="#000000" font-family="sans-serif" font-size="14" lengthAdjust="spacing" textLength="68" x="336.75" y="281.1436">Dataware</text><line style="stroke:#181818;stroke-width:0.5;" x1="308.75" x2="406.75" y1="292.2969" y2="292.2969"/><line style="stroke:#181818;stroke-width:0.5;" x1="308.75" x2="406.75" y1="300.2969" y2="300.2969"/></g><!--MD5=[e7164125e6631aa5fad182c6654e22fe]
class Middleware--><g id="elem_Middleware"><rect codeLine="7" fill="#F1F1F1" height="48" id="Middleware" rx="2.5" ry="2.5" style="stroke:#181818;stroke-width:0.5;" width="113" x="443.25" y="260.2969"/><ellipse cx="458.25" cy="276.2969" fill="#ADD1B2" rx="11" ry="11" style="stroke:#181818;stroke-width:1.0;"/><path d="M460.5938,271.9688 C459.6563,271.5313 459.0625,271.3906 458.1875,271.3906 C455.5625,271.3906 453.5625,273.4688 453.5625,276.1875 L453.5625,277.3125 C453.5625,279.8906 455.6719,281.7813 458.5625,281.7813 C459.7813,281.7813 460.9375,281.4844 461.6875,280.9375 C462.2656,280.5313 462.5938,280.0781 462.5938,279.6875 C462.5938,279.2344 462.2031,278.8438 461.7344,278.8438 C461.5156,278.8438 461.3125,278.9219 461.125,279.1094 C460.6719,279.5938 460.6719,279.5938 460.4844,279.6875 C460.0625,279.9531 459.375,280.0781 458.6094,280.0781 C456.5625,280.0781 455.2656,278.9844 455.2656,277.2813 L455.2656,276.1875 C455.2656,274.4063 456.5156,273.0938 458.25,273.0938 C458.8281,273.0938 459.4375,273.25 459.9063,273.5 C460.3906,273.7813 460.5625,274 460.6563,274.4063 C460.7188,274.8125 460.75,274.9375 460.8906,275.0625 C461.0313,275.2031 461.2656,275.3125 461.4844,275.3125 C461.75,275.3125 462.0156,275.1719 462.1875,274.9531 C462.2969,274.7969 462.3281,274.6094 462.3281,274.1875 L462.3281,272.7656 C462.3281,272.3281 462.3125,272.2031 462.2188,272.0469 C462.0625,271.7813 461.7813,271.6406 461.4844,271.6406 C461.1875,271.6406 460.9844,271.7344 460.7656,272.0469 L460.5938,271.9688 Z " fill="#000000"/><text fill="#000000" font-family="sans-serif" font-size="14" lengthAdjust="spacing" textLength="81" x="472.25" y="281.1436">Middleware</text><line style="stroke:#181818;stroke-width:0.5;" x1="444.25" x2="555.25" y1="292.2969" y2="292.2969"/><line style="stroke:#181818;stroke-width:0.5;" x1="444.25" x2="555.25" y1="300.2969" y2="300.2969"/></g><!--MD5=[aa59756dc79e8d85807db368a1c1c891]
class Peopleware--><g id="elem_Peopleware"><rect codeLine="8" fill="#F1F1F1" height="48" id="Peopleware" rx="2.5" ry="2.5" style="stroke:#181818;stroke-width:0.5;" width="116" x="365.75" y="44.2969"/><ellipse cx="380.75" cy="60.2969" fill="#ADD1B2" rx="11" ry="11" style="stroke:#181818;stroke-width:1.0;"/><path d="M383.0938,55.9688 C382.1563,55.5313 381.5625,55.3906 380.6875,55.3906 C378.0625,55.3906 376.0625,57.4688 376.0625,60.1875 L376.0625,61.3125 C376.0625,63.8906 378.1719,65.7813 381.0625,65.7813 C382.2813,65.7813 383.4375,65.4844 384.1875,64.9375 C384.7656,64.5313 385.0938,64.0781 385.0938,63.6875 C385.0938,63.2344 384.7031,62.8438 384.2344,62.8438 C384.0156,62.8438 383.8125,62.9219 383.625,63.1094 C383.1719,63.5938 383.1719,63.5938 382.9844,63.6875 C382.5625,63.9531 381.875,64.0781 381.1094,64.0781 C379.0625,64.0781 377.7656,62.9844 377.7656,61.2813 L377.7656,60.1875 C377.7656,58.4063 379.0156,57.0938 380.75,57.0938 C381.3281,57.0938 381.9375,57.25 382.4063,57.5 C382.8906,57.7813 383.0625,58 383.1563,58.4063 C383.2188,58.8125 383.25,58.9375 383.3906,59.0625 C383.5313,59.2031 383.7656,59.3125 383.9844,59.3125 C384.25,59.3125 384.5156,59.1719 384.6875,58.9531 C384.7969,58.7969 384.8281,58.6094 384.8281,58.1875 L384.8281,56.7656 C384.8281,56.3281 384.8125,56.2031 384.7188,56.0469 C384.5625,55.7813 384.2813,55.6406 383.9844,55.6406 C383.6875,55.6406 383.4844,55.7344 383.2656,56.0469 L383.0938,55.9688 Z " fill="#000000"/><text fill="#000000" font-family="sans-serif" font-size="14" lengthAdjust="spacing" textLength="84" x="394.75" y="65.1436">Peopleware</text><line style="stroke:#181818;stroke-width:0.5;" x1="366.75" x2="480.75" y1="76.2969" y2="76.2969"/><line style="stroke:#181818;stroke-width:0.5;" x1="366.75" x2="480.75" y1="84.2969" y2="84.2969"/></g><!--MD5=[502e0e3ebb22d99adb89ab134fe0540a]
link Peopleware to Hardware--><g id="link_Peopleware_Hardware"><path codeLine="10" d="M438.288,92.2969 C448.577,108.5759 462.425,130.4839 473.31,147.7049 " fill="none" id="Peopleware-to-Hardware" style="stroke:#181818;stroke-width:1.0;stroke-dasharray:7.0,7.0;"/><polygon fill="#181818" points="476.009,151.9749,474.5823,142.2299,473.3379,147.7482,467.8196,146.5037,476.009,151.9749" style="stroke:#181818;stroke-width:1.0;"/></g><!--MD5=[0fe7b224b1e921dec886add6161e7b02]
link Peopleware to Software--><g id="link_Peopleware_Software"><path codeLine="11" d="M409.429,92.2969 C399.293,108.5759 385.652,130.4839 374.93,147.7049 " fill="none" id="Peopleware-to-Software" style="stroke:#181818;stroke-width:1.0;stroke-dasharray:7.0,7.0;"/><polygon fill="#181818" points="372.271,151.9749,380.4238,146.4493,374.9139,147.7305,373.6328,142.2206,372.271,151.9749" style="stroke:#181818;stroke-width:1.0;"/></g><!--MD5=[2b13ed74858a11f927bb1703f71fe1fa]
link Software to Hardware--><g id="link_Software_Hardware"><path codeLine="12" d="M418.326,176.2969 C418.326,176.2969 425.147,176.2969 427.93,176.2969 " fill="none" id="Software-Hardware" style="stroke:#181818;stroke-width:1.0;"/><polygon fill="#181818" points="440.953,176.2969,431.953,172.2969,435.953,176.2969,431.953,180.2969,440.953,176.2969" style="stroke:#181818;stroke-width:1.0;"/><line style="stroke:#181818;stroke-width:1.0;" x1="435.953" x2="427.953" y1="176.2969" y2="176.2969"/><polygon fill="none" points="406.326,176.2969,412.326,180.2969,418.326,176.2969,412.326,172.2969,406.326,176.2969" style="stroke:#181818;stroke-width:1.0;"/></g><!--MD5=[13dace3781b7574165bcda69db470fa0]
reverse link Software to Dataware--><g id="link_Software_Dataware"><path codeLine="14" d="M357.75,220.3205 C357.75,233.8761 357.75,248.335 357.75,259.9753 " fill="none" id="Software-backto-Dataware" style="stroke:#181818;stroke-width:1.0;"/><polygon fill="none" points="350.75,220.2974,357.75,200.2969,364.75,220.2973,350.75,220.2974" style="stroke:#181818;stroke-width:1.0;"/></g><!--MD5=[0b59e370e98305ddc4985fcfe74d50e5]
reverse link Software to Middleware--><g id="link_Software_Middleware"><path codeLine="15" d="M404.862,212.4651 C425.79,228.087 449.851,246.0485 468.508,259.9753 " fill="none" id="Software-backto-Middleware" style="stroke:#181818;stroke-width:1.0;"/><polygon fill="none" points="400.402,217.8707,388.562,200.2969,408.776,206.6519,400.402,217.8707" style="stroke:#181818;stroke-width:1.0;"/></g><!--MD5=[749e4fd7ece572ca45fa82c747346b75]
reverse link Software to Firmware--><g id="link_Software_Firmware"><path codeLine="16" d="M312.702,212.9322 C293.092,228.4441 270.6624,246.1871 253.232,259.9753 " fill="none" id="Software-backto-Firmware" style="stroke:#181818;stroke-width:1.0;"/><polygon fill="none" points="308.645,207.2159,328.674,200.2969,317.331,218.1954,308.645,207.2159" style="stroke:#181818;stroke-width:1.0;"/></g><!--MD5=[fd91b30e35df5e1aef65326f49b40aa4]
@startuml
Title Diagrama Relación: software, hardware, firmware, dataware, middleware, peopleware

class Software
class Hardware
class Firmware
class Dataware
class Middleware
class Peopleware

Peopleware .down.> Hardware
Peopleware .down.> Software
Software o-right-> Hardware

Dataware -up-|> Software
Middleware -up-|> Software
Firmware -up-|> Software
@enduml

PlantUML version 1.2022.7beta2(Unknown compile time)
(GPL source distribution)
Java Runtime: Java(TM) SE Runtime Environment
JVM: Java HotSpot(TM) 64-Bit Server VM
Default Encoding: UTF-8
Language: en
Country: US
--></g></svg>