<?xml version="1.0" encoding="UTF-8" standalone="no"?><svg xmlns="http://www.w3.org/2000/svg" xmlns:xlink="http://www.w3.org/1999/xlink" contentStyleType="text/css" height="315px" preserveAspectRatio="none" style="width:725px;height:315px;background:#FFFFFF;" version="1.1" viewBox="0 0 725 315" width="725px" zoomAndPan="magnify"><defs/><g><rect height="26.2969" id="_title" style="stroke:#00000000;stroke-width:1.0;fill:none;" width="707" x="5" y="5"/><text fill="#000000" font-family="sans-serif" font-size="14" font-weight="bold" lengthAdjust="spacing" textLength="697" x="10" y="22.9951">Diagrama Relación: software, hardware, firmware, dataware, middleware, peopleware</text><!--MD5=[ec93e680e5c079a1bb6337ff2b922fa4]
class Software--><g id="elem_Software"><rect codeLine="3" fill="#F1F1F1" height="48" id="Software" rx="2.5" ry="2.5" style="stroke:#181818;stroke-width:0.5;" width="97" x="322" y="152.2969"/><ellipse cx="337" cy="168.2969" fill="#ADD1B2" rx="11" ry="11" style="stroke:#181818;stroke-width:1.0;"/><path d="M339.3438,163.9688 C338.4063,163.5313 337.8125,163.3906 336.9375,163.3906 C334.3125,163.3906 332.3125,165.4688 332.3125,168.1875 L332.3125,169.3125 C332.3125,171.8906 334.4219,173.7813 337.3125,173.7813 C338.5313,173.7813 339.6875,173.4844 340.4375,172.9375 C341.0156,172.5313 341.3438,172.0781 341.3438,171.6875 C341.3438,171.2344 340.9531,170.8438 340.4844,170.8438 C340.2656,170.8438 340.0625,170.9219 339.875,171.1094 C339.4219,171.5938 339.4219,171.5938 339.2344,171.6875 C338.8125,171.9531 338.125,172.0781 337.3594,172.0781 C335.3125,172.0781 334.0156,170.9844 334.0156,169.2813 L334.0156,168.1875 C334.0156,166.4063 335.2656,165.0938 337,165.0938 C337.5781,165.0938 338.1875,165.25 338.6563,165.5 C339.1406,165.7813 339.3125,166 339.4063,166.4063 C339.4688,166.8125 339.5,166.9375 339.6406,167.0625 C339.7813,167.2031 340.0156,167.3125 340.2344,167.3125 C340.5,167.3125 340.7656,167.1719 340.9375,166.9531 C341.0469,166.7969 341.0781,166.6094 341.0781,166.1875 L341.0781,164.7656 C341.0781,164.3281 341.0625,164.2031 340.9688,164.0469 C340.8125,163.7813 340.5313,163.6406 340.2344,163.6406 C339.9375,163.6406 339.7344,163.7344 339.5156,164.0469 L339.3438,163.9688 Z " fill="#000000"/><text fill="#000000" font-family="sans-serif" font-size="14" lengthAdjust="spacing" textLength="65" x="351" y="173.1436">Software</text><line style="stroke:#181818;stroke-width:0.5;" x1="323" x2="418" y1="184.2969" y2="184.2969"/><line style="stroke:#181818;stroke-width:0.5;" x1="323" x2="418" y1="192.2969" y2="192.2969"/></g><!--MD5=[2d22c547bfe7267814a0b6e9c8ad476f]
class Hardware--><g id="elem_Hardware"><rect codeLine="4" fill="#F1F1F1" height="48" id="Hardware" rx="2.5" ry="2.5" style="stroke:#181818;stroke-width:0.5;" width="99" x="454" y="152.2969"/><ellipse cx="469" cy="168.2969" fill="#ADD1B2" rx="11" ry="11" style="stroke:#181818;stroke-width:1.0;"/><path d="M471.3438,163.9688 C470.4063,163.5313 469.8125,163.3906 468.9375,163.3906 C466.3125,163.3906 464.3125,165.4688 464.3125,168.1875 L464.3125,169.3125 C464.3125,171.8906 466.4219,173.7813 469.3125,173.7813 C470.5313,173.7813 471.6875,173.4844 472.4375,172.9375 C473.0156,172.5313 473.3438,172.0781 473.3438,171.6875 C473.3438,171.2344 472.9531,170.8438 472.4844,170.8438 C472.2656,170.8438 472.0625,170.9219 471.875,171.1094 C471.4219,171.5938 471.4219,171.5938 471.2344,171.6875 C470.8125,171.9531 470.125,172.0781 469.3594,172.0781 C467.3125,172.0781 466.0156,170.9844 466.0156,169.2813 L466.0156,168.1875 C466.0156,166.4063 467.2656,165.0938 469,165.0938 C469.5781,165.0938 470.1875,165.25 470.6563,165.5 C471.1406,165.7813 471.3125,166 471.4063,166.4063 C471.4688,166.8125 471.5,166.9375 471.6406,167.0625 C471.7813,167.2031 472.0156,167.3125 472.2344,167.3125 C472.5,167.3125 472.7656,167.1719 472.9375,166.9531 C473.0469,166.7969 473.0781,166.6094 473.0781,166.1875 L473.0781,164.7656 C473.0781,164.3281 473.0625,164.2031 472.9688,164.0469 C472.8125,163.7813 472.5313,163.6406 472.2344,163.6406 C471.9375,163.6406 471.7344,163.7344 471.5156,164.0469 L471.3438,163.9688 Z " fill="#000000"/><text fill="#000000" font-family="sans-serif" font-size="14" lengthAdjust="spacing" textLength="67" x="483" y="173.1436">Hardware</text><line style="stroke:#181818;stroke-width:0.5;" x1="455" x2="552" y1="184.2969" y2="184.2969"/><line style="stroke:#181818;stroke-width:0.5;" x1="455" x2="552" y1="192.2969" y2="192.2969"/></g><!--MD5=[931ec41c47d2faaeac20fbe4d4246be7]
class Firmware--><g id="elem_Firmware"><rect codeLine="5" fill="#F1F1F1" height="48" id="Firmware" rx="2.5" ry="2.5" style="stroke:#181818;stroke-width:0.5;" width="98" x="458.5" y="260.2969"/><ellipse cx="473.5" cy="276.2969" fill="#ADD1B2" rx="11" ry="11" style="stroke:#181818;stroke-width:1.0;"/><path d="M475.8438,271.9688 C474.9063,271.5313 474.3125,271.3906 473.4375,271.3906 C470.8125,271.3906 468.8125,273.4688 468.8125,276.1875 L468.8125,277.3125 C468.8125,279.8906 470.9219,281.7813 473.8125,281.7813 C475.0313,281.7813 476.1875,281.4844 476.9375,280.9375 C477.5156,280.5313 477.8438,280.0781 477.8438,279.6875 C477.8438,279.2344 477.4531,278.8438 476.9844,278.8438 C476.7656,278.8438 476.5625,278.9219 476.375,279.1094 C475.9219,279.5938 475.9219,279.5938 475.7344,279.6875 C475.3125,279.9531 474.625,280.0781 473.8594,280.0781 C471.8125,280.0781 470.5156,278.9844 470.5156,277.2813 L470.5156,276.1875 C470.5156,274.4063 471.7656,273.0938 473.5,273.0938 C474.0781,273.0938 474.6875,273.25 475.1563,273.5 C475.6406,273.7813 475.8125,274 475.9063,274.4063 C475.9688,274.8125 476,274.9375 476.1406,275.0625 C476.2813,275.2031 476.5156,275.3125 476.7344,275.3125 C477,275.3125 477.2656,275.1719 477.4375,274.9531 C477.5469,274.7969 477.5781,274.6094 477.5781,274.1875 L477.5781,272.7656 C477.5781,272.3281 477.5625,272.2031 477.4688,272.0469 C477.3125,271.7813 477.0313,271.6406 476.7344,271.6406 C476.4375,271.6406 476.2344,271.7344 476.0156,272.0469 L475.8438,271.9688 Z " fill="#000000"/><text fill="#000000" font-family="sans-serif" font-size="14" lengthAdjust="spacing" textLength="66" x="487.5" y="281.1436">Firmware</text><line style="stroke:#181818;stroke-width:0.5;" x1="459.5" x2="555.5" y1="292.2969" y2="292.2969"/><line style="stroke:#181818;stroke-width:0.5;" x1="459.5" x2="555.5" y1="300.2969" y2="300.2969"/></g><!--MD5=[1d843b2552fd168e9bee2cad87455b0e]
class Dataware--><g id="elem_Dataware"><rect codeLine="6" fill="#F1F1F1" height="48" id="Dataware" rx="2.5" ry="2.5" style="stroke:#181818;stroke-width:0.5;" width="100" x="174.5" y="260.2969"/><ellipse cx="189.5" cy="276.2969" fill="#ADD1B2" rx="11" ry="11" style="stroke:#181818;stroke-width:1.0;"/><path d="M191.8438,271.9688 C190.9063,271.5313 190.3125,271.3906 189.4375,271.3906 C186.8125,271.3906 184.8125,273.4688 184.8125,276.1875 L184.8125,277.3125 C184.8125,279.8906 186.9219,281.7813 189.8125,281.7813 C191.0313,281.7813 192.1875,281.4844 192.9375,280.9375 C193.5156,280.5313 193.8438,280.0781 193.8438,279.6875 C193.8438,279.2344 193.4531,278.8438 192.9844,278.8438 C192.7656,278.8438 192.5625,278.9219 192.375,279.1094 C191.9219,279.5938 191.9219,279.5938 191.7344,279.6875 C191.3125,279.9531 190.625,280.0781 189.8594,280.0781 C187.8125,280.0781 186.5156,278.9844 186.5156,277.2813 L186.5156,276.1875 C186.5156,274.4063 187.7656,273.0938 189.5,273.0938 C190.0781,273.0938 190.6875,273.25 191.1563,273.5 C191.6406,273.7813 191.8125,274 191.9063,274.4063 C191.9688,274.8125 192,274.9375 192.1406,275.0625 C192.2813,275.2031 192.5156,275.3125 192.7344,275.3125 C193,275.3125 193.2656,275.1719 193.4375,274.9531 C193.5469,274.7969 193.5781,274.6094 193.5781,274.1875 L193.5781,272.7656 C193.5781,272.3281 193.5625,272.2031 193.4688,272.0469 C193.3125,271.7813 193.0313,271.6406 192.7344,271.6406 C192.4375,271.6406 192.2344,271.7344 192.0156,272.0469 L191.8438,271.9688 Z " fill="#000000"/><text fill="#000000" font-family="sans-serif" font-size="14" lengthAdjust="spacing" textLength="68" x="203.5" y="281.1436">Dataware</text><line style="stroke:#181818;stroke-width:0.5;" x1="175.5" x2="273.5" y1="292.2969" y2="292.2969"/><line style="stroke:#181818;stroke-width:0.5;" x1="175.5" x2="273.5" y1="300.2969" y2="300.2969"/></g><!--MD5=[e7164125e6631aa5fad182c6654e22fe]
class Middleware--><g id="elem_Middleware"><rect codeLine="7" fill="#F1F1F1" height="48" id="Middleware" rx="2.5" ry="2.5" style="stroke:#181818;stroke-width:0.5;" width="113" x="310" y="260.2969"/><ellipse cx="325" cy="276.2969" fill="#ADD1B2" rx="11" ry="11" style="stroke:#181818;stroke-width:1.0;"/><path d="M327.3438,271.9688 C326.4063,271.5313 325.8125,271.3906 324.9375,271.3906 C322.3125,271.3906 320.3125,273.4688 320.3125,276.1875 L320.3125,277.3125 C320.3125,279.8906 322.4219,281.7813 325.3125,281.7813 C326.5313,281.7813 327.6875,281.4844 328.4375,280.9375 C329.0156,280.5313 329.3438,280.0781 329.3438,279.6875 C329.3438,279.2344 328.9531,278.8438 328.4844,278.8438 C328.2656,278.8438 328.0625,278.9219 327.875,279.1094 C327.4219,279.5938 327.4219,279.5938 327.2344,279.6875 C326.8125,279.9531 326.125,280.0781 325.3594,280.0781 C323.3125,280.0781 322.0156,278.9844 322.0156,277.2813 L322.0156,276.1875 C322.0156,274.4063 323.2656,273.0938 325,273.0938 C325.5781,273.0938 326.1875,273.25 326.6563,273.5 C327.1406,273.7813 327.3125,274 327.4063,274.4063 C327.4688,274.8125 327.5,274.9375 327.6406,275.0625 C327.7813,275.2031 328.0156,275.3125 328.2344,275.3125 C328.5,275.3125 328.7656,275.1719 328.9375,274.9531 C329.0469,274.7969 329.0781,274.6094 329.0781,274.1875 L329.0781,272.7656 C329.0781,272.3281 329.0625,272.2031 328.9688,272.0469 C328.8125,271.7813 328.5313,271.6406 328.2344,271.6406 C327.9375,271.6406 327.7344,271.7344 327.5156,272.0469 L327.3438,271.9688 Z " fill="#000000"/><text fill="#000000" font-family="sans-serif" font-size="14" lengthAdjust="spacing" textLength="81" x="339" y="281.1436">Middleware</text><line style="stroke:#181818;stroke-width:0.5;" x1="311" x2="422" y1="292.2969" y2="292.2969"/><line style="stroke:#181818;stroke-width:0.5;" x1="311" x2="422" y1="300.2969" y2="300.2969"/></g><!--MD5=[aa59756dc79e8d85807db368a1c1c891]
class Peopleware--><g id="elem_Peopleware"><rect codeLine="8" fill="#F1F1F1" height="48" id="Peopleware" rx="2.5" ry="2.5" style="stroke:#181818;stroke-width:0.5;" width="116" x="378.5" y="44.2969"/><ellipse cx="393.5" cy="60.2969" fill="#ADD1B2" rx="11" ry="11" style="stroke:#181818;stroke-width:1.0;"/><path d="M395.8438,55.9688 C394.9063,55.5313 394.3125,55.3906 393.4375,55.3906 C390.8125,55.3906 388.8125,57.4688 388.8125,60.1875 L388.8125,61.3125 C388.8125,63.8906 390.9219,65.7813 393.8125,65.7813 C395.0313,65.7813 396.1875,65.4844 396.9375,64.9375 C397.5156,64.5313 397.8438,64.0781 397.8438,63.6875 C397.8438,63.2344 397.4531,62.8438 396.9844,62.8438 C396.7656,62.8438 396.5625,62.9219 396.375,63.1094 C395.9219,63.5938 395.9219,63.5938 395.7344,63.6875 C395.3125,63.9531 394.625,64.0781 393.8594,64.0781 C391.8125,64.0781 390.5156,62.9844 390.5156,61.2813 L390.5156,60.1875 C390.5156,58.4063 391.7656,57.0938 393.5,57.0938 C394.0781,57.0938 394.6875,57.25 395.1563,57.5 C395.6406,57.7813 395.8125,58 395.9063,58.4063 C395.9688,58.8125 396,58.9375 396.1406,59.0625 C396.2813,59.2031 396.5156,59.3125 396.7344,59.3125 C397,59.3125 397.2656,59.1719 397.4375,58.9531 C397.5469,58.7969 397.5781,58.6094 397.5781,58.1875 L397.5781,56.7656 C397.5781,56.3281 397.5625,56.2031 397.4688,56.0469 C397.3125,55.7813 397.0313,55.6406 396.7344,55.6406 C396.4375,55.6406 396.2344,55.7344 396.0156,56.0469 L395.8438,55.9688 Z " fill="#000000"/><text fill="#000000" font-family="sans-serif" font-size="14" lengthAdjust="spacing" textLength="84" x="407.5" y="65.1436">Peopleware</text><line style="stroke:#181818;stroke-width:0.5;" x1="379.5" x2="493.5" y1="76.2969" y2="76.2969"/><line style="stroke:#181818;stroke-width:0.5;" x1="379.5" x2="493.5" y1="84.2969" y2="84.2969"/></g><!--MD5=[502e0e3ebb22d99adb89ab134fe0540a]
link Peopleware to Hardware--><g id="link_Peopleware_Hardware"><path codeLine="10" d="M451.038,92.2969 C461.327,108.5759 475.175,130.4839 486.06,147.7049 " fill="none" id="Peopleware-to-Hardware" style="stroke:#181818;stroke-width:1.0;"/><polygon fill="#181818" points="488.759,151.9749,487.3323,142.2299,486.0879,147.7482,480.5696,146.5037,488.759,151.9749" style="stroke:#181818;stroke-width:1.0;"/></g><!--MD5=[0fe7b224b1e921dec886add6161e7b02]
link Peopleware to Software--><g id="link_Peopleware_Software"><path codeLine="11" d="M422.179,92.2969 C412.043,108.5759 398.402,130.4839 387.68,147.7049 " fill="none" id="Peopleware-to-Software" style="stroke:#181818;stroke-width:1.0;"/><polygon fill="#181818" points="385.021,151.9749,393.1738,146.4493,387.6639,147.7305,386.3828,142.2206,385.021,151.9749" style="stroke:#181818;stroke-width:1.0;"/></g><!--MD5=[2b13ed74858a11f927bb1703f71fe1fa]
link Software to Hardware--><g id="link_Software_Hardware"><path codeLine="12" d="M431.076,176.2969 C431.076,176.2969 437.897,176.2969 440.68,176.2969 " fill="none" id="Software-Hardware" style="stroke:#181818;stroke-width:1.0;"/><polygon fill="#181818" points="453.703,176.2969,444.703,172.2969,448.703,176.2969,444.703,180.2969,453.703,176.2969" style="stroke:#181818;stroke-width:1.0;"/><line style="stroke:#181818;stroke-width:1.0;" x1="448.703" x2="440.703" y1="176.2969" y2="176.2969"/><polygon fill="none" points="419.076,176.2969,425.076,180.2969,431.076,176.2969,425.076,172.2969,419.076,176.2969" style="stroke:#181818;stroke-width:1.0;"/></g><!--MD5=[13dace3781b7574165bcda69db470fa0]
reverse link Software to Dataware--><g id="link_Software_Dataware"><path codeLine="14" d="M322.322,212.2755 C300.65,228.0101 275.664,246.1501 256.3698,260.1586 " fill="none" id="Software-backto-Dataware" style="stroke:#181818;stroke-width:1.0;"/><polygon fill="none" points="318.523,206.3829,338.82,200.2969,326.748,217.7121,318.523,206.3829" style="stroke:#181818;stroke-width:1.0;"/></g><!--MD5=[0b59e370e98305ddc4985fcfe74d50e5]
reverse link Software to Middleware--><g id="link_Software_Middleware"><path codeLine="15" d="M368.876,220.3205 C368.365,233.8761 367.819,248.335 367.38,259.9753 " fill="none" id="Software-backto-Middleware" style="stroke:#181818;stroke-width:1.0;"/><polygon fill="none" points="361.883,220.0191,369.632,200.2969,375.873,220.5471,361.883,220.0191" style="stroke:#181818;stroke-width:1.0;"/></g><!--MD5=[749e4fd7ece572ca45fa82c747346b75]
reverse link Software to Firmware--><g id="link_Software_Firmware"><path codeLine="16" d="M416.255,212.6985 C436.375,228.2657 459.448,246.1178 477.358,259.9753 " fill="none" id="Software-backto-Firmware" style="stroke:#181818;stroke-width:1.0;"/><polygon fill="none" points="411.761,218.0725,400.227,200.2969,420.329,206.9999,411.761,218.0725" style="stroke:#181818;stroke-width:1.0;"/></g><!--MD5=[44dc56f4a54f05573522a579a9d0b05a]
reverse link Hardware to Firmware--><g id="link_Hardware_Firmware"><path codeLine="18" d="M504.562,205.4279 C505.204,222.4507 506.013,243.9006 506.62,259.9753 " fill="none" id="Hardware-backto-Firmware" style="stroke:#181818;stroke-width:1.0;"/><polygon fill="#181818" points="504.368,200.2969,500.7103,209.4413,504.5566,205.2933,508.7046,209.1396,504.368,200.2969" style="stroke:#181818;stroke-width:1.0;"/></g><!--MD5=[cab2a74e793d0e575e738d8108d8f592]
@startuml
Title Diagrama Relación: software, hardware, firmware, dataware, middleware, peopleware

class Software
class Hardware
class Firmware
class Dataware
class Middleware
class Peopleware

Peopleware -down-> Hardware
Peopleware -down-> Software
Software o-right-> Hardware

Dataware -up-|> Software
Middleware -up-|> Software
Firmware -up-|> Software

Firmware -up-> Hardware
@enduml

PlantUML version 1.2022.7beta2(Unknown compile time)
(GPL source distribution)
Java Runtime: Java(TM) SE Runtime Environment
JVM: Java HotSpot(TM) 64-Bit Server VM
Default Encoding: UTF-8
Language: en
Country: US
--></g></svg>