<?xml version="1.0" encoding="UTF-8" standalone="no"?><svg xmlns="http://www.w3.org/2000/svg" xmlns:xlink="http://www.w3.org/1999/xlink" contentStyleType="text/css" height="855px" preserveAspectRatio="none" style="width:189px;height:855px;background:#FFFFFF;" version="1.1" viewBox="0 0 189 855" width="189px" zoomAndPan="magnify"><defs/><g><rect height="26.2969" id="_title" style="stroke:#00000000;stroke-width:1.0;fill:none;" width="117" x="34.75" y="15"/><text fill="#000000" font-family="sans-serif" font-size="14" font-weight="bold" lengthAdjust="spacing" textLength="107" x="39.75" y="32.9951">Master MPDS</text><ellipse cx="83.5" cy="57.2969" fill="#222222" rx="10" ry="10" style="stroke:#222222;stroke-width:1.0;"/><rect fill="#F1F1F1" height="33.9688" rx="12.5" ry="12.5" style="stroke:#181818;stroke-width:0.5;" width="93" x="37" y="87.2969"/><text fill="#000000" font-family="sans-serif" font-size="12" lengthAdjust="spacing" textLength="73" x="47" y="108.4355">Exposition 1</text><rect fill="#F1F1F1" height="33.9688" rx="12.5" ry="12.5" style="stroke:#181818;stroke-width:0.5;" width="103" x="32" y="141.2656"/><text fill="#000000" font-family="sans-serif" font-size="12" lengthAdjust="spacing" textLength="83" x="42" y="162.4043">Exposition 1.a</text><rect fill="#F1F1F1" height="33.9688" rx="12.5" ry="12.5" style="stroke:#181818;stroke-width:0.5;" width="104" x="31.5" y="195.2344"/><text fill="#000000" font-family="sans-serif" font-size="12" lengthAdjust="spacing" textLength="84" x="41.5" y="216.373">Exposition 1.b</text><rect fill="#F1F1F1" height="33.9688" rx="12.5" ry="12.5" style="stroke:#181818;stroke-width:0.5;" width="58" x="54.5" y="249.2031"/><text fill="#000000" font-family="sans-serif" font-size="12" lengthAdjust="spacing" textLength="38" x="64.5" y="270.3418">n &lt;- 2</text><rect fill="#F1F1F1" height="33.9688" rx="12.5" ry="12.5" style="stroke:#181818;stroke-width:0.5;" width="136" x="15.5" y="347.1719"/><text fill="#000000" font-family="sans-serif" font-size="12" lengthAdjust="spacing" textLength="116" x="25.5" y="368.3105">Evaluation Project n</text><rect fill="#F1F1F1" height="33.9688" rx="12.5" ry="12.5" style="stroke:#181818;stroke-width:0.5;" width="120" x="23.5" y="401.1406"/><text fill="#000000" font-family="sans-serif" font-size="12" lengthAdjust="spacing" textLength="100" x="33.5" y="422.2793">Exposition n+1.a</text><rect fill="#F1F1F1" height="33.9688" rx="12.5" ry="12.5" style="stroke:#181818;stroke-width:0.5;" width="121" x="23" y="455.1094"/><text fill="#000000" font-family="sans-serif" font-size="12" lengthAdjust="spacing" textLength="101" x="33" y="476.248">Evaluation Test n</text><rect fill="#F1F1F1" height="33.9688" rx="12.5" ry="12.5" style="stroke:#181818;stroke-width:0.5;" width="121" x="23" y="509.0781"/><text fill="#000000" font-family="sans-serif" font-size="12" lengthAdjust="spacing" textLength="101" x="33" y="530.2168">Exposition n+1.b</text><rect fill="#F1F1F1" height="33.9688" rx="12.5" ry="12.5" style="stroke:#181818;stroke-width:0.5;" width="82" x="42.5" y="563.0469"/><text fill="#000000" font-family="sans-serif" font-size="12" lengthAdjust="spacing" textLength="62" x="52.5" y="584.1855">n &lt;- n + 1</text><polygon fill="#F1F1F1" points="83.5,303.1719,95.5,315.1719,83.5,327.1719,71.5,315.1719,83.5,303.1719" style="stroke:#181818;stroke-width:0.5;"/><polygon fill="#F1F1F1" points="83.5,617.0156,83.5,617.0156,95.5,629.0156,83.5,641.0156,83.5,641.0156,71.5,629.0156,83.5,617.0156" style="stroke:#181818;stroke-width:0.5;"/><text fill="#000000" font-family="sans-serif" font-size="11" lengthAdjust="spacing" textLength="38" x="95.5" y="626.4214">n &lt; 52</text><rect fill="#F1F1F1" height="33.9688" rx="12.5" ry="12.5" style="stroke:#181818;stroke-width:0.5;" width="145" x="11" y="661.0156"/><text fill="#000000" font-family="sans-serif" font-size="12" lengthAdjust="spacing" textLength="125" x="21" y="682.1543">Evaluation Project 52</text><rect fill="#F1F1F1" height="33.9688" rx="12.5" ry="12.5" style="stroke:#181818;stroke-width:0.5;" width="130" x="18.5" y="714.9844"/><text fill="#000000" font-family="sans-serif" font-size="12" lengthAdjust="spacing" textLength="110" x="28.5" y="736.123">Evaluation Test 52</text><rect fill="#F1F1F1" height="33.9688" rx="12.5" ry="12.5" style="stroke:#181818;stroke-width:0.5;" width="127" x="20" y="768.9531"/><text fill="#000000" font-family="sans-serif" font-size="12" lengthAdjust="spacing" textLength="107" x="30" y="790.0918">Certification Exam</text><ellipse cx="83.5" cy="833.9219" rx="11" ry="11" style="stroke:#222222;stroke-width:1.0;fill:none;"/><ellipse cx="83.5" cy="833.9219" fill="#222222" rx="6" ry="6" style="stroke:#111111;stroke-width:1.0;"/><line style="stroke:#181818;stroke-width:1.0;" x1="83.5" x2="83.5" y1="67.2969" y2="87.2969"/><polygon fill="#181818" points="79.5,77.2969,83.5,87.2969,87.5,77.2969,83.5,81.2969" style="stroke:#181818;stroke-width:1.0;"/><line style="stroke:#181818;stroke-width:1.0;" x1="83.5" x2="83.5" y1="121.2656" y2="141.2656"/><polygon fill="#181818" points="79.5,131.2656,83.5,141.2656,87.5,131.2656,83.5,135.2656" style="stroke:#181818;stroke-width:1.0;"/><line style="stroke:#181818;stroke-width:1.0;" x1="83.5" x2="83.5" y1="175.2344" y2="195.2344"/><polygon fill="#181818" points="79.5,185.2344,83.5,195.2344,87.5,185.2344,83.5,189.2344" style="stroke:#181818;stroke-width:1.0;"/><line style="stroke:#181818;stroke-width:1.0;" x1="83.5" x2="83.5" y1="229.2031" y2="249.2031"/><polygon fill="#181818" points="79.5,239.2031,83.5,249.2031,87.5,239.2031,83.5,243.2031" style="stroke:#181818;stroke-width:1.0;"/><line style="stroke:#181818;stroke-width:1.0;" x1="83.5" x2="83.5" y1="381.1406" y2="401.1406"/><polygon fill="#181818" points="79.5,391.1406,83.5,401.1406,87.5,391.1406,83.5,395.1406" style="stroke:#181818;stroke-width:1.0;"/><line style="stroke:#181818;stroke-width:1.0;" x1="83.5" x2="83.5" y1="435.1094" y2="455.1094"/><polygon fill="#181818" points="79.5,445.1094,83.5,455.1094,87.5,445.1094,83.5,449.1094" style="stroke:#181818;stroke-width:1.0;"/><line style="stroke:#181818;stroke-width:1.0;" x1="83.5" x2="83.5" y1="489.0781" y2="509.0781"/><polygon fill="#181818" points="79.5,499.0781,83.5,509.0781,87.5,499.0781,83.5,503.0781" style="stroke:#181818;stroke-width:1.0;"/><line style="stroke:#181818;stroke-width:1.0;" x1="83.5" x2="83.5" y1="543.0469" y2="563.0469"/><polygon fill="#181818" points="79.5,553.0469,83.5,563.0469,87.5,553.0469,83.5,557.0469" style="stroke:#181818;stroke-width:1.0;"/><line style="stroke:#181818;stroke-width:1.0;" x1="83.5" x2="83.5" y1="327.1719" y2="347.1719"/><polygon fill="#181818" points="79.5,337.1719,83.5,347.1719,87.5,337.1719,83.5,341.1719" style="stroke:#181818;stroke-width:1.0;"/><line style="stroke:#181818;stroke-width:1.0;" x1="95.5" x2="163.5" y1="629.0156" y2="629.0156"/><polygon fill="#181818" points="159.5,482.0938,163.5,472.0938,167.5,482.0938,163.5,478.0938" style="stroke:#181818;stroke-width:1.0;"/><line style="stroke:#181818;stroke-width:1.0;" x1="163.5" x2="163.5" y1="315.1719" y2="629.0156"/><line style="stroke:#181818;stroke-width:1.0;" x1="163.5" x2="95.5" y1="315.1719" y2="315.1719"/><polygon fill="#181818" points="105.5,311.1719,95.5,315.1719,105.5,319.1719,101.5,315.1719" style="stroke:#181818;stroke-width:1.0;"/><line style="stroke:#181818;stroke-width:1.0;" x1="83.5" x2="83.5" y1="597.0156" y2="617.0156"/><polygon fill="#181818" points="79.5,607.0156,83.5,617.0156,87.5,607.0156,83.5,611.0156" style="stroke:#181818;stroke-width:1.0;"/><line style="stroke:#181818;stroke-width:1.0;" x1="83.5" x2="83.5" y1="283.1719" y2="303.1719"/><polygon fill="#181818" points="79.5,293.1719,83.5,303.1719,87.5,293.1719,83.5,297.1719" style="stroke:#181818;stroke-width:1.0;"/><line style="stroke:#181818;stroke-width:1.0;" x1="83.5" x2="83.5" y1="641.0156" y2="661.0156"/><polygon fill="#181818" points="79.5,651.0156,83.5,661.0156,87.5,651.0156,83.5,655.0156" style="stroke:#181818;stroke-width:1.0;"/><line style="stroke:#181818;stroke-width:1.0;" x1="83.5" x2="83.5" y1="694.9844" y2="714.9844"/><polygon fill="#181818" points="79.5,704.9844,83.5,714.9844,87.5,704.9844,83.5,708.9844" style="stroke:#181818;stroke-width:1.0;"/><line style="stroke:#181818;stroke-width:1.0;" x1="83.5" x2="83.5" y1="748.9531" y2="768.9531"/><polygon fill="#181818" points="79.5,758.9531,83.5,768.9531,87.5,758.9531,83.5,762.9531" style="stroke:#181818;stroke-width:1.0;"/><line style="stroke:#181818;stroke-width:1.0;" x1="83.5" x2="83.5" y1="802.9219" y2="822.9219"/><polygon fill="#181818" points="79.5,812.9219,83.5,822.9219,87.5,812.9219,83.5,816.9219" style="stroke:#181818;stroke-width:1.0;"/><!--MD5=[af390234146bddfb2532d2b2e1e97289]
@startuml
Title Master MPDS

start

  :Exposition 1;
  :Exposition 1.a;
  :Exposition 1.b;
  :n <- 2;
repeat
    :Evaluation Project n;
  :Exposition n+1.a;
    :Evaluation Test n;
  :Exposition n+1.b;
  :n <- n + 1;
repeat while () is (n < 52)
:Evaluation Project 52;
:Evaluation Test 52;
:Certification Exam;
stop
@enduml

PlantUML version 1.2022.7beta2(Unknown compile time)
(GPL source distribution)
Java Runtime: Java(TM) SE Runtime Environment
JVM: Java HotSpot(TM) 64-Bit Server VM
Default Encoding: UTF-8
Language: en
Country: US
--></g></svg>