<?xml version="1.0" encoding="UTF-8" standalone="no"?><svg xmlns="http://www.w3.org/2000/svg" xmlns:xlink="http://www.w3.org/1999/xlink" contentStyleType="text/css" height="683px" preserveAspectRatio="none" style="width:646px;height:683px;background:#FFFFFF;" version="1.1" viewBox="0 0 646 683" width="646px" zoomAndPan="magnify"><defs/><g><!--MD5=[d27eaf150e369198f69b6e9754f1a23b]
class Master--><g id="elem_Master"><rect codeLine="1" fill="#F1F1F1" height="48" id="Master" rx="2.5" ry="2.5" style="stroke:#181818;stroke-width:0.5;" width="81" x="280.5" y="7"/><ellipse cx="295.5" cy="23" fill="#ADD1B2" rx="11" ry="11" style="stroke:#181818;stroke-width:1.0;"/><path d="M297.8438,18.6719 C296.9063,18.2344 296.3125,18.0938 295.4375,18.0938 C292.8125,18.0938 290.8125,20.1719 290.8125,22.8906 L290.8125,24.0156 C290.8125,26.5938 292.9219,28.4844 295.8125,28.4844 C297.0313,28.4844 298.1875,28.1875 298.9375,27.6406 C299.5156,27.2344 299.8438,26.7813 299.8438,26.3906 C299.8438,25.9375 299.4531,25.5469 298.9844,25.5469 C298.7656,25.5469 298.5625,25.625 298.375,25.8125 C297.9219,26.2969 297.9219,26.2969 297.7344,26.3906 C297.3125,26.6563 296.625,26.7813 295.8594,26.7813 C293.8125,26.7813 292.5156,25.6875 292.5156,23.9844 L292.5156,22.8906 C292.5156,21.1094 293.7656,19.7969 295.5,19.7969 C296.0781,19.7969 296.6875,19.9531 297.1563,20.2031 C297.6406,20.4844 297.8125,20.7031 297.9063,21.1094 C297.9688,21.5156 298,21.6406 298.1406,21.7656 C298.2813,21.9063 298.5156,22.0156 298.7344,22.0156 C299,22.0156 299.2656,21.875 299.4375,21.6563 C299.5469,21.5 299.5781,21.3125 299.5781,20.8906 L299.5781,19.4688 C299.5781,19.0313 299.5625,18.9063 299.4688,18.75 C299.3125,18.4844 299.0313,18.3438 298.7344,18.3438 C298.4375,18.3438 298.2344,18.4375 298.0156,18.75 L297.8438,18.6719 Z " fill="#000000"/><text fill="#000000" font-family="sans-serif" font-size="14" lengthAdjust="spacing" textLength="49" x="309.5" y="27.8467">Master</text><line style="stroke:#181818;stroke-width:0.5;" x1="281.5" x2="360.5" y1="39" y2="39"/><line style="stroke:#181818;stroke-width:0.5;" x1="281.5" x2="360.5" y1="47" y2="47"/></g><!--MD5=[61a83f88cb8b7d3a80bc8c481f3736bf]
class Teacher--><g id="elem_Teacher"><rect codeLine="2" fill="#F1F1F1" height="48" id="Teacher" rx="2.5" ry="2.5" style="stroke:#181818;stroke-width:0.5;" width="90" x="178" y="115"/><ellipse cx="193" cy="131" fill="#ADD1B2" rx="11" ry="11" style="stroke:#181818;stroke-width:1.0;"/><path d="M195.3438,126.6719 C194.4063,126.2344 193.8125,126.0938 192.9375,126.0938 C190.3125,126.0938 188.3125,128.1719 188.3125,130.8906 L188.3125,132.0156 C188.3125,134.5938 190.4219,136.4844 193.3125,136.4844 C194.5313,136.4844 195.6875,136.1875 196.4375,135.6406 C197.0156,135.2344 197.3438,134.7813 197.3438,134.3906 C197.3438,133.9375 196.9531,133.5469 196.4844,133.5469 C196.2656,133.5469 196.0625,133.625 195.875,133.8125 C195.4219,134.2969 195.4219,134.2969 195.2344,134.3906 C194.8125,134.6563 194.125,134.7813 193.3594,134.7813 C191.3125,134.7813 190.0156,133.6875 190.0156,131.9844 L190.0156,130.8906 C190.0156,129.1094 191.2656,127.7969 193,127.7969 C193.5781,127.7969 194.1875,127.9531 194.6563,128.2031 C195.1406,128.4844 195.3125,128.7031 195.4063,129.1094 C195.4688,129.5156 195.5,129.6406 195.6406,129.7656 C195.7813,129.9063 196.0156,130.0156 196.2344,130.0156 C196.5,130.0156 196.7656,129.875 196.9375,129.6563 C197.0469,129.5 197.0781,129.3125 197.0781,128.8906 L197.0781,127.4688 C197.0781,127.0313 197.0625,126.9063 196.9688,126.75 C196.8125,126.4844 196.5313,126.3438 196.2344,126.3438 C195.9375,126.3438 195.7344,126.4375 195.5156,126.75 L195.3438,126.6719 Z " fill="#000000"/><text fill="#000000" font-family="sans-serif" font-size="14" lengthAdjust="spacing" textLength="58" x="207" y="135.8467">Teacher</text><line style="stroke:#181818;stroke-width:0.5;" x1="179" x2="267" y1="147" y2="147"/><line style="stroke:#181818;stroke-width:0.5;" x1="179" x2="267" y1="155" y2="155"/></g><!--MD5=[3289ee44a4e951c2e2dc35c6cb1e3301]
class Pupil--><g id="elem_Pupil"><rect codeLine="3" fill="#F1F1F1" height="48" id="Pupil" rx="2.5" ry="2.5" style="stroke:#181818;stroke-width:0.5;" width="67" x="413.5" y="115"/><ellipse cx="428.5" cy="131" fill="#ADD1B2" rx="11" ry="11" style="stroke:#181818;stroke-width:1.0;"/><path d="M430.8438,126.6719 C429.9063,126.2344 429.3125,126.0938 428.4375,126.0938 C425.8125,126.0938 423.8125,128.1719 423.8125,130.8906 L423.8125,132.0156 C423.8125,134.5938 425.9219,136.4844 428.8125,136.4844 C430.0313,136.4844 431.1875,136.1875 431.9375,135.6406 C432.5156,135.2344 432.8438,134.7813 432.8438,134.3906 C432.8438,133.9375 432.4531,133.5469 431.9844,133.5469 C431.7656,133.5469 431.5625,133.625 431.375,133.8125 C430.9219,134.2969 430.9219,134.2969 430.7344,134.3906 C430.3125,134.6563 429.625,134.7813 428.8594,134.7813 C426.8125,134.7813 425.5156,133.6875 425.5156,131.9844 L425.5156,130.8906 C425.5156,129.1094 426.7656,127.7969 428.5,127.7969 C429.0781,127.7969 429.6875,127.9531 430.1563,128.2031 C430.6406,128.4844 430.8125,128.7031 430.9063,129.1094 C430.9688,129.5156 431,129.6406 431.1406,129.7656 C431.2813,129.9063 431.5156,130.0156 431.7344,130.0156 C432,130.0156 432.2656,129.875 432.4375,129.6563 C432.5469,129.5 432.5781,129.3125 432.5781,128.8906 L432.5781,127.4688 C432.5781,127.0313 432.5625,126.9063 432.4688,126.75 C432.3125,126.4844 432.0313,126.3438 431.7344,126.3438 C431.4375,126.3438 431.2344,126.4375 431.0156,126.75 L430.8438,126.6719 Z " fill="#000000"/><text fill="#000000" font-family="sans-serif" font-size="14" lengthAdjust="spacing" textLength="35" x="442.5" y="135.8467">Pupil</text><line style="stroke:#181818;stroke-width:0.5;" x1="414.5" x2="479.5" y1="147" y2="147"/><line style="stroke:#181818;stroke-width:0.5;" x1="414.5" x2="479.5" y1="155" y2="155"/></g><!--MD5=[54736e807c59b9b647b6e830d606a429]
class Rol--><g id="elem_Rol"><rect codeLine="4" fill="#F1F1F1" height="48" id="Rol" rx="2.5" ry="2.5" style="stroke:#181818;stroke-width:0.5;" width="55" x="497.5" y="223"/><ellipse cx="512.5" cy="239" fill="#ADD1B2" rx="11" ry="11" style="stroke:#181818;stroke-width:1.0;"/><path d="M514.8438,234.6719 C513.9063,234.2344 513.3125,234.0938 512.4375,234.0938 C509.8125,234.0938 507.8125,236.1719 507.8125,238.8906 L507.8125,240.0156 C507.8125,242.5938 509.9219,244.4844 512.8125,244.4844 C514.0313,244.4844 515.1875,244.1875 515.9375,243.6406 C516.5156,243.2344 516.8438,242.7813 516.8438,242.3906 C516.8438,241.9375 516.4531,241.5469 515.9844,241.5469 C515.7656,241.5469 515.5625,241.625 515.375,241.8125 C514.9219,242.2969 514.9219,242.2969 514.7344,242.3906 C514.3125,242.6563 513.625,242.7813 512.8594,242.7813 C510.8125,242.7813 509.5156,241.6875 509.5156,239.9844 L509.5156,238.8906 C509.5156,237.1094 510.7656,235.7969 512.5,235.7969 C513.0781,235.7969 513.6875,235.9531 514.1563,236.2031 C514.6406,236.4844 514.8125,236.7031 514.9063,237.1094 C514.9688,237.5156 515,237.6406 515.1406,237.7656 C515.2813,237.9063 515.5156,238.0156 515.7344,238.0156 C516,238.0156 516.2656,237.875 516.4375,237.6563 C516.5469,237.5 516.5781,237.3125 516.5781,236.8906 L516.5781,235.4688 C516.5781,235.0313 516.5625,234.9063 516.4688,234.75 C516.3125,234.4844 516.0313,234.3438 515.7344,234.3438 C515.4375,234.3438 515.2344,234.4375 515.0156,234.75 L514.8438,234.6719 Z " fill="#000000"/><text fill="#000000" font-family="sans-serif" font-size="14" lengthAdjust="spacing" textLength="23" x="526.5" y="243.8467">Rol</text><line style="stroke:#181818;stroke-width:0.5;" x1="498.5" x2="551.5" y1="255" y2="255"/><line style="stroke:#181818;stroke-width:0.5;" x1="498.5" x2="551.5" y1="263" y2="263"/></g><!--MD5=[e6942bb3dc3af6df69a4b204b94b9e0a]
class Viewer--><g id="elem_Viewer"><rect codeLine="5" fill="#F1F1F1" height="48" id="Viewer" rx="2.5" ry="2.5" style="stroke:#181818;stroke-width:0.5;" width="81" x="504.5" y="371.5"/><ellipse cx="519.5" cy="387.5" fill="#ADD1B2" rx="11" ry="11" style="stroke:#181818;stroke-width:1.0;"/><path d="M521.8438,383.1719 C520.9063,382.7344 520.3125,382.5938 519.4375,382.5938 C516.8125,382.5938 514.8125,384.6719 514.8125,387.3906 L514.8125,388.5156 C514.8125,391.0938 516.9219,392.9844 519.8125,392.9844 C521.0313,392.9844 522.1875,392.6875 522.9375,392.1406 C523.5156,391.7344 523.8438,391.2813 523.8438,390.8906 C523.8438,390.4375 523.4531,390.0469 522.9844,390.0469 C522.7656,390.0469 522.5625,390.125 522.375,390.3125 C521.9219,390.7969 521.9219,390.7969 521.7344,390.8906 C521.3125,391.1563 520.625,391.2813 519.8594,391.2813 C517.8125,391.2813 516.5156,390.1875 516.5156,388.4844 L516.5156,387.3906 C516.5156,385.6094 517.7656,384.2969 519.5,384.2969 C520.0781,384.2969 520.6875,384.4531 521.1563,384.7031 C521.6406,384.9844 521.8125,385.2031 521.9063,385.6094 C521.9688,386.0156 522,386.1406 522.1406,386.2656 C522.2813,386.4063 522.5156,386.5156 522.7344,386.5156 C523,386.5156 523.2656,386.375 523.4375,386.1563 C523.5469,386 523.5781,385.8125 523.5781,385.3906 L523.5781,383.9688 C523.5781,383.5313 523.5625,383.4063 523.4688,383.25 C523.3125,382.9844 523.0313,382.8438 522.7344,382.8438 C522.4375,382.8438 522.2344,382.9375 522.0156,383.25 L521.8438,383.1719 Z " fill="#000000"/><text fill="#000000" font-family="sans-serif" font-size="14" lengthAdjust="spacing" textLength="49" x="533.5" y="392.3467">Viewer</text><line style="stroke:#181818;stroke-width:0.5;" x1="505.5" x2="584.5" y1="403.5" y2="403.5"/><line style="stroke:#181818;stroke-width:0.5;" x1="505.5" x2="584.5" y1="411.5" y2="411.5"/></g><!--MD5=[ea7ac637f77dfbde8fafc7f280baed61]
class Active--><g id="elem_Active"><rect codeLine="6" fill="#F1F1F1" height="48" id="Active" rx="2.5" ry="2.5" style="stroke:#181818;stroke-width:0.5;" width="78" x="165" y="520"/><ellipse cx="180" cy="536" fill="#ADD1B2" rx="11" ry="11" style="stroke:#181818;stroke-width:1.0;"/><path d="M182.3438,531.6719 C181.4063,531.2344 180.8125,531.0938 179.9375,531.0938 C177.3125,531.0938 175.3125,533.1719 175.3125,535.8906 L175.3125,537.0156 C175.3125,539.5938 177.4219,541.4844 180.3125,541.4844 C181.5313,541.4844 182.6875,541.1875 183.4375,540.6406 C184.0156,540.2344 184.3438,539.7813 184.3438,539.3906 C184.3438,538.9375 183.9531,538.5469 183.4844,538.5469 C183.2656,538.5469 183.0625,538.625 182.875,538.8125 C182.4219,539.2969 182.4219,539.2969 182.2344,539.3906 C181.8125,539.6563 181.125,539.7813 180.3594,539.7813 C178.3125,539.7813 177.0156,538.6875 177.0156,536.9844 L177.0156,535.8906 C177.0156,534.1094 178.2656,532.7969 180,532.7969 C180.5781,532.7969 181.1875,532.9531 181.6563,533.2031 C182.1406,533.4844 182.3125,533.7031 182.4063,534.1094 C182.4688,534.5156 182.5,534.6406 182.6406,534.7656 C182.7813,534.9063 183.0156,535.0156 183.2344,535.0156 C183.5,535.0156 183.7656,534.875 183.9375,534.6563 C184.0469,534.5 184.0781,534.3125 184.0781,533.8906 L184.0781,532.4688 C184.0781,532.0313 184.0625,531.9063 183.9688,531.75 C183.8125,531.4844 183.5313,531.3438 183.2344,531.3438 C182.9375,531.3438 182.7344,531.4375 182.5156,531.75 L182.3438,531.6719 Z " fill="#000000"/><text fill="#000000" font-family="sans-serif" font-size="14" lengthAdjust="spacing" textLength="46" x="194" y="540.8467">Active</text><line style="stroke:#181818;stroke-width:0.5;" x1="166" x2="242" y1="552" y2="552"/><line style="stroke:#181818;stroke-width:0.5;" x1="166" x2="242" y1="560" y2="560"/></g><!--MD5=[a9c0c0397da58aedb3ea3629c02b0a69]
class Critic--><g id="elem_Critic"><rect codeLine="7" fill="#F1F1F1" height="48" id="Critic" rx="2.5" ry="2.5" style="stroke:#181818;stroke-width:0.5;" width="71" x="115.5" y="628"/><ellipse cx="130.5" cy="644" fill="#ADD1B2" rx="11" ry="11" style="stroke:#181818;stroke-width:1.0;"/><path d="M132.8438,639.6719 C131.9063,639.2344 131.3125,639.0938 130.4375,639.0938 C127.8125,639.0938 125.8125,641.1719 125.8125,643.8906 L125.8125,645.0156 C125.8125,647.5938 127.9219,649.4844 130.8125,649.4844 C132.0313,649.4844 133.1875,649.1875 133.9375,648.6406 C134.5156,648.2344 134.8438,647.7813 134.8438,647.3906 C134.8438,646.9375 134.4531,646.5469 133.9844,646.5469 C133.7656,646.5469 133.5625,646.625 133.375,646.8125 C132.9219,647.2969 132.9219,647.2969 132.7344,647.3906 C132.3125,647.6563 131.625,647.7813 130.8594,647.7813 C128.8125,647.7813 127.5156,646.6875 127.5156,644.9844 L127.5156,643.8906 C127.5156,642.1094 128.7656,640.7969 130.5,640.7969 C131.0781,640.7969 131.6875,640.9531 132.1563,641.2031 C132.6406,641.4844 132.8125,641.7031 132.9063,642.1094 C132.9688,642.5156 133,642.6406 133.1406,642.7656 C133.2813,642.9063 133.5156,643.0156 133.7344,643.0156 C134,643.0156 134.2656,642.875 134.4375,642.6563 C134.5469,642.5 134.5781,642.3125 134.5781,641.8906 L134.5781,640.4688 C134.5781,640.0313 134.5625,639.9063 134.4688,639.75 C134.3125,639.4844 134.0313,639.3438 133.7344,639.3438 C133.4375,639.3438 133.2344,639.4375 133.0156,639.75 L132.8438,639.6719 Z " fill="#000000"/><text fill="#000000" font-family="sans-serif" font-size="14" lengthAdjust="spacing" textLength="39" x="144.5" y="648.8467">Critic</text><line style="stroke:#181818;stroke-width:0.5;" x1="116.5" x2="185.5" y1="660" y2="660"/><line style="stroke:#181818;stroke-width:0.5;" x1="116.5" x2="185.5" y1="668" y2="668"/></g><!--MD5=[8ae2c2db09eb731972ab511bcae12bf3]
class Artist--><g id="elem_Artist"><rect codeLine="8" fill="#F1F1F1" height="48" id="Artist" rx="2.5" ry="2.5" style="stroke:#181818;stroke-width:0.5;" width="73" x="221.5" y="628"/><ellipse cx="236.5" cy="644" fill="#ADD1B2" rx="11" ry="11" style="stroke:#181818;stroke-width:1.0;"/><path d="M238.8438,639.6719 C237.9063,639.2344 237.3125,639.0938 236.4375,639.0938 C233.8125,639.0938 231.8125,641.1719 231.8125,643.8906 L231.8125,645.0156 C231.8125,647.5938 233.9219,649.4844 236.8125,649.4844 C238.0313,649.4844 239.1875,649.1875 239.9375,648.6406 C240.5156,648.2344 240.8438,647.7813 240.8438,647.3906 C240.8438,646.9375 240.4531,646.5469 239.9844,646.5469 C239.7656,646.5469 239.5625,646.625 239.375,646.8125 C238.9219,647.2969 238.9219,647.2969 238.7344,647.3906 C238.3125,647.6563 237.625,647.7813 236.8594,647.7813 C234.8125,647.7813 233.5156,646.6875 233.5156,644.9844 L233.5156,643.8906 C233.5156,642.1094 234.7656,640.7969 236.5,640.7969 C237.0781,640.7969 237.6875,640.9531 238.1563,641.2031 C238.6406,641.4844 238.8125,641.7031 238.9063,642.1094 C238.9688,642.5156 239,642.6406 239.1406,642.7656 C239.2813,642.9063 239.5156,643.0156 239.7344,643.0156 C240,643.0156 240.2656,642.875 240.4375,642.6563 C240.5469,642.5 240.5781,642.3125 240.5781,641.8906 L240.5781,640.4688 C240.5781,640.0313 240.5625,639.9063 240.4688,639.75 C240.3125,639.4844 240.0313,639.3438 239.7344,639.3438 C239.4375,639.3438 239.2344,639.4375 239.0156,639.75 L238.8438,639.6719 Z " fill="#000000"/><text fill="#000000" font-family="sans-serif" font-size="14" lengthAdjust="spacing" textLength="41" x="250.5" y="648.8467">Artist</text><line style="stroke:#181818;stroke-width:0.5;" x1="222.5" x2="293.5" y1="660" y2="660"/><line style="stroke:#181818;stroke-width:0.5;" x1="222.5" x2="293.5" y1="668" y2="668"/></g><!--MD5=[63a373d2559db13dd8cc7d36e037ebb1]
class Unit--><g id="elem_Unit"><rect codeLine="9" fill="#F1F1F1" height="48" id="Unit" rx="2.5" ry="2.5" style="stroke:#181818;stroke-width:0.5;" width="61" x="192.5" y="223"/><ellipse cx="207.5" cy="239" fill="#ADD1B2" rx="11" ry="11" style="stroke:#181818;stroke-width:1.0;"/><path d="M209.8438,234.6719 C208.9063,234.2344 208.3125,234.0938 207.4375,234.0938 C204.8125,234.0938 202.8125,236.1719 202.8125,238.8906 L202.8125,240.0156 C202.8125,242.5938 204.9219,244.4844 207.8125,244.4844 C209.0313,244.4844 210.1875,244.1875 210.9375,243.6406 C211.5156,243.2344 211.8438,242.7813 211.8438,242.3906 C211.8438,241.9375 211.4531,241.5469 210.9844,241.5469 C210.7656,241.5469 210.5625,241.625 210.375,241.8125 C209.9219,242.2969 209.9219,242.2969 209.7344,242.3906 C209.3125,242.6563 208.625,242.7813 207.8594,242.7813 C205.8125,242.7813 204.5156,241.6875 204.5156,239.9844 L204.5156,238.8906 C204.5156,237.1094 205.7656,235.7969 207.5,235.7969 C208.0781,235.7969 208.6875,235.9531 209.1563,236.2031 C209.6406,236.4844 209.8125,236.7031 209.9063,237.1094 C209.9688,237.5156 210,237.6406 210.1406,237.7656 C210.2813,237.9063 210.5156,238.0156 210.7344,238.0156 C211,238.0156 211.2656,237.875 211.4375,237.6563 C211.5469,237.5 211.5781,237.3125 211.5781,236.8906 L211.5781,235.4688 C211.5781,235.0313 211.5625,234.9063 211.4688,234.75 C211.3125,234.4844 211.0313,234.3438 210.7344,234.3438 C210.4375,234.3438 210.2344,234.4375 210.0156,234.75 L209.8438,234.6719 Z " fill="#000000"/><text fill="#000000" font-family="sans-serif" font-size="14" lengthAdjust="spacing" textLength="29" x="221.5" y="243.8467">Unit</text><line style="stroke:#181818;stroke-width:0.5;" x1="193.5" x2="252.5" y1="255" y2="255"/><line style="stroke:#181818;stroke-width:0.5;" x1="193.5" x2="252.5" y1="263" y2="263"/></g><!--MD5=[c8c630b497b544a37ef1db7a93b733c3]
class Exposition--><g id="elem_Exposition"><rect codeLine="10" fill="#F1F1F1" height="64.2969" id="Exposition" rx="2.5" ry="2.5" style="stroke:#181818;stroke-width:0.5;" width="172" x="297" y="363.5"/><ellipse cx="340.8" cy="379.5" fill="#ADD1B2" rx="11" ry="11" style="stroke:#181818;stroke-width:1.0;"/><path d="M343.1438,375.1719 C342.2063,374.7344 341.6125,374.5938 340.7375,374.5938 C338.1125,374.5938 336.1125,376.6719 336.1125,379.3906 L336.1125,380.5156 C336.1125,383.0938 338.2219,384.9844 341.1125,384.9844 C342.3313,384.9844 343.4875,384.6875 344.2375,384.1406 C344.8156,383.7344 345.1438,383.2813 345.1438,382.8906 C345.1438,382.4375 344.7531,382.0469 344.2844,382.0469 C344.0656,382.0469 343.8625,382.125 343.675,382.3125 C343.2219,382.7969 343.2219,382.7969 343.0344,382.8906 C342.6125,383.1563 341.925,383.2813 341.1594,383.2813 C339.1125,383.2813 337.8156,382.1875 337.8156,380.4844 L337.8156,379.3906 C337.8156,377.6094 339.0656,376.2969 340.8,376.2969 C341.3781,376.2969 341.9875,376.4531 342.4563,376.7031 C342.9406,376.9844 343.1125,377.2031 343.2063,377.6094 C343.2688,378.0156 343.3,378.1406 343.4406,378.2656 C343.5813,378.4063 343.8156,378.5156 344.0344,378.5156 C344.3,378.5156 344.5656,378.375 344.7375,378.1563 C344.8469,378 344.8781,377.8125 344.8781,377.3906 L344.8781,375.9688 C344.8781,375.5313 344.8625,375.4063 344.7688,375.25 C344.6125,374.9844 344.3313,374.8438 344.0344,374.8438 C343.7375,374.8438 343.5344,374.9375 343.3156,375.25 L343.1438,375.1719 Z " fill="#000000"/><text fill="#000000" font-family="sans-serif" font-size="14" lengthAdjust="spacing" textLength="76" x="361.2" y="384.3467">Exposition</text><line style="stroke:#181818;stroke-width:0.5;" x1="298" x2="468" y1="395.5" y2="395.5"/><text fill="#000000" font-family="sans-serif" font-size="14" lengthAdjust="spacing" textLength="160" x="303" y="412.4951">DAY = Monday | Friday</text><line style="stroke:#181818;stroke-width:0.5;" x1="298" x2="468" y1="419.7969" y2="419.7969"/></g><!--MD5=[79d378210367c0c6ec62ef762ddfbd1b]
class Project--><g id="elem_Project"><rect codeLine="14" fill="#F1F1F1" height="129.4844" id="Project" rx="2.5" ry="2.5" style="stroke:#181818;stroke-width:0.5;" width="104" x="7" y="331"/><ellipse cx="31" cy="347" fill="#ADD1B2" rx="11" ry="11" style="stroke:#181818;stroke-width:1.0;"/><path d="M33.3438,342.6719 C32.4063,342.2344 31.8125,342.0938 30.9375,342.0938 C28.3125,342.0938 26.3125,344.1719 26.3125,346.8906 L26.3125,348.0156 C26.3125,350.5938 28.4219,352.4844 31.3125,352.4844 C32.5313,352.4844 33.6875,352.1875 34.4375,351.6406 C35.0156,351.2344 35.3438,350.7813 35.3438,350.3906 C35.3438,349.9375 34.9531,349.5469 34.4844,349.5469 C34.2656,349.5469 34.0625,349.625 33.875,349.8125 C33.4219,350.2969 33.4219,350.2969 33.2344,350.3906 C32.8125,350.6563 32.125,350.7813 31.3594,350.7813 C29.3125,350.7813 28.0156,349.6875 28.0156,347.9844 L28.0156,346.8906 C28.0156,345.1094 29.2656,343.7969 31,343.7969 C31.5781,343.7969 32.1875,343.9531 32.6563,344.2031 C33.1406,344.4844 33.3125,344.7031 33.4063,345.1094 C33.4688,345.5156 33.5,345.6406 33.6406,345.7656 C33.7813,345.9063 34.0156,346.0156 34.2344,346.0156 C34.5,346.0156 34.7656,345.875 34.9375,345.6563 C35.0469,345.5 35.0781,345.3125 35.0781,344.8906 L35.0781,343.4688 C35.0781,343.0313 35.0625,342.9063 34.9688,342.75 C34.8125,342.4844 34.5313,342.3438 34.2344,342.3438 C33.9375,342.3438 33.7344,342.4375 33.5156,342.75 L33.3438,342.6719 Z " fill="#000000"/><text fill="#000000" font-family="sans-serif" font-size="14" lengthAdjust="spacing" textLength="52" x="47" y="351.8467">Project</text><line style="stroke:#181818;stroke-width:0.5;" x1="8" x2="110" y1="363" y2="363"/><text fill="#000000" font-family="sans-serif" font-size="14" lengthAdjust="spacing" textLength="92" x="13" y="379.9951">DAY = Friday</text><text fill="#000000" font-family="sans-serif" font-size="14" lengthAdjust="spacing" textLength="77" x="13" y="396.292">statement</text><text fill="#000000" font-family="sans-serif" font-size="14" lengthAdjust="spacing" textLength="63" x="13" y="412.5889">proposal</text><text fill="#000000" font-family="sans-serif" font-size="14" lengthAdjust="spacing" textLength="37" x="13" y="428.8857">critic</text><text fill="#000000" font-family="sans-serif" font-size="14" lengthAdjust="spacing" textLength="29" x="13" y="445.1826">eval</text><line style="stroke:#181818;stroke-width:0.5;" x1="8" x2="110" y1="452.4844" y2="452.4844"/></g><!--MD5=[df38be88ccee13e832d6fafd6288a4ca]
class Test--><g id="elem_Test"><rect codeLine="22" fill="#F1F1F1" height="113.1875" id="Test" rx="2.5" ry="2.5" style="stroke:#181818;stroke-width:0.5;" width="116" x="146" y="339"/><ellipse cx="184.4" cy="355" fill="#ADD1B2" rx="11" ry="11" style="stroke:#181818;stroke-width:1.0;"/><path d="M186.7438,350.6719 C185.8063,350.2344 185.2125,350.0938 184.3375,350.0938 C181.7125,350.0938 179.7125,352.1719 179.7125,354.8906 L179.7125,356.0156 C179.7125,358.5938 181.8219,360.4844 184.7125,360.4844 C185.9313,360.4844 187.0875,360.1875 187.8375,359.6406 C188.4156,359.2344 188.7438,358.7813 188.7438,358.3906 C188.7438,357.9375 188.3531,357.5469 187.8844,357.5469 C187.6656,357.5469 187.4625,357.625 187.275,357.8125 C186.8219,358.2969 186.8219,358.2969 186.6344,358.3906 C186.2125,358.6563 185.525,358.7813 184.7594,358.7813 C182.7125,358.7813 181.4156,357.6875 181.4156,355.9844 L181.4156,354.8906 C181.4156,353.1094 182.6656,351.7969 184.4,351.7969 C184.9781,351.7969 185.5875,351.9531 186.0563,352.2031 C186.5406,352.4844 186.7125,352.7031 186.8063,353.1094 C186.8688,353.5156 186.9,353.6406 187.0406,353.7656 C187.1813,353.9063 187.4156,354.0156 187.6344,354.0156 C187.9,354.0156 188.1656,353.875 188.3375,353.6563 C188.4469,353.5 188.4781,353.3125 188.4781,352.8906 L188.4781,351.4688 C188.4781,351.0313 188.4625,350.9063 188.3688,350.75 C188.2125,350.4844 187.9313,350.3438 187.6344,350.3438 C187.3375,350.3438 187.1344,350.4375 186.9156,350.75 L186.7438,350.6719 Z " fill="#000000"/><text fill="#000000" font-family="sans-serif" font-size="14" lengthAdjust="spacing" textLength="32" x="203.6" y="359.8467">Test</text><line style="stroke:#181818;stroke-width:0.5;" x1="147" x2="261" y1="371" y2="371"/><text fill="#000000" font-family="sans-serif" font-size="14" lengthAdjust="spacing" textLength="104" x="152" y="387.9951">DAY = Monday</text><text fill="#000000" font-family="sans-serif" font-size="14" lengthAdjust="spacing" textLength="77" x="152" y="404.292">statement</text><text fill="#000000" font-family="sans-serif" font-size="14" lengthAdjust="spacing" textLength="63" x="152" y="420.5889">proposal</text><text fill="#000000" font-family="sans-serif" font-size="14" lengthAdjust="spacing" textLength="29" x="152" y="436.8857">eval</text><line style="stroke:#181818;stroke-width:0.5;" x1="147" x2="261" y1="444.1875" y2="444.1875"/></g><!--MD5=[dadda222b798b471c37e587ce383dfa1]
link Master to Teacher--><g id="link_Master_Teacher"><path codeLine="29" d="M291.5885,63.8111 C291.5885,63.8111 265.499,92.032 253.644,104.854 " fill="none" id="Master-Teacher" style="stroke:#181818;stroke-width:1.0;"/><polygon fill="#181818" points="244.561,114.678,253.6079,110.7852,247.9554,111.0067,247.7338,105.3542,244.561,114.678" style="stroke:#181818;stroke-width:1.0;"/><line style="stroke:#181818;stroke-width:1.0;" x1="247.9554" x2="253.387" y1="111.0067" y2="105.133"/><polygon fill="#181818" points="299.735,55,292.7247,56.69,291.5885,63.8111,298.5988,62.121,299.735,55" style="stroke:#181818;stroke-width:1.0;"/></g><!--MD5=[6fdaaf6cc35a29e59d72e32eef509d9b]
link Master to Pupil--><g id="link_Master_Pupil"><path codeLine="30" d="M357.5226,62.7253 C357.5226,62.7253 393.101,92.657 409.158,106.164 " fill="none" id="Master-Pupil" style="stroke:#181818;stroke-width:1.0;"/><polygon fill="#181818" points="419.278,114.678,414.9662,105.8232,415.4519,111.4591,409.816,111.9449,419.278,114.678" style="stroke:#181818;stroke-width:1.0;"/><line style="stroke:#181818;stroke-width:1.0;" x1="415.4519" x2="409.33" y1="111.4591" y2="106.3095"/><polygon fill="#181818" points="348.34,55,350.3562,61.9235,357.5226,62.7253,355.5064,55.8018,348.34,55" style="stroke:#181818;stroke-width:1.0;"/><text fill="#000000" font-family="sans-serif" font-size="13" lengthAdjust="spacing" textLength="7" x="404.6676" y="104.0045">*</text></g><!--MD5=[c7de8ab39ea5328f39e02832a7e86c6b]
link Pupil to Rol--><g id="link_Pupil_Rol"><path codeLine="31" d="M471.038,172.6646 C471.038,172.6646 490.883,199.636 499.925,211.924 " fill="none" id="Pupil-Rol" style="stroke:#181818;stroke-width:1.0;"/><polygon fill="#181818" points="507.839,222.678,505.7273,213.0582,504.8759,218.6506,499.2835,217.7992,507.839,222.678" style="stroke:#181818;stroke-width:1.0;"/><line style="stroke:#181818;stroke-width:1.0;" x1="504.8759" x2="500.134" y1="218.6506" y2="212.2075"/><polygon fill="#181818" points="463.925,163,464.2599,170.2033,471.038,172.6646,470.703,165.4613,463.925,163" style="stroke:#181818;stroke-width:1.0;"/></g><!--MD5=[58901ff9e0b537f997ebc3a216aac433]
reverse link Rol to Viewer--><g id="link_Rol_Viewer"><path codeLine="32" d="M530.927,291.414 C534.506,317.632 538.925,350.001 541.846,371.395 " fill="none" id="Rol-backto-Viewer" style="stroke:#181818;stroke-width:1.0;"/><polygon fill="none" points="523.939,291.976,528.169,271.213,537.81,290.083,523.939,291.976" style="stroke:#181818;stroke-width:1.0;"/></g><!--MD5=[fbaf460f64cc03b517aca40bf6a79fca]
reverse link Rol to Active--><g id="link_Rol_Active"><path codeLine="33" d="M567.623,281.582 C581.659,295.237 595.566,312.234 603,331 C624.116,384.303 639.178,415.522 603,460 C557.796,515.575 334.449,535.162 243.072,540.922 " fill="none" id="Rol-backto-Active" style="stroke:#181818;stroke-width:1.0;"/><polygon fill="none" points="562.86,286.713,552.642,268.151,572.206,276.289,562.86,286.713" style="stroke:#181818;stroke-width:1.0;"/></g><!--MD5=[5566704d6982c5e6b036a18788786eb2]
reverse link Active to Artist--><g id="link_Active_Artist"><path codeLine="34" d="M224.934,586.0936 C232.119,600.1958 239.907,615.4838 246.119,627.6784 " fill="none" id="Active-backto-Artist" style="stroke:#181818;stroke-width:1.0;"/><polygon fill="none" points="218.558,588.9987,215.717,568,231.033,582.6437,218.558,588.9987" style="stroke:#181818;stroke-width:1.0;"/></g><!--MD5=[90aac97753ae26822e4712b1768ab3ca]
reverse link Active to Critic--><g id="link_Active_Critic"><path codeLine="35" d="M183.453,586.0936 C176.402,600.1958 168.758,615.4838 162.661,627.6784 " fill="none" id="Active-backto-Critic" style="stroke:#181818;stroke-width:1.0;"/><polygon fill="none" points="177.294,582.7585,192.5,568,189.816,589.0195,177.294,582.7585" style="stroke:#181818;stroke-width:1.0;"/></g><!--MD5=[c6bbeea3644a801e4b32dfaae2369f1b]
link Master to Unit--><g id="link_Master_Unit"><path codeLine="36" d="M315.0737,66.9632 C315.0737,66.9632 299.825,132.688 285,163 C276.436,180.51 264.011,198.07 252.53,212.499 " fill="none" id="Master-Unit" style="stroke:#181818;stroke-width:1.0;"/><polygon fill="#181818" points="244.013,222.87,252.8158,218.4528,247.186,219.0058,246.6331,213.376,244.013,222.87" style="stroke:#181818;stroke-width:1.0;"/><line style="stroke:#181818;stroke-width:1.0;" x1="247.186" x2="252.2635" y1="219.0058" y2="212.8235"/><polygon fill="#181818" points="317.334,55.178,312.2755,60.3172,315.0737,66.9632,320.1323,61.824,317.334,55.178" style="stroke:#181818;stroke-width:1.0;"/><text fill="#000000" font-family="sans-serif" font-size="13" lengthAdjust="spacing" textLength="16" x="231.3476" y="211.8487">52</text></g><!--MD5=[ac6f011918842f5624acbe42137c691e]
link Unit to Exposition--><g id="link_Unit_Exposition"><path codeLine="37" d="M257.2023,279.3169 C257.2023,279.3169 313.831,331.167 339.333,354.518 " fill="none" id="Unit-Exposition" style="stroke:#181818;stroke-width:1.0;"/><polygon fill="#181818" points="349.125,363.484,345.1886,354.456,345.4374,360.1074,339.786,360.3562,349.125,363.484" style="stroke:#181818;stroke-width:1.0;"/><line style="stroke:#181818;stroke-width:1.0;" x1="345.4374" x2="339.5375" y1="360.1074" y2="354.7045"/><polygon fill="#181818" points="248.352,271.213,250.0759,278.215,257.2023,279.3169,255.4784,272.3148,248.352,271.213" style="stroke:#181818;stroke-width:1.0;"/><text fill="#000000" font-family="sans-serif" font-size="13" lengthAdjust="spacing" textLength="8" x="333.3133" y="352.3838">2</text></g><!--MD5=[92a82e14f22b4545a61f2c999a1c408b]
link Unit to Test--><g id="link_Unit_Test"><path codeLine="38" d="M218.4449,283.1132 C218.4449,283.1132 214.781,311.372 212.916,325.751 " fill="none" id="Unit-Test" style="stroke:#181818;stroke-width:1.0;"/><polygon fill="#181818" points="211.22,338.827,216.3448,330.4165,211.8634,333.8686,208.4113,329.3871,211.22,338.827" style="stroke:#181818;stroke-width:1.0;"/><line style="stroke:#181818;stroke-width:1.0;" x1="211.8634" x2="212.8925" y1="333.8686" y2="325.9345"/><polygon fill="#181818" points="219.989,271.213,215.2502,276.6484,218.4449,283.1132,223.1837,277.6778,219.989,271.213" style="stroke:#181818;stroke-width:1.0;"/><text fill="#000000" font-family="sans-serif" font-size="13" lengthAdjust="spacing" textLength="8" x="203.6124" y="328.0695">5</text></g><!--MD5=[bf3277697787156940a7737c9dd9db4a]
link Unit to Project--><g id="link_Unit_Project"><path codeLine="39" d="M187.1551,278.9339 C187.1551,278.9339 147.083,313.888 128,331 C125.699,333.063 123.36,335.17 121.001,337.302 " fill="none" id="Unit-Project" style="stroke:#181818;stroke-width:1.0;"/><polygon fill="#181818" points="111.238,346.164,120.5903,343.0761,114.94,342.8032,115.213,337.1529,111.238,346.164" style="stroke:#181818;stroke-width:1.0;"/><line style="stroke:#181818;stroke-width:1.0;" x1="114.94" x2="120.8635" y1="342.8032" y2="337.427"/><polygon fill="#181818" points="196.221,271.072,189.0674,271.981,187.1551,278.9339,194.3087,278.0249,196.221,271.072" style="stroke:#181818;stroke-width:1.0;"/></g><!--MD5=[df0ad8b5e97d7786bacae091f8b5a3ef]
link Rol to Exposition--><g id="link_Rol_Exposition"><path codeLine="40" d="M502.5,271.213 C479.373,295.073 443.096,332.499 416.575,359.861 " fill="none" id="Rol-to-Exposition" style="stroke:#181818;stroke-width:1.0;"/><polygon fill="#181818" points="413.064,363.484,422.2003,359.8059,416.5441,359.8939,416.4561,354.2377,413.064,363.484" style="stroke:#181818;stroke-width:1.0;"/></g><!--MD5=[85efc5e4c578b08b8b00ac40095ffe9d]
link Teacher to Unit--><g id="link_Teacher_Unit"><path codeLine="41" d="M223,163 C223,179.003 223,200.446 223,217.528 " fill="none" id="Teacher-to-Unit" style="stroke:#181818;stroke-width:1.0;"/><polygon fill="#181818" points="223,222.678,227,213.678,223,217.678,219,213.678,223,222.678" style="stroke:#181818;stroke-width:1.0;"/></g><!--MD5=[3e3249ebaaca89fceb8d2df3810677b6]
link Project to Active--><g id="link_Project_Active"><path codeLine="42" d="M111.348,449.39 C133.707,471.98 158.843,497.376 177.287,516.011 " fill="none" id="Project-to-Active" style="stroke:#181818;stroke-width:1.0;"/><polygon fill="#181818" points="180.884,519.645,177.3968,510.4342,177.3671,516.0909,171.7103,516.0612,180.884,519.645" style="stroke:#181818;stroke-width:1.0;"/><text fill="#000000" font-family="sans-serif" font-size="13" lengthAdjust="spacing" textLength="51" x="118.0339" y="508.9634">5*(2+1)</text></g><!--MD5=[6a826933ffae559d4a73d35813ae3d98]
link Test to Active--><g id="link_Test_Active"><path codeLine="43" d="M204,452.303 C204,473.555 204,496.886 204,514.563 " fill="none" id="Test-to-Active" style="stroke:#181818;stroke-width:1.0;"/><polygon fill="#181818" points="204,519.859,208,510.859,204,514.859,200,510.859,204,519.859" style="stroke:#181818;stroke-width:1.0;"/><text fill="#000000" font-family="sans-serif" font-size="13" lengthAdjust="spacing" textLength="51" x="210.5344" y="508.8349">5*(2+1)</text></g><!--MD5=[70bef56c3250ee0cd614cf51806073e0]
@startuml
class Master
class Teacher
class Pupil
class Rol
class Viewer
class Active
class Critic
class Artist
class Unit
class Exposition{
DAY = Monday | Friday
}

class Project {
DAY = Friday
statement
proposal
critic
eval
}

class Test {
DAY = Monday
statement
proposal
eval
}

Master *-down-> Teacher
Master *-down-> "*" Pupil
Pupil *- -> Rol
Rol <|-down- Viewer
Rol <|-down- Active
Active <|-down- Artist
Active <|-down- Critic 
Master *-down-> "52" Unit
Unit *-down-> "2" Exposition 
Unit *-down-> "5" Test
Unit *-down-> Project
Rol - -> Exposition
Teacher - -> Unit
Project - -> "5*(2+1)" Active
Test - -> "5*(2+1)" Active
@enduml

PlantUML version 1.2022.7beta2(Unknown compile time)
(GPL source distribution)
Java Runtime: Java(TM) SE Runtime Environment
JVM: Java HotSpot(TM) 64-Bit Server VM
Default Encoding: UTF-8
Language: en
Country: US
--></g></svg>